<svg xmlns="http://www.w3.org/2000/svg" xmlns:xlink="http://www.w3.org/1999/xlink" width="811" height="602" viewBox="0 0 811 602">
  <defs>
    <clipPath id="clip-path">
      <rect id="Rectangle_1833" data-name="Rectangle 1833" width="811" height="602" transform="translate(24.724 24.034)" fill="#fff" stroke="#707070" stroke-width="1"/>
    </clipPath>
    <clipPath id="clip-path-2">
      <rect id="Rectangle_1192" data-name="Rectangle 1192" width="909.097" height="217.495" rx="15" transform="translate(0 0)" fill="#2b2b4a" stroke="#707070" stroke-width="1"/>
    </clipPath>
    <clipPath id="clip-path-3">
      <path id="Path_4479" data-name="Path 4479" d="M0,0H910.907V217.942H0Z" fill="#1a386d"/>
    </clipPath>
  </defs>
  <g id="dashboard-ui" transform="translate(-24.724 -24.034)" clip-path="url(#clip-path)">
    <g id="Group_7246" data-name="Group 7246" transform="translate(52.924 53.295)">
      <rect id="Rectangle_1191" data-name="Rectangle 1191" width="910.661" height="543.137" rx="15" transform="translate(0 0.195)" fill="#1a386d"/>
      <g id="Mask_Group_1" data-name="Mask Group 1" transform="translate(-0.2 0)" clip-path="url(#clip-path-2)">
        <g id="flights_nc_4" transform="translate(-0.782 -0.724)" clip-path="url(#clip-path-3)">
          <path id="Path_4410" data-name="Path 4410" d="M914.437,0H32.2V180.767H914.437Z" transform="translate(-3.556)" fill="#365894"/>
          <path id="Path_4412" data-name="Path 4412" d="M246.092,151.113A50.812,50.812,0,1,0,195.28,100.3,50.811,50.811,0,0,0,246.092,151.113Z" transform="translate(-21.567 -5.466)" fill="#5f7db3"/>
          <path id="Path_4411" data-name="Path 4411" d="M181.824,141.737a22.6,22.6,0,1,0-22.6-22.6A22.6,22.6,0,0,0,181.824,141.737Z" transform="translate(-17.585 -10.661)" fill="#1a386d"/>
          <path id="Path_4413" data-name="Path 4413" d="M318.322,128.444A23.342,23.342,0,1,0,294.98,105.1,23.342,23.342,0,0,0,318.322,128.444Z" transform="translate(-32.578 -9.03)" fill="#1a386d"/>
          <path id="Path_4414" data-name="Path 4414" d="M355.059,122.959A17.079,17.079,0,1,0,337.98,105.88,17.079,17.079,0,0,0,355.059,122.959Z" transform="translate(-37.327 -9.807)" fill="#1a386d"/>
          <path id="Path_4415" data-name="Path 4415" d="M392.677,117.574A22.577,22.577,0,1,0,370.1,95,22.577,22.577,0,0,0,392.677,117.574Z" transform="translate(-40.875 -7.998)" fill="#1a386d"/>
          <path id="Path_4416" data-name="Path 4416" d="M421.791,101.273a10.7,10.7,0,1,0-10.7-10.7A10.7,10.7,0,0,0,421.791,101.273Z" transform="translate(-45.402 -8.821)" fill="#1a386d"/>
          <path id="Path_4417" data-name="Path 4417" d="M440.646,114.793A14.446,14.446,0,1,0,426.2,100.346,14.446,14.446,0,0,0,440.646,114.793Z" transform="translate(-47.07 -9.487)" fill="#1a386d"/>
          <path id="Path_4418" data-name="Path 4418" d="M461.421,118.093a10.781,10.781,0,1,0-10.781-10.781A10.781,10.781,0,0,0,461.421,118.093Z" transform="translate(-49.77 -10.661)" fill="#1a386d"/>
          <path id="Path_4419" data-name="Path 4419" d="M490.775,124.589a20.255,20.255,0,1,0-20.255-20.255A20.255,20.255,0,0,0,490.775,124.589Zm60.676-17.862A22.648,22.648,0,1,0,528.8,84.078,22.648,22.648,0,0,0,551.452,106.726Z" transform="translate(-51.965 -6.784)" fill="#1a386d"/>
          <path id="Path_4420" data-name="Path 4420" d="M587.3,84.024a25.8,25.8,0,1,0-25.8-25.8A25.8,25.8,0,0,0,587.3,84.024Z" transform="translate(-62.013 -3.582)" fill="#1a386d"/>
          <path id="Path_4421" data-name="Path 4421" d="M620.348,63.885a8.638,8.638,0,1,0-8.638-8.638,8.638,8.638,0,0,0,8.638,8.638Z" transform="translate(-67.558 -5.148)" fill="#1a386d"/>
          <path id="Path_4422" data-name="Path 4422" d="M639.347,64.364A11.947,11.947,0,1,0,627.4,52.417,11.947,11.947,0,0,0,639.347,64.364ZM675.107,76a14.758,14.758,0,1,0-14.758-14.758A14.758,14.758,0,0,0,675.107,76Z" transform="translate(-69.291 -4.47)" fill="#1a386d"/>
          <path id="Path_4423" data-name="Path 4423" d="M709.148,82.156A14.758,14.758,0,1,0,694.39,67.4a14.758,14.758,0,0,0,14.758,14.758Z" transform="translate(-76.69 -5.814)" fill="#1a386d"/>
          <path id="Path_4424" data-name="Path 4424" d="M745.924,94.849a26.7,26.7,0,1,0-26.7-26.7A26.7,26.7,0,0,0,745.924,94.849Z" transform="translate(-79.432 -4.577)" fill="#1a386d"/>
          <path id="Path_4425" data-name="Path 4425" d="M774.036,96.453a8.566,8.566,0,1,0-8.566-8.566A8.566,8.566,0,0,0,774.036,96.453Z" transform="translate(-84.54 -8.76)" fill="#1a386d"/>
          <path id="Path_4426" data-name="Path 4426" d="M787.581,109.222A10.461,10.461,0,1,0,777.12,98.761,10.461,10.461,0,0,0,787.581,109.222Z" transform="translate(-85.827 -9.752)" fill="#1a386d"/>
          <path id="Path_4427" data-name="Path 4427" d="M183.26,89.986a25.71,25.71,0,0,1,19.882,9.385M305.9,76.829a23.922,23.922,0,0,1,22.239,15.3M290.514,76.322A51.024,51.024,0,0,1,294.3,86.445m94.373-10.71a24.477,24.477,0,0,1,3.825,5.426m-43.4,8.931a22.546,22.546,0,0,1,1.165-6.227m56.122-2.847a11.607,11.607,0,0,1,1.352,5.453m19.837,3.211a15.619,15.619,0,0,1,.97,4.163m10.942,1.583a23.273,23.273,0,0,1,2.669-5.275m76.689-31.277a28,28,0,0,1,9.2,1.45M566.152,48.87a9.343,9.343,0,0,1,6.912-3.256m4.928,6.992a12.4,12.4,0,0,1,4.955-10.1m53.427,7.73A15.2,15.2,0,0,1,641.231,61.4m18.263,6.858a27.83,27.83,0,0,1,7.294-18.476m47.084,18.476a27.153,27.153,0,0,1-2.215,10.773m7.072,4.6a9.916,9.916,0,0,1-.987,4.448" transform="translate(-20.24 -4.695)" fill="none" stroke="#365894" stroke-linecap="round" stroke-linejoin="round" stroke-width="1"/>
          <path id="Path_4428" data-name="Path 4428" d="M240.78,92.215l63.986,17.507,6.965-6.956-2.98-10.55,25.192,11.146L283.2,120.992,326.649,149.9h21.874l-2.784-11-11.182-5.7-4.724-7.028,35.8,15.247-1.85-7.028-4.2-.925-5.613-7.161,33.145,18.165,21.616,5.435-92.434,28.172-11.146-28.893-49.584-12.89-11.831,3.113,20.7-32.754-7.508,3.87-3.861-9.234H248.51Zm361.8-44.985L681.645,77.3l122.385,31.09-11.19,19.392L744.8,112.648l-73.727-8.887L676.93,82.51l-52.849-8.335,4.181-12.187-15.034-1.272L602.581,47.23Z" transform="translate(-26.592 -5.216)" fill="#112f65"/>
          <path id="Path_4429" data-name="Path 4429" d="M185.81,122.9l48.9-26.162,7.73,9.074h4.555l3.861,9.234,7.508-3.87-20.7,32.754,11.831-3.113,49.584,12.89L310.223,182.6,237.44,199.884,185.81,122.9ZM302.68,96.74l-21.518,12.712,17.533,4.795,6.965-6.956Zm-25.548,28.777,50.74-17.631L384.831,88.2l30.53,22.337-12.7,3.3,66.619,19.321-94.88,12.2-26.5-14.527,5.613,7.161,4.2.925,1.85,7.028-35.8-15.247,4.724,7.028,11.182,5.7,2.784,11H320.578l-43.446-28.911Z" transform="translate(-20.521 -9.741)" fill="#2b4b84"/>
          <path id="Path_4430" data-name="Path 4430" d="M409.54,88.2l30.53,22.337-12.7,3.3,75.666,22.906L464.4,117.173l12.231-5.106L429.279,95.61Z" transform="translate(-45.231 -9.741)" fill="#112f65"/>
          <path id="Path_4431" data-name="Path 4431" d="M471.21,112.648,628.03,47.23l10.648,13.486,15.034,1.272-4.181,12.187,52.849,8.335-5.853,21.252,73.727,8.887,48.036,15.131-6.476,26.313-92.1-12.116H544.278l65.409-28.19-99.844,18.432-38.633-19.57Z" transform="translate(-52.041 -5.216)" fill="#2b4b84"/>
          <path id="Path_4432" data-name="Path 4432" d="M871.318.005,857.534,54.049l-13.343-25.2L825.865,95.44,807.532,63.567,796.341,89.008,783.7,6.76,768.462,114.4,749.186,51.122,733,117.839,715.6,89.124l-15.123,43.971c-15.122-2.669-30.245,1.041-48.276,1.041-18.271,0-36.961-6.174-48.1-5.231s-26.464,6.227-51.407,3.674-56.932,1.557-56.932,1.557l59.511-24.481c-45.287,5.987-89.152,8.22-89.152,8.22-22.239,0-47.654,8.157-47.654,8.157-47.654,2.517-64.671,9.625-64.671,9.625l6.645,3.638,9.34,2.348-20.976,5.248-21.278,2.758c-8.976,1.512-23.369,8.344-33.083,13.441-1.094-2.073-2.126-2.366-2.126-2.366a6.781,6.781,0,0,0-1.281,2.669,13.647,13.647,0,0,0-2.295-5.088,11.039,11.039,0,0,0-3.193,5.515,7.771,7.771,0,0,0-1.281-3.62,12.537,12.537,0,0,0-3.79,4.136,9.551,9.551,0,0,0-2.544-5.738c-2.517,1.779-2.526,3.878-2.509,4.261a8.614,8.614,0,0,0-1.61-4.875c-3.558,2.286-5.026,8.985-5.026,8.985a7.27,7.27,0,0,0-1.067-4.261c-3.558.765-4.51,2.864-4.51,2.864-1.913-6.556-5.907-8.166-5.907-8.166-1.708,6.031.516,9.963.516,9.963a13.083,13.083,0,0,0-6.12,1.379,7.947,7.947,0,0,0,1.308-5.337,6.006,6.006,0,0,0-3.692,2.526,8.637,8.637,0,0,0-.329-5.693,8.46,8.46,0,0,0-3.843,3.1c.89-3.745-.543-8.584-.543-8.584-3.025,2.037-3.994,6.939-3.994,6.939a2.663,2.663,0,0,0-1.067-1.459,4.047,4.047,0,0,0-1.254,3.407c-10.381-8.611-16.519-11.022-19.268-11.7a11.558,11.558,0,0,0,2.028-5.24,7.006,7.006,0,0,0-4.8,1.539,11.133,11.133,0,0,0,0-8.006c-2.437.489-4.8,4.8-4.8,4.8a13.586,13.586,0,0,0-2.6-9.038c-6.28,4.5-8.9,9.643-9.883,12.587L147,54.049l-24.24,47.191L109.033,35.288l-8.575,59.387L70.853,0H66.139L58.417,24.667,49.04-.007H0V217.941H910.907V.005ZM690.35,162.673c-22.39-5.444-62.99,1.779-62.99,1.779a119.1,119.1,0,0,0-43.588,4.065,41.694,41.694,0,0,0-22.239-8.5c53.729-20.522,115.82-18.423,135.613-17.088l-6.8,19.748Z" transform="translate(0 0.001)" fill="#1a386d"/>
          <path id="Path_4433" data-name="Path 4433" d="M339.209,133.877,325.67,146.553l14.98-10.532Zm24.134.133-7.117,7.116,1.45.614,7.712-5.124-2.046-2.606ZM418.1,117.02l-17.827,16.991,17.827-8.9-1.61-4.759,4.412-2.482ZM332.351,176.6l1.5-8.513,1.761,8.513,1.69-13.761,2.286,10.63,1.957-10.9,2.411,9.4m6.921-4.448.712-4.563.979,4.563Zm6.458-2.82.907-4.893,2.153,5.515,1.05-5.142,2.09,4.519m14.26-3.683.311-2.393a.348.348,0,0,1,.122-.194.352.352,0,0,1,.432,0,.348.348,0,0,1,.122.194l.471,2.411,2.749-.454.48-3.309.729,3.745,3.6-.89.587-5.266.534,4.946.729-.391.187-2.437a.178.178,0,0,1,.347,0l.445,2.669,1.317-.685.187-2.286.685,2.286m335.141,17.676s-.169-4.91-4.448-11.377c0,0-1.779,2.589-1.779,7.588a13.746,13.746,0,0,0-4.91-4.056s-1.379,1.637,1.468,8.62Zm-19.214.427a24.031,24.031,0,0,0-.427-5.729,6.143,6.143,0,0,0-3.8,3.371,10.72,10.72,0,0,0,0-6.77s-4.563,3.016-5.426,7.579a11.258,11.258,0,0,0-2.669-4.181,12.452,12.452,0,0,0-1.637,8.664C694.756,184.831,707.762,177.074,707.762,177.074Zm-26.7,4.51a17.609,17.609,0,0,0,.258-5.631,7.218,7.218,0,0,0-2.6,1.655,17.449,17.449,0,0,0-.756-6.12,7.481,7.481,0,0,0-4.643,3.274s.507-.89-.97-4.136a8,8,0,0,0-3.06,6.8Zm-15.87-3.976a13.175,13.175,0,0,0-1.085-7.517,5.957,5.957,0,0,0-2.518,3.06,8.372,8.372,0,0,0-1.076-3.887,8.5,8.5,0,0,0-2.491,5.5s.187-1.112-2.962-2.962a5.271,5.271,0,0,0-.169,3.113,4.659,4.659,0,0,0-3.1-1.005,11.713,11.713,0,0,0,1.405,5.4Z" transform="translate(-35.968 -12.924)" fill="#112f65"/>
          <path id="Path_4434" data-name="Path 4434" d="M723.384,191.108l-1.049-1.161h0a27.479,27.479,0,0,0,3.379-4,42.772,42.772,0,0,0,5.865-11.832l1.491.474a44.324,44.324,0,0,1-6.117,12.315A28.249,28.249,0,0,1,723.384,191.108Z" transform="translate(-80.003 -19.332)" fill="#2b2b4a"/>
          <path id="Path_4435" data-name="Path 4435" d="M727.642,175.095a1.13,1.13,0,1,0-1.131-1.13A1.13,1.13,0,0,0,727.642,175.095Zm-44.522-1.325a1.13,1.13,0,1,0-1.131-1.13A1.13,1.13,0,0,0,683.12,173.769Z" transform="translate(-75.321 -18.942)" fill="#2b2b4a"/>
          <path id="Path_4436" data-name="Path 4436" d="M725.856,178.713l3.692-1.21m-5.925,5.569-1.69-3.478m-36.943,4.492a40.155,40.155,0,0,0-1.913-11.306m1.334,4.136,2.09-2.411m-1.841,5.3-3.051-2.171" transform="translate(-75.278 -19.082)" fill="none" stroke="#2b2b4a" stroke-miterlimit="10" stroke-width="1"/>
          <path id="Path_4437" data-name="Path 4437" d="M764.058,147.576l-2.277-7.392-2.2,9.367-2.268-7.535-1.681,7.828-7.188.311-3.291-13.183-2.5,13.539-1.779-8.9-1.423,8.9-4.706-.845-2.268-10.408-1.423,5.915-.765-7.9a.354.354,0,0,0-.331-.326.359.359,0,0,0-.371.282l-1.921,8.664-.89-7.428-3.06,11.208-5.667-1.628-1.7-14.34L714.4,147.941v7.17l43.784-1.29,6.645-3.274-.774-2.971Zm-82.364-2.5-1.343-9.456L678,145.726l-7.481-1.112-1.93-8.5a.356.356,0,0,0-.694,0l-1.913,9.154L661,144.285l-.721-13.815-1.69,15.247-.969-9.6a.285.285,0,0,0-.569,0L655.914,146.5l-4.448-.525-1.779-8.9-.774,10.257h-6.467l-1.112-7.864-1.343,8.638-1.325-4.982a.436.436,0,0,0-.845,0l-1.192,5.177-2.891-11.564-2.01,11.564H626.6l-.721-9.856-1.058,10.283-1.779-1.059-.347-6.351a.234.234,0,0,0-.227-.186.231.231,0,0,0-.227.186l-1.548,7.41L619.3,136.1l-2.615,11.8-4.074-1.148-.952-8.976-1.663,6.512-1.45-9.136-1.557,8.469-1.4-6.076-2.562,9.785-3.843-.391-1.068-5.684a.56.56,0,0,0-1.094-.053l-1.779,6.022-11.564-.391-1.112-5.96-2.01,6.351-.863-4.875-1.281,4.626h-3.523l-.836-4.065-.667,4.563H571l-.792-3.941-1.005,4.448,73.246,5.569,40.306-1.254-1.059-7.214Z" transform="translate(-62.864 -14.409)" fill="#112f65"/>
          <path id="Path_4438" data-name="Path 4438" d="M572.891,140.028v7.054m1.886-22.684v7.054m-2.295-5.675v7.054m4.528-8.433v7.054m4.83-6.627v3.282m1.984-4.528v3.282m2.544-2.731v3.282m-20.718-1.361v7.054m-1.895-6.067v7.054m-6.8-8.691v7.054m-1.921-5.417v7.054m-2.411-7.392v7.054m-8.362-7.294v7.054m-2.82-5.586v7.054m-2.6-6.289v7.054m-2.962-7.054v7.054m-2.837-8.709v7.054m-1.833-5.4v7.054m-2.26-7.819v7.054m-8.94-6.52v7.054m-1.423-5.524v7.054m-1.761-8.113v7.054m-2.242-5.764v7.054m-2.188-6.165v7.054m-3.042-8.353v7.054m-2.348-7.935v7.054m-4.288-5.426v7.054m-1.824-7.623v7.054m-2.331-5.6v7.054m-2.624-7.944v7.054m-4.359-5.391v7.054m-2.544-6.636V139.7m-1.815-7.712v7.054m-2.081-5.7v7.054m-3.852-7.561v7.054m-56.718,1.183v7.054m-2.215-5.7v7.045m-4.732-6.174v7.054m-2.74-7.419v7.045m-2.055-5.382v7.054m-2.58-7.419v7.054m-2.153-5.889v7.054" transform="translate(-45.071 -13.648)" fill="#112f65" stroke="#112f65" stroke-linecap="round" stroke-miterlimit="10" stroke-width="1"/>
          <path id="Path_4439" data-name="Path 4439" d="M526.271,127.329l-1.29,5.693,2.891.231Zm23.173-1.637-1.352,5.337h3.016Zm21.447-2.882-1.165,6.04,2.82-.24Zm-93.235,14.384-.614-4.172-.676,5.4Zm-4.857.89-1.477-4.412-1.165,5.942-1.726.187-.916-3.9-1.023,4.661h-2.117l-.738-6-.614,6.5h-1.841l-1.228-3.532-.552,3.532-2.713.374-1.014-3.354-.489,3.594-9.492.925-.863-4.181-.863,4.483h-2.7l-1.041-4.483-1.05,5.07-2.028-.463-.8-3.834-.792,4.3H432.2l-1.317-3.692-1.112,4.216-1.414-2.766-.427,2.766.551,1.841h27.194l18.414-3.567-1.29-4.208Z" transform="translate(-47.262 -13.563)" fill="#112f65"/>
          <path id="Path_4440" data-name="Path 4440" d="M73.81,151.722V25.77m0,40.644-12.009-12M73.81,92.825,91.3,75.336M73.81,123.8,53.59,103.58m61.833-37.166V140.1m0-40.608,7.828-7.819M115.423,123.8l-7.793-7.793m45.314-48.739V150.13m8.833-66.139-8.833,8.833m0,37.023L134.593,111.5m587.882-2.34v55.482m8.335-41.907-7.721,7.721m-12.276,11.8,11.662,11.671m32.869-76.742v70.907m7.383-53.943-6.912,6.9m-10.479,21.679,10.008,10m34.764-93.875V132.73m5.24-62.634-5.24,5.239m-9.287,30.485,9.287,9.287m23.68-33.136v57.759m9.065-44.247-9.065,9.065m-9.065,13.165,9.065,9.065m37.637-75.986v73.139m8.9-50.527-8.735,8.735m-10.479,8.4,10.319,10.31" transform="translate(-5.919 -2.846)" fill="none" stroke="#365894" stroke-linecap="round" stroke-linejoin="round" stroke-width="1"/>
          <path id="Path_4441" data-name="Path 4441" d="M268.118,156.445a1.388,1.388,0,1,0-1.388-1.388A1.388,1.388,0,0,0,268.118,156.445Z" transform="translate(-29.458 -16.972)" fill="#1a386d"/>
          <path id="Path_4442" data-name="Path 4442" d="M254.1,172.025s3.887-11.4,12.623-16.795m-5.933,5.213-.881-4.19m-2.375,8.727h3.923M290.919,183.8s.694-9.527,5.337-15.034" transform="translate(-28.063 -17.144)" fill="none" stroke="#1a386d" stroke-miterlimit="10" stroke-width="1"/>
          <path id="Path_4443" data-name="Path 4443" d="M269,170.945a1.388,1.388,0,1,0-1.389-1.388A1.388,1.388,0,0,0,269,170.945Zm28.742.721a1.388,1.388,0,1,0-1.389-1.388,1.388,1.388,0,0,0,1.389,1.388Z" transform="translate(-29.555 -18.573)" fill="#1a386d"/>
          <path id="Path_4444" data-name="Path 4444" d="M269.311,170.94s2.375,7.7,1.646,12.276m23.973-8-2.046-4.279m.64,8.4,3.46-.827m-29.436-3.585,2.891.578m-.231-2.224,1.717-1.726" transform="translate(-29.549 -18.879)" fill="#2b2b4a" stroke="#1a386d" stroke-miterlimit="10" stroke-width="1"/>
          <g id="Group_3904" data-name="Group 3904" transform="translate(401.635 23.125)">
            <path id="Path_4445" data-name="Path 4445" d="M474.36,25.5l-2.09.53a1.41,1.41,0,0,0-.909,2L477.8,40.86l12.284-3.12-13.829-11.8a2.151,2.151,0,0,0-1.893-.439Z" transform="translate(-458.395 -25.439)" fill="#a5c5ff"/>
            <path id="Path_4446" data-name="Path 4446" d="M477.8,40.689,471.362,27.86a1.406,1.406,0,0,1,.909-2l.379-.091,7.225,14.389-2.075.53Z" transform="translate(-458.396 -25.269)" fill="#ff6700"/>
            <path id="Path_4447" data-name="Path 4447" d="M463.336,41.888,506.462,31.16a3.552,3.552,0,1,1,1.714,6.893L465.051,48.782l-1.715-6.893Z" transform="translate(-462.448 -22.549)" fill="#ff6700"/>
            <path id="Path_4448" data-name="Path 4448" d="M464.325,34.44a2.043,2.043,0,0,0-1.515,2.484l1.651,6.695,7.286-1.818L466.4,35.137a2.045,2.045,0,0,0-2.075-.7Z" transform="translate(-462.75 -20.837)" fill="#ff6700"/>
            <path id="Path_4449" data-name="Path 4449" d="M464.7,47.718l43.183-10.739a3.534,3.534,0,0,0,2.681-3.469L464.09,45.067Z" transform="translate(-462.06 -21.285)" fill="#a5c5ff"/>
            <path id="Path_4450" data-name="Path 4450" d="M480.286,56.176l-2.09.515a1.41,1.41,0,0,1-1.757-1.333L476,41.029,488.3,38,481.68,54.919a2.12,2.12,0,0,1-1.393,1.257Z" transform="translate(-455.93 -18.974)" fill="#a5c5ff"/>
            <path id="Path_4451" data-name="Path 4451" d="M476,40.175l.379,14.344a1.409,1.409,0,0,0,1.757,1.333l.379-.091-.424-16.1Z" transform="translate(-455.93 -18.12)" fill="#ff6700"/>
          </g>
          <path id="Path_4477" data-name="Path 4477" d="M763.69,168.979a1.13,1.13,0,1,0-1.131-1.13,1.13,1.13,0,0,0,1.131,1.13Z" transform="translate(-84.219 -18.413)" fill="#2b2b4a"/>
          <path id="Path_4478" data-name="Path 4478" d="M755.208,182.233s.053-7.579,7.659-14.233m-4.964,5.578,3.469-1.023m-4.626,3.327-1.637-2.642" transform="translate(-83.396 -18.554)" fill="none" stroke="#2b2b4a" stroke-miterlimit="10" stroke-width="1"/>
          <g id="Group_7265" data-name="Group 7265" transform="translate(-2446.466 -2472.341)">
            <path id="Path_7459" data-name="Path 7459" d="M706.75,169.54h43.137" transform="translate(2368.237 2453.428)" fill="none" stroke="#aecbfa" stroke-miterlimit="10" stroke-width="1"/>
            <path id="Path_7460" data-name="Path 7460" d="M731.366,141.564a6.284,6.284,0,0,1-.187-3.564" transform="translate(2365.595 2456.863)" fill="none" stroke="#f4afb6" stroke-linecap="round" stroke-miterlimit="10" stroke-width="1.98"/>
            <path id="Path_7461" data-name="Path 7461" d="M731.858,140.79a5.1,5.1,0,0,0,1.782,3.217,4.2,4.2,0,0,0,3.368.891l.428,2.843a7.129,7.129,0,0,1-5.587-1.47,7.922,7.922,0,0,1-2.816-5.035,3.5,3.5,0,0,1-.053-.428" transform="translate(2365.816 2456.559)" fill="#ff6700"/>
            <path id="Path_7462" data-name="Path 7462" d="M740.455,143.8h-2.9v2.3h2.9Z" transform="translate(2364.882 2456.231)" fill="#f4afb6"/>
            <path id="Path_7463" data-name="Path 7463" d="M739.412,144.2a3.092,3.092,0,1,0-3.093-3.092,3.092,3.092,0,0,0,3.093,3.092Z" transform="translate(2365.017 2456.861)" fill="#252525"/>
            <path id="Path_7464" data-name="Path 7464" d="M738.323,145.489h1.39a3.007,3.007,0,0,1,2.548,2.406l-.16,7.307H732.79l.98-9.8" transform="translate(2365.401 2456.057)" fill="#ff6700"/>
            <path id="Path_7465" data-name="Path 7465" d="M733.753,156.4l-2.673,12.154h3.653l2.673-8.385.588,8.385H741.7s.107-4.634.241-12.154Z" transform="translate(2365.587 2454.859)" fill="#1511b1"/>
            <path id="Path_7466" data-name="Path 7466" d="M713.277,108.73H709V115.1h4.277Zm8.4,12.8a37.186,37.186,0,0,1,8.474,10.693s.775,1.862-.294,2.941c0,0-1.265,1.194-2.156,0a2.458,2.458,0,0,1,.151-2.673,44.114,44.114,0,0,0-8.02-7.931l1.844-3.03Z" transform="translate(2367.992 2460.051)" fill="#f4afb6"/>
            <path id="Path_7467" data-name="Path 7467" d="M715.928,109.569l4.34,1.346c4.7,1.444,6.086-2.5,6.086-2.5,11.023,3.395,11.762-4.767,11.762-4.767-2.317,3.564-6.1,1.506-10.88,0s-5.248,1.657-5.248,1.657a14.429,14.429,0,0,1-4.455-2.361c-1.417-1.274-2.816-2.753-4.66-3.386a5.407,5.407,0,0,0-5.551,1.2,5.177,5.177,0,0,0-1.3,4.455,6.581,6.581,0,0,0,2.6,4.455c3.226,2.352,7.307-.107,7.307-.107Z" transform="translate(2368.326 2461.084)" fill="#ff6700"/>
            <path id="Path_7468" data-name="Path 7468" d="M716.834,143.3a74.625,74.625,0,0,0,8.759,22.749h-7.227a46.682,46.682,0,0,1-7.9-14.15s1.5,12.012,2.228,14.15h-6.531A51.535,51.535,0,0,1,703.4,133.71h12.76v.971a36.536,36.536,0,0,0,.677,8.617Z" transform="translate(2368.757 2457.331)" fill="#ff6700"/>
            <path id="Path_7469" data-name="Path 7469" d="M715.535,133.4H698.311l3.5-16.4-5.213-5.2,3.912-3.912,5.542,4.678s9.071,1.836,14.257,8.911a20.75,20.75,0,0,1-4.242,5.89Z" transform="translate(2369.343 2460.143)" fill="#1511b1"/>
            <path id="Path_7470" data-name="Path 7470" d="M717.021,113.319l-9.988-.071a1.675,1.675,0,0,0-1.688,1.663l-.1,14.2a1.675,1.675,0,0,0,1.664,1.687l9.988.071a1.675,1.675,0,0,0,1.688-1.663l.1-14.2a1.675,1.675,0,0,0-1.664-1.687Z" transform="translate(2368.401 2459.559)" fill="#4b4d75"/>
            <path id="Path_7471" data-name="Path 7471" d="M710.178,130.794h-3.261a1.668,1.668,0,0,1-1.666-1.684l.1-14.2a1.682,1.682,0,0,1,1.693-1.666h1.488a1.666,1.666,0,0,1,1.657,1.684Z" transform="translate(2368.401 2459.56)" fill="#343757"/>
            <path id="Path_7472" data-name="Path 7472" d="M698.849,105.99,682.168,90.583a.561.561,0,0,0-.74,0,.552.552,0,0,0-.054.748l1.72,2.067v.552a2.572,2.572,0,0,0,.7,1.782L696.1,108.761Z" transform="translate(2371.014 2462.043)" fill="#f4afb6"/>
            <path id="Path_7473" data-name="Path 7473" d="M712.436,167.046c-1.319-5.739-3.288-16.4-1.782-24.166l1.087.214c-.633,3.244-1.221,10.773,1.782,23.952h-1.087Z" transform="translate(2367.871 2456.332)" fill="#ffd1b3"/>
            <path id="Path_7474" data-name="Path 7474" d="M709.531,136.852a3.021,3.021,0,0,1,0-6.033h9.445a3.021,3.021,0,1,1,0,6.033h-9.445Z" transform="translate(2368.246 2457.646)" fill="#ffd1b3"/>
            <path id="Path_7475" data-name="Path 7475" d="M709.512,136.854a3.012,3.012,0,1,0-3.012-3.012,3.012,3.012,0,0,0,3.012,3.012Z" transform="translate(2368.264 2457.644)" fill="#fff0e6"/>
            <path id="Path_7476" data-name="Path 7476" d="M715.074,113.27h4.455a1.683,1.683,0,0,1,1.666,1.693l-.053,4.91a1.676,1.676,0,0,1-1.684,1.666H714.94" transform="translate(2367.345 2459.557)" fill="#4b4d75"/>
            <path id="Path_7477" data-name="Path 7477" d="M719.182,122.314h-6.238a2.744,2.744,0,0,1-2.745-2.745V115.88" transform="translate(2367.862 2459.272)" fill="none" stroke="#343757" stroke-miterlimit="10" stroke-width="1.24"/>
            <path id="Path_7478" data-name="Path 7478" d="M709.69,135.571a1.55,1.55,0,1,0-1.55-1.55A1.55,1.55,0,0,0,709.69,135.571Z" transform="translate(2368.086 2457.466)" fill="#ff6700"/>
            <path id="Path_7479" data-name="Path 7479" d="M716.712,122.53H714.6v3.19h2.112Z" transform="translate(2367.382 2458.548)" fill="#343757"/>
            <path id="Path_7480" data-name="Path 7480" d="M741.211,153.484h-3.618a.953.953,0,0,1-.953-.962v-4.66a2.761,2.761,0,0,1,2.762-2.771h1.648l1.123,7.432a.961.961,0,0,1-.962.962Z" transform="translate(2364.982 2456.091)" fill="#f0f0ff"/>
            <path id="Path_7481" data-name="Path 7481" d="M741.152,145.09a2.771,2.771,0,0,1,2.771,2.771v4.669a.952.952,0,0,1-.953.953h-3.627a.954.954,0,0,1-.953-.953v-4.669a2.771,2.771,0,0,1,2.771-2.771h-.009Z" transform="translate(2364.791 2456.091)" fill="#cdccff"/>
            <path id="Path_7482" data-name="Path 7482" d="M739.54,149.539v-1.55a1.783,1.783,0,0,1,3.564,0v1.55" transform="translate(2364.666 2455.963)" fill="none" stroke="#1511b1" stroke-miterlimit="10" stroke-width="1"/>
            <path id="Path_7483" data-name="Path 7483" d="M741.995,145.87a1.6,1.6,0,1,0-1.6-1.6A1.6,1.6,0,0,0,741.995,145.87Z" transform="translate(2364.572 2456.354)" fill="#252525"/>
          </g>
        </g>
      </g>
      <path id="Path_8136" data-name="Path 8136" d="M17.164-10.973l-.817,1.324a17.107,17.107,0,0,0-7.1-1.634q-.845,0-1.563.07a9.6,9.6,0,0,0-1.394.239,6.525,6.525,0,0,0-1.211.422,3.91,3.91,0,0,0-.944.62,2.37,2.37,0,0,0-.62.887A3.008,3.008,0,0,0,3.307-7.9a2.811,2.811,0,0,0,.113.8,3.179,3.179,0,0,0,.282.676,2,2,0,0,0,.507.563q.338.268.606.465A3.309,3.309,0,0,0,5.631-5l.9.324a10.813,10.813,0,0,0,1.056.3L8.7-4.114q.408.1,1.253.268.084.028.141.042t.141.028a.5.5,0,0,1,.141.042q.929.2,1.45.324t1.338.338a12.649,12.649,0,0,1,1.3.394q.479.183,1.127.465a5.307,5.307,0,0,1,1.028.563,9.43,9.43,0,0,1,.817.69,3.151,3.151,0,0,1,.662.845A5.084,5.084,0,0,1,18.474.9a4.71,4.71,0,0,1,.155,1.225,4.522,4.522,0,0,1-2.141,3.985A11.142,11.142,0,0,1,10.32,7.532a17,17,0,0,1-9.294-2.76L1.871,3.42a15.29,15.29,0,0,0,8.449,2.7,10.113,10.113,0,0,0,5.027-1,3.19,3.19,0,0,0,1.7-2.915,3.371,3.371,0,0,0-.127-.944,3.918,3.918,0,0,0-.31-.775,2.215,2.215,0,0,0-.563-.648q-.38-.31-.69-.535a3.984,3.984,0,0,0-.9-.451q-.591-.225-.972-.366a11.079,11.079,0,0,0-1.127-.324q-.746-.183-1.155-.268T9.954-2.382a.828.828,0,0,0-.2-.028q-.929-.2-1.45-.324T6.969-3.072q-.817-.211-1.281-.366t-1.1-.422A4.642,4.642,0,0,1,3.6-4.4q-.352-.268-.76-.634A2.53,2.53,0,0,1,2.237-5.8,5.243,5.243,0,0,1,1.9-6.748a4.41,4.41,0,0,1-.141-1.127,4.011,4.011,0,0,1,1.084-2.8A5.719,5.719,0,0,1,5.575-12.24,15.228,15.228,0,0,1,9.5-12.691,17.757,17.757,0,0,1,17.164-10.973Zm5.464-1.465H38.063v1.352H24.149v7.633H37.528v1.324H24.149V5.926H38.288V7.278H22.628ZM60.144,7.278,57.806,2.293H45.442l-2.31,4.985H41.527l9.238-19.715h1.746L61.749,7.278ZM57.215.969,51.751-10.663l-.056-.225h-.113l-.056.225L46.061.969ZM76.508-12.437a6.121,6.121,0,0,1,4.1,1.281,4.592,4.592,0,0,1,1.507,3.7v1.211a4.45,4.45,0,0,1-.324,1.732,3.461,3.461,0,0,1-.831,1.239,5.171,5.171,0,0,1-1.028.746A4.956,4.956,0,0,1,78.9-2.1v.056A2.775,2.775,0,0,1,81.3-.1a12.893,12.893,0,0,1,.394,1.986q.169,1.253.352,2.774a25.249,25.249,0,0,0,.437,2.619H80.873Q80.62,6.1,80.352,3.729A17.735,17.735,0,0,0,79.775.462,2.437,2.437,0,0,0,78.634-.932a5.351,5.351,0,0,0-2.464-.437H66.763V7.278H65.242V-12.437Zm4.084,6.224v-1.1a3.429,3.429,0,0,0-1.169-2.816,4.9,4.9,0,0,0-3.2-.958H66.763v8.393h9.492a5.007,5.007,0,0,0,3.169-.915A3.116,3.116,0,0,0,80.592-6.213ZM105.236,4.236a15.058,15.058,0,0,1-2.493,1.676,13.184,13.184,0,0,1-3.084,1.1,17.1,17.1,0,0,1-3.971.437,18.477,18.477,0,0,1-2.718-.183,10.977,10.977,0,0,1-2.352-.62,6.339,6.339,0,0,1-1.972-1.2,7.549,7.549,0,0,1-1.479-1.859A8.938,8.938,0,0,1,86.21.927a17.5,17.5,0,0,1-.324-3.535,15.981,15.981,0,0,1,.479-4.14,8.32,8.32,0,0,1,1.324-2.887,6.352,6.352,0,0,1,2.126-1.788,9.226,9.226,0,0,1,2.718-.929,18.931,18.931,0,0,1,3.267-.253,16.541,16.541,0,0,1,8.985,2.338L104.165-9a15.313,15.313,0,0,0-8.449-2.225,13.394,13.394,0,0,0-3.478.394,6.577,6.577,0,0,0-2.563,1.338A5.729,5.729,0,0,0,88-6.846a13.56,13.56,0,0,0-.563,4.211,14.869,14.869,0,0,0,.38,3.577,7.365,7.365,0,0,0,1.07,2.493A5.318,5.318,0,0,0,90.618,5a7.488,7.488,0,0,0,2.225.831,13.884,13.884,0,0,0,2.732.239,13.292,13.292,0,0,0,8.759-2.957Zm20.138-16.674h1.521V7.278h-1.521V-2.129H110.784V7.278h-1.521V-12.437h1.521v8.956h14.589ZM140.836,7.278V-12.437h17.547v3.915h-12.9v4.394h12.308v3.8H145.483v7.6Zm20.588-19.715h4.647v15.8h12.111V7.278H161.424Zm19.856,0h4.647V7.278h-4.647Zm30.587,7.942V2.462a8.852,8.852,0,0,1-4.1,3.929,16.907,16.907,0,0,1-7.337,1.338,23.582,23.582,0,0,1-3.774-.268,11.649,11.649,0,0,1-3.1-.958,6.868,6.868,0,0,1-2.408-1.831,8.239,8.239,0,0,1-1.479-2.957,15.292,15.292,0,0,1-.535-4.3,15.141,15.141,0,0,1,.535-4.281,8.257,8.257,0,0,1,1.493-2.957,6.814,6.814,0,0,1,2.479-1.845,12.428,12.428,0,0,1,3.239-.958,26.512,26.512,0,0,1,4.028-.268,20.418,20.418,0,0,1,5.647.69,14.276,14.276,0,0,1,4.464,2.211l-2.056,3.014a13.242,13.242,0,0,0-3.577-1.591,17.084,17.084,0,0,0-4.506-.521,17.551,17.551,0,0,0-3.535.282,4.251,4.251,0,0,0-2.112,1.056,3.821,3.821,0,0,0-1.07,1.957,15.116,15.116,0,0,0-.268,3.2,15.325,15.325,0,0,0,.268,3.211,3.984,3.984,0,0,0,1.028,1.972,3.947,3.947,0,0,0,1.986,1.056,15.236,15.236,0,0,0,3.281.282,13.036,13.036,0,0,0,4.689-.648A5.6,5.6,0,0,0,207.7,1.251V-.833h-6.422V-4.495Zm19.518-7.942h4.647V7.278h-4.647V-.777H219.81V7.278h-4.647V-12.437h4.647v7.745h11.576Zm28.306,0v3.915h-8.055v15.8h-4.647v-15.8h-8.055v-3.915Zm20.56,1.155-1.267,3.521a25.692,25.692,0,0,0-8.112-1.352,9.4,9.4,0,0,0-3.2.408,1.513,1.513,0,0,0-1.084,1.45,1.614,1.614,0,0,0,.141.676,1.3,1.3,0,0,0,.535.549,7.239,7.239,0,0,0,.732.394,6.019,6.019,0,0,0,1.084.324q.746.169,1.225.268t1.521.268q.676.141,1.042.2,1.465.253,2.45.479t2.056.563a7.7,7.7,0,0,1,1.746.76,6.746,6.746,0,0,1,1.253,1.014,3.582,3.582,0,0,1,.845,1.408,5.863,5.863,0,0,1,.268,1.831,5.218,5.218,0,0,1-2.436,4.661q-2.436,1.591-7.084,1.591a22.2,22.2,0,0,1-6.337-.831,19.056,19.056,0,0,1-4.675-2.014l2.056-3.408a17.39,17.39,0,0,0,4.225,1.76,18.321,18.321,0,0,0,5.07.718,10.854,10.854,0,0,0,1.718-.127,6.4,6.4,0,0,0,1.408-.38,2.434,2.434,0,0,0,.972-.676,1.493,1.493,0,0,0,.352-.986,1.543,1.543,0,0,0-.1-.563,1.268,1.268,0,0,0-.324-.465,3.311,3.311,0,0,0-.465-.366,3.329,3.329,0,0,0-.676-.31q-.437-.155-.775-.253t-.944-.211q-.605-.113-1.014-.183t-1.141-.183q-.732-.113-1.155-.2-1.634-.282-2.76-.563a15.11,15.11,0,0,1-2.225-.746,6.327,6.327,0,0,1-1.76-1.056,4.442,4.442,0,0,1-1.07-1.479,5.209,5.209,0,0,1-.437-2.07A4.892,4.892,0,0,1,263-10.254a6.552,6.552,0,0,1,3.225-2,17.721,17.721,0,0,1,5.1-.634A23.058,23.058,0,0,1,280.252-11.282Z" transform="translate(313.774 209.821)" fill="#f4f5f5"/>
      <path id="Path_8440" data-name="Path 8440" d="M8.613,0h297.28a8.613,8.613,0,0,1,8.613,8.613V30.5a8.613,8.613,0,0,1-8.613,8.613H8.613A8.613,8.613,0,0,1,0,30.5V8.613A8.613,8.613,0,0,1,8.613,0Z" transform="translate(26.6 245.49)" fill="#051f4c"/>
      <path id="Path_8435" data-name="Path 8435" d="M.7,4.336V-5.687H4.091a4.105,4.105,0,0,1,1.928.4A2.574,2.574,0,0,1,7.135-4.194,3.37,3.37,0,0,1,7.5-2.613a3.311,3.311,0,0,1-.362,1.571A2.538,2.538,0,0,1,6.024.032,4.137,4.137,0,0,1,4.111.421H1.37v-1.1h2.7A3.025,3.025,0,0,0,5.366-.91a1.5,1.5,0,0,0,.715-.668A2.238,2.238,0,0,0,6.3-2.613a2.325,2.325,0,0,0-.225-1.052,1.547,1.547,0,0,0-.719-.7A2.937,2.937,0,0,0,4.052-4.61H1.918V4.336Zm4.718-4.5,2.467,4.5H6.479L4.052-.167Zm6.91,4.659a3.265,3.265,0,0,1-1.784-.484A3.269,3.269,0,0,1,9.354,2.652,4.563,4.563,0,0,1,8.926.617a4.618,4.618,0,0,1,.428-2.051,3.263,3.263,0,0,1,1.194-1.36,3.265,3.265,0,0,1,1.784-.484,3.265,3.265,0,0,1,1.784.484,3.263,3.263,0,0,1,1.194,1.36A4.618,4.618,0,0,1,15.739.617a4.563,4.563,0,0,1-.428,2.036,3.269,3.269,0,0,1-1.194,1.356A3.265,3.265,0,0,1,12.332,4.492Zm0-1.038a1.983,1.983,0,0,0,1.272-.4,2.337,2.337,0,0,0,.739-1.042,3.991,3.991,0,0,0,.24-1.4,4.032,4.032,0,0,0-.24-1.4A2.367,2.367,0,0,0,13.6-1.84a1.967,1.967,0,0,0-1.272-.4,1.967,1.967,0,0,0-1.272.4,2.367,2.367,0,0,0-.739,1.052,4.032,4.032,0,0,0-.24,1.4,3.991,3.991,0,0,0,.24,1.4,2.337,2.337,0,0,0,.739,1.042A1.983,1.983,0,0,0,12.332,3.455Zm9.905-2.192V-3.181h1.155V4.336H22.238V3.063h-.078a2.448,2.448,0,0,1-.822.971,2.364,2.364,0,0,1-1.409.4,2.5,2.5,0,0,1-1.253-.311,2.14,2.14,0,0,1-.861-.94A3.553,3.553,0,0,1,17.5,1.6V-3.181h1.155v4.7a1.831,1.831,0,0,0,.462,1.312,1.555,1.555,0,0,0,1.182.489,1.981,1.981,0,0,0,.878-.22,1.931,1.931,0,0,0,.754-.675A2.038,2.038,0,0,0,22.238,1.263ZM26.662-.186V4.336H25.507V-3.181h1.116v1.175h.1a2.162,2.162,0,0,1,.8-.922,2.508,2.508,0,0,1,1.39-.35,2.758,2.758,0,0,1,1.336.311,2.126,2.126,0,0,1,.891.94,3.506,3.506,0,0,1,.318,1.588V4.336H30.3v-4.7a1.957,1.957,0,0,0-.46-1.383,1.636,1.636,0,0,0-1.263-.5,2,2,0,0,0-.986.24,1.711,1.711,0,0,0-.683.7A2.311,2.311,0,0,0,26.662-.186ZM36.41,4.492a2.932,2.932,0,0,1-1.659-.477,3.186,3.186,0,0,1-1.126-1.351A4.865,4.865,0,0,1,33.219.6a4.823,4.823,0,0,1,.406-2.055A3.158,3.158,0,0,1,34.756-2.8a2.984,2.984,0,0,1,1.674-.475,2.365,2.365,0,0,1,1.162.242,2.071,2.071,0,0,1,.656.548q.228.306.355.5h.1v-3.7h1.155V4.336H38.74V3.181H38.6q-.127.206-.362.516a2.106,2.106,0,0,1-.67.553A2.385,2.385,0,0,1,36.41,4.492Zm.157-1.038a1.884,1.884,0,0,0,1.175-.365,2.251,2.251,0,0,0,.729-1.013,4.16,4.16,0,0,0,.25-1.5A4.083,4.083,0,0,0,38.475-.9a2.161,2.161,0,0,0-.724-.989,1.936,1.936,0,0,0-1.184-.355,1.944,1.944,0,0,0-1.221.374,2.249,2.249,0,0,0-.729,1.013A4.011,4.011,0,0,0,34.374.577a4.087,4.087,0,0,0,.247,1.456,2.341,2.341,0,0,0,.734,1.038A1.9,1.9,0,0,0,36.567,3.455ZM45.4-3.181V-2.2H41.5v-.979Zm-2.76-1.8H43.79V2.183a1.462,1.462,0,0,0,.144.732.708.708,0,0,0,.372.323,1.431,1.431,0,0,0,.482.081A1.824,1.824,0,0,0,45.1,3.3l.2-.037L45.532,4.3a2.4,2.4,0,0,1-.861.137,2.308,2.308,0,0,1-.957-.21,1.884,1.884,0,0,1-.773-.641A1.83,1.83,0,0,1,42.635,2.5Zm4.5,9.318V-3.181h1.116v1.135h.078a1.805,1.805,0,0,1,.744-.905A2.19,2.19,0,0,1,50.289-3.3q.127,0,.318,0t.289.015V-2.1q-.059-.015-.267-.046a2.9,2.9,0,0,0-.438-.032,2.048,2.048,0,0,0-.976.228,1.737,1.737,0,0,0-.675.626,1.688,1.688,0,0,0-.247.908V4.336Zm5.129,0V-3.181h1.155V4.336Zm.587-8.77a.813.813,0,0,1-.58-.23.735.735,0,0,1-.242-.553.735.735,0,0,1,.242-.553.813.813,0,0,1,.58-.23.813.813,0,0,1,.58.23.735.735,0,0,1,.242.553.735.735,0,0,1-.242.553A.813.813,0,0,1,52.854-4.434ZM55.535,7.155V-3.181h1.116v1.194h.137q.127-.2.355-.5a2.071,2.071,0,0,1,.656-.548,2.365,2.365,0,0,1,1.162-.242,2.984,2.984,0,0,1,1.674.475,3.158,3.158,0,0,1,1.13,1.346A4.823,4.823,0,0,1,62.172.6a4.865,4.865,0,0,1-.406,2.068A3.186,3.186,0,0,1,60.64,4.015a2.932,2.932,0,0,1-1.659.477,2.385,2.385,0,0,1-1.16-.242,2.106,2.106,0,0,1-.67-.553q-.235-.311-.362-.516h-.1V7.155ZM56.671.577a4.159,4.159,0,0,0,.25,1.5A2.251,2.251,0,0,0,57.65,3.09a2.088,2.088,0,0,0,2.386-.02,2.341,2.341,0,0,0,.734-1.038A4.087,4.087,0,0,0,61.017.577a4.011,4.011,0,0,0-.242-1.431,2.249,2.249,0,0,0-.729-1.013,1.944,1.944,0,0,0-1.221-.374,1.936,1.936,0,0,0-1.184.355,2.161,2.161,0,0,0-.724.989A4.083,4.083,0,0,0,56.671.577Z" transform="translate(172.627 265.271)" fill="#f4f5f5" opacity="0.5"/>
      <path id="Path_8437" data-name="Path 8437" d="M.7-5.687H2.153l3.406,8.32h.117l3.406-8.32h1.449V4.336H9.4V-3.279H9.3L6.166,4.336H5.07L1.938-3.279h-.1V4.336H.7ZM17.539,1.263V-3.181h1.155V4.336H17.539V3.063h-.078a2.448,2.448,0,0,1-.822.971,2.364,2.364,0,0,1-1.409.4,2.5,2.5,0,0,1-1.253-.311,2.14,2.14,0,0,1-.861-.94A3.553,3.553,0,0,1,12.8,1.6V-3.181h1.155v4.7a1.831,1.831,0,0,0,.462,1.312,1.555,1.555,0,0,0,1.182.489,1.981,1.981,0,0,0,.878-.22,1.931,1.931,0,0,0,.754-.675A2.038,2.038,0,0,0,17.539,1.263Zm4.424-6.949V4.336H20.809V-5.687Zm5.383,2.506V-2.2h-3.9v-.979Zm-2.76-1.8h1.155V2.183a1.462,1.462,0,0,0,.144.732.708.708,0,0,0,.372.323,1.431,1.431,0,0,0,.482.081,1.824,1.824,0,0,0,.313-.022l.2-.037L27.484,4.3a2.4,2.4,0,0,1-.861.137,2.308,2.308,0,0,1-.957-.21,1.884,1.884,0,0,1-.773-.641A1.831,1.831,0,0,1,24.587,2.5Zm4.5,9.318V-3.181h1.155V4.336Zm.587-8.77a.813.813,0,0,1-.58-.23.735.735,0,0,1-.242-.553A.735.735,0,0,1,29.1-5.77a.813.813,0,0,1,.58-.23.813.813,0,0,1,.58.23.735.735,0,0,1,.242.553.735.735,0,0,1-.242.553A.813.813,0,0,1,29.676-4.434ZM36.665-.5V.577H32.28V-.5Zm5.09,4.992a3.252,3.252,0,0,1-1.821-.5,3.253,3.253,0,0,1-1.175-1.375,4.659,4.659,0,0,1-.411-2,4.608,4.608,0,0,1,.423-2.024,3.323,3.323,0,0,1,1.184-1.375,3.181,3.181,0,0,1,1.779-.5,3.371,3.371,0,0,1,1.429.294,2.736,2.736,0,0,1,1.042.822,2.564,2.564,0,0,1,.5,1.233H43.555a1.809,1.809,0,0,0-.585-.913,1.774,1.774,0,0,0-1.216-.4,2.028,2.028,0,0,0-1.182.35,2.291,2.291,0,0,0-.788.984A3.634,3.634,0,0,0,39.5.577a3.834,3.834,0,0,0,.277,1.517,2.3,2.3,0,0,0,.783,1,2.014,2.014,0,0,0,1.192.357,2.062,2.062,0,0,0,.817-.157,1.686,1.686,0,0,0,.622-.45,1.726,1.726,0,0,0,.362-.7H44.71a2.674,2.674,0,0,1-.482,1.2,2.7,2.7,0,0,1-1.013.842A3.258,3.258,0,0,1,41.754,4.492Zm4.639-.157V-3.181h1.155V4.336Zm.587-8.77a.813.813,0,0,1-.58-.23.735.735,0,0,1-.242-.553A.735.735,0,0,1,46.4-5.77a.813.813,0,0,1,.58-.23.813.813,0,0,1,.58.23.735.735,0,0,1,.242.553.735.735,0,0,1-.242.553A.813.813,0,0,1,46.981-4.434Zm5.951,1.253V-2.2h-3.9v-.979Zm-2.76-1.8h1.155V2.183a1.462,1.462,0,0,0,.144.732.708.708,0,0,0,.372.323,1.431,1.431,0,0,0,.482.081,1.824,1.824,0,0,0,.313-.022l.2-.037L53.069,4.3a2.4,2.4,0,0,1-.861.137,2.308,2.308,0,0,1-.957-.21,1.884,1.884,0,0,1-.773-.641A1.83,1.83,0,0,1,50.172,2.5ZM55.418,7.155a2.659,2.659,0,0,1-.524-.046,1.439,1.439,0,0,1-.318-.091L54.87,6a2.223,2.223,0,0,0,.744.078.905.905,0,0,0,.575-.286,2.355,2.355,0,0,0,.462-.83l.215-.587-2.78-7.556H55.34l2.075,5.99h.078l2.075-5.99h1.253L57.63,5.432A3.294,3.294,0,0,1,57.1,6.4a2.015,2.015,0,0,1-.737.57A2.3,2.3,0,0,1,55.418,7.155Z" transform="translate(261.816 265.271)" fill="#f4f5f5" opacity="0.5"/>
      <g id="Group_7248" data-name="Group 7248" transform="translate(615.82 245.408)">
        <rect id="Rectangle_1188" data-name="Rectangle 1188" width="147.083" height="39.118" rx="5" transform="translate(-0.02)" fill="#051f4c"/>
        <g id="Group_7263" data-name="Group 7263" transform="translate(0.908)">
          <path id="Path_8135" data-name="Path 8135" d="M1.681,1.63a1.54,1.54,0,1,0,1.334.77A1.54,1.54,0,0,0,1.681,1.63Zm0-4.4A1.54,1.54,0,0,0,.347-2a1.54,1.54,0,0,0,0,1.54,1.54,1.54,0,0,0,1.334.77,1.54,1.54,0,0,0,1.334-.77,1.54,1.54,0,0,0,0-1.54A1.54,1.54,0,0,0,1.681-2.771Zm1.54-2.86a1.54,1.54,0,0,0-.77-1.334,1.54,1.54,0,0,0-1.54,0,1.54,1.54,0,0,0-.77,1.334A1.54,1.54,0,0,0,.911-4.3a1.54,1.54,0,0,0,1.54,0A1.54,1.54,0,0,0,3.221-5.632Z" transform="translate(126.821 21.503)" fill="#f4f5f5"/>
          <path id="Path_8130" data-name="Path 8130" d="M5.416-2.3a1.1,1.1,0,0,0-.45-.821,1.782,1.782,0,0,0-1.078-.292,2.09,2.09,0,0,0-.781.129,1.1,1.1,0,0,0-.487.356.843.843,0,0,0-.168.515.725.725,0,0,0,.1.419,1,1,0,0,0,.308.308,2.2,2.2,0,0,0,.454.223,4.436,4.436,0,0,0,.55.159l.8.192a5.664,5.664,0,0,1,1.074.349,3.261,3.261,0,0,1,.847.537,2.257,2.257,0,0,1,.556.751,2.394,2.394,0,0,1,.2.991,2.47,2.47,0,0,1-.417,1.421,2.656,2.656,0,0,1-1.187.93,4.756,4.756,0,0,1-1.866.33A4.9,4.9,0,0,1,2,3.862,2.741,2.741,0,0,1,.748,2.878,2.914,2.914,0,0,1,.278,1.261H2.107a1.351,1.351,0,0,0,.26.749,1.392,1.392,0,0,0,.615.45,2.394,2.394,0,0,0,.875.151,2.281,2.281,0,0,0,.836-.14,1.279,1.279,0,0,0,.552-.388.9.9,0,0,0,.2-.572A.748.748,0,0,0,5.265,1,1.38,1.38,0,0,0,4.75.654,5.32,5.32,0,0,0,3.923.393L2.95.148a4.081,4.081,0,0,1-1.785-.86,2,2,0,0,1-.65-1.576A2.334,2.334,0,0,1,.948-3.706a2.9,2.9,0,0,1,1.207-.947A4.267,4.267,0,0,1,3.9-4.993a4.145,4.145,0,0,1,1.739.34A2.75,2.75,0,0,1,6.8-3.706,2.506,2.506,0,0,1,7.227-2.3Zm6.22,6.5a3.555,3.555,0,0,1-1.779-.421,2.849,2.849,0,0,1-1.146-1.2,3.939,3.939,0,0,1-.4-1.835,3.919,3.919,0,0,1,.4-1.816A2.964,2.964,0,0,1,9.843-2.287a3.287,3.287,0,0,1,1.717-.436,3.548,3.548,0,0,1,1.237.212,2.789,2.789,0,0,1,1,.635,2.893,2.893,0,0,1,.67,1.063,4.245,4.245,0,0,1,.24,1.495v.511H9.051V.039h3.911a1.424,1.424,0,0,0-.175-.711,1.27,1.27,0,0,0-.482-.487,1.407,1.407,0,0,0-.714-.177,1.431,1.431,0,0,0-.749.194,1.393,1.393,0,0,0-.508.519A1.479,1.479,0,0,0,10.147.1V1.2a1.865,1.865,0,0,0,.185.86,1.328,1.328,0,0,0,.526.559,1.588,1.588,0,0,0,.807.2,1.758,1.758,0,0,0,.567-.087,1.178,1.178,0,0,0,.441-.262,1.139,1.139,0,0,0,.279-.428l1.72.113a2.344,2.344,0,0,1-.535,1.08,2.686,2.686,0,0,1-1.039.716A3.9,3.9,0,0,1,11.635,4.2Zm6.2,0a2.77,2.77,0,0,1-1.144-.225A1.807,1.807,0,0,1,15.9,3.3a1.978,1.978,0,0,1-.29-1.106,1.954,1.954,0,0,1,.205-.938,1.661,1.661,0,0,1,.559-.611A2.706,2.706,0,0,1,17.18.3,6.063,6.063,0,0,1,18.13.131q.585-.061.943-.116a1.317,1.317,0,0,0,.519-.164.364.364,0,0,0,.161-.323V-.5a.807.807,0,0,0-.26-.642,1.083,1.083,0,0,0-.735-.227,1.31,1.31,0,0,0-.8.22,1.035,1.035,0,0,0-.393.552l-1.72-.14a2.352,2.352,0,0,1,.515-1.058,2.5,2.5,0,0,1,.993-.69,3.8,3.8,0,0,1,1.412-.242,4.315,4.315,0,0,1,1.072.131,2.825,2.825,0,0,1,.912.406,1.986,1.986,0,0,1,.631.7,2.141,2.141,0,0,1,.231,1.028V4.068H19.849v-.93H19.8a1.864,1.864,0,0,1-.432.552,1.949,1.949,0,0,1-.65.371A2.648,2.648,0,0,1,17.837,4.194Zm.532-1.283a1.546,1.546,0,0,0,.725-.164,1.267,1.267,0,0,0,.493-.443,1.148,1.148,0,0,0,.179-.633V.96a.951.951,0,0,1-.238.1q-.151.046-.338.083t-.375.065l-.34.05a2.3,2.3,0,0,0-.572.153.923.923,0,0,0-.38.282.7.7,0,0,0-.135.439.667.667,0,0,0,.277.578A1.181,1.181,0,0,0,18.37,2.911Zm4.688,1.157v-6.7h1.8v1.17h.07a1.742,1.742,0,0,1,.615-.945,1.625,1.625,0,0,1,1-.321,2.813,2.813,0,0,1,.3.017,2.121,2.121,0,0,1,.284.048v1.65a2.429,2.429,0,0,0-.362-.07,3.255,3.255,0,0,0-.423-.031,1.49,1.49,0,0,0-.731.177A1.314,1.314,0,0,0,25.1-.45a1.4,1.4,0,0,0-.185.725V4.068ZM30.8,4.2a3.409,3.409,0,0,1-1.77-.439,2.918,2.918,0,0,1-1.135-1.22A3.933,3.933,0,0,1,27.5.742a3.913,3.913,0,0,1,.4-1.809,2.954,2.954,0,0,1,1.137-1.218,3.37,3.37,0,0,1,1.755-.439,3.492,3.492,0,0,1,1.536.319,2.568,2.568,0,0,1,1.043.895A2.629,2.629,0,0,1,33.79-.157H32.035a1.371,1.371,0,0,0-.391-.81,1.136,1.136,0,0,0-.827-.308,1.245,1.245,0,0,0-.753.234,1.508,1.508,0,0,0-.5.679A2.892,2.892,0,0,0,29.386.716a2.987,2.987,0,0,0,.177,1.091,1.5,1.5,0,0,0,.5.685,1.326,1.326,0,0,0,1.329.1,1.12,1.12,0,0,0,.423-.382,1.455,1.455,0,0,0,.22-.6H33.79a2.748,2.748,0,0,1-.417,1.351,2.541,2.541,0,0,1-1.028.91A3.427,3.427,0,0,1,30.8,4.2ZM36.845.192V4.068H34.986V-4.871h1.807v3.417h.079a1.91,1.91,0,0,1,.733-.932,2.238,2.238,0,0,1,1.27-.338,2.383,2.383,0,0,1,1.22.3,2.075,2.075,0,0,1,.812.869A2.888,2.888,0,0,1,41.192-.2V4.068H39.333V.131a1.359,1.359,0,0,0-.312-.965,1.139,1.139,0,0,0-.884-.345,1.355,1.355,0,0,0-.67.161,1.13,1.13,0,0,0-.454.469A1.591,1.591,0,0,0,36.845.192ZM53.43-1.742H51.519A1.891,1.891,0,0,0,51.3-2.4a1.686,1.686,0,0,0-.415-.5,1.829,1.829,0,0,0-.583-.314,2.257,2.257,0,0,0-.714-.109,2.132,2.132,0,0,0-1.209.343,2.218,2.218,0,0,0-.8,1A3.959,3.959,0,0,0,47.3-.4,3.991,3.991,0,0,0,47.588,1.2a2.163,2.163,0,0,0,.8.982,2.152,2.152,0,0,0,1.192.332,2.379,2.379,0,0,0,.7-.1,1.825,1.825,0,0,0,.578-.295,1.686,1.686,0,0,0,.421-.474,1.881,1.881,0,0,0,.233-.637l1.912.009a3.465,3.465,0,0,1-.369,1.185,3.579,3.579,0,0,1-.79,1.017,3.7,3.7,0,0,1-1.178.707,4.316,4.316,0,0,1-1.543.26,4.206,4.206,0,0,1-2.136-.541A3.823,3.823,0,0,1,45.93,2.082,5.245,5.245,0,0,1,45.386-.4a5.2,5.2,0,0,1,.55-2.488,3.847,3.847,0,0,1,1.493-1.565,4.2,4.2,0,0,1,2.121-.539,4.6,4.6,0,0,1,1.442.218,3.68,3.68,0,0,1,1.181.635,3.331,3.331,0,0,1,.84,1.019A3.818,3.818,0,0,1,53.43-1.742Zm1.322,5.809v-6.7h1.8v1.17h.07a1.742,1.742,0,0,1,.615-.945,1.625,1.625,0,0,1,1-.321,2.813,2.813,0,0,1,.3.017,2.121,2.121,0,0,1,.284.048v1.65a2.429,2.429,0,0,0-.362-.07,3.255,3.255,0,0,0-.423-.031,1.49,1.49,0,0,0-.731.177A1.313,1.313,0,0,0,56.8-.45a1.4,1.4,0,0,0-.185.725V4.068Zm5.024,0v-6.7h1.859v6.7ZM60.71-3.5A1,1,0,0,1,60-3.778a.882.882,0,0,1-.295-.666A.877.877,0,0,1,60-5.1a1,1,0,0,1,.709-.277,1,1,0,0,1,.709.277.877.877,0,0,1,.295.661.882.882,0,0,1-.295.666A1,1,0,0,1,60.71-3.5Zm5.975.864v1.4H62.648v-1.4ZM63.565-4.243h1.859v6.25a.834.834,0,0,0,.079.4.43.43,0,0,0,.22.2.883.883,0,0,0,.33.057,1.45,1.45,0,0,0,.262-.024l.2-.037.292,1.384q-.14.044-.393.1a3.283,3.283,0,0,1-.615.072,2.81,2.81,0,0,1-1.176-.179,1.643,1.643,0,0,1-.783-.637,1.948,1.948,0,0,1-.275-1.091ZM70.88,4.2A3.555,3.555,0,0,1,69.1,3.777a2.849,2.849,0,0,1-1.146-1.2,3.939,3.939,0,0,1-.4-1.835,3.919,3.919,0,0,1,.4-1.816,2.964,2.964,0,0,1,1.133-1.218,3.287,3.287,0,0,1,1.717-.436,3.548,3.548,0,0,1,1.237.212,2.789,2.789,0,0,1,1,.635,2.892,2.892,0,0,1,.67,1.063,4.245,4.245,0,0,1,.24,1.495v.511H68.3V.039h3.911a1.424,1.424,0,0,0-.175-.711,1.27,1.27,0,0,0-.482-.487,1.407,1.407,0,0,0-.714-.177,1.431,1.431,0,0,0-.749.194,1.393,1.393,0,0,0-.508.519A1.479,1.479,0,0,0,69.392.1V1.2a1.865,1.865,0,0,0,.185.86,1.328,1.328,0,0,0,.526.559,1.588,1.588,0,0,0,.807.2,1.758,1.758,0,0,0,.567-.087,1.177,1.177,0,0,0,.441-.262,1.138,1.138,0,0,0,.279-.428l1.72.113a2.344,2.344,0,0,1-.535,1.08,2.686,2.686,0,0,1-1.039.716A3.9,3.9,0,0,1,70.88,4.2Zm4.29-.131v-6.7h1.8v1.17h.07a1.742,1.742,0,0,1,.615-.945,1.625,1.625,0,0,1,1-.321,2.813,2.813,0,0,1,.3.017,2.121,2.121,0,0,1,.284.048v1.65a2.429,2.429,0,0,0-.362-.07,3.255,3.255,0,0,0-.423-.031,1.49,1.49,0,0,0-.731.177,1.314,1.314,0,0,0-.506.491,1.4,1.4,0,0,0-.185.725V4.068Zm5.024,0v-6.7h1.859v6.7ZM81.128-3.5a1,1,0,0,1-.709-.277.882.882,0,0,1-.295-.666.877.877,0,0,1,.295-.661,1,1,0,0,1,.709-.277,1,1,0,0,1,.709.277.877.877,0,0,1,.295.661.882.882,0,0,1-.295.666A1,1,0,0,1,81.128-3.5Zm4.321,7.695a2.77,2.77,0,0,1-1.144-.225,1.807,1.807,0,0,1-.792-.668,1.978,1.978,0,0,1-.29-1.106,1.954,1.954,0,0,1,.205-.938,1.661,1.661,0,0,1,.559-.611A2.706,2.706,0,0,1,84.792.3a6.063,6.063,0,0,1,.949-.166q.585-.061.943-.116A1.317,1.317,0,0,0,87.2-.149a.364.364,0,0,0,.161-.323V-.5a.807.807,0,0,0-.26-.642,1.083,1.083,0,0,0-.735-.227,1.31,1.31,0,0,0-.8.22,1.035,1.035,0,0,0-.393.552l-1.72-.14a2.352,2.352,0,0,1,.515-1.058,2.5,2.5,0,0,1,.993-.69,3.8,3.8,0,0,1,1.412-.242,4.315,4.315,0,0,1,1.071.131,2.825,2.825,0,0,1,.912.406,1.986,1.986,0,0,1,.631.7,2.141,2.141,0,0,1,.231,1.028V4.068H87.461v-.93h-.052a1.865,1.865,0,0,1-.432.552,1.949,1.949,0,0,1-.65.371A2.648,2.648,0,0,1,85.449,4.194Zm.532-1.283a1.546,1.546,0,0,0,.725-.164A1.267,1.267,0,0,0,87.2,2.3a1.148,1.148,0,0,0,.179-.633V.96a.95.95,0,0,1-.238.1q-.151.046-.338.083t-.375.065l-.34.05a2.3,2.3,0,0,0-.572.153.923.923,0,0,0-.38.282A.7.7,0,0,0,85,2.134a.667.667,0,0,0,.277.578A1.181,1.181,0,0,0,85.981,2.911Z" transform="translate(14.794 20.713)" fill="#f4f5f5"/>
        </g>
      </g>
      <rect id="Rectangle_1193" data-name="Rectangle 1193" width="259.742" height="42.247" rx="5" transform="translate(26.6 301.739)" fill="#051f4c"/>
      <rect id="Rectangle_1194" data-name="Rectangle 1194" width="259.742" height="42.247" rx="5" transform="translate(297.295 302.184)" fill="#051f4c"/>
      <path id="Path_8126" data-name="Path 8126" d="M2.66,3.331.17-5.773h1.12l1.9,7.415h.089L5.22-5.773H6.465L8.4,1.641h.089l1.9-7.415h1.12l-2.489,9.1H7.887L5.878-3.924H5.807L3.8,3.331ZM13.791-.777V3.331H12.741v-9.1h1.049V-2.43h.089a1.939,1.939,0,0,1,.722-.842,2.333,2.333,0,0,1,1.287-.313,2.574,2.574,0,0,1,1.222.278,1.911,1.911,0,0,1,.816.849,3.186,3.186,0,0,1,.291,1.451V3.331H17.169V-.937a1.769,1.769,0,0,0-.42-1.26,1.518,1.518,0,0,0-1.162-.447,1.923,1.923,0,0,0-.922.218,1.574,1.574,0,0,0-.64.636A2.05,2.05,0,0,0,13.791-.777ZM23,3.473a3.187,3.187,0,0,1-1.7-.438,2.887,2.887,0,0,1-1.1-1.227A4.149,4.149,0,0,1,19.818-.03,4.236,4.236,0,0,1,20.2-1.881a3.013,3.013,0,0,1,1.076-1.254,2.889,2.889,0,0,1,1.616-.451,3.237,3.237,0,0,1,1.054.178,2.625,2.625,0,0,1,.947.576,2.786,2.786,0,0,1,.68,1.051,4.472,4.472,0,0,1,.253,1.609V.272H20.565V-.635h4.2a2.257,2.257,0,0,0-.229-1.031,1.762,1.762,0,0,0-.649-.716,1.829,1.829,0,0,0-.989-.262,1.882,1.882,0,0,0-1.082.309,2.057,2.057,0,0,0-.7.8,2.351,2.351,0,0,0-.244,1.058v.6a2.9,2.9,0,0,0,.269,1.309,1.893,1.893,0,0,0,.749.813A2.188,2.188,0,0,0,23,2.53a2.251,2.251,0,0,0,.749-.118,1.562,1.562,0,0,0,.58-.356,1.6,1.6,0,0,0,.378-.593l1.014.284a2.229,2.229,0,0,1-.538.9,2.583,2.583,0,0,1-.933.6A3.43,3.43,0,0,1,23,3.473Zm4.427-.142V-3.5h1.014v1.031h.071a1.64,1.64,0,0,1,.676-.822,1.989,1.989,0,0,1,1.1-.316q.116,0,.289,0t.262.013v1.067q-.053-.013-.242-.042a2.631,2.631,0,0,0-.4-.029,1.861,1.861,0,0,0-.887.207,1.577,1.577,0,0,0-.613.569,1.533,1.533,0,0,0-.224.825V3.331Zm7.308.142a3.187,3.187,0,0,1-1.7-.438,2.887,2.887,0,0,1-1.1-1.227A4.149,4.149,0,0,1,31.554-.03a4.236,4.236,0,0,1,.385-1.851,3.013,3.013,0,0,1,1.076-1.254,2.889,2.889,0,0,1,1.616-.451,3.237,3.237,0,0,1,1.054.178,2.625,2.625,0,0,1,.947.576,2.785,2.785,0,0,1,.68,1.051,4.472,4.472,0,0,1,.253,1.609V.272H32.3V-.635h4.2a2.257,2.257,0,0,0-.229-1.031,1.762,1.762,0,0,0-.649-.716,1.829,1.829,0,0,0-.989-.262,1.882,1.882,0,0,0-1.082.309,2.057,2.057,0,0,0-.7.8A2.351,2.351,0,0,0,32.6-.475v.6a2.9,2.9,0,0,0,.269,1.309,1.893,1.893,0,0,0,.749.813,2.188,2.188,0,0,0,1.116.278,2.251,2.251,0,0,0,.749-.118,1.562,1.562,0,0,0,.58-.356,1.594,1.594,0,0,0,.378-.593l1.014.284a2.229,2.229,0,0,1-.538.9,2.583,2.583,0,0,1-.933.6A3.43,3.43,0,0,1,34.736,3.473Zm8.09-.142v-9.1h5.459V-4.8H43.929v3.076h3.947v.978H43.929V3.331Zm7.13,0V-3.5H50.97v1.031h.071a1.64,1.64,0,0,1,.676-.822,1.989,1.989,0,0,1,1.1-.316q.116,0,.289,0t.262.013v1.067q-.053-.013-.242-.042a2.631,2.631,0,0,0-.4-.029,1.861,1.861,0,0,0-.887.207,1.577,1.577,0,0,0-.613.569,1.533,1.533,0,0,0-.224.825V3.331Zm7.219.142a2.966,2.966,0,0,1-1.62-.44A2.969,2.969,0,0,1,54.471,1.8a4.145,4.145,0,0,1-.389-1.849,4.2,4.2,0,0,1,.389-1.863,2.963,2.963,0,0,1,1.085-1.236,2.966,2.966,0,0,1,1.62-.44,2.966,2.966,0,0,1,1.62.44A2.963,2.963,0,0,1,59.881-1.91,4.2,4.2,0,0,1,60.27-.048,4.145,4.145,0,0,1,59.881,1.8,2.969,2.969,0,0,1,58.8,3.033,2.966,2.966,0,0,1,57.176,3.473Zm0-.942a1.8,1.8,0,0,0,1.156-.36A2.123,2.123,0,0,0,59,1.223,3.625,3.625,0,0,0,59.22-.048,3.662,3.662,0,0,0,59-1.324a2.15,2.15,0,0,0-.671-.956,1.786,1.786,0,0,0-1.156-.365,1.786,1.786,0,0,0-1.156.365,2.15,2.15,0,0,0-.671.956,3.662,3.662,0,0,0-.218,1.276,3.625,3.625,0,0,0,.218,1.271,2.123,2.123,0,0,0,.671.947A1.8,1.8,0,0,0,57.176,2.53Zm4.694.8V-3.5h1.014V-2.43h.089a1.728,1.728,0,0,1,.689-.851,2.074,2.074,0,0,1,1.142-.3,1.97,1.97,0,0,1,1.127.3,2.027,2.027,0,0,1,.7.851h.071a2,2,0,0,1,.787-.842,2.409,2.409,0,0,1,1.258-.313,2.049,2.049,0,0,1,1.5.571,2.393,2.393,0,0,1,.582,1.776v4.57H69.782v-4.57a1.292,1.292,0,0,0-.413-1.08,1.53,1.53,0,0,0-.974-.324,1.434,1.434,0,0,0-1.116.433,1.563,1.563,0,0,0-.4,1.1V3.331H65.817V-1.346a1.235,1.235,0,0,0-.378-.94,1.358,1.358,0,0,0-.973-.358,1.427,1.427,0,0,0-.762.218,1.626,1.626,0,0,0-.569.6,1.783,1.783,0,0,0-.216.887V3.331ZM74.121.77V.717A4.518,4.518,0,0,1,74.3-.635a2.054,2.054,0,0,1,.48-.813,3.877,3.877,0,0,1,.747-.573A2.3,2.3,0,0,0,76-2.4a1.686,1.686,0,0,0,.331-.509,1.627,1.627,0,0,0,.122-.64,1.373,1.373,0,0,0-.2-.756A1.373,1.373,0,0,0,75.7-4.8a1.658,1.658,0,0,0-.76-.173,1.7,1.7,0,0,0-.7.151,1.36,1.36,0,0,0-.565.476,1.655,1.655,0,0,0-.262.849h-1.12a2.5,2.5,0,0,1,.393-1.294,2.336,2.336,0,0,1,.947-.822A2.97,2.97,0,0,1,74.939-5.9a2.841,2.841,0,0,1,1.362.311,2.247,2.247,0,0,1,.9.853A2.4,2.4,0,0,1,77.517-3.5a2.5,2.5,0,0,1-.149.885,2.232,2.232,0,0,1-.427.707,2.973,2.973,0,0,1-.669.551,2.8,2.8,0,0,0-.627.513A1.648,1.648,0,0,0,75.3-.2a3.578,3.578,0,0,0-.116.92V.77ZM74.69,3.4a.8.8,0,0,1-.8-.8.8.8,0,1,1,1.491.4.836.836,0,0,1-.289.291A.762.762,0,0,1,74.69,3.4Z" transform="translate(65.814 324.637)" fill="#f4f5f5"/>
      <path id="Path_8127" data-name="Path 8127" d="M2.66,3.331.17-5.773h1.12l1.9,7.415h.089L5.22-5.773H6.465L8.4,1.641h.089l1.9-7.415h1.12l-2.489,9.1H7.887L5.878-3.924H5.807L3.8,3.331ZM13.791-.777V3.331H12.741v-9.1h1.049V-2.43h.089a1.939,1.939,0,0,1,.722-.842,2.333,2.333,0,0,1,1.287-.313,2.574,2.574,0,0,1,1.222.278,1.911,1.911,0,0,1,.816.849,3.186,3.186,0,0,1,.291,1.451V3.331H17.169V-.937a1.769,1.769,0,0,0-.42-1.26,1.518,1.518,0,0,0-1.162-.447,1.923,1.923,0,0,0-.922.218,1.574,1.574,0,0,0-.64.636A2.05,2.05,0,0,0,13.791-.777ZM23,3.473a3.187,3.187,0,0,1-1.7-.438,2.887,2.887,0,0,1-1.1-1.227A4.149,4.149,0,0,1,19.818-.03,4.236,4.236,0,0,1,20.2-1.881a3.013,3.013,0,0,1,1.076-1.254,2.889,2.889,0,0,1,1.616-.451,3.237,3.237,0,0,1,1.054.178,2.625,2.625,0,0,1,.947.576,2.786,2.786,0,0,1,.68,1.051,4.472,4.472,0,0,1,.253,1.609V.272H20.565V-.635h4.2a2.257,2.257,0,0,0-.229-1.031,1.762,1.762,0,0,0-.649-.716,1.829,1.829,0,0,0-.989-.262,1.882,1.882,0,0,0-1.082.309,2.057,2.057,0,0,0-.7.8,2.351,2.351,0,0,0-.244,1.058v.6a2.9,2.9,0,0,0,.269,1.309,1.893,1.893,0,0,0,.749.813A2.188,2.188,0,0,0,23,2.53a2.251,2.251,0,0,0,.749-.118,1.562,1.562,0,0,0,.58-.356,1.6,1.6,0,0,0,.378-.593l1.014.284a2.229,2.229,0,0,1-.538.9,2.583,2.583,0,0,1-.933.6A3.43,3.43,0,0,1,23,3.473Zm4.427-.142V-3.5h1.014v1.031h.071a1.64,1.64,0,0,1,.676-.822,1.989,1.989,0,0,1,1.1-.316q.116,0,.289,0t.262.013v1.067q-.053-.013-.242-.042a2.631,2.631,0,0,0-.4-.029,1.861,1.861,0,0,0-.887.207,1.577,1.577,0,0,0-.613.569,1.533,1.533,0,0,0-.224.825V3.331Zm7.308.142a3.187,3.187,0,0,1-1.7-.438,2.887,2.887,0,0,1-1.1-1.227A4.149,4.149,0,0,1,31.554-.03a4.236,4.236,0,0,1,.385-1.851,3.013,3.013,0,0,1,1.076-1.254,2.889,2.889,0,0,1,1.616-.451,3.237,3.237,0,0,1,1.054.178,2.625,2.625,0,0,1,.947.576,2.785,2.785,0,0,1,.68,1.051,4.472,4.472,0,0,1,.253,1.609V.272H32.3V-.635h4.2a2.257,2.257,0,0,0-.229-1.031,1.762,1.762,0,0,0-.649-.716,1.829,1.829,0,0,0-.989-.262,1.882,1.882,0,0,0-1.082.309,2.057,2.057,0,0,0-.7.8A2.351,2.351,0,0,0,32.6-.475v.6a2.9,2.9,0,0,0,.269,1.309,1.893,1.893,0,0,0,.749.813,2.188,2.188,0,0,0,1.116.278,2.251,2.251,0,0,0,.749-.118,1.562,1.562,0,0,0,.58-.356,1.594,1.594,0,0,0,.378-.593l1.014.284a2.229,2.229,0,0,1-.538.9,2.583,2.583,0,0,1-.933.6A3.43,3.43,0,0,1,34.736,3.473ZM42.329-4.8v-.978h6.828V-4.8H46.294V3.331h-1.1V-4.8ZM52.5,3.473a2.966,2.966,0,0,1-1.62-.44A2.969,2.969,0,0,1,49.794,1.8a4.145,4.145,0,0,1-.389-1.849,4.2,4.2,0,0,1,.389-1.863,2.963,2.963,0,0,1,1.085-1.236,2.966,2.966,0,0,1,1.62-.44,2.966,2.966,0,0,1,1.62.44A2.964,2.964,0,0,1,55.2-1.91a4.2,4.2,0,0,1,.389,1.863A4.145,4.145,0,0,1,55.2,1.8,2.969,2.969,0,0,1,54.12,3.033,2.966,2.966,0,0,1,52.5,3.473Zm0-.942a1.8,1.8,0,0,0,1.156-.36,2.123,2.123,0,0,0,.671-.947,3.625,3.625,0,0,0,.218-1.271,3.662,3.662,0,0,0-.218-1.276,2.15,2.15,0,0,0-.671-.956A1.786,1.786,0,0,0,52.5-2.644a1.786,1.786,0,0,0-1.156.365,2.15,2.15,0,0,0-.671.956,3.662,3.662,0,0,0-.218,1.276,3.625,3.625,0,0,0,.218,1.271,2.123,2.123,0,0,0,.671.947A1.8,1.8,0,0,0,52.5,2.53ZM58.563.77V.717A4.518,4.518,0,0,1,58.74-.635a2.054,2.054,0,0,1,.48-.813,3.878,3.878,0,0,1,.747-.573,2.3,2.3,0,0,0,.471-.38,1.686,1.686,0,0,0,.331-.509,1.627,1.627,0,0,0,.122-.64,1.373,1.373,0,0,0-.2-.756,1.373,1.373,0,0,0-.547-.493,1.658,1.658,0,0,0-.76-.173,1.7,1.7,0,0,0-.7.151,1.36,1.36,0,0,0-.565.476,1.655,1.655,0,0,0-.262.849h-1.12a2.5,2.5,0,0,1,.393-1.294,2.336,2.336,0,0,1,.947-.822A2.97,2.97,0,0,1,59.381-5.9a2.841,2.841,0,0,1,1.362.311,2.247,2.247,0,0,1,.9.853A2.4,2.4,0,0,1,61.959-3.5a2.5,2.5,0,0,1-.149.885,2.232,2.232,0,0,1-.427.707,2.973,2.973,0,0,1-.669.551,2.8,2.8,0,0,0-.627.513,1.648,1.648,0,0,0-.342.638,3.577,3.577,0,0,0-.116.92V.77ZM59.132,3.4a.8.8,0,0,1-.8-.8.8.8,0,1,1,1.491.4.836.836,0,0,1-.289.291A.762.762,0,0,1,59.132,3.4Z" transform="translate(352.156 324.637)" fill="#f4f5f5"/>
      <path id="Path_8128" data-name="Path 8128" d="M14.18-.926A6.357,6.357,0,0,0,11-6.431a6.357,6.357,0,0,0-6.357,0A6.357,6.357,0,0,0,1.467-.926,6.357,6.357,0,0,0,4.645,4.579a6.357,6.357,0,0,0,6.357,0A6.357,6.357,0,0,0,14.18-.926ZM0-.926A7.824,7.824,0,0,1,3.912-7.7a7.824,7.824,0,0,1,7.824,0A7.824,7.824,0,0,1,15.647-.926a7.824,7.824,0,0,1-3.912,6.775,7.824,7.824,0,0,1-7.824,0A7.824,7.824,0,0,1,0-.926ZM7.824-3.86a2.934,2.934,0,0,1,2.541,1.467,2.934,2.934,0,0,1,0,2.934A2.934,2.934,0,0,1,7.824,2.007,2.934,2.934,0,0,1,5.283.54a2.934,2.934,0,0,1,0-2.934A2.934,2.934,0,0,1,7.824-3.86Z" transform="translate(39.118 324.489)" fill="#f4f5f5"/>
      <path id="Path_8129" data-name="Path 8129" d="M14.18-.926A6.357,6.357,0,0,0,11-6.431a6.357,6.357,0,0,0-6.357,0A6.357,6.357,0,0,0,1.467-.926,6.357,6.357,0,0,0,4.645,4.579a6.357,6.357,0,0,0,6.357,0A6.357,6.357,0,0,0,14.18-.926ZM0-.926A7.824,7.824,0,0,1,3.912-7.7a7.824,7.824,0,0,1,7.824,0A7.824,7.824,0,0,1,15.647-.926a7.824,7.824,0,0,1-3.912,6.775,7.824,7.824,0,0,1-7.824,0A7.824,7.824,0,0,1,0-.926ZM10.757-3.86V2.007H4.89V-3.86Z" transform="translate(320.766 324.489)" fill="#f4f5f5"/>
      <circle id="Ellipse_56" data-name="Ellipse 56" cx="15.647" cy="15.647" r="15.647" transform="translate(275.389 308.443)" fill="#1a386d"/>
      <rect id="Rectangle_1195" data-name="Rectangle 1195" width="10.953" height="34.424" transform="translate(286.342 306.878)" fill="#1a386d"/>
      <path id="Path_8125" data-name="Path 8125" d="M2.834.194a.659.659,0,0,1,.932.932L2.254,2.639l9.409,0a.66.66,0,1,1,0,1.32H2.254L3.767,5.475a.659.659,0,0,1-.932.932L.194,3.77a.657.657,0,0,1,0-.932L2.834.2Zm9.3,9.682a.657.657,0,0,1,0,.932L9.49,13.451a.659.659,0,1,1-.932-.932l1.513-1.513L.661,11a.66.66,0,1,1,0-1.32h9.409L8.558,8.17a.659.659,0,0,1,.932-.932l2.64,2.64Z" transform="translate(297.296 330.384) rotate(180)" fill="#f4f5f5"/>
      <rect id="Rectangle_1194-2" data-name="Rectangle 1194" width="194.228" height="42.247" rx="6" transform="translate(568.354 301.739)" fill="#051f4c"/>
      <path id="Path_8133" data-name="Path 8133" d="M4.645-8.017a.732.732,0,0,0-.733-.733.732.732,0,0,0-.733.733v1.222H1.956A1.958,1.958,0,0,0,0-4.838V4.941A1.958,1.958,0,0,0,1.956,6.9h9.779a1.958,1.958,0,0,0,1.956-1.956V-4.838a1.958,1.958,0,0,0-1.956-1.956H10.513V-8.017a.732.732,0,0,0-.733-.733.732.732,0,0,0-.733.733v1.222h-4.4ZM1.467-2.882H12.224V4.941a.49.49,0,0,1-.489.489H1.956a.49.49,0,0,1-.489-.489Z" transform="translate(582.072 324.489)" fill="#f4f5f5"/>
      <path id="Path_8132" data-name="Path 8132" d="M3.514,3.286H.7v-9.1H3.638a4.458,4.458,0,0,1,2.267.545A3.6,3.6,0,0,1,7.35-3.713a5.429,5.429,0,0,1,.5,2.429,5.467,5.467,0,0,1-.507,2.447A3.6,3.6,0,0,1,5.87,2.737,4.712,4.712,0,0,1,3.514,3.286ZM1.807,2.308H3.443a3.652,3.652,0,0,0,1.871-.436A2.685,2.685,0,0,0,6.421.632a4.614,4.614,0,0,0,.365-1.916,4.592,4.592,0,0,0-.36-1.9A2.67,2.67,0,0,0,5.35-4.411,3.415,3.415,0,0,0,3.567-4.84H1.807Zm10.615,1.12a3.187,3.187,0,0,1-1.7-.438,2.887,2.887,0,0,1-1.1-1.227A4.149,4.149,0,0,1,9.239-.075a4.236,4.236,0,0,1,.385-1.851A3.013,3.013,0,0,1,10.7-3.18a2.889,2.889,0,0,1,1.616-.451,3.237,3.237,0,0,1,1.054.178,2.625,2.625,0,0,1,.947.576A2.786,2.786,0,0,1,15-1.826a4.472,4.472,0,0,1,.253,1.609V.227H9.986V-.68h4.2a2.257,2.257,0,0,0-.229-1.031,1.762,1.762,0,0,0-.649-.716,1.829,1.829,0,0,0-.989-.262,1.882,1.882,0,0,0-1.082.309,2.057,2.057,0,0,0-.7.8A2.351,2.351,0,0,0,10.288-.52v.6a2.9,2.9,0,0,0,.269,1.309,1.893,1.893,0,0,0,.749.813,2.188,2.188,0,0,0,1.116.278,2.251,2.251,0,0,0,.749-.118,1.562,1.562,0,0,0,.58-.356,1.6,1.6,0,0,0,.378-.593l1.014.284a2.229,2.229,0,0,1-.538.9,2.583,2.583,0,0,1-.933.6A3.43,3.43,0,0,1,12.422,3.428ZM16.85,5.846V-3.542h1.014v1.085h.124q.116-.178.322-.456a1.881,1.881,0,0,1,.6-.5,2.148,2.148,0,0,1,1.056-.22,2.71,2.71,0,0,1,1.52.431,2.869,2.869,0,0,1,1.027,1.222,4.381,4.381,0,0,1,.369,1.867,4.419,4.419,0,0,1-.369,1.878,2.894,2.894,0,0,1-1.022,1.227,2.663,2.663,0,0,1-1.507.433,2.166,2.166,0,0,1-1.054-.22,1.913,1.913,0,0,1-.609-.5q-.213-.282-.329-.469H17.9v3.61ZM17.881-.128a3.778,3.778,0,0,0,.227,1.362,2.044,2.044,0,0,0,.662.92,1.711,1.711,0,0,0,1.067.331,1.721,1.721,0,0,0,1.1-.349,2.127,2.127,0,0,0,.667-.942,3.713,3.713,0,0,0,.224-1.322,3.643,3.643,0,0,0-.22-1.3,2.043,2.043,0,0,0-.662-.92,1.766,1.766,0,0,0-1.109-.34,1.759,1.759,0,0,0-1.076.322,1.963,1.963,0,0,0-.658.9A3.709,3.709,0,0,0,17.881-.128Zm8.606,3.574A2.753,2.753,0,0,1,25.309,3.2a2,2,0,0,1-.84-.716,2.008,2.008,0,0,1-.311-1.136,1.764,1.764,0,0,1,.231-.953,1.637,1.637,0,0,1,.618-.576A3.3,3.3,0,0,1,25.862-.5q.469-.1.945-.167.622-.08,1.011-.122a1.547,1.547,0,0,0,.569-.144.374.374,0,0,0,.18-.356V-1.32a1.4,1.4,0,0,0-.358-1.022,1.455,1.455,0,0,0-1.082-.365,1.887,1.887,0,0,0-1.178.329,1.945,1.945,0,0,0-.6.7l-1-.356A2.4,2.4,0,0,1,25.066-3a2.689,2.689,0,0,1,.978-.489,4.1,4.1,0,0,1,1.047-.14,4.308,4.308,0,0,1,.758.078,2.478,2.478,0,0,1,.831.318,1.861,1.861,0,0,1,.669.725,2.7,2.7,0,0,1,.267,1.3v4.5H28.567V2.361h-.053a1.847,1.847,0,0,1-.356.476,2.052,2.052,0,0,1-.662.431A2.552,2.552,0,0,1,26.487,3.446Zm.16-.942A2.094,2.094,0,0,0,27.7,2.259a1.685,1.685,0,0,0,.649-.631,1.621,1.621,0,0,0,.22-.813v-.96A.613.613,0,0,1,28.276,0a4.415,4.415,0,0,1-.516.111q-.291.047-.565.08l-.442.056a4.073,4.073,0,0,0-.762.171,1.328,1.328,0,0,0-.569.351.9.9,0,0,0-.216.633.933.933,0,0,0,.407.825A1.793,1.793,0,0,0,26.647,2.5Zm4.89.782V-3.542H32.55v1.031h.071a1.64,1.64,0,0,1,.676-.822,1.989,1.989,0,0,1,1.1-.316q.116,0,.289,0t.262.013v1.067q-.053-.013-.242-.042a2.631,2.631,0,0,0-.4-.029,1.861,1.861,0,0,0-.887.207,1.577,1.577,0,0,0-.613.569,1.533,1.533,0,0,0-.224.825V3.286Zm8.055-6.828v.889H36.053v-.889ZM37.084-5.178h1.049V1.33a1.328,1.328,0,0,0,.131.665.643.643,0,0,0,.338.293,1.3,1.3,0,0,0,.438.073,1.656,1.656,0,0,0,.284-.02l.178-.033.213.942a2.183,2.183,0,0,1-.782.124,2.1,2.1,0,0,1-.869-.191,1.712,1.712,0,0,1-.7-.582,1.663,1.663,0,0,1-.278-.987ZM45.477.494V-3.542h1.049V3.286H45.477V2.13h-.071a2.224,2.224,0,0,1-.747.882,2.147,2.147,0,0,1-1.28.362,2.267,2.267,0,0,1-1.138-.282,1.944,1.944,0,0,1-.782-.853A3.227,3.227,0,0,1,41.174.8V-3.542h1.049V.725a1.664,1.664,0,0,0,.42,1.191,1.412,1.412,0,0,0,1.074.445,1.8,1.8,0,0,0,.8-.2,1.754,1.754,0,0,0,.685-.613A1.851,1.851,0,0,0,45.477.494Zm2.969,2.792V-3.542H49.46v1.031h.071a1.64,1.64,0,0,1,.676-.822,1.989,1.989,0,0,1,1.1-.316q.116,0,.289,0t.262.013v1.067q-.053-.013-.242-.042a2.631,2.631,0,0,0-.4-.029,1.861,1.861,0,0,0-.887.207,1.577,1.577,0,0,0-.613.569,1.533,1.533,0,0,0-.224.825V3.286Zm7.308.142a3.187,3.187,0,0,1-1.7-.438,2.887,2.887,0,0,1-1.1-1.227,4.149,4.149,0,0,1-.385-1.838,4.236,4.236,0,0,1,.385-1.851A3.013,3.013,0,0,1,54.031-3.18a2.889,2.889,0,0,1,1.616-.451,3.237,3.237,0,0,1,1.053.178,2.625,2.625,0,0,1,.947.576,2.786,2.786,0,0,1,.68,1.051,4.472,4.472,0,0,1,.253,1.609V.227H53.318V-.68h4.2a2.257,2.257,0,0,0-.229-1.031,1.762,1.762,0,0,0-.649-.716,1.829,1.829,0,0,0-.989-.262,1.882,1.882,0,0,0-1.082.309,2.057,2.057,0,0,0-.7.8A2.351,2.351,0,0,0,53.62-.52v.6a2.9,2.9,0,0,0,.269,1.309,1.893,1.893,0,0,0,.749.813,2.188,2.188,0,0,0,1.116.278,2.251,2.251,0,0,0,.749-.118,1.562,1.562,0,0,0,.58-.356,1.594,1.594,0,0,0,.378-.593l1.014.284a2.229,2.229,0,0,1-.538.9,2.582,2.582,0,0,1-.933.6A3.43,3.43,0,0,1,55.754,3.428Z" transform="translate(612.2 323.557)" fill="#f4f5f5"/>
      <rect id="Rectangle_1193-2" data-name="Rectangle 1193" width="228.448" height="43.812" rx="5" transform="translate(26.6 385.114)" fill="#051f4c"/>
      <path id="Path_8141" data-name="Path 8141" d="M5.63-6.794a1.956,1.956,0,0,0-.978-1.694,1.956,1.956,0,0,0-1.956,0,1.956,1.956,0,0,0-.978,1.694A1.956,1.956,0,0,0,2.7-5.1a1.956,1.956,0,0,0,1.956,0A1.956,1.956,0,0,0,5.63-6.794Zm-2.64,4.4H5.346a2.426,2.426,0,0,1-.2-.978,2.643,2.643,0,0,1,.024-.351,2.444,2.444,0,0,0-.807-.138H2.989A2.443,2.443,0,0,0,.554-1.617L.428-.11a1.955,1.955,0,0,0,1.29,2V6.164a.733.733,0,1,0,1.467,0V2.007h.978V1.518A3.439,3.439,0,0,1,4.3.54H2.378A.487.487,0,0,1,1.892.012l.125-1.507a.976.976,0,0,1,.972-.9Zm7.041-.978a2.426,2.426,0,0,1-.2.978h2.151a.491.491,0,0,1,.471.355l1.018,3.557H11.008v.489a2.884,2.884,0,0,1-.168.978h1.146V6.164a.733.733,0,1,0,1.467,0V2.985h.66a.978.978,0,0,0,.941-1.247L13.86-2.442A1.954,1.954,0,0,0,11.98-3.86h-.963a1.948,1.948,0,0,0-1,.272c.006.07.009.144.009.217Zm3.423-3.423a1.956,1.956,0,0,0-.978-1.694,1.956,1.956,0,0,0-1.956,0,1.956,1.956,0,0,0-.978,1.694A1.956,1.956,0,0,0,10.519-5.1a1.956,1.956,0,0,0,1.956,0A1.956,1.956,0,0,0,13.453-6.794ZM7.586-1.9a1.467,1.467,0,0,0,1.27-.733,1.467,1.467,0,0,0,0-1.467,1.467,1.467,0,0,0-1.27-.733,1.467,1.467,0,0,0-1.27.733,1.467,1.467,0,0,0,0,1.467A1.467,1.467,0,0,0,7.586-1.9Zm.978,3.423v.489a.49.49,0,0,1-.489.489H7.1a.49.49,0,0,1-.489-.489V1.518a.978.978,0,0,1,1.956,0Zm1.467.489V1.518a2.445,2.445,0,1,0-4.89,0v.489a1.951,1.951,0,0,0,1,1.705,1.365,1.365,0,0,0-.021.251V5.919A.977.977,0,0,0,7.1,6.9h.978a.977.977,0,0,0,.978-.978V3.963a1.364,1.364,0,0,0-.021-.251A1.951,1.951,0,0,0,10.03,2.007Z" transform="translate(42.485 407.489)" fill="#f4f5f5"/>
      <text id="Passengers" transform="translate(26.6 375.337)" fill="#8aa2ce" font-size="12" font-family="Inter-Bold, Inter" font-weight="700"><tspan x="0" y="0">Passengers</tspan></text>
      <text id="Cabin" transform="translate(264.436 375.337)" fill="#8aa2ce" font-size="12" font-family="Inter-Bold, Inter" font-weight="700"><tspan x="0" y="0">Cabin</tspan></text>
      <rect id="Rectangle_1197" data-name="Rectangle 1197" width="175.248" height="31.294" rx="4" transform="translate(73.541 391.372)" fill="#1a386d"/>
      <path id="Path_8140" data-name="Path 8140" d="M3.57,3.976a3.018,3.018,0,0,1-1.725-.494A3.1,3.1,0,0,1,.736,2.063,5.764,5.764,0,0,1,.353-.174,5.709,5.709,0,0,1,.74-2.395a3.044,3.044,0,0,1,1.109-1.4,3.034,3.034,0,0,1,1.721-.48,3.024,3.024,0,0,1,1.721.482,3.069,3.069,0,0,1,1.11,1.4A5.626,5.626,0,0,1,6.786-.174,5.821,5.821,0,0,1,6.4,2.067a3.1,3.1,0,0,1-1.107,1.42A2.987,2.987,0,0,1,3.57,3.976Zm0-1.4a1.232,1.232,0,0,0,1.093-.688,4.112,4.112,0,0,0,.4-2.065,5.232,5.232,0,0,0-.185-1.509,1.967,1.967,0,0,0-.521-.906,1.144,1.144,0,0,0-.792-.3,1.231,1.231,0,0,0-1.089.681A4.063,4.063,0,0,0,2.068-.174a5.384,5.384,0,0,0,.185,1.531,1.974,1.974,0,0,0,.523.918A1.147,1.147,0,0,0,3.57,2.58Zm7.88-6.744V3.8H9.766V-2.566H9.719L7.895-1.422V-2.916L9.867-4.164ZM17.3,3.8H15.5l2.75-7.966h2.17L23.165,3.8h-1.8l-2-6.145H19.3ZM17.191.67h4.263V1.985H17.191ZM26.012,3.9a2.237,2.237,0,0,1-1.231-.352,2.4,2.4,0,0,1-.871-1.039A3.968,3.968,0,0,1,23.589.822,3.912,3.912,0,0,1,23.92-.887,2.382,2.382,0,0,1,24.8-1.91a2.252,2.252,0,0,1,1.208-.34,1.856,1.856,0,0,1,.838.169,1.669,1.669,0,0,1,.545.42,2.2,2.2,0,0,1,.317.492h.051V-4.164h1.653V3.8H27.778V2.845h-.07a2.129,2.129,0,0,1-.329.492,1.656,1.656,0,0,1-.548.4A1.9,1.9,0,0,1,26.012,3.9Zm.525-1.319a1.061,1.061,0,0,0,.679-.22,1.387,1.387,0,0,0,.428-.616,2.628,2.628,0,0,0,.15-.93,2.626,2.626,0,0,0-.148-.926,1.329,1.329,0,0,0-.428-.607,1.088,1.088,0,0,0-.681-.214,1.075,1.075,0,0,0-.688.222,1.356,1.356,0,0,0-.424.615,2.64,2.64,0,0,0-.144.91,2.67,2.67,0,0,0,.146.92,1.387,1.387,0,0,0,.424.622A1.06,1.06,0,0,0,26.537,2.58Zm14.99-9.312v13.1H40.75v-13.1ZM55.592,3.91a2.368,2.368,0,0,1-1.5-.48,2.978,2.978,0,0,1-.945-1.4,6.624,6.624,0,0,1-.327-2.215,6.56,6.56,0,0,1,.329-2.207,3.009,3.009,0,0,1,.949-1.4,2.351,2.351,0,0,1,1.492-.484,2.351,2.351,0,0,1,1.492.484,3.009,3.009,0,0,1,.949,1.4,6.561,6.561,0,0,1,.329,2.207,6.624,6.624,0,0,1-.327,2.215,2.978,2.978,0,0,1-.945,1.4A2.368,2.368,0,0,1,55.592,3.91Zm0-.856a1.494,1.494,0,0,0,1.354-.84,4.868,4.868,0,0,0,.482-2.4,6.15,6.15,0,0,0-.22-1.762,2.441,2.441,0,0,0-.63-1.109,1.4,1.4,0,0,0-.986-.381,1.5,1.5,0,0,0-1.35.85,4.884,4.884,0,0,0-.486,2.4,6.161,6.161,0,0,0,.218,1.758,2.4,2.4,0,0,0,.628,1.1A1.411,1.411,0,0,0,55.592,3.055Zm16.958-4.73h-.965a2.026,2.026,0,0,0-.3-.731,2.064,2.064,0,0,0-.513-.531,2.23,2.23,0,0,0-.667-.325,2.656,2.656,0,0,0-.762-.109,2.42,2.42,0,0,0-1.309.366,2.525,2.525,0,0,0-.93,1.077,3.99,3.99,0,0,0-.344,1.746,3.99,3.99,0,0,0,.344,1.746,2.525,2.525,0,0,0,.93,1.077,2.42,2.42,0,0,0,1.309.366,2.656,2.656,0,0,0,.762-.109,2.23,2.23,0,0,0,.667-.325,2.051,2.051,0,0,0,.513-.533,2.045,2.045,0,0,0,.3-.729h.965a3.213,3.213,0,0,1-.4,1.093,2.96,2.96,0,0,1-.716.819,3.116,3.116,0,0,1-.959.511,3.6,3.6,0,0,1-1.134.175,3.338,3.338,0,0,1-1.813-.5A3.416,3.416,0,0,1,66.285,2,4.854,4.854,0,0,1,65.83-.182a4.854,4.854,0,0,1,.455-2.178,3.416,3.416,0,0,1,1.249-1.416,3.338,3.338,0,0,1,1.813-.5A3.6,3.6,0,0,1,70.48-4.1a3.116,3.116,0,0,1,.959.511,2.971,2.971,0,0,1,.716.817A3.194,3.194,0,0,1,72.551-1.675ZM74.107,3.8V-4.164h.965V-.617h4.247V-4.164h.965V3.8h-.965V.239H75.071V3.8ZM92.668-6.732v13.1H91.89v-13.1ZM106.732,3.91a2.368,2.368,0,0,1-1.5-.48,2.978,2.978,0,0,1-.945-1.4,6.623,6.623,0,0,1-.327-2.215,6.561,6.561,0,0,1,.329-2.207,3.009,3.009,0,0,1,.949-1.4,2.351,2.351,0,0,1,1.492-.484,2.351,2.351,0,0,1,1.492.484,3.009,3.009,0,0,1,.949,1.4A6.56,6.56,0,0,1,109.5-.182a6.623,6.623,0,0,1-.327,2.215,2.978,2.978,0,0,1-.945,1.4A2.368,2.368,0,0,1,106.732,3.91Zm0-.856a1.494,1.494,0,0,0,1.354-.84,4.868,4.868,0,0,0,.482-2.4,6.15,6.15,0,0,0-.22-1.762,2.441,2.441,0,0,0-.63-1.109,1.4,1.4,0,0,0-.986-.381,1.5,1.5,0,0,0-1.35.85,4.884,4.884,0,0,0-.486,2.4,6.16,6.16,0,0,0,.218,1.758,2.4,2.4,0,0,0,.628,1.1A1.411,1.411,0,0,0,106.732,3.055Zm8.433-7.219V3.8H114.2V-4.164ZM117.887.207V3.8h-.918V-2.173h.887v.933h.078a1.718,1.718,0,0,1,.638-.733,1.994,1.994,0,0,1,1.1-.278A2.192,2.192,0,0,1,120.738-2a1.69,1.69,0,0,1,.708.747A2.787,2.787,0,0,1,121.7.005V3.8h-.918V.067a1.556,1.556,0,0,0-.366-1.1,1.3,1.3,0,0,0-1-.395,1.591,1.591,0,0,0-.784.191,1.36,1.36,0,0,0-.543.556A1.837,1.837,0,0,0,117.887.207Zm8.152-2.38V-1.4h-3.221v-.778ZM123.784,3.8V-3a1.449,1.449,0,0,1,.241-.856,1.494,1.494,0,0,1,.626-.513,1.98,1.98,0,0,1,.813-.171,2.3,2.3,0,0,1,.552.054,2.145,2.145,0,0,1,.319.1l-.265.793q-.07-.023-.193-.058a1.2,1.2,0,0,0-.321-.035.829.829,0,0,0-.655.229,1,1,0,0,0-.2.673V3.8Z" transform="translate(89.388 406.47)" fill="#f4f5f5"/>
      <rect id="Rectangle_1194-3" data-name="Rectangle 1194" width="187.765" height="43.812" rx="5" transform="translate(264.436 384.739)" fill="#051f4c"/>
      <path id="Path_8441" data-name="Path 8441" d="M1.781-15.734a.888.888,0,0,0-.891-.891A.888.888,0,0,0,0-15.734v4.412A3.836,3.836,0,0,0,.338-9.745L3.306-3.117a3.268,3.268,0,0,0,2.98,1.93H8.016V.594H4.453a.891.891,0,0,0,0,1.781h8.906a.891.891,0,0,0,0-1.781H9.8V-1.187h3.266A2.675,2.675,0,0,0,15.53-2.831L16.558-5.3a.88.88,0,0,0-.082-.835.9.9,0,0,0-.742-.4h-12L3.2-7.719h8.973a.888.888,0,0,0,.891-.891.888.888,0,0,0-.891-.891H2.4l-.434-.972a2.094,2.094,0,0,1-.182-.85v-4.412ZM4.932-3.845l-.4-.905H14.4l-.512,1.232a.9.9,0,0,1-.824.549H6.286A1.485,1.485,0,0,1,4.932-3.845Z" transform="translate(277.8 413.364)" fill="#f4f5f5"/>
      <path id="Path_8139" data-name="Path 8139" d="M4.847.035a.511.511,0,0,1-.725,0L.7-3.388a.511.511,0,0,1,0-.725.513.513,0,0,1,.725,0L4.481-1.054,7.543-4.115a.511.511,0,0,1,.725,0,.513.513,0,0,1,0,.725Z" transform="translate(429.039 409.005)" fill="#f4f5f5"/>
      <rect id="Rectangle_1323" data-name="Rectangle 1323" width="107.965" height="31.294" rx="4" transform="translate(309.813 391.372)" fill="#1a386d"/>
      <path id="Path_8137" data-name="Path 8137" d="M.506,3.286v-9.1H6.64v1.587H2.43v2.169H6.324V-.475H2.43V1.7H6.658V3.286Zm10.717.133a3.472,3.472,0,0,1-1.8-.447A2.971,2.971,0,0,1,8.265,1.73,4.005,4.005,0,0,1,7.862-.1a3.986,3.986,0,0,1,.407-1.843,3.008,3.008,0,0,1,1.158-1.24,3.433,3.433,0,0,1,1.787-.447,3.556,3.556,0,0,1,1.565.324,2.615,2.615,0,0,1,1.062.911,2.678,2.678,0,0,1,.431,1.378H12.485a1.4,1.4,0,0,0-.4-.825,1.157,1.157,0,0,0-.842-.313,1.268,1.268,0,0,0-.767.238,1.536,1.536,0,0,0-.509.691,2.946,2.946,0,0,0-.182,1.1A3.042,3.042,0,0,0,9.967.983a1.528,1.528,0,0,0,.509.7,1.27,1.27,0,0,0,.769.24,1.262,1.262,0,0,0,.585-.133,1.14,1.14,0,0,0,.431-.389,1.482,1.482,0,0,0,.224-.616h1.787a2.8,2.8,0,0,1-.425,1.376,2.588,2.588,0,0,1-1.047.927A3.49,3.49,0,0,1,11.223,3.419Zm7.352,0a3.472,3.472,0,0,1-1.789-.442,2.989,2.989,0,0,1-1.162-1.236A3.968,3.968,0,0,1,15.215-.1a3.988,3.988,0,0,1,.409-1.851,2.989,2.989,0,0,1,1.162-1.236,3.472,3.472,0,0,1,1.789-.442,3.472,3.472,0,0,1,1.789.442,2.989,2.989,0,0,1,1.162,1.236A3.988,3.988,0,0,1,21.936-.1a3.968,3.968,0,0,1-.409,1.843,2.989,2.989,0,0,1-1.162,1.236A3.472,3.472,0,0,1,18.575,3.419Zm.009-1.467a1.171,1.171,0,0,0,.787-.269,1.654,1.654,0,0,0,.478-.736,3.226,3.226,0,0,0,.162-1.062,3.226,3.226,0,0,0-.162-1.062,1.67,1.67,0,0,0-.478-.738,1.165,1.165,0,0,0-.787-.271,1.2,1.2,0,0,0-.8.271,1.643,1.643,0,0,0-.485.738A3.226,3.226,0,0,0,17.14-.115,3.226,3.226,0,0,0,17.3.947a1.628,1.628,0,0,0,.485.736A1.2,1.2,0,0,0,18.584,1.952ZM25.065-.662V3.286H23.172V-3.542h1.8v1.2h.08a1.917,1.917,0,0,1,.76-.945,2.311,2.311,0,0,1,1.294-.349,2.4,2.4,0,0,1,1.24.311,2.118,2.118,0,0,1,.822.887,2.987,2.987,0,0,1,.293,1.371V3.286H27.573V-.724a1.38,1.38,0,0,0-.32-.98,1.153,1.153,0,0,0-.893-.353,1.346,1.346,0,0,0-.673.164,1.131,1.131,0,0,0-.453.478A1.658,1.658,0,0,0,25.065-.662ZM34.04,3.419a3.472,3.472,0,0,1-1.789-.442,2.989,2.989,0,0,1-1.162-1.236A3.968,3.968,0,0,1,30.68-.1a3.988,3.988,0,0,1,.409-1.851,2.989,2.989,0,0,1,1.162-1.236,3.472,3.472,0,0,1,1.789-.442,3.472,3.472,0,0,1,1.789.442,2.989,2.989,0,0,1,1.162,1.236A3.988,3.988,0,0,1,37.4-.1a3.968,3.968,0,0,1-.409,1.843,2.989,2.989,0,0,1-1.162,1.236A3.472,3.472,0,0,1,34.04,3.419Zm.009-1.467a1.171,1.171,0,0,0,.787-.269,1.654,1.654,0,0,0,.478-.736,3.226,3.226,0,0,0,.162-1.062,3.226,3.226,0,0,0-.162-1.062,1.67,1.67,0,0,0-.478-.738,1.165,1.165,0,0,0-.787-.271,1.2,1.2,0,0,0-.8.271,1.643,1.643,0,0,0-.485.738A3.226,3.226,0,0,0,32.6-.115,3.226,3.226,0,0,0,32.767.947a1.628,1.628,0,0,0,.485.736A1.2,1.2,0,0,0,34.049,1.952Zm4.587,1.334V-3.542h1.8v1.2h.08a1.894,1.894,0,0,1,.711-.947,2.032,2.032,0,0,1,1.191-.347,2.018,2.018,0,0,1,1.2.349,1.664,1.664,0,0,1,.658.945h.071a1.824,1.824,0,0,1,.758-.94,2.35,2.35,0,0,1,1.3-.353,2.085,2.085,0,0,1,1.554.607,2.344,2.344,0,0,1,.6,1.718V3.286H46.669V-.933a1.118,1.118,0,0,0-.3-.853,1.06,1.06,0,0,0-.756-.284,1.018,1.018,0,0,0-.8.327,1.251,1.251,0,0,0-.289.86v4.17H42.682V-.973a1.105,1.105,0,0,0-.287-.8,1,1,0,0,0-.753-.3,1.043,1.043,0,0,0-.567.158,1.113,1.113,0,0,0-.4.44,1.412,1.412,0,0,0-.147.66v4.1Zm12.335,2.56A3.859,3.859,0,0,1,50.3,5.79a2.541,2.541,0,0,1-.518-.14l.427-1.414a2.342,2.342,0,0,0,.6.111.768.768,0,0,0,.467-.124A.934.934,0,0,0,51.6,3.77l.111-.289L49.261-3.542h1.991l1.414,5.014h.071l1.427-5.014h2L53.515,4.023A3.236,3.236,0,0,1,53,4.986a2.179,2.179,0,0,1-.825.636A2.907,2.907,0,0,1,50.972,5.846Z" transform="translate(322.616 406.557)" fill="#f4f5f5"/>
      <path id="Path_8138" data-name="Path 8138" d="M7.134-3.935a.511.511,0,0,0,0-.725.513.513,0,0,0-.725,0L3.863-2.115,1.315-4.662a.511.511,0,0,0-.725,0,.513.513,0,0,0,0,.725L3.135-1.391.588,1.156a.513.513,0,0,0,.725.725L3.859-.664,6.406,1.884a.513.513,0,1,0,.725-.725L4.586-1.387Z" transform="translate(396.118 407.552)" fill="#f4f5f5"/>
      <g id="Group_7247" data-name="Group 7247" transform="translate(26.6 456.321)">
        <rect id="Rectangle_1324" data-name="Rectangle 1324" width="215.93" height="51.635" rx="6" fill="#1aa5da"/>
        <path id="Path_8131" data-name="Path 8131" d="M5.608,6.791A6.461,6.461,0,0,1,3.046,6.3a4.208,4.208,0,0,1-1.8-1.4A3.694,3.694,0,0,1,.561,2.737H3.484a1.89,1.89,0,0,0,.594,1.325A2.106,2.106,0,0,0,5.55,4.55a2.263,2.263,0,0,0,1.5-.458,1.489,1.489,0,0,0,.546-1.2,1.385,1.385,0,0,0-.37-.994A2.594,2.594,0,0,0,6.3,1.286a15.319,15.319,0,0,0-1.53-.5A16.384,16.384,0,0,1,2.617.019a3.772,3.772,0,0,1-1.423-1.15A3.277,3.277,0,0,1,.6-3.187a3.676,3.676,0,0,1,.6-2.1A3.843,3.843,0,0,1,2.9-6.665a6.168,6.168,0,0,1,2.494-.477A5.412,5.412,0,0,1,8.814-6.12a3.793,3.793,0,0,1,1.452,2.855h-3a1.559,1.559,0,0,0-.594-1.16A2.24,2.24,0,0,0,5.2-4.882a1.9,1.9,0,0,0-1.276.409,1.48,1.48,0,0,0-.477,1.189,1.229,1.229,0,0,0,.361.906,2.749,2.749,0,0,0,.9.585q.536.224,1.51.516A15.867,15.867,0,0,1,8.376-.5,3.885,3.885,0,0,1,9.818.672a3.248,3.248,0,0,1,.6,2.046,3.849,3.849,0,0,1-.565,2.027A3.99,3.99,0,0,1,8.2,6.236,5.65,5.65,0,0,1,5.608,6.791ZM22.816,1.023a6.439,6.439,0,0,1-.078,1.052H14.846a2.684,2.684,0,0,0,.818,1.832,2.524,2.524,0,0,0,1.773.663A2.228,2.228,0,0,0,19.6,3.264h2.943a4.918,4.918,0,0,1-1.793,2.563,5.234,5.234,0,0,1-3.254,1,5.632,5.632,0,0,1-2.8-.692A4.869,4.869,0,0,1,12.77,4.18a6,6,0,0,1-.692-2.923,6.113,6.113,0,0,1,.682-2.943,4.759,4.759,0,0,1,1.91-1.949A5.721,5.721,0,0,1,17.5-4.317a5.676,5.676,0,0,1,2.758.663,4.663,4.663,0,0,1,1.89,1.881A5.691,5.691,0,0,1,22.816,1.023ZM19.991.243a2.164,2.164,0,0,0-.76-1.686,2.693,2.693,0,0,0-1.812-.633,2.477,2.477,0,0,0-1.705.614A2.7,2.7,0,0,0,14.865.243Zm4.112.974a6.249,6.249,0,0,1,.653-2.9,4.785,4.785,0,0,1,1.773-1.949,4.721,4.721,0,0,1,2.5-.682,4.4,4.4,0,0,1,2.114.487A4.291,4.291,0,0,1,32.6-2.6v-1.54h2.748v10.8H32.6V5.076a4.058,4.058,0,0,1-1.452,1.257,4.442,4.442,0,0,1-2.134.5,4.588,4.588,0,0,1-2.485-.7A4.91,4.91,0,0,1,24.755,4.15,6.352,6.352,0,0,1,24.1,1.217Zm8.5.039a3.5,3.5,0,0,0-.39-1.705A2.748,2.748,0,0,0,31.157-1.54a2.813,2.813,0,0,0-1.423-.38,2.763,2.763,0,0,0-1.4.37A2.788,2.788,0,0,0,27.289-.468a3.388,3.388,0,0,0-.4,1.686,3.5,3.5,0,0,0,.4,1.705,2.876,2.876,0,0,0,1.052,1.121,2.673,2.673,0,0,0,1.393.39,2.813,2.813,0,0,0,1.423-.38,2.748,2.748,0,0,0,1.052-1.091A3.5,3.5,0,0,0,32.6,1.256Zm8.146-3.722A3.836,3.836,0,0,1,42.119-3.81,3.821,3.821,0,0,1,44.058-4.3v2.865h-.721a2.764,2.764,0,0,0-1.939.6,2.785,2.785,0,0,0-.653,2.1V6.655H38.017v-10.8h2.728Zm4.443,3.722a6.056,6.056,0,0,1,.682-2.933,4.875,4.875,0,0,1,1.89-1.949,5.469,5.469,0,0,1,2.767-.692,5.32,5.32,0,0,1,3.323,1A4.882,4.882,0,0,1,55.615-.5H52.672a2.152,2.152,0,0,0-.789-1.1A2.291,2.291,0,0,0,50.509-2a2.25,2.25,0,0,0-1.851.848,3.752,3.752,0,0,0-.682,2.407,3.718,3.718,0,0,0,.682,2.387,2.25,2.25,0,0,0,1.851.848A2.069,2.069,0,0,0,52.672,3.01h2.943A4.98,4.98,0,0,1,53.841,5.8,5.226,5.226,0,0,1,50.528,6.83a5.469,5.469,0,0,1-2.767-.692,4.875,4.875,0,0,1-1.89-1.949A6.056,6.056,0,0,1,45.188,1.256ZM63.7-4.3a4.383,4.383,0,0,1,2.183.536,3.693,3.693,0,0,1,1.491,1.579,5.42,5.42,0,0,1,.536,2.5V6.655H65.183V.691a2.8,2.8,0,0,0-.643-1.978,2.278,2.278,0,0,0-1.754-.692A2.334,2.334,0,0,0,61-1.287,2.773,2.773,0,0,0,60.35.691V6.655H57.622V-7.767H60.35V-2.8a3.557,3.557,0,0,1,1.4-1.1A4.647,4.647,0,0,1,63.7-4.3Zm19.839-2.65v2.2H77.87v3.488h4.346V.906H77.87V6.655H75.141v-13.6ZM88.2-7.767V6.655H85.47V-7.767Zm4.073,2.339a1.662,1.662,0,0,1-1.2-.458,1.515,1.515,0,0,1-.477-1.14,1.515,1.515,0,0,1,.477-1.14,1.662,1.662,0,0,1,1.2-.458,1.662,1.662,0,0,1,1.2.458,1.515,1.515,0,0,1,.477,1.14,1.515,1.515,0,0,1-.477,1.14A1.662,1.662,0,0,1,92.271-5.428Zm1.345,1.286v10.8H90.888v-10.8Zm6.918-.175a4.531,4.531,0,0,1,2.124.477A3.911,3.911,0,0,1,104.1-2.6v-1.54h2.748V6.733a5.792,5.792,0,0,1-.6,2.68,4.485,4.485,0,0,1-1.812,1.871,5.793,5.793,0,0,1-2.923.692A6.244,6.244,0,0,1,97.738,10.9,3.973,3.973,0,0,1,96.072,7.98H98.78a2.017,2.017,0,0,0,.926,1.179,3.225,3.225,0,0,0,1.725.438,2.669,2.669,0,0,0,1.929-.711,2.857,2.857,0,0,0,.741-2.153V5.057a4.145,4.145,0,0,1-1.452,1.267,4.332,4.332,0,0,1-2.114.507,4.637,4.637,0,0,1-2.494-.7A4.886,4.886,0,0,1,96.257,4.15,6.353,6.353,0,0,1,95.6,1.217a6.249,6.249,0,0,1,.653-2.9A4.785,4.785,0,0,1,98.03-3.635,4.721,4.721,0,0,1,100.534-4.317ZM104.1,1.256a3.5,3.5,0,0,0-.39-1.705,2.748,2.748,0,0,0-1.052-1.091,2.813,2.813,0,0,0-1.423-.38,2.763,2.763,0,0,0-1.4.37A2.788,2.788,0,0,0,98.79-.468a3.388,3.388,0,0,0-.4,1.686,3.5,3.5,0,0,0,.4,1.705,2.876,2.876,0,0,0,1.052,1.121,2.673,2.673,0,0,0,1.393.39,2.813,2.813,0,0,0,1.423-.38,2.748,2.748,0,0,0,1.052-1.091A3.5,3.5,0,0,0,104.1,1.256ZM115.6-4.3a4.383,4.383,0,0,1,2.183.536,3.693,3.693,0,0,1,1.491,1.579,5.419,5.419,0,0,1,.536,2.5V6.655H117.08V.691a2.8,2.8,0,0,0-.643-1.978,2.278,2.278,0,0,0-1.754-.692,2.334,2.334,0,0,0-1.783.692,2.773,2.773,0,0,0-.653,1.978V6.655h-2.728V-7.767h2.728V-2.8a3.557,3.557,0,0,1,1.4-1.1A4.647,4.647,0,0,1,115.6-4.3Zm9.978,2.4V3.322a1.032,1.032,0,0,0,.263.789,1.292,1.292,0,0,0,.887.244h1.267v2.3h-1.715q-3.449,0-3.449-3.352V-1.9h-1.286V-4.142h1.286v-2.67h2.748v2.67h2.416V-1.9Z" transform="translate(68.956 26.49)" fill="#fff"/>
        <path id="Path_8134" data-name="Path 8134" d="M6.79-8.808a2.067,2.067,0,0,1,1.557-.06l7.7,2.824a.68.68,0,0,0,.548-.034L20.357-8a4.785,4.785,0,0,1,2.182-.526h2.61a.742.742,0,0,1,.676,1.053,6.933,6.933,0,0,1-3.192,3.294L10.936,1.67a.694.694,0,0,1-.308.073H4.676a.687.687,0,0,1-.483-.2L1.459-1.188,2.473-1.77a.681.681,0,0,1,.616-.03L5.536-.713a.681.681,0,0,0,.59-.017l4.92-2.516a.682.682,0,0,0,.372-.582A.691.691,0,0,0,11.1-4.44L5.215-8.089l-.282-.625.282.625,1.579-.719Zm2.028-1.343a3.424,3.424,0,0,0-2.593.1l-1.579.719a1.367,1.367,0,0,0-.154,2.409L9.349-3.909,5.8-2.095,3.65-3.049l-.261.586.261-.586A2.051,2.051,0,0,0,1.8-2.955L.779-2.377A1.37,1.37,0,0,0,.488-.221l2.73,2.73a2.054,2.054,0,0,0,1.45.6h5.96a2.022,2.022,0,0,0,.92-.218l11.7-5.849A8.279,8.279,0,0,0,27.066-6.9a2.11,2.11,0,0,0-1.917-2.995h-2.61a6.139,6.139,0,0,0-2.8.676l-3.5,1.788L8.818-10.151ZM.685,7.219a.685.685,0,0,0,0,1.369H26.7a.685.685,0,0,0,0-1.369Z" transform="translate(17.83 27.073)" fill="#fff"/>
      </g>
      <path id="Path_8439" data-name="Path 8439" d="M6.891,0H104.2a6.891,6.891,0,0,1,6.891,6.891V25.968a6.891,6.891,0,0,1-6.891,6.891H6.891A6.891,6.891,0,0,1,0,25.968V6.891A6.891,6.891,0,0,1,6.891,0Z" transform="translate(29.8 248.739)" fill="#214d9c"/>
      <g id="Group_7262" data-name="Group 7262" transform="translate(1.276 -1)">
        <path id="Path_8436" data-name="Path 8436" d="M9.79-.749a5.815,5.815,0,0,1-.619,2.79A4.314,4.314,0,0,1,7.487,3.795,4.756,4.756,0,0,1,5.1,4.4a4.746,4.746,0,0,1-2.4-.607A4.32,4.32,0,0,1,1.02,2.035,5.823,5.823,0,0,1,.4-.749a5.834,5.834,0,0,1,.617-2.79A4.3,4.3,0,0,1,2.7-5.293a4.761,4.761,0,0,1,2.4-.6,4.756,4.756,0,0,1,2.391.6A4.314,4.314,0,0,1,9.171-3.539,5.815,5.815,0,0,1,9.79-.749Zm-2.148,0a4.508,4.508,0,0,0-.316-1.791,2.439,2.439,0,0,0-.888-1.106A2.383,2.383,0,0,0,5.1-4.023a2.383,2.383,0,0,0-1.341.377,2.439,2.439,0,0,0-.888,1.106A4.508,4.508,0,0,0,2.552-.749a4.508,4.508,0,0,0,.316,1.791,2.439,2.439,0,0,0,.888,1.106A2.383,2.383,0,0,0,5.1,2.525a2.383,2.383,0,0,0,1.341-.377,2.439,2.439,0,0,0,.888-1.106A4.508,4.508,0,0,0,7.641-.749Zm5.76.666V4.262H11.317V-3.255H13.3v1.326h.088a2.11,2.11,0,0,1,.837-1.04,2.545,2.545,0,0,1,1.424-.384,2.644,2.644,0,0,1,1.365.343,2.332,2.332,0,0,1,.905.976,3.288,3.288,0,0,1,.323,1.51V4.262H16.162V-.152a1.519,1.519,0,0,0-.352-1.079,1.269,1.269,0,0,0-.984-.389,1.482,1.482,0,0,0-.741.181,1.245,1.245,0,0,0-.5.526A1.826,1.826,0,0,0,13.4-.084Zm9.91,4.493a3.986,3.986,0,0,1-1.994-.472A3.194,3.194,0,0,1,20.033,2.6a4.417,4.417,0,0,1-.45-2.058,4.394,4.394,0,0,1,.45-2.036A3.323,3.323,0,0,1,21.3-2.864a3.686,3.686,0,0,1,1.926-.489,3.978,3.978,0,0,1,1.387.237,3.127,3.127,0,0,1,1.126.712,3.243,3.243,0,0,1,.751,1.192A4.76,4.76,0,0,1,26.762.464v.573H20.414V-.255H24.8a1.6,1.6,0,0,0-.2-.8,1.424,1.424,0,0,0-.541-.546,1.578,1.578,0,0,0-.8-.2,1.6,1.6,0,0,0-.839.218,1.562,1.562,0,0,0-.57.582,1.659,1.659,0,0,0-.21.81V1.042a2.091,2.091,0,0,0,.208.964,1.489,1.489,0,0,0,.59.626,1.781,1.781,0,0,0,.905.22,1.972,1.972,0,0,0,.636-.1,1.32,1.32,0,0,0,.494-.294,1.277,1.277,0,0,0,.313-.48l1.928.127a2.628,2.628,0,0,1-.6,1.211,3.012,3.012,0,0,1-1.165.8A4.377,4.377,0,0,1,23.312,4.409Zm9.494-5.09V.973H28.235V-.681Zm3.259,4.943L34.019-3.255h2.109L37.293,1.8h.069l1.214-5.05h2.07l1.233,5.021h.064l1.145-5.021h2.1L43.151,4.262H40.944L39.652-.466h-.093L38.267,4.262ZM48.442,4.4a3.106,3.106,0,0,1-1.282-.252,2.027,2.027,0,0,1-.888-.749,2.218,2.218,0,0,1-.325-1.241,2.191,2.191,0,0,1,.23-1.052A1.862,1.862,0,0,1,46.8.425a3.035,3.035,0,0,1,.9-.392A6.8,6.8,0,0,1,48.77-.152q.656-.069,1.057-.13a1.476,1.476,0,0,0,.582-.184.409.409,0,0,0,.181-.362V-.857a.9.9,0,0,0-.291-.719,1.214,1.214,0,0,0-.825-.254,1.469,1.469,0,0,0-.9.247,1.16,1.16,0,0,0-.44.619L46.21-1.121a2.637,2.637,0,0,1,.577-1.187A2.8,2.8,0,0,1,47.9-3.081a4.263,4.263,0,0,1,1.583-.272,4.838,4.838,0,0,1,1.2.147,3.168,3.168,0,0,1,1.023.455,2.227,2.227,0,0,1,.707.79,2.4,2.4,0,0,1,.259,1.153v5.07H50.7V3.22h-.059a2.091,2.091,0,0,1-.484.619,2.185,2.185,0,0,1-.729.416A2.969,2.969,0,0,1,48.442,4.4Zm.6-1.439a1.734,1.734,0,0,0,.812-.184,1.421,1.421,0,0,0,.553-.5,1.287,1.287,0,0,0,.2-.71v-.8a1.066,1.066,0,0,1-.267.115q-.169.051-.379.093t-.421.073l-.382.056a2.579,2.579,0,0,0-.641.171,1.035,1.035,0,0,0-.426.316.785.785,0,0,0-.152.492.748.748,0,0,0,.311.648A1.324,1.324,0,0,0,49.039,2.965Zm6.269,4.116a4.249,4.249,0,0,1-.741-.061A2.8,2.8,0,0,1,54,6.865l.47-1.556a2.578,2.578,0,0,0,.663.122.845.845,0,0,0,.514-.137A1.028,1.028,0,0,0,56,4.8l.122-.318-2.7-7.732h2.192l1.556,5.52h.078l1.571-5.52h2.207L58.107,5.074a3.563,3.563,0,0,1-.57,1.06,2.4,2.4,0,0,1-.908.7A3.2,3.2,0,0,1,55.308,7.081Z" transform="translate(66.276 265.637)" fill="#fff"/>
        <path id="Path_8438" data-name="Path 8438" d="M13.593-.735a.643.643,0,0,0,0-.912L9.932-5.311a.643.643,0,0,0-.912,0,.646.646,0,0,0,0,.912l2.557,2.557-10.931,0A.644.644,0,0,0,0-1.193a.644.644,0,0,0,.646.646H11.577L9.02,2.01a.645.645,0,0,0,.912.912Z" transform="translate(40.524 267.24)" fill="#fff"/>
      </g>
    </g>
    <g id="Rectangle_1838" data-name="Rectangle 1838" transform="translate(33.724 34.034)" fill="none" stroke="#5f7db3" stroke-width="4" stroke-dasharray="25 10" opacity="0.4">
      <path d="M25,0H802a0,0,0,0,1,0,0V581a0,0,0,0,1,0,0H25A25,25,0,0,1,0,556V25A25,25,0,0,1,25,0Z" stroke="none"/>
      <path d="M25-2H804a0,0,0,0,1,0,0V583a0,0,0,0,1,0,0H25A27,27,0,0,1-2,556V25A27,27,0,0,1,25-2Z" fill="none"/>
    </g>
  </g>
</svg>
