<svg xmlns="http://www.w3.org/2000/svg" xmlns:xlink="http://www.w3.org/1999/xlink" width="922" height="481" viewBox="0 0 922 481">
  <defs>
    <clipPath id="clip-path">
      <rect id="Rectangle_1833" data-name="Rectangle 1833" width="922" height="481" transform="translate(-92.276 37.54)" fill="#fff" stroke="#707070" stroke-width="1"/>
    </clipPath>
    <clipPath id="clip-path-2">
      <rect id="Rectangle_1192" data-name="Rectangle 1192" width="893.25" height="213.704" rx="15" transform="translate(0 0)" fill="#2b2b4a" stroke="#707070" stroke-width="1"/>
    </clipPath>
    <clipPath id="clip-path-3">
      <path id="Path_4479" data-name="Path 4479" d="M0,0H895.029V214.143H0Z" fill="#1a386d"/>
    </clipPath>
  </defs>
  <g id="dashboard-ui-full" transform="translate(92.276 -37.54)" clip-path="url(#clip-path)">
    <g id="Group_7246" data-name="Group 7246" transform="translate(-79.276 52.54)">
      <rect id="Rectangle_1191" data-name="Rectangle 1191" width="894.788" height="452.669" rx="15" transform="translate(0.196 0.192)" fill="#1a386d"/>
      <g id="Mask_Group_1" data-name="Mask Group 1" transform="translate(0 0)" clip-path="url(#clip-path-2)">
        <g id="flights_nc_4" transform="translate(-0.768 -0.711)" clip-path="url(#clip-path-3)">
          <path id="Path_4410" data-name="Path 4410" d="M899.058,0H32.2V177.616H899.058Z" transform="translate(-4.056)" fill="#365894"/>
          <path id="Path_4412" data-name="Path 4412" d="M245.206,149.342A49.926,49.926,0,1,0,195.28,99.416,49.925,49.925,0,0,0,245.206,149.342Z" transform="translate(-24.595 -6.233)" fill="#5f7db3"/>
          <path id="Path_4411" data-name="Path 4411" d="M181.43,140.949a22.21,22.21,0,1,0-22.21-22.21A22.209,22.209,0,0,0,181.43,140.949Z" transform="translate(-20.053 -12.158)" fill="#1a386d"/>
          <path id="Path_4413" data-name="Path 4413" d="M317.915,127.63A22.935,22.935,0,1,0,294.98,104.7,22.935,22.935,0,0,0,317.915,127.63Z" transform="translate(-37.152 -10.298)" fill="#1a386d"/>
          <path id="Path_4414" data-name="Path 4414" d="M354.762,122.364a16.782,16.782,0,1,0-16.782-16.782A16.782,16.782,0,0,0,354.762,122.364Z" transform="translate(-42.568 -11.184)" fill="#1a386d"/>
          <path id="Path_4415" data-name="Path 4415" d="M392.284,116.787A22.183,22.183,0,1,0,370.1,94.6,22.183,22.183,0,0,0,392.284,116.787Z" transform="translate(-46.613 -9.121)" fill="#1a386d"/>
          <path id="Path_4416" data-name="Path 4416" d="M421.6,100.9A10.515,10.515,0,1,0,411.09,90.385,10.515,10.515,0,0,0,421.6,100.9Z" transform="translate(-51.776 -10.059)" fill="#1a386d"/>
          <path id="Path_4417" data-name="Path 4417" d="M440.395,114.289A14.195,14.195,0,1,0,426.2,100.095,14.195,14.195,0,0,0,440.395,114.289Z" transform="translate(-53.679 -10.819)" fill="#1a386d"/>
          <path id="Path_4418" data-name="Path 4418" d="M461.233,117.717a10.594,10.594,0,1,0-10.593-10.594A10.593,10.593,0,0,0,461.233,117.717Z" transform="translate(-56.757 -12.158)" fill="#1a386d"/>
          <path id="Path_4419" data-name="Path 4419" d="M490.422,123.488a19.9,19.9,0,1,0-19.9-19.9A19.9,19.9,0,0,0,490.422,123.488Zm59.619-17.551a22.253,22.253,0,1,0-22.253-22.253A22.253,22.253,0,0,0,550.041,105.937Z" transform="translate(-59.261 -7.737)" fill="#1a386d"/>
          <path id="Path_4420" data-name="Path 4420" d="M586.848,83.125A25.347,25.347,0,1,0,561.5,57.777,25.348,25.348,0,0,0,586.848,83.125Z" transform="translate(-70.72 -4.085)" fill="#1a386d"/>
          <path id="Path_4421" data-name="Path 4421" d="M620.2,63.584A8.487,8.487,0,1,0,611.71,55.1a8.487,8.487,0,0,0,8.487,8.487Z" transform="translate(-77.044 -5.87)" fill="#1a386d"/>
          <path id="Path_4422" data-name="Path 4422" d="M639.139,63.947A11.739,11.739,0,1,0,627.4,52.209,11.739,11.739,0,0,0,639.139,63.947ZM674.275,75.38a14.5,14.5,0,1,0-14.5-14.5A14.5,14.5,0,0,0,674.275,75.38Z" transform="translate(-79.02 -5.097)" fill="#1a386d"/>
          <path id="Path_4423" data-name="Path 4423" d="M708.89,81.641a14.5,14.5,0,1,0-14.5-14.5,14.5,14.5,0,0,0,14.5,14.5Z" transform="translate(-87.457 -6.63)" fill="#1a386d"/>
          <path id="Path_4424" data-name="Path 4424" d="M745.459,93.918A26.239,26.239,0,1,0,719.22,67.679,26.239,26.239,0,0,0,745.459,93.918Z" transform="translate(-90.584 -5.219)" fill="#1a386d"/>
          <path id="Path_4425" data-name="Path 4425" d="M773.887,96.154a8.417,8.417,0,1,0-8.417-8.417A8.417,8.417,0,0,0,773.887,96.154Z" transform="translate(-96.41 -9.99)" fill="#1a386d"/>
          <path id="Path_4426" data-name="Path 4426" d="M787.4,108.858A10.279,10.279,0,1,0,777.12,98.579,10.279,10.279,0,0,0,787.4,108.858Z" transform="translate(-97.877 -11.121)" fill="#1a386d"/>
          <path id="Path_4427" data-name="Path 4427" d="M183.26,89.158A25.262,25.262,0,0,1,202.8,98.379m100.97-22.148a23.5,23.5,0,0,1,21.851,15.034M288.644,75.733a50.136,50.136,0,0,1,3.723,9.947M385.1,75.156a24.048,24.048,0,0,1,3.758,5.332m-42.645,8.775a22.152,22.152,0,0,1,1.145-6.118m55.144-2.8a11.405,11.405,0,0,1,1.328,5.358m19.491,3.155a15.347,15.347,0,0,1,.953,4.091m10.751,1.556a22.867,22.867,0,0,1,2.622-5.183M513,58.593a27.51,27.51,0,0,1,9.038,1.425m37.444-11.258a9.18,9.18,0,0,1,6.792-3.2m4.842,6.87a12.183,12.183,0,0,1,4.868-9.92m52.5,7.6a14.939,14.939,0,0,1,4.772,10.969m17.944,6.739A27.344,27.344,0,0,1,658.36,49.66m46.263,18.154A26.68,26.68,0,0,1,702.447,78.4m6.949,4.519a9.744,9.744,0,0,1-.97,4.37" transform="translate(-23.081 -5.354)" fill="none" stroke="#365894" stroke-linecap="round" stroke-linejoin="round" stroke-width="1"/>
          <path id="Path_4428" data-name="Path 4428" d="M240.78,91.431l62.871,17.2,6.844-6.835-2.928-10.366,24.753,10.952-49.856,17.324,42.689,28.407h21.493L343.909,137.3l-10.987-5.6-4.641-6.9,35.172,14.981-1.818-6.905-4.126-.909-5.515-7.036,32.567,17.848,21.239,5.34-90.823,27.681-10.952-28.389-48.72-12.665L243.682,137.8l20.339-32.183-7.377,3.8-3.793-9.073h-4.475Zm355.494-44.2L673.96,76.773l120.252,30.548-11,19.054-47.2-14.868-72.441-8.732,5.751-20.881L617.4,73.705l4.108-11.975-14.772-1.25L596.274,47.23Z" transform="translate(-30.326 -5.949)" fill="#112f65"/>
          <path id="Path_4429" data-name="Path 4429" d="M185.81,122.3l48.047-25.706,7.6,8.915h4.475l3.793,9.073,7.377-3.8-20.339,32.183,11.625-3.059,48.72,12.665,10.952,28.389L236.54,197.937,185.81,122.3ZM300.643,96.591,279.5,109.081l17.228,4.711,6.844-6.835Zm-25.1,28.276L325.4,107.543,381.362,88.2l30,21.947-12.481,3.243,65.458,18.984-93.226,11.983-26.038-14.273,5.515,7.036,4.126.909,1.818,6.905-35.172-14.981L326,136.858l10.987,5.6,2.736,10.812H318.229L275.54,124.866Z" transform="translate(-23.402 -11.109)" fill="#2b4b84"/>
          <path id="Path_4430" data-name="Path 4430" d="M409.54,88.2l30,21.947-12.481,3.243L501.4,135.9l-37.96-19.229,12.018-5.017-46.526-16.17Z" transform="translate(-51.581 -11.109)" fill="#112f65"/>
          <path id="Path_4431" data-name="Path 4431" d="M471.21,111.508,625.3,47.23l10.462,13.251,14.771,1.25-4.108,11.975,51.927,8.19L692.6,102.776l72.441,8.732,47.2,14.868-6.363,25.854-90.5-11.9H543l64.269-27.7-98.1,18.11-37.96-19.229Z" transform="translate(-59.348 -5.949)" fill="#2b4b84"/>
          <path id="Path_4432" data-name="Path 4432" d="M856.13.005l-13.544,53.1L829.475,28.345,811.47,93.776,793.456,62.459l-11,25L770.04,6.642,755.067,112.4,736.126,50.231l-15.908,65.554L703.131,87.57l-14.859,43.2c-14.859-2.622-29.718,1.023-47.435,1.023-17.953,0-36.317-6.066-47.26-5.139s-26,6.118-50.511,3.61-55.939,1.53-55.939,1.53L545.6,107.743c-44.5,5.882-87.6,8.076-87.6,8.076-21.851,0-46.823,8.015-46.823,8.015-46.823,2.474-63.544,9.457-63.544,9.457l6.529,3.575,9.178,2.308-20.61,5.157-20.907,2.71c-8.819,1.486-22.961,8.2-32.506,13.207-1.075-2.037-2.089-2.325-2.089-2.325a6.663,6.663,0,0,0-1.259,2.622,13.409,13.409,0,0,0-2.255-5,10.846,10.846,0,0,0-3.138,5.419,7.636,7.636,0,0,0-1.259-3.557,12.319,12.319,0,0,0-3.723,4.064,9.384,9.384,0,0,0-2.5-5.638,5.008,5.008,0,0,0-2.465,4.187,8.463,8.463,0,0,0-1.582-4.79c-3.5,2.246-4.938,8.828-4.938,8.828a7.143,7.143,0,0,0-1.049-4.187c-3.5.752-4.431,2.814-4.431,2.814-1.879-6.442-5.8-8.024-5.8-8.024-1.678,5.926.507,9.789.507,9.789a12.855,12.855,0,0,0-6.013,1.355,7.809,7.809,0,0,0,1.285-5.244,5.9,5.9,0,0,0-3.627,2.482,8.487,8.487,0,0,0-.323-5.594,8.312,8.312,0,0,0-3.776,3.05c.874-3.68-.533-8.435-.533-8.435-2.972,2-3.924,6.818-3.924,6.818a2.617,2.617,0,0,0-1.049-1.433,3.977,3.977,0,0,0-1.232,3.348c-10.2-8.461-16.231-10.829-18.932-11.494a11.357,11.357,0,0,0,1.993-5.148,6.884,6.884,0,0,0-4.72,1.512,10.939,10.939,0,0,0,0-7.866c-2.395.481-4.72,4.72-4.72,4.72a13.349,13.349,0,0,0-2.552-8.88c-6.171,4.423-8.741,9.475-9.711,12.368l-51.062-92.9L120.619,99.475l-13.487-64.8L98.707,93.024,69.618,0H64.986L57.4,24.237,48.185-.007H0V214.142H895.029V.005ZM678.317,159.837c-22-5.349-61.892,1.748-61.892,1.748a117.026,117.026,0,0,0-42.829,3.994,40.967,40.967,0,0,0-21.851-8.356c52.793-20.164,113.8-18.1,133.249-16.791l-6.678,19.4Z" transform="translate(0 0.001)" fill="#1a386d"/>
          <path id="Path_4433" data-name="Path 4433" d="M338.973,133.583l-13.3,12.455,14.719-10.349Zm23.713.131-6.993,6.992,1.425.6,7.578-5.035-2.01-2.561Zm53.807-16.694-17.516,16.694,17.516-8.741-1.582-4.676,4.335-2.439Zm-84.259,58.544,1.477-8.365,1.731,8.365,1.661-13.522,2.246,10.445,1.923-10.707,2.369,9.239m6.8-4.37.7-4.484.961,4.484Zm6.346-2.771.891-4.807,2.115,5.419,1.032-5.052,2.054,4.44m14.011-3.619.306-2.351a.342.342,0,0,1,.12-.191.346.346,0,0,1,.425,0,.342.342,0,0,1,.12.191l.463,2.369,2.7-.446.472-3.251.717,3.68,3.54-.874.577-5.174.524,4.86.717-.385.183-2.395a.175.175,0,0,1,.341,0l.437,2.622,1.294-.673.184-2.246.673,2.246m329.3,17.367s-.166-4.825-4.37-11.179c0,0-1.748,2.544-1.748,7.456a13.506,13.506,0,0,0-4.825-3.986s-1.355,1.608,1.442,8.469Zm-18.879.419a23.613,23.613,0,0,0-.42-5.629,6.036,6.036,0,0,0-3.732,3.313,10.533,10.533,0,0,0,0-6.651s-4.484,2.963-5.332,7.447A11.061,11.061,0,0,0,689,170.4a12.234,12.234,0,0,0-1.608,8.513C688.323,183.649,701.1,176.027,701.1,176.027Zm-26.239,4.432a17.3,17.3,0,0,0,.253-5.533,7.092,7.092,0,0,0-2.552,1.626,17.146,17.146,0,0,0-.743-6.013,7.35,7.35,0,0,0-4.562,3.217s.5-.874-.953-4.064a7.862,7.862,0,0,0-3.007,6.678Zm-15.593-3.907a12.946,12.946,0,0,0-1.066-7.386,5.853,5.853,0,0,0-2.474,3.007,8.227,8.227,0,0,0-1.058-3.82,8.352,8.352,0,0,0-2.447,5.4s.184-1.093-2.911-2.911a5.179,5.179,0,0,0-.166,3.059,4.578,4.578,0,0,0-3.042-.988,11.51,11.51,0,0,0,1.381,5.306Z" transform="translate(-41.018 -14.738)" fill="#112f65"/>
          <path id="Path_4434" data-name="Path 4434" d="M723.366,190.812l-1.031-1.14h0a27,27,0,0,0,3.32-3.926,42.026,42.026,0,0,0,5.763-11.626l1.465.466a43.55,43.55,0,0,1-6.01,12.1A27.76,27.76,0,0,1,723.366,190.812Z" transform="translate(-91.199 -22.03)" fill="#2b2b4a"/>
          <path id="Path_4435" data-name="Path 4435" d="M726.846,175.032a1.11,1.11,0,1,0-1.111-1.11A1.11,1.11,0,0,0,726.846,175.032Zm-43.746-1.3a1.11,1.11,0,1,0-1.111-1.11A1.11,1.11,0,0,0,683.1,173.73Z" transform="translate(-85.896 -21.601)" fill="#2b2b4a"/>
          <path id="Path_4436" data-name="Path 4436" d="M725.085,178.61l3.627-1.189m-5.821,5.472-1.661-3.418m-36.3,4.414a39.455,39.455,0,0,0-1.879-11.109m1.311,4.064,2.054-2.369m-1.809,5.209-3-2.133" transform="translate(-85.847 -21.761)" fill="none" stroke="#2b2b4a" stroke-miterlimit="10" stroke-width="1"/>
          <path id="Path_4437" data-name="Path 4437" d="M760.661,147.278l-2.238-7.263-2.159,9.2-2.229-7.4-1.652,7.692-7.062.306-3.234-12.953-2.456,13.3-1.748-8.741-1.4,8.741-4.624-.83-2.229-10.226-1.4,5.812-.752-7.762a.348.348,0,0,0-.326-.321.353.353,0,0,0-.365.277l-1.888,8.513-.874-7.3-3.007,11.013-5.568-1.6-1.669-14.09-1.914,13.985v7.045l43.021-1.267,6.529-3.217-.761-2.919Zm-80.928-2.456-1.32-9.291-2.308,9.929-7.351-1.093-1.9-8.356a.349.349,0,0,0-.682,0l-1.879,8.994-4.895-.961-.708-13.574-1.661,14.981-.953-9.431a.28.28,0,0,0-.56,0l-1.119,10.2-4.37-.516-1.748-8.741-.76,10.078h-6.354l-1.093-7.727-1.32,8.487-1.3-4.895a.428.428,0,0,0-.83,0l-1.171,5.087-2.841-11.363-1.975,11.363H625.6l-.708-9.685-1.04,10.1-1.748-1.04-.341-6.241a.23.23,0,0,0-.223-.183.227.227,0,0,0-.223.183l-1.521,7.281L618.426,136l-2.57,11.59-4-1.128-.935-8.819-1.634,6.4-1.425-8.977-1.529,8.321-1.372-5.97-2.517,9.615-3.776-.385-1.049-5.585a.551.551,0,0,0-1.075-.052l-1.748,5.917-11.363-.385-1.093-5.856-1.975,6.241-.848-4.79-1.258,4.545h-3.461l-.822-3.994-.655,4.484h-2.351l-.778-3.872-.988,4.37,71.969,5.472,39.6-1.232-1.04-7.089Z" transform="translate(-71.69 -16.432)" fill="#112f65"/>
          <path id="Path_4438" data-name="Path 4438" d="M570.018,139.741v6.931m1.853-22.288v6.931m-2.255-5.576v6.931m4.449-8.286v6.931m4.746-6.512v3.225m1.949-4.449v3.225m2.5-2.683v3.225M562.9,126.01v6.931m-1.862-5.961v6.931m-6.678-8.539V132.3m-1.888-5.323v6.931m-2.369-7.263v6.931m-8.216-7.167v6.931m-2.771-5.489v6.931m-2.552-6.18v6.931m-2.911-6.931v6.931m-2.788-8.557v6.931m-1.8-5.305v6.931m-2.22-7.683v6.931m-8.784-6.407v6.931m-1.4-5.428v6.931m-1.731-7.971v6.931m-2.2-5.664v6.931m-2.15-6.057v6.931m-2.989-8.207v6.931m-2.307-7.8v6.931m-4.213-5.332v6.931m-1.792-7.491v6.931m-2.29-5.5v6.931m-2.579-7.805v6.931m-4.283-5.3v6.931m-2.5-6.52v6.931m-1.783-7.578v6.931m-2.045-5.6V140.1m-3.785-7.429V139.6m-55.73,1.163V147.7m-2.176-5.6v6.923m-4.65-6.066v6.931m-2.692-7.29v6.923m-2.019-5.288v6.931m-2.535-7.29V150.8m-2.115-5.786v6.931" transform="translate(-51.399 -15.565)" fill="#112f65" stroke="#112f65" stroke-linecap="round" stroke-miterlimit="10" stroke-width="1"/>
          <path id="Path_4439" data-name="Path 4439" d="M524.556,127.25l-1.267,5.594,2.84.227Zm22.769-1.608L546,130.886h2.963ZM568.4,122.81l-1.145,5.935,2.771-.236Zm-91.609,14.133-.6-4.1-.664,5.305Zm-4.772.874-1.451-4.335-1.145,5.839-1.7.184-.9-3.828-1.005,4.58h-2.08l-.725-5.9-.6,6.389H460.6l-1.206-3.47-.542,3.47-2.666.367-1-3.3-.481,3.531-9.326.909-.848-4.108-.848,4.405h-2.657l-1.023-4.405-1.031,4.982-1.993-.454-.787-3.767-.778,4.222h-3.3l-1.294-3.627-1.093,4.143-1.39-2.718-.42,2.718.542,1.809h26.72l18.093-3.5-1.267-4.134Z" transform="translate(-53.897 -15.468)" fill="#112f65"/>
          <path id="Path_4440" data-name="Path 4440" d="M73.457,149.527V25.77m0,39.935-11.8-11.791m11.8,37.742L90.641,74.472M73.457,122.091,53.59,102.223m60.755-36.518v72.406m0-39.9,7.692-7.683m-7.692,31.562-7.657-7.657m44.524-47.889v81.418m8.679-64.986-8.679,8.679m0,36.378L133.181,110m577.634-2.3v54.515m8.19-41.177-7.587,7.587m-12.062,11.6,11.459,11.468m32.3-75.4v69.671m7.255-53-6.792,6.783m-10.3,21.3,9.833,9.824M777.27,38.627v92.239m5.148-61.542-5.148,5.148m-9.125,29.954,9.125,9.125m23.267-32.558v56.752m8.907-43.475-8.907,8.907m-8.907,12.936,8.907,8.907m36.981-74.661v71.865m8.74-49.646-8.583,8.583m-10.3,8.251,10.139,10.13" transform="translate(-6.75 -3.246)" fill="none" stroke="#365894" stroke-linecap="round" stroke-linejoin="round" stroke-width="1"/>
          <path id="Path_4441" data-name="Path 4441" d="M268.094,156.4a1.364,1.364,0,1,0-1.364-1.363A1.363,1.363,0,0,0,268.094,156.4Z" transform="translate(-33.594 -19.354)" fill="#1a386d"/>
          <path id="Path_4442" data-name="Path 4442" d="M254.1,171.732s3.82-11.205,12.4-16.5m-5.83,5.122-.865-4.117m-2.334,8.575h3.855M290.277,183.3s.682-9.361,5.244-14.771" transform="translate(-32.003 -19.551)" fill="none" stroke="#1a386d" stroke-miterlimit="10" stroke-width="1"/>
          <path id="Path_4443" data-name="Path 4443" d="M268.973,170.9a1.364,1.364,0,1,0-1.364-1.364A1.364,1.364,0,0,0,268.973,170.9Zm28.241.708a1.364,1.364,0,1,0-1.365-1.364,1.364,1.364,0,0,0,1.365,1.364Z" transform="translate(-33.705 -21.181)" fill="#1a386d"/>
          <path id="Path_4444" data-name="Path 4444" d="M269.281,170.94s2.334,7.569,1.617,12.062m23.556-7.858-2.01-4.2m.629,8.251,3.4-.813m-28.923-3.522,2.841.568m-.227-2.185,1.687-1.7" transform="translate(-33.697 -21.53)" fill="#2b2b4a" stroke="#1a386d" stroke-miterlimit="10" stroke-width="1"/>
          <g id="Group_3904" data-name="Group 3904" transform="translate(394.634 22.722)">
            <path id="Path_4445" data-name="Path 4445" d="M474.305,25.5l-2.054.521a1.385,1.385,0,0,0-.893,1.965l6.325,12.606,12.07-3.066L476.165,25.932a2.114,2.114,0,0,0-1.86-.432Z" transform="translate(-458.619 -25.439)" fill="#a5c5ff"/>
            <path id="Path_4446" data-name="Path 4446" d="M477.684,40.429l-6.325-12.606a1.381,1.381,0,0,1,.893-1.965l.372-.089,7.1,14.139-2.039.521Z" transform="translate(-458.619 -25.277)" fill="#ff6700"/>
            <path id="Path_4447" data-name="Path 4447" d="M463.336,41.7,505.71,31.158a3.49,3.49,0,1,1,1.685,6.773L465.021,48.473,463.336,41.7Z" transform="translate(-462.464 -22.697)" fill="#ff6700"/>
            <path id="Path_4448" data-name="Path 4448" d="M464.3,34.439a2.008,2.008,0,0,0-1.488,2.441l1.622,6.578,7.159-1.786-5.254-6.548a2.009,2.009,0,0,0-2.039-.685Z" transform="translate(-462.75 -21.073)" fill="#ff6700"/>
            <path id="Path_4449" data-name="Path 4449" d="M464.685,47.47l42.43-10.552a3.472,3.472,0,0,0,2.634-3.408L464.09,44.865Z" transform="translate(-462.096 -21.498)" fill="#a5c5ff"/>
            <path id="Path_4450" data-name="Path 4450" d="M480.212,55.859l-2.054.506a1.386,1.386,0,0,1-1.727-1.31L476,40.977,488.085,38l-6.5,16.624a2.083,2.083,0,0,1-1.369,1.235Z" transform="translate(-456.28 -19.306)" fill="#a5c5ff"/>
            <path id="Path_4451" data-name="Path 4451" d="M476,40.166l.372,14.094a1.384,1.384,0,0,0,1.726,1.31l.372-.089-.417-15.82Z" transform="translate(-456.28 -18.496)" fill="#ff6700"/>
          </g>
          <path id="Path_4477" data-name="Path 4477" d="M763.67,168.94a1.11,1.11,0,1,0-1.111-1.11,1.111,1.111,0,0,0,1.111,1.11Z" transform="translate(-96.043 -20.998)" fill="#2b2b4a"/>
          <path id="Path_4478" data-name="Path 4478" d="M755.206,181.985s.052-7.447,7.526-13.985m-4.877,5.48,3.409-1.005m-4.545,3.269-1.608-2.6" transform="translate(-95.105 -21.159)" fill="none" stroke="#2b2b4a" stroke-miterlimit="10" stroke-width="1"/>
          <g id="Group_7265" data-name="Group 7265" transform="translate(595.242 78.749)">
            <path id="Path_7459" data-name="Path 7459" d="M706.75,169.54h42.385" transform="translate(-684.427 -100.288)" fill="none" stroke="#aecbfa" stroke-miterlimit="10" stroke-width="1"/>
            <path id="Path_7460" data-name="Path 7460" d="M731.36,141.5a6.174,6.174,0,0,1-.184-3.5" transform="translate(-687.445 -96.363)" fill="none" stroke="#f4afb6" stroke-linecap="round" stroke-miterlimit="10" stroke-width="1.98"/>
            <path id="Path_7461" data-name="Path 7461" d="M731.808,140.79a5.016,5.016,0,0,0,1.751,3.161,4.127,4.127,0,0,0,3.31.876l.42,2.793a7.005,7.005,0,0,1-5.49-1.445,7.784,7.784,0,0,1-2.767-4.947,3.45,3.45,0,0,1-.052-.42" transform="translate(-687.193 -96.71)" fill="#ff6700"/>
            <path id="Path_7462" data-name="Path 7462" d="M740.4,143.8H737.55v2.259H740.4Z" transform="translate(-688.26 -97.085)" fill="#f4afb6"/>
            <path id="Path_7463" data-name="Path 7463" d="M739.358,144.1a3.039,3.039,0,1,0-3.039-3.039,3.038,3.038,0,0,0,3.039,3.039Z" transform="translate(-688.107 -96.365)" fill="#252525"/>
            <path id="Path_7464" data-name="Path 7464" d="M738.227,145.488h1.366a2.954,2.954,0,0,1,2.5,2.364l-.158,7.179H732.79l.963-9.631" transform="translate(-687.668 -97.284)" fill="#ff6700"/>
            <path id="Path_7465" data-name="Path 7465" d="M733.707,156.4l-2.627,11.942h3.59L737.3,160.1l.578,8.239h3.642s.105-4.553.236-11.942Z" transform="translate(-687.455 -98.653)" fill="#1511b1"/>
            <path id="Path_7466" data-name="Path 7466" d="M713.2,108.73H709v6.26h4.2Zm8.256,12.582a36.539,36.539,0,0,1,8.326,10.507s.762,1.83-.289,2.889c0,0-1.243,1.173-2.119,0a2.415,2.415,0,0,1,.149-2.627,43.346,43.346,0,0,0-7.88-7.792l1.812-2.977Z" transform="translate(-684.707 -92.72)" fill="#f4afb6"/>
            <path id="Path_7467" data-name="Path 7467" d="M715.754,109.389l4.264,1.322c4.623,1.418,5.98-2.452,5.98-2.452,10.83,3.336,11.557-4.684,11.557-4.684-2.276,3.5-6,1.48-10.69,0s-5.157,1.628-5.157,1.628a14.177,14.177,0,0,1-4.378-2.32c-1.392-1.252-2.767-2.705-4.579-3.327a5.313,5.313,0,0,0-5.455,1.182,5.087,5.087,0,0,0-1.278,4.378,6.465,6.465,0,0,0,2.557,4.378c3.17,2.311,7.18-.105,7.18-.105Z" transform="translate(-684.326 -91.54)" fill="#ff6700"/>
            <path id="Path_7468" data-name="Path 7468" d="M716.575,143.131a73.325,73.325,0,0,0,8.607,22.353h-7.1a45.869,45.869,0,0,1-7.766-13.9s1.471,11.8,2.189,13.9h-6.418a50.636,50.636,0,0,1-2.714-31.773H715.91v.954a35.9,35.9,0,0,0,.665,8.466Z" transform="translate(-683.833 -95.829)" fill="#ff6700"/>
            <path id="Path_7469" data-name="Path 7469" d="M715.205,132.957H698.281l3.441-16.11-5.122-5.113,3.844-3.844,5.446,4.6s8.913,1.8,14.009,8.755a20.388,20.388,0,0,1-4.168,5.787Z" transform="translate(-683.164 -92.615)" fill="#1511b1"/>
            <path id="Path_7470" data-name="Path 7470" d="M716.816,113.318l-9.814-.07a1.646,1.646,0,0,0-1.658,1.634l-.1,13.956a1.646,1.646,0,0,0,1.635,1.657l9.814.07a1.646,1.646,0,0,0,1.658-1.634l.1-13.956a1.646,1.646,0,0,0-1.635-1.657Z" transform="translate(-684.239 -93.282)" fill="#4b4d75"/>
            <path id="Path_7471" data-name="Path 7471" d="M710.092,130.488h-3.2a1.639,1.639,0,0,1-1.637-1.655l.1-13.956a1.652,1.652,0,0,1,1.664-1.637h1.462a1.637,1.637,0,0,1,1.628,1.655Z" transform="translate(-684.24 -93.281)" fill="#343757"/>
            <path id="Path_7472" data-name="Path 7472" d="M698.542,105.719l-16.39-15.138a.552.552,0,0,0-.727,0,.542.542,0,0,0-.053.735l1.69,2.031v.543a2.527,2.527,0,0,0,.692,1.751l12.091,12.8Z" transform="translate(-681.254 -90.444)" fill="#f4afb6"/>
            <path id="Path_7473" data-name="Path 7473" d="M712.4,166.625c-1.3-5.638-3.231-16.119-1.751-23.745l1.068.21c-.622,3.187-1.2,10.585,1.751,23.535H712.4Z" transform="translate(-684.845 -96.97)" fill="#ffd1b3"/>
            <path id="Path_7474" data-name="Path 7474" d="M709.481,136.747a2.968,2.968,0,0,1,0-5.927h9.281a2.968,2.968,0,1,1,0,5.927h-9.281Z" transform="translate(-684.417 -95.469)" fill="#ffd1b3"/>
            <path id="Path_7475" data-name="Path 7475" d="M709.459,136.749a2.959,2.959,0,1,0-2.959-2.959,2.959,2.959,0,0,0,2.959,2.959Z" transform="translate(-684.396 -95.47)" fill="#fff0e6"/>
            <path id="Path_7476" data-name="Path 7476" d="M715.071,113.27h4.378a1.654,1.654,0,0,1,1.637,1.664l-.052,4.824a1.647,1.647,0,0,1-1.655,1.637H714.94" transform="translate(-685.446 -93.285)" fill="#4b4d75"/>
            <path id="Path_7477" data-name="Path 7477" d="M719.026,122.2H712.9a2.7,2.7,0,0,1-2.7-2.7V115.88" transform="translate(-684.856 -93.61)" fill="none" stroke="#343757" stroke-miterlimit="10" stroke-width="1.24"/>
            <path id="Path_7478" data-name="Path 7478" d="M709.663,135.517a1.523,1.523,0,1,0-1.523-1.523A1.523,1.523,0,0,0,709.663,135.517Z" transform="translate(-684.6 -95.674)" fill="#ff6700"/>
            <path id="Path_7479" data-name="Path 7479" d="M716.675,122.53H714.6v3.134h2.075Z" transform="translate(-685.404 -94.437)" fill="#343757"/>
            <path id="Path_7480" data-name="Path 7480" d="M741.132,153.338h-3.555a.936.936,0,0,1-.937-.946v-4.579a2.713,2.713,0,0,1,2.714-2.723h1.62l1.1,7.3a.944.944,0,0,1-.945.946Z" transform="translate(-688.147 -97.245)" fill="#f0f0ff"/>
            <path id="Path_7481" data-name="Path 7481" d="M741.1,145.09a2.723,2.723,0,0,1,2.723,2.723V152.4a.936.936,0,0,1-.937.937h-3.563a.937.937,0,0,1-.937-.937v-4.588a2.723,2.723,0,0,1,2.723-2.723H741.1Z" transform="translate(-688.365 -97.245)" fill="#cdccff"/>
            <path id="Path_7482" data-name="Path 7482" d="M739.54,149.482v-1.523a1.752,1.752,0,0,1,3.5,0v1.523" transform="translate(-688.508 -97.391)" fill="none" stroke="#1511b1" stroke-miterlimit="10" stroke-width="1"/>
            <path id="Path_7483" data-name="Path 7483" d="M741.967,145.814a1.568,1.568,0,1,0-1.569-1.567A1.568,1.568,0,0,0,741.967,145.814Z" transform="translate(-688.615 -96.945)" fill="#252525"/>
          </g>
        </g>
      </g>
      <path id="Path_8136" data-name="Path 8136" d="M16.883-11.006l-.8,1.3A16.809,16.809,0,0,0,9.107-11.31q-.83,0-1.536.069a9.437,9.437,0,0,0-1.37.235,6.411,6.411,0,0,0-1.19.415,3.842,3.842,0,0,0-.927.609,2.329,2.329,0,0,0-.609.872A2.956,2.956,0,0,0,3.268-7.99a2.762,2.762,0,0,0,.111.789,3.124,3.124,0,0,0,.277.664,1.964,1.964,0,0,0,.5.553q.332.263.595.457a3.252,3.252,0,0,0,.8.387l.886.318a10.625,10.625,0,0,0,1.038.291l1.093.263q.4.1,1.231.263.083.028.138.042t.138.028a.492.492,0,0,1,.138.042q.913.194,1.425.318t1.315.332a12.428,12.428,0,0,1,1.273.387q.47.18,1.107.457a5.214,5.214,0,0,1,1.01.553,9.266,9.266,0,0,1,.8.678,3.1,3.1,0,0,1,.65.83,5,5,0,0,1,.374,1,4.628,4.628,0,0,1,.152,1.2,4.443,4.443,0,0,1-2.1,3.916,10.948,10.948,0,0,1-6.061,1.4A16.708,16.708,0,0,1,1.026,4.464l.83-1.328a15.023,15.023,0,0,0,8.3,2.657A9.937,9.937,0,0,0,15.1,4.81a3.135,3.135,0,0,0,1.674-2.864,3.313,3.313,0,0,0-.125-.927,3.85,3.85,0,0,0-.3-.761,2.177,2.177,0,0,0-.553-.636q-.374-.3-.678-.526a3.915,3.915,0,0,0-.886-.443q-.581-.221-.955-.36a10.886,10.886,0,0,0-1.107-.318q-.733-.18-1.135-.263T9.8-2.565A.813.813,0,0,0,9.6-2.593q-.913-.194-1.425-.318T6.865-3.244q-.8-.208-1.259-.36T4.527-4.018a4.561,4.561,0,0,1-.969-.526q-.346-.263-.747-.623a2.485,2.485,0,0,1-.595-.761,5.152,5.152,0,0,1-.332-.927,4.333,4.333,0,0,1-.138-1.107,3.941,3.941,0,0,1,1.065-2.754A5.62,5.62,0,0,1,5.5-12.251a14.962,14.962,0,0,1,3.861-.443A17.447,17.447,0,0,1,16.883-11.006Zm5.369-1.439H37.417v1.328H23.746v7.5H36.891v1.3H23.746V5.6H37.638V6.927H22.252ZM59.113,6.927l-2.3-4.9H44.668L42.4,6.927H40.821L49.9-12.445h1.716L60.691,6.927ZM56.235.728,50.867-10.7l-.055-.221H50.7l-.055.221L45.276.728ZM75.192-12.445a6.014,6.014,0,0,1,4.027,1.259A4.512,4.512,0,0,1,80.7-7.547v1.19a4.372,4.372,0,0,1-.318,1.7,3.4,3.4,0,0,1-.816,1.218,5.081,5.081,0,0,1-1.01.733,4.87,4.87,0,0,1-1.01.415v.055A2.727,2.727,0,0,1,79.9-.324a12.667,12.667,0,0,1,.387,1.951q.166,1.231.346,2.726a24.808,24.808,0,0,0,.429,2.574H79.481q-.249-1.162-.512-3.487A17.426,17.426,0,0,0,78.4.23a2.394,2.394,0,0,0-1.121-1.37,5.258,5.258,0,0,0-2.421-.429H65.617v8.5H64.122V-12.445ZM79.2-6.329V-7.408a3.369,3.369,0,0,0-1.148-2.767,4.814,4.814,0,0,0-3.141-.941h-9.3V-2.87h9.326a4.92,4.92,0,0,0,3.113-.9A3.061,3.061,0,0,0,79.2-6.329ZM103.419,3.938a14.8,14.8,0,0,1-2.449,1.647,12.954,12.954,0,0,1-3.03,1.079,16.8,16.8,0,0,1-3.9.429,18.155,18.155,0,0,1-2.671-.18A10.785,10.785,0,0,1,89.056,6.3a6.229,6.229,0,0,1-1.937-1.176A7.417,7.417,0,0,1,85.666,3.3,8.783,8.783,0,0,1,84.726.686a17.2,17.2,0,0,1-.318-3.473,15.7,15.7,0,0,1,.47-4.068,8.175,8.175,0,0,1,1.3-2.837,6.241,6.241,0,0,1,2.089-1.757,9.066,9.066,0,0,1,2.671-.913,18.6,18.6,0,0,1,3.21-.249,16.253,16.253,0,0,1,8.828,2.3l-.609,1.245a15.046,15.046,0,0,0-8.3-2.186,13.16,13.16,0,0,0-3.418.387,6.463,6.463,0,0,0-2.518,1.315,5.629,5.629,0,0,0-1.647,2.6,13.323,13.323,0,0,0-.553,4.137A14.61,14.61,0,0,0,86.3.7a7.237,7.237,0,0,0,1.052,2.449,5.225,5.225,0,0,0,1.7,1.536,7.357,7.357,0,0,0,2.186.816,13.642,13.642,0,0,0,2.684.235,13.061,13.061,0,0,0,8.607-2.906Zm19.787-16.383H124.7V6.927h-1.494V-2.316H108.871V6.927h-1.494V-12.445h1.494v8.8h14.335ZM138.4,6.927V-12.445H155.64V-8.6H142.965v4.317h12.094V-.545H142.965V6.927Zm20.23-19.372h4.566V3.08h11.9V6.927H158.628Zm19.51,0H182.7V6.927h-4.566Zm30.054,7.8V2.194a8.7,8.7,0,0,1-4.027,3.861,16.613,16.613,0,0,1-7.209,1.315,23.171,23.171,0,0,1-3.708-.263,11.446,11.446,0,0,1-3.044-.941,6.748,6.748,0,0,1-2.366-1.8,8.1,8.1,0,0,1-1.453-2.906,15.025,15.025,0,0,1-.526-4.22,14.877,14.877,0,0,1,.526-4.206,8.113,8.113,0,0,1,1.467-2.906,6.7,6.7,0,0,1,2.435-1.813,12.212,12.212,0,0,1,3.182-.941,26.05,26.05,0,0,1,3.957-.263,20.062,20.062,0,0,1,5.549.678,14.027,14.027,0,0,1,4.386,2.172l-2.02,2.961a13.011,13.011,0,0,0-3.515-1.564,16.786,16.786,0,0,0-4.428-.512,17.245,17.245,0,0,0-3.473.277,4.177,4.177,0,0,0-2.076,1.038A3.754,3.754,0,0,0,190.8-5.914a14.853,14.853,0,0,0-.263,3.141A15.058,15.058,0,0,0,190.8.382a3.914,3.914,0,0,0,1.01,1.937,3.878,3.878,0,0,0,1.951,1.038,14.97,14.97,0,0,0,3.224.277A12.808,12.808,0,0,0,201.592,3,5.505,5.505,0,0,0,204.1,1V-1.043h-6.31v-3.6Zm19.178-7.8h4.566V6.927H227.37V-.988H216V6.927H211.43V-12.445H216v7.61H227.37Zm27.812,0V-8.6h-7.915V6.927H242.7V-8.6h-7.915v-3.847Zm20.2,1.135-1.245,3.459a25.244,25.244,0,0,0-7.97-1.328,9.238,9.238,0,0,0-3.141.4,1.486,1.486,0,0,0-1.065,1.425,1.586,1.586,0,0,0,.138.664,1.272,1.272,0,0,0,.526.54,7.111,7.111,0,0,0,.72.387,5.914,5.914,0,0,0,1.065.318q.733.166,1.2.263t1.494.263q.664.138,1.024.194,1.439.249,2.408.47t2.02.553a7.56,7.56,0,0,1,1.716.747,6.628,6.628,0,0,1,1.232,1,3.519,3.519,0,0,1,.83,1.384,5.761,5.761,0,0,1,.263,1.8,5.127,5.127,0,0,1-2.394,4.58q-2.394,1.564-6.96,1.564a21.808,21.808,0,0,1-6.227-.816,18.724,18.724,0,0,1-4.594-1.979l2.02-3.349a17.088,17.088,0,0,0,4.151,1.73,18,18,0,0,0,4.981.706,10.664,10.664,0,0,0,1.688-.125,6.29,6.29,0,0,0,1.384-.374,2.391,2.391,0,0,0,.955-.664,1.467,1.467,0,0,0,.346-.969,1.516,1.516,0,0,0-.1-.553,1.246,1.246,0,0,0-.318-.457,3.253,3.253,0,0,0-.457-.36,3.27,3.27,0,0,0-.664-.3q-.429-.152-.761-.249T268.729-.6q-.595-.111-1-.18t-1.121-.18q-.719-.111-1.135-.194-1.605-.277-2.712-.553a14.845,14.845,0,0,1-2.186-.733,6.217,6.217,0,0,1-1.73-1.038A4.365,4.365,0,0,1,257.8-4.932a5.118,5.118,0,0,1-.429-2.034,4.807,4.807,0,0,1,1.065-3.335,6.438,6.438,0,0,1,3.169-1.965,17.412,17.412,0,0,1,5.009-.623A22.656,22.656,0,0,1,275.384-11.31Z" transform="translate(308.483 206.388)" fill="#f4f5f5"/>
      <path id="Path_8440" data-name="Path 8440" d="M8.463,0h292.1a8.463,8.463,0,0,1,8.463,8.463v21.51a8.463,8.463,0,0,1-8.463,8.463H8.463A8.463,8.463,0,0,1,0,29.973V8.463A8.463,8.463,0,0,1,8.463,0Z" transform="translate(26.333 241.211)" fill="#051f4c"/>
      <path id="Path_8435" data-name="Path 8435" d="M.7,4.156V-5.692H4.032A4.034,4.034,0,0,1,5.927-5.3a2.529,2.529,0,0,1,1.1,1.075,3.311,3.311,0,0,1,.356,1.553,3.253,3.253,0,0,1-.356,1.544A2.494,2.494,0,0,1,5.931-.073a4.065,4.065,0,0,1-1.88.382H1.359V-.768H4.013A2.973,2.973,0,0,0,5.285-1a1.469,1.469,0,0,0,.7-.656,2.2,2.2,0,0,0,.219-1.017,2.284,2.284,0,0,0-.221-1.034,1.52,1.52,0,0,0-.707-.685,2.886,2.886,0,0,0-1.284-.243H1.9v8.79ZM5.34-.268,7.764,4.156H6.379L3.994-.268ZM12.13,4.31a3.208,3.208,0,0,1-1.753-.476A3.212,3.212,0,0,1,9.2,2.5a4.484,4.484,0,0,1-.421-2A4.538,4.538,0,0,1,9.2-1.514,3.206,3.206,0,0,1,10.377-2.85a3.208,3.208,0,0,1,1.753-.476,3.208,3.208,0,0,1,1.753.476,3.206,3.206,0,0,1,1.173,1.337A4.538,4.538,0,0,1,15.476.5a4.484,4.484,0,0,1-.421,2,3.212,3.212,0,0,1-1.173,1.332A3.208,3.208,0,0,1,12.13,4.31Zm0-1.019A1.948,1.948,0,0,0,13.38,2.9a2.3,2.3,0,0,0,.726-1.024A3.921,3.921,0,0,0,14.342.5a3.961,3.961,0,0,0-.236-1.38,2.326,2.326,0,0,0-.726-1.034,1.932,1.932,0,0,0-1.25-.394,1.932,1.932,0,0,0-1.25.394,2.326,2.326,0,0,0-.726,1.034A3.961,3.961,0,0,0,9.918.5a3.921,3.921,0,0,0,.236,1.375A2.3,2.3,0,0,0,10.879,2.9,1.948,1.948,0,0,0,12.13,3.29Zm9.733-2.154V-3.23H23V4.156H21.862V2.905h-.077a2.406,2.406,0,0,1-.808.954,2.322,2.322,0,0,1-1.385.392,2.452,2.452,0,0,1-1.231-.305,2.1,2.1,0,0,1-.846-.923,3.491,3.491,0,0,1-.308-1.56V-3.23h1.135V1.386A1.8,1.8,0,0,0,18.8,2.675a1.528,1.528,0,0,0,1.161.481,1.947,1.947,0,0,0,.863-.216,1.9,1.9,0,0,0,.741-.664A2,2,0,0,0,21.862,1.136ZM26.209-.287V4.156H25.074V-3.23h1.1v1.154h.1a2.125,2.125,0,0,1,.789-.906,2.465,2.465,0,0,1,1.366-.344,2.71,2.71,0,0,1,1.313.305,2.089,2.089,0,0,1,.875.923,3.445,3.445,0,0,1,.313,1.56V4.156H29.787V-.461a1.923,1.923,0,0,0-.452-1.358,1.608,1.608,0,0,0-1.241-.488,1.967,1.967,0,0,0-.969.236,1.681,1.681,0,0,0-.671.688A2.271,2.271,0,0,0,26.209-.287Zm9.579,4.6a2.881,2.881,0,0,1-1.63-.469,3.13,3.13,0,0,1-1.106-1.327,4.78,4.78,0,0,1-.4-2.032,4.739,4.739,0,0,1,.4-2.02A3.1,3.1,0,0,1,34.163-2.86a2.932,2.932,0,0,1,1.645-.466,2.324,2.324,0,0,1,1.142.238,2.035,2.035,0,0,1,.644.539q.224.3.349.493h.1V-5.692h1.135V4.156h-1.1V3.021h-.135q-.125.2-.356.507a2.069,2.069,0,0,1-.659.543A2.343,2.343,0,0,1,35.788,4.31Zm.154-1.019A1.851,1.851,0,0,0,37.1,2.932a2.212,2.212,0,0,0,.716-1A4.087,4.087,0,0,0,38.057.463a4.012,4.012,0,0,0-.24-1.45,2.123,2.123,0,0,0-.712-.971,1.9,1.9,0,0,0-1.164-.349,1.91,1.91,0,0,0-1.2.368,2.21,2.21,0,0,0-.716,1A3.941,3.941,0,0,0,33.787.463a4.016,4.016,0,0,0,.243,1.431,2.3,2.3,0,0,0,.721,1.019A1.862,1.862,0,0,0,35.942,3.29Zm8.675-6.52v.962H40.789V-3.23ZM41.9-5h1.135V2.04a1.436,1.436,0,0,0,.142.719.7.7,0,0,0,.365.317,1.406,1.406,0,0,0,.474.079,1.792,1.792,0,0,0,.308-.022L44.52,3.1l.231,1.019a2.361,2.361,0,0,1-.846.135,2.268,2.268,0,0,1-.94-.207,1.851,1.851,0,0,1-.76-.63,1.8,1.8,0,0,1-.3-1.068Zm4.424,9.156V-3.23h1.1v1.116H47.5A1.774,1.774,0,0,1,48.232-3a2.151,2.151,0,0,1,1.193-.341q.125,0,.313,0t.284.014v1.154q-.058-.014-.262-.046a2.846,2.846,0,0,0-.43-.031,2.013,2.013,0,0,0-.959.224,1.706,1.706,0,0,0-.664.615,1.658,1.658,0,0,0-.243.892V4.156Zm5.039,0V-3.23H52.5V4.156Zm.577-8.617a.8.8,0,0,1-.57-.226.723.723,0,0,1-.238-.543.723.723,0,0,1,.238-.543A.8.8,0,0,1,51.945-6a.8.8,0,0,1,.57.226.723.723,0,0,1,.238.543.723.723,0,0,1-.238.543A.8.8,0,0,1,51.945-4.461ZM54.58,6.925V-3.23h1.1v1.173h.135q.125-.192.349-.493a2.035,2.035,0,0,1,.644-.539,2.324,2.324,0,0,1,1.142-.238,2.932,2.932,0,0,1,1.645.466A3.1,3.1,0,0,1,60.7-1.538a4.739,4.739,0,0,1,.4,2.02,4.78,4.78,0,0,1-.4,2.032A3.13,3.13,0,0,1,59.6,3.841a2.881,2.881,0,0,1-1.63.469,2.343,2.343,0,0,1-1.14-.238,2.07,2.07,0,0,1-.659-.543q-.231-.305-.356-.507h-.1v3.9ZM55.7.463a4.087,4.087,0,0,0,.245,1.474,2.212,2.212,0,0,0,.716,1A2.052,2.052,0,0,0,59,2.913a2.3,2.3,0,0,0,.721-1.019A4.016,4.016,0,0,0,59.965.463a3.941,3.941,0,0,0-.238-1.407,2.21,2.21,0,0,0-.716-1,1.91,1.91,0,0,0-1.2-.368,1.9,1.9,0,0,0-1.164.349,2.123,2.123,0,0,0-.712.971A4.012,4.012,0,0,0,55.7.463Z" transform="translate(169.802 260.752)" fill="#f4f5f5" opacity="0.5"/>
      <path id="Path_8437" data-name="Path 8437" d="M.7-5.692H2.128L5.475,2.482H5.59L8.937-5.692H10.36V4.156H9.245V-3.326h-.1L6.071,4.156H4.994L1.916-3.326h-.1V4.156H.7ZM17.246,1.136V-3.23h1.135V4.156H17.246V2.905h-.077a2.406,2.406,0,0,1-.808.954,2.322,2.322,0,0,1-1.385.392,2.452,2.452,0,0,1-1.231-.305,2.1,2.1,0,0,1-.846-.923,3.491,3.491,0,0,1-.308-1.56V-3.23h1.135V1.386a1.8,1.8,0,0,0,.454,1.289,1.528,1.528,0,0,0,1.161.481,1.947,1.947,0,0,0,.863-.216,1.9,1.9,0,0,0,.741-.664A2,2,0,0,0,17.246,1.136Zm4.347-6.828V4.156H20.458V-5.692ZM26.882-3.23v.962H23.055V-3.23ZM24.17-5h1.135V2.04a1.436,1.436,0,0,0,.142.719.7.7,0,0,0,.365.317,1.406,1.406,0,0,0,.474.079,1.792,1.792,0,0,0,.308-.022l.192-.036.231,1.019a2.361,2.361,0,0,1-.846.135,2.268,2.268,0,0,1-.94-.207,1.852,1.852,0,0,1-.76-.63,1.8,1.8,0,0,1-.3-1.068Zm4.424,9.156V-3.23h1.135V4.156Zm.577-8.617a.8.8,0,0,1-.57-.226.723.723,0,0,1-.238-.543.723.723,0,0,1,.238-.543A.8.8,0,0,1,29.171-6a.8.8,0,0,1,.57.226.723.723,0,0,1,.238.543.723.723,0,0,1-.238.543A.8.8,0,0,1,29.171-4.461ZM36.038-.6V.463H31.729V-.6Zm5,4.9a3.2,3.2,0,0,1-1.789-.49A3.2,3.2,0,0,1,38.1,2.468,4.578,4.578,0,0,1,37.692.5a4.527,4.527,0,0,1,.416-1.988,3.265,3.265,0,0,1,1.164-1.351,3.125,3.125,0,0,1,1.748-.488,3.312,3.312,0,0,1,1.4.289,2.689,2.689,0,0,1,1.024.808,2.519,2.519,0,0,1,.5,1.212H42.808a1.778,1.778,0,0,0-.575-.9,1.743,1.743,0,0,0-1.195-.392,1.992,1.992,0,0,0-1.161.344A2.251,2.251,0,0,0,39.1-1,3.571,3.571,0,0,0,38.827.463,3.767,3.767,0,0,0,39.1,1.953a2.258,2.258,0,0,0,.769.986,1.979,1.979,0,0,0,1.171.351,2.026,2.026,0,0,0,.8-.154,1.657,1.657,0,0,0,.611-.442A1.7,1.7,0,0,0,42.808,2h1.135a2.627,2.627,0,0,1-.474,1.176,2.655,2.655,0,0,1-1,.827A3.2,3.2,0,0,1,41.039,4.31ZM45.6,4.156V-3.23h1.135V4.156Zm.577-8.617a.8.8,0,0,1-.57-.226.723.723,0,0,1-.238-.543.723.723,0,0,1,.238-.543A.8.8,0,0,1,46.174-6a.8.8,0,0,1,.57.226.723.723,0,0,1,.238.543.723.723,0,0,1-.238.543A.8.8,0,0,1,46.174-4.461ZM52.022-3.23v.962H48.194V-3.23ZM49.31-5h1.135V2.04a1.436,1.436,0,0,0,.142.719.7.7,0,0,0,.365.317,1.406,1.406,0,0,0,.474.079,1.792,1.792,0,0,0,.308-.022l.192-.036.231,1.019a2.361,2.361,0,0,1-.846.135,2.268,2.268,0,0,1-.94-.207,1.852,1.852,0,0,1-.76-.63,1.8,1.8,0,0,1-.3-1.068ZM54.464,6.925a2.612,2.612,0,0,1-.515-.046,1.414,1.414,0,0,1-.313-.089l.289-1a2.184,2.184,0,0,0,.731.077.89.89,0,0,0,.565-.281,2.314,2.314,0,0,0,.454-.815l.212-.577L53.156-3.23h1.231l2.039,5.886H56.5L58.542-3.23h1.231L56.638,5.233a3.236,3.236,0,0,1-.524.95,1.98,1.98,0,0,1-.724.56A2.256,2.256,0,0,1,54.464,6.925Z" transform="translate(257.436 260.752)" fill="#f4f5f5" opacity="0.5"/>
      <g id="Group_7248" data-name="Group 7248" transform="translate(723.171 241.13)">
        <rect id="Rectangle_1188" data-name="Rectangle 1188" width="144.519" height="38.436" rx="5" transform="translate(0)" fill="#051f4c"/>
        <g id="Group_7263" data-name="Group 7263" transform="translate(15.721 14.081)">
          <path id="Path_8135" data-name="Path 8135" d="M1.654,1.476a1.513,1.513,0,1,0,1.311.757A1.513,1.513,0,0,0,1.654,1.476Zm0-4.324a1.513,1.513,0,0,0-1.311.757,1.513,1.513,0,0,0,0,1.513A1.513,1.513,0,0,0,1.654.179,1.513,1.513,0,0,0,2.965-.578a1.513,1.513,0,0,0,0-1.513A1.513,1.513,0,0,0,1.654-2.848ZM3.167-5.658a1.513,1.513,0,0,0-.757-1.311,1.513,1.513,0,0,0-1.513,0A1.513,1.513,0,0,0,.141-5.658,1.513,1.513,0,0,0,.9-4.348a1.513,1.513,0,0,0,1.513,0A1.513,1.513,0,0,0,3.167-5.658Z" transform="translate(109.798 7.172)" fill="#f4f5f5"/>
          <path id="Path_8130" data-name="Path 8130" d="M5.326-2.354a1.085,1.085,0,0,0-.442-.806,1.751,1.751,0,0,0-1.059-.287,2.054,2.054,0,0,0-.768.127,1.08,1.08,0,0,0-.478.35.829.829,0,0,0-.165.506.712.712,0,0,0,.1.412.983.983,0,0,0,.3.3,2.159,2.159,0,0,0,.446.219,4.359,4.359,0,0,0,.54.157l.789.189a5.566,5.566,0,0,1,1.055.343,3.2,3.2,0,0,1,.832.527,2.218,2.218,0,0,1,.547.738,2.352,2.352,0,0,1,.2.973,2.427,2.427,0,0,1-.41,1.4A2.609,2.609,0,0,1,5.65,3.7a4.673,4.673,0,0,1-1.833.324A4.815,4.815,0,0,1,1.966,3.7,2.693,2.693,0,0,1,.739,2.734,2.863,2.863,0,0,1,.278,1.145h1.8a1.328,1.328,0,0,0,.255.735,1.368,1.368,0,0,0,.6.442,2.353,2.353,0,0,0,.86.148,2.241,2.241,0,0,0,.821-.137,1.257,1.257,0,0,0,.542-.382.881.881,0,0,0,.193-.562.735.735,0,0,0-.174-.5A1.356,1.356,0,0,0,4.672.549,5.228,5.228,0,0,0,3.859.292L2.9.052A4.01,4.01,0,0,1,1.149-.793,1.96,1.96,0,0,1,.51-2.341,2.294,2.294,0,0,1,.937-3.735a2.848,2.848,0,0,1,1.186-.931A4.193,4.193,0,0,1,3.838-5a4.073,4.073,0,0,1,1.709.335,2.7,2.7,0,0,1,1.139.931,2.462,2.462,0,0,1,.42,1.381Zm6.111,6.386A3.493,3.493,0,0,1,9.69,3.618,2.8,2.8,0,0,1,8.564,2.443a3.871,3.871,0,0,1-.395-1.8,3.851,3.851,0,0,1,.395-1.784,2.912,2.912,0,0,1,1.113-1.2,3.23,3.23,0,0,1,1.688-.429,3.486,3.486,0,0,1,1.216.208,2.74,2.74,0,0,1,.986.624,2.842,2.842,0,0,1,.658,1.044A4.171,4.171,0,0,1,14.461.575v.5H8.9V-.055h3.843a1.4,1.4,0,0,0-.172-.7,1.248,1.248,0,0,0-.474-.478,1.383,1.383,0,0,0-.7-.174,1.406,1.406,0,0,0-.735.191,1.369,1.369,0,0,0-.5.51A1.453,1.453,0,0,0,9.975,0V1.081a1.832,1.832,0,0,0,.182.845,1.3,1.3,0,0,0,.517.549,1.561,1.561,0,0,0,.793.193,1.728,1.728,0,0,0,.558-.086,1.157,1.157,0,0,0,.433-.257,1.119,1.119,0,0,0,.274-.42l1.69.112A2.3,2.3,0,0,1,13.9,3.077a2.639,2.639,0,0,1-1.021.7A3.836,3.836,0,0,1,11.437,4.032Zm6.094,0a2.722,2.722,0,0,1-1.124-.221,1.776,1.776,0,0,1-.778-.656,1.944,1.944,0,0,1-.285-1.087,1.92,1.92,0,0,1,.2-.922,1.632,1.632,0,0,1,.549-.6A2.659,2.659,0,0,1,16.886.2a5.958,5.958,0,0,1,.933-.163q.575-.06.926-.114a1.294,1.294,0,0,0,.51-.161.358.358,0,0,0,.159-.317V-.583a.793.793,0,0,0-.255-.63,1.064,1.064,0,0,0-.723-.223,1.287,1.287,0,0,0-.785.217,1.017,1.017,0,0,0-.386.542l-1.69-.137a2.311,2.311,0,0,1,.506-1.04,2.455,2.455,0,0,1,.976-.678,3.736,3.736,0,0,1,1.387-.238,4.24,4.24,0,0,1,1.053.129,2.776,2.776,0,0,1,.9.4,1.951,1.951,0,0,1,.62.693,2.1,2.1,0,0,1,.227,1.01V3.9H19.508V2.989h-.051a1.832,1.832,0,0,1-.425.542,1.915,1.915,0,0,1-.639.365A2.6,2.6,0,0,1,17.531,4.027Zm.523-1.261a1.519,1.519,0,0,0,.712-.161,1.245,1.245,0,0,0,.485-.435,1.128,1.128,0,0,0,.176-.622v-.7a.934.934,0,0,1-.234.1q-.148.045-.332.081t-.369.064l-.335.049a2.26,2.26,0,0,0-.562.15.907.907,0,0,0-.373.277A.688.688,0,0,0,17.089,2a.655.655,0,0,0,.272.568A1.16,1.16,0,0,0,18.054,2.766ZM22.66,3.9V-2.684h1.771v1.149H24.5a1.712,1.712,0,0,1,.6-.928,1.6,1.6,0,0,1,.978-.315,2.764,2.764,0,0,1,.3.017,2.084,2.084,0,0,1,.279.047v1.621a2.387,2.387,0,0,0-.356-.069,3.2,3.2,0,0,0-.416-.03,1.464,1.464,0,0,0-.718.174,1.291,1.291,0,0,0-.5.482,1.374,1.374,0,0,0-.182.712V3.9Zm7.6.129A3.349,3.349,0,0,1,28.525,3.6,2.867,2.867,0,0,1,27.41,2.4,3.864,3.864,0,0,1,27.022.635a3.845,3.845,0,0,1,.392-1.778,2.9,2.9,0,0,1,1.117-1.2,3.312,3.312,0,0,1,1.724-.431,3.431,3.431,0,0,1,1.51.313,2.523,2.523,0,0,1,1.025.879,2.584,2.584,0,0,1,.416,1.329H31.482a1.347,1.347,0,0,0-.384-.8,1.116,1.116,0,0,0-.813-.3,1.223,1.223,0,0,0-.74.229,1.481,1.481,0,0,0-.491.667A2.842,2.842,0,0,0,28.878.609a2.935,2.935,0,0,0,.174,1.072,1.474,1.474,0,0,0,.491.673,1.3,1.3,0,0,0,1.306.1,1.1,1.1,0,0,0,.416-.375,1.429,1.429,0,0,0,.217-.594h1.724a2.7,2.7,0,0,1-.41,1.327,2.5,2.5,0,0,1-1.01.894A3.367,3.367,0,0,1,30.264,4.032ZM36.208.095V3.9H34.381V-4.88h1.775v3.358h.077a1.876,1.876,0,0,1,.72-.916A2.2,2.2,0,0,1,38.2-2.77a2.341,2.341,0,0,1,1.2.3,2.039,2.039,0,0,1,.8.853,2.838,2.838,0,0,1,.281,1.327V3.9H38.652V.035a1.335,1.335,0,0,0-.307-.948,1.12,1.12,0,0,0-.868-.339,1.331,1.331,0,0,0-.658.159,1.11,1.11,0,0,0-.446.461A1.564,1.564,0,0,0,36.208.095Zm16.3-1.9H50.625a1.858,1.858,0,0,0-.21-.65,1.657,1.657,0,0,0-.407-.487,1.8,1.8,0,0,0-.573-.309,2.218,2.218,0,0,0-.7-.107,2.1,2.1,0,0,0-1.188.337,2.18,2.18,0,0,0-.785.978,3.89,3.89,0,0,0-.279,1.555,3.922,3.922,0,0,0,.281,1.578,2.125,2.125,0,0,0,.787.965,2.114,2.114,0,0,0,1.171.326,2.337,2.337,0,0,0,.693-.1,1.793,1.793,0,0,0,.568-.289,1.657,1.657,0,0,0,.414-.465A1.848,1.848,0,0,0,50.625.9L52.5.909a3.4,3.4,0,0,1-.362,1.164,3.517,3.517,0,0,1-.776,1,3.633,3.633,0,0,1-1.158.695,4.241,4.241,0,0,1-1.516.255,4.132,4.132,0,0,1-2.1-.532,3.757,3.757,0,0,1-1.458-1.54A5.154,5.154,0,0,1,44.6-.489a5.112,5.112,0,0,1,.54-2.444A3.78,3.78,0,0,1,46.607-4.47,4.124,4.124,0,0,1,48.691-5a4.524,4.524,0,0,1,1.417.214,3.615,3.615,0,0,1,1.16.624,3.273,3.273,0,0,1,.826,1A3.751,3.751,0,0,1,52.5-1.805ZM53.8,3.9V-2.684h1.771v1.149h.069a1.712,1.712,0,0,1,.6-.928,1.6,1.6,0,0,1,.978-.315,2.764,2.764,0,0,1,.3.017,2.084,2.084,0,0,1,.279.047v1.621a2.387,2.387,0,0,0-.356-.069,3.2,3.2,0,0,0-.416-.03,1.464,1.464,0,0,0-.718.174,1.291,1.291,0,0,0-.5.482,1.374,1.374,0,0,0-.182.712V3.9Zm4.936,0V-2.684h1.827V3.9Zm.918-7.436a.981.981,0,0,1-.7-.272.866.866,0,0,1-.289-.654.862.862,0,0,1,.289-.65.981.981,0,0,1,.7-.272.981.981,0,0,1,.7.272.862.862,0,0,1,.289.65.866.866,0,0,1-.289.654A.981.981,0,0,1,59.657-3.533Zm5.871.849v1.372H61.561V-2.684ZM62.462-4.262h1.827V1.879a.82.82,0,0,0,.077.392.422.422,0,0,0,.217.2.868.868,0,0,0,.324.056,1.424,1.424,0,0,0,.257-.024l.2-.036.287,1.359q-.137.043-.386.1a3.226,3.226,0,0,1-.6.071A2.761,2.761,0,0,1,63.5,3.817a1.615,1.615,0,0,1-.77-.626,1.914,1.914,0,0,1-.27-1.072Zm7.188,8.294A3.493,3.493,0,0,1,67.9,3.618a2.8,2.8,0,0,1-1.126-1.175,3.871,3.871,0,0,1-.395-1.8,3.851,3.851,0,0,1,.395-1.784,2.912,2.912,0,0,1,1.113-1.2,3.23,3.23,0,0,1,1.688-.429,3.486,3.486,0,0,1,1.216.208,2.74,2.74,0,0,1,.986.624,2.842,2.842,0,0,1,.658,1.044A4.171,4.171,0,0,1,72.673.575v.5H67.111V-.055h3.843a1.4,1.4,0,0,0-.172-.7,1.248,1.248,0,0,0-.474-.478,1.383,1.383,0,0,0-.7-.174,1.406,1.406,0,0,0-.735.191,1.369,1.369,0,0,0-.5.51,1.453,1.453,0,0,0-.184.71V1.081a1.832,1.832,0,0,0,.182.845,1.3,1.3,0,0,0,.517.549,1.561,1.561,0,0,0,.793.193,1.728,1.728,0,0,0,.558-.086,1.157,1.157,0,0,0,.433-.257,1.119,1.119,0,0,0,.274-.42l1.69.112a2.3,2.3,0,0,1-.525,1.061,2.639,2.639,0,0,1-1.021.7A3.836,3.836,0,0,1,69.649,4.032ZM73.865,3.9V-2.684h1.771v1.149H75.7a1.712,1.712,0,0,1,.6-.928,1.6,1.6,0,0,1,.978-.315,2.764,2.764,0,0,1,.3.017,2.084,2.084,0,0,1,.279.047v1.621a2.387,2.387,0,0,0-.356-.069,3.2,3.2,0,0,0-.416-.03,1.464,1.464,0,0,0-.718.174,1.291,1.291,0,0,0-.5.482,1.374,1.374,0,0,0-.182.712V3.9Zm4.936,0V-2.684h1.827V3.9Zm.918-7.436a.981.981,0,0,1-.7-.272.866.866,0,0,1-.289-.654.862.862,0,0,1,.289-.65.981.981,0,0,1,.7-.272.981.981,0,0,1,.7.272.862.862,0,0,1,.289.65.866.866,0,0,1-.289.654A.981.981,0,0,1,79.719-3.533Zm4.246,7.561a2.722,2.722,0,0,1-1.124-.221,1.776,1.776,0,0,1-.778-.656,1.944,1.944,0,0,1-.285-1.087,1.92,1.92,0,0,1,.2-.922,1.632,1.632,0,0,1,.549-.6A2.659,2.659,0,0,1,83.319.2a5.957,5.957,0,0,1,.933-.163q.575-.06.926-.114a1.294,1.294,0,0,0,.51-.161.358.358,0,0,0,.159-.317V-.583a.793.793,0,0,0-.255-.63,1.064,1.064,0,0,0-.723-.223,1.287,1.287,0,0,0-.785.217,1.017,1.017,0,0,0-.386.542l-1.69-.137a2.311,2.311,0,0,1,.506-1.04,2.455,2.455,0,0,1,.976-.678,3.735,3.735,0,0,1,1.387-.238,4.24,4.24,0,0,1,1.053.129,2.776,2.776,0,0,1,.9.4,1.951,1.951,0,0,1,.62.693,2.1,2.1,0,0,1,.227,1.01V3.9H85.941V2.989H85.89a1.833,1.833,0,0,1-.425.542,1.915,1.915,0,0,1-.639.365A2.6,2.6,0,0,1,83.964,4.027Zm.523-1.261a1.519,1.519,0,0,0,.712-.161,1.245,1.245,0,0,0,.485-.435,1.128,1.128,0,0,0,.176-.622v-.7a.934.934,0,0,1-.234.1q-.148.045-.332.081t-.369.064l-.335.049a2.26,2.26,0,0,0-.562.15.907.907,0,0,0-.373.277A.688.688,0,0,0,83.523,2a.655.655,0,0,0,.272.568A1.16,1.16,0,0,0,84.488,2.766Z" transform="translate(-0.278 6.364)" fill="#f4f5f5"/>
        </g>
      </g>
      <rect id="Rectangle_1193" data-name="Rectangle 1193" width="294.696" height="41.511" rx="5" transform="translate(26.333 296.479)" fill="#051f4c"/>
      <rect id="Rectangle_1194" data-name="Rectangle 1194" width="294.696" height="41.511" rx="5" transform="translate(333.456 296.917)" fill="#051f4c"/>
      <path id="Path_8126" data-name="Path 8126" d="M2.616,3.17.17-5.775h1.1L3.141,1.51h.087l1.9-7.285H6.355l1.9,7.285h.087l1.869-7.285h1.1L8.871,3.17H7.753L5.779-3.958h-.07L3.735,3.17ZM13.553-.866V3.17H12.522V-5.775h1.031v3.285h.087a1.905,1.905,0,0,1,.71-.828,2.293,2.293,0,0,1,1.264-.308,2.529,2.529,0,0,1,1.2.273,1.878,1.878,0,0,1,.8.834A3.131,3.131,0,0,1,17.9-1.093V3.17H16.873V-1.023a1.738,1.738,0,0,0-.413-1.238A1.492,1.492,0,0,0,15.318-2.7a1.889,1.889,0,0,0-.906.214,1.546,1.546,0,0,0-.629.625A2.014,2.014,0,0,0,13.553-.866ZM22.6,3.309a3.132,3.132,0,0,1-1.671-.43,2.837,2.837,0,0,1-1.079-1.205,4.077,4.077,0,0,1-.378-1.806,4.162,4.162,0,0,1,.378-1.819,2.961,2.961,0,0,1,1.057-1.232A2.839,2.839,0,0,1,22.5-3.627a3.18,3.18,0,0,1,1.035.175,2.579,2.579,0,0,1,.93.566,2.737,2.737,0,0,1,.668,1.033,4.394,4.394,0,0,1,.249,1.581V.165H20.21V-.726h4.123a2.217,2.217,0,0,0-.225-1.013,1.731,1.731,0,0,0-.638-.7A1.8,1.8,0,0,0,22.5-2.7a1.849,1.849,0,0,0-1.064.3,2.021,2.021,0,0,0-.688.788,2.31,2.31,0,0,0-.24,1.04V.025a2.845,2.845,0,0,0,.264,1.286,1.86,1.86,0,0,0,.736.8,2.149,2.149,0,0,0,1.1.273,2.211,2.211,0,0,0,.736-.116,1.535,1.535,0,0,0,.57-.349,1.567,1.567,0,0,0,.371-.583l1,.28a2.19,2.19,0,0,1-.528.889,2.537,2.537,0,0,1-.917.594A3.37,3.37,0,0,1,22.6,3.309Zm4.35-.14V-3.539h1v1.013h.07a1.611,1.611,0,0,1,.664-.808,1.954,1.954,0,0,1,1.083-.31q.114,0,.284,0t.258.013v1.048q-.052-.013-.238-.041a2.585,2.585,0,0,0-.391-.028,1.828,1.828,0,0,0-.871.2,1.55,1.55,0,0,0-.6.559,1.507,1.507,0,0,0-.221.81V3.17Zm7.181.14a3.132,3.132,0,0,1-1.671-.43,2.837,2.837,0,0,1-1.079-1.205,4.077,4.077,0,0,1-.378-1.806,4.162,4.162,0,0,1,.378-1.819,2.96,2.96,0,0,1,1.057-1.232,2.839,2.839,0,0,1,1.588-.443,3.18,3.18,0,0,1,1.035.175,2.579,2.579,0,0,1,.93.566,2.737,2.737,0,0,1,.668,1.033,4.394,4.394,0,0,1,.249,1.581V.165H31.74V-.726h4.123a2.217,2.217,0,0,0-.225-1.013,1.732,1.732,0,0,0-.638-.7,1.8,1.8,0,0,0-.972-.258,1.849,1.849,0,0,0-1.064.3,2.021,2.021,0,0,0-.688.788,2.31,2.31,0,0,0-.24,1.04V.025A2.845,2.845,0,0,0,32.3,1.311a1.86,1.86,0,0,0,.736.8,2.149,2.149,0,0,0,1.1.273,2.211,2.211,0,0,0,.736-.116,1.535,1.535,0,0,0,.57-.349,1.567,1.567,0,0,0,.371-.583l1,.28a2.19,2.19,0,0,1-.528.889,2.538,2.538,0,0,1-.917.594A3.37,3.37,0,0,1,34.134,3.309Zm7.949-.14V-5.775h5.364v.961h-4.28v3.022h3.879v.961H43.166v4Zm7.006,0V-3.539h1v1.013h.07a1.611,1.611,0,0,1,.664-.808,1.954,1.954,0,0,1,1.083-.31q.114,0,.284,0t.258.013v1.048q-.052-.013-.238-.041a2.585,2.585,0,0,0-.391-.028,1.828,1.828,0,0,0-.871.2,1.55,1.55,0,0,0-.6.559,1.506,1.506,0,0,0-.221.81V3.17Zm7.093.14a2.914,2.914,0,0,1-1.592-.432,2.917,2.917,0,0,1-1.066-1.21A4.073,4.073,0,0,1,53.142-.15a4.122,4.122,0,0,1,.382-1.83A2.912,2.912,0,0,1,54.59-3.194a2.914,2.914,0,0,1,1.592-.432,2.914,2.914,0,0,1,1.592.432A2.912,2.912,0,0,1,58.84-1.98a4.122,4.122,0,0,1,.382,1.83,4.072,4.072,0,0,1-.382,1.817,2.917,2.917,0,0,1-1.066,1.21A2.914,2.914,0,0,1,56.182,3.309Zm0-.926a1.77,1.77,0,0,0,1.136-.354,2.086,2.086,0,0,0,.66-.93A3.562,3.562,0,0,0,58.191-.15,3.6,3.6,0,0,0,57.977-1.4a2.113,2.113,0,0,0-.66-.939A1.755,1.755,0,0,0,56.182-2.7a1.755,1.755,0,0,0-1.136.358,2.113,2.113,0,0,0-.66.939A3.6,3.6,0,0,0,54.173-.15,3.562,3.562,0,0,0,54.387,1.1a2.086,2.086,0,0,0,.66.93A1.77,1.77,0,0,0,56.182,2.383Zm4.612.786V-3.539h1v1.048h.087a1.7,1.7,0,0,1,.677-.836,2.038,2.038,0,0,1,1.123-.3,1.936,1.936,0,0,1,1.107.3,1.991,1.991,0,0,1,.692.836h.07a1.968,1.968,0,0,1,.773-.828,2.367,2.367,0,0,1,1.236-.308,2.013,2.013,0,0,1,1.472.561A2.351,2.351,0,0,1,69.6-1.32V3.17H68.569V-1.32a1.27,1.27,0,0,0-.406-1.061,1.5,1.5,0,0,0-.957-.319,1.409,1.409,0,0,0-1.1.426A1.536,1.536,0,0,0,65.721-1.2V3.17H64.673V-1.425a1.214,1.214,0,0,0-.371-.924,1.335,1.335,0,0,0-.957-.352,1.4,1.4,0,0,0-.749.214,1.6,1.6,0,0,0-.559.592,1.751,1.751,0,0,0-.212.871V3.17ZM72.832.654V.6a4.439,4.439,0,0,1,.175-1.328,2.018,2.018,0,0,1,.472-.8,3.81,3.81,0,0,1,.734-.563,2.255,2.255,0,0,0,.463-.373,1.657,1.657,0,0,0,.325-.5,1.6,1.6,0,0,0,.12-.629,1.349,1.349,0,0,0-.2-.743,1.349,1.349,0,0,0-.537-.485,1.629,1.629,0,0,0-.747-.17,1.672,1.672,0,0,0-.69.149,1.336,1.336,0,0,0-.555.467,1.626,1.626,0,0,0-.258.834h-1.1a2.457,2.457,0,0,1,.387-1.271,2.3,2.3,0,0,1,.93-.808,2.919,2.919,0,0,1,1.286-.28,2.791,2.791,0,0,1,1.339.306,2.208,2.208,0,0,1,.882.839,2.357,2.357,0,0,1,.312,1.214,2.451,2.451,0,0,1-.146.869,2.193,2.193,0,0,1-.419.694,2.921,2.921,0,0,1-.657.542,2.748,2.748,0,0,0-.616.5,1.62,1.62,0,0,0-.336.627,3.516,3.516,0,0,0-.114.9V.654Zm.559,2.586a.79.79,0,0,1-.786-.786.786.786,0,1,1,1.465.393.822.822,0,0,1-.284.286A.749.749,0,0,1,73.391,3.24Z" transform="translate(64.86 319.081)" fill="#f4f5f5"/>
      <path id="Path_8127" data-name="Path 8127" d="M2.616,3.17.17-5.775h1.1L3.141,1.51h.087l1.9-7.285H6.355l1.9,7.285h.087l1.869-7.285h1.1L8.871,3.17H7.753L5.779-3.958h-.07L3.735,3.17ZM13.553-.866V3.17H12.522V-5.775h1.031v3.285h.087a1.905,1.905,0,0,1,.71-.828,2.293,2.293,0,0,1,1.264-.308,2.529,2.529,0,0,1,1.2.273,1.878,1.878,0,0,1,.8.834A3.131,3.131,0,0,1,17.9-1.093V3.17H16.873V-1.023a1.738,1.738,0,0,0-.413-1.238A1.492,1.492,0,0,0,15.318-2.7a1.889,1.889,0,0,0-.906.214,1.546,1.546,0,0,0-.629.625A2.014,2.014,0,0,0,13.553-.866ZM22.6,3.309a3.132,3.132,0,0,1-1.671-.43,2.837,2.837,0,0,1-1.079-1.205,4.077,4.077,0,0,1-.378-1.806,4.162,4.162,0,0,1,.378-1.819,2.961,2.961,0,0,1,1.057-1.232A2.839,2.839,0,0,1,22.5-3.627a3.18,3.18,0,0,1,1.035.175,2.579,2.579,0,0,1,.93.566,2.737,2.737,0,0,1,.668,1.033,4.394,4.394,0,0,1,.249,1.581V.165H20.21V-.726h4.123a2.217,2.217,0,0,0-.225-1.013,1.731,1.731,0,0,0-.638-.7A1.8,1.8,0,0,0,22.5-2.7a1.849,1.849,0,0,0-1.064.3,2.021,2.021,0,0,0-.688.788,2.31,2.31,0,0,0-.24,1.04V.025a2.845,2.845,0,0,0,.264,1.286,1.86,1.86,0,0,0,.736.8,2.149,2.149,0,0,0,1.1.273,2.211,2.211,0,0,0,.736-.116,1.535,1.535,0,0,0,.57-.349,1.567,1.567,0,0,0,.371-.583l1,.28a2.19,2.19,0,0,1-.528.889,2.537,2.537,0,0,1-.917.594A3.37,3.37,0,0,1,22.6,3.309Zm4.35-.14V-3.539h1v1.013h.07a1.611,1.611,0,0,1,.664-.808,1.954,1.954,0,0,1,1.083-.31q.114,0,.284,0t.258.013v1.048q-.052-.013-.238-.041a2.585,2.585,0,0,0-.391-.028,1.828,1.828,0,0,0-.871.2,1.55,1.55,0,0,0-.6.559,1.507,1.507,0,0,0-.221.81V3.17Zm7.181.14a3.132,3.132,0,0,1-1.671-.43,2.837,2.837,0,0,1-1.079-1.205,4.077,4.077,0,0,1-.378-1.806,4.162,4.162,0,0,1,.378-1.819,2.96,2.96,0,0,1,1.057-1.232,2.839,2.839,0,0,1,1.588-.443,3.18,3.18,0,0,1,1.035.175,2.579,2.579,0,0,1,.93.566,2.737,2.737,0,0,1,.668,1.033,4.394,4.394,0,0,1,.249,1.581V.165H31.74V-.726h4.123a2.217,2.217,0,0,0-.225-1.013,1.732,1.732,0,0,0-.638-.7,1.8,1.8,0,0,0-.972-.258,1.849,1.849,0,0,0-1.064.3,2.021,2.021,0,0,0-.688.788,2.31,2.31,0,0,0-.24,1.04V.025A2.845,2.845,0,0,0,32.3,1.311a1.86,1.86,0,0,0,.736.8,2.149,2.149,0,0,0,1.1.273,2.211,2.211,0,0,0,.736-.116,1.535,1.535,0,0,0,.57-.349,1.567,1.567,0,0,0,.371-.583l1,.28a2.19,2.19,0,0,1-.528.889,2.538,2.538,0,0,1-.917.594A3.37,3.37,0,0,1,34.134,3.309Zm7.46-8.124v-.961H48.3v.961H45.49V3.17H44.407V-4.815Zm9.993,8.124A2.914,2.914,0,0,1,50,2.877a2.917,2.917,0,0,1-1.066-1.21A4.073,4.073,0,0,1,48.547-.15a4.122,4.122,0,0,1,.382-1.83A2.912,2.912,0,0,1,50-3.194a2.914,2.914,0,0,1,1.592-.432,2.914,2.914,0,0,1,1.592.432A2.912,2.912,0,0,1,54.245-1.98a4.122,4.122,0,0,1,.382,1.83,4.073,4.073,0,0,1-.382,1.817,2.917,2.917,0,0,1-1.066,1.21A2.914,2.914,0,0,1,51.587,3.309Zm0-.926a1.77,1.77,0,0,0,1.136-.354,2.086,2.086,0,0,0,.66-.93A3.562,3.562,0,0,0,53.6-.15,3.6,3.6,0,0,0,53.382-1.4a2.113,2.113,0,0,0-.66-.939A1.755,1.755,0,0,0,51.587-2.7a1.755,1.755,0,0,0-1.136.358,2.113,2.113,0,0,0-.66.939A3.6,3.6,0,0,0,49.578-.15,3.562,3.562,0,0,0,49.792,1.1a2.086,2.086,0,0,0,.66.93A1.77,1.77,0,0,0,51.587,2.383ZM57.545.654V.6a4.439,4.439,0,0,1,.175-1.328,2.018,2.018,0,0,1,.472-.8,3.81,3.81,0,0,1,.734-.563,2.255,2.255,0,0,0,.463-.373,1.656,1.656,0,0,0,.325-.5,1.6,1.6,0,0,0,.12-.629,1.349,1.349,0,0,0-.2-.743,1.349,1.349,0,0,0-.537-.485,1.629,1.629,0,0,0-.747-.17,1.672,1.672,0,0,0-.69.149,1.336,1.336,0,0,0-.555.467,1.626,1.626,0,0,0-.258.834h-1.1a2.458,2.458,0,0,1,.387-1.271,2.3,2.3,0,0,1,.93-.808,2.919,2.919,0,0,1,1.286-.28,2.791,2.791,0,0,1,1.339.306,2.208,2.208,0,0,1,.882.839,2.356,2.356,0,0,1,.312,1.214,2.452,2.452,0,0,1-.146.869,2.193,2.193,0,0,1-.419.694,2.921,2.921,0,0,1-.657.542,2.747,2.747,0,0,0-.616.5,1.62,1.62,0,0,0-.336.627,3.515,3.515,0,0,0-.114.9V.654ZM58.1,3.24a.79.79,0,0,1-.786-.786.786.786,0,1,1,1.465.393.822.822,0,0,1-.284.286A.749.749,0,0,1,58.1,3.24Z" transform="translate(388.491 319.081)" fill="#f4f5f5"/>
      <path id="Path_8128" data-name="Path 8128" d="M13.933-1.063A6.246,6.246,0,0,0,10.81-6.472a6.246,6.246,0,0,0-6.246,0A6.246,6.246,0,0,0,1.441-1.063,6.246,6.246,0,0,0,4.564,4.346a6.246,6.246,0,0,0,6.246,0A6.246,6.246,0,0,0,13.933-1.063ZM0-1.063A7.687,7.687,0,0,1,3.844-7.72a7.687,7.687,0,0,1,7.687,0,7.687,7.687,0,0,1,3.844,6.657,7.687,7.687,0,0,1-3.844,6.657,7.687,7.687,0,0,1-7.687,0A7.687,7.687,0,0,1,0-1.063ZM7.687-3.946a2.883,2.883,0,0,1,2.5,1.441,2.883,2.883,0,0,1,0,2.883,2.883,2.883,0,0,1-2.5,1.441A2.883,2.883,0,0,1,5.191.379a2.883,2.883,0,0,1,0-2.883A2.883,2.883,0,0,1,7.687-3.946Z" transform="translate(38.632 318.985)" fill="#f4f5f5"/>
      <path id="Path_8129" data-name="Path 8129" d="M13.933-1.063A6.246,6.246,0,0,0,10.81-6.472a6.246,6.246,0,0,0-6.246,0A6.246,6.246,0,0,0,1.441-1.063,6.246,6.246,0,0,0,4.564,4.346a6.246,6.246,0,0,0,6.246,0A6.246,6.246,0,0,0,13.933-1.063ZM0-1.063A7.687,7.687,0,0,1,3.844-7.72a7.687,7.687,0,0,1,7.687,0,7.687,7.687,0,0,1,3.844,6.657,7.687,7.687,0,0,1-3.844,6.657,7.687,7.687,0,0,1-7.687,0A7.687,7.687,0,0,1,0-1.063ZM10.57-3.946V1.82H4.8V-3.946Z" transform="translate(357.65 318.985)" fill="#f4f5f5"/>
      <circle id="Ellipse_56" data-name="Ellipse 56" cx="15.374" cy="15.374" r="15.374" transform="translate(311.07 303.066)" fill="#1a386d"/>
      <rect id="Rectangle_1195" data-name="Rectangle 1195" width="10.762" height="33.824" transform="translate(321.833 301.529)" fill="#1a386d"/>
      <path id="Path_8125" data-name="Path 8125" d="M2.785.191a.648.648,0,1,1,.916.916L2.215,2.593l9.245,0a.649.649,0,0,1,0,1.3H2.215L3.7,5.379a.648.648,0,1,1-.916.916L.191,3.7a.646.646,0,0,1,0-.916L2.785.193ZM11.919,9.7a.646.646,0,0,1,0,.916l-2.594,2.6a.648.648,0,1,1-.916-.916L9.9,10.814l-9.245,0a.649.649,0,1,1,0-1.3H9.9L8.409,8.028a.648.648,0,0,1,.916-.916l2.594,2.594Z" transform="translate(332.596 324.625) rotate(180)" fill="#f4f5f5"/>
      <rect id="Rectangle_1194-2" data-name="Rectangle 1194" width="225.232" height="41.511" rx="6" transform="translate(642.162 296.479)" fill="#051f4c"/>
      <path id="Path_8133" data-name="Path 8133" d="M4.564-8.029a.719.719,0,0,0-.721-.721.719.719,0,0,0-.721.721v1.2h-1.2A1.924,1.924,0,0,0,0-4.906V4.7A1.924,1.924,0,0,0,1.922,6.624h9.609A1.924,1.924,0,0,0,13.453,4.7V-4.906a1.924,1.924,0,0,0-1.922-1.922h-1.2v-1.2a.719.719,0,0,0-.721-.721.719.719,0,0,0-.721.721v1.2H4.564ZM1.441-2.985h10.57V4.7a.482.482,0,0,1-.48.48H1.922a.482.482,0,0,1-.48-.48Z" transform="translate(660.554 318.985)" fill="#f4f5f5"/>
      <path id="Path_8132" data-name="Path 8132" d="M3.465,3.127H.7V-5.818H3.587a4.381,4.381,0,0,1,2.228.535A3.533,3.533,0,0,1,7.234-3.75a5.334,5.334,0,0,1,.494,2.387,5.372,5.372,0,0,1-.5,2.4A3.532,3.532,0,0,1,5.78,2.587,4.629,4.629,0,0,1,3.465,3.127ZM1.788,2.166H3.4a3.588,3.588,0,0,0,1.839-.428A2.638,2.638,0,0,0,6.321.519,4.533,4.533,0,0,0,6.68-1.363,4.512,4.512,0,0,0,6.326-3.23,2.624,2.624,0,0,0,5.269-4.436a3.356,3.356,0,0,0-1.751-.421H1.788Zm10.43,1.1a3.132,3.132,0,0,1-1.671-.43A2.837,2.837,0,0,1,9.468,1.631,4.077,4.077,0,0,1,9.091-.175a4.162,4.162,0,0,1,.378-1.819,2.96,2.96,0,0,1,1.057-1.232,2.839,2.839,0,0,1,1.588-.443,3.18,3.18,0,0,1,1.035.175,2.579,2.579,0,0,1,.93.566A2.737,2.737,0,0,1,14.747-1.9,4.394,4.394,0,0,1,15-.315V.122H9.824V-.769h4.123a2.217,2.217,0,0,0-.225-1.013,1.732,1.732,0,0,0-.638-.7,1.8,1.8,0,0,0-.972-.258,1.849,1.849,0,0,0-1.064.3,2.021,2.021,0,0,0-.688.788,2.31,2.31,0,0,0-.24,1.04v.594a2.845,2.845,0,0,0,.264,1.286,1.86,1.86,0,0,0,.736.8,2.149,2.149,0,0,0,1.1.273,2.211,2.211,0,0,0,.736-.116,1.535,1.535,0,0,0,.57-.349,1.567,1.567,0,0,0,.371-.583l1,.28a2.191,2.191,0,0,1-.528.889,2.538,2.538,0,0,1-.917.594A3.37,3.37,0,0,1,12.218,3.267Zm4.35,2.376V-3.582h1v1.066h.122q.114-.175.317-.448a1.848,1.848,0,0,1,.585-.489,2.111,2.111,0,0,1,1.037-.216,2.663,2.663,0,0,1,1.494.424,2.819,2.819,0,0,1,1.009,1.2A4.3,4.3,0,0,1,22.491-.21a4.342,4.342,0,0,1-.363,1.845,2.843,2.843,0,0,1-1,1.205,2.617,2.617,0,0,1-1.481.426,2.129,2.129,0,0,1-1.035-.216,1.88,1.88,0,0,1-.6-.494q-.21-.277-.323-.461H17.6V5.643Zm1.013-5.87A3.712,3.712,0,0,0,17.8,1.111a2.009,2.009,0,0,0,.651.9,1.682,1.682,0,0,0,1.048.325A1.691,1.691,0,0,0,20.584,2a2.089,2.089,0,0,0,.655-.926,3.648,3.648,0,0,0,.221-1.3,3.579,3.579,0,0,0-.216-1.278,2.007,2.007,0,0,0-.651-.9,1.735,1.735,0,0,0-1.09-.334,1.728,1.728,0,0,0-1.057.317,1.929,1.929,0,0,0-.646.882A3.644,3.644,0,0,0,17.581-.228Zm8.456,3.512a2.705,2.705,0,0,1-1.157-.242,1.966,1.966,0,0,1-.825-.7,1.973,1.973,0,0,1-.306-1.116,1.734,1.734,0,0,1,.227-.937,1.609,1.609,0,0,1,.607-.566,3.242,3.242,0,0,1,.841-.308q.461-.1.928-.164.611-.079.994-.12a1.52,1.52,0,0,0,.559-.142.368.368,0,0,0,.177-.349V-1.4a1.373,1.373,0,0,0-.352-1,1.429,1.429,0,0,0-1.064-.358,1.854,1.854,0,0,0-1.157.323,1.911,1.911,0,0,0-.59.69L23.941-2.1a2.357,2.357,0,0,1,.7-.954,2.642,2.642,0,0,1,.961-.48,4.024,4.024,0,0,1,1.029-.138,4.233,4.233,0,0,1,.745.076,2.435,2.435,0,0,1,.817.312,1.829,1.829,0,0,1,.657.712,2.648,2.648,0,0,1,.262,1.275v4.42H28.081V2.218h-.052a1.815,1.815,0,0,1-.349.467,2.016,2.016,0,0,1-.651.424A2.507,2.507,0,0,1,26.037,3.284Zm.157-.926a2.057,2.057,0,0,0,1.033-.24,1.655,1.655,0,0,0,.638-.62,1.593,1.593,0,0,0,.216-.8V-.245A.6.6,0,0,1,27.8-.1a4.338,4.338,0,0,1-.507.109Q27,.052,26.734.085L26.3.139a4,4,0,0,0-.749.168,1.305,1.305,0,0,0-.559.345.881.881,0,0,0-.212.622.917.917,0,0,0,.4.81A1.762,1.762,0,0,0,26.195,2.358Zm4.8.769V-3.582h1v1.013h.07a1.611,1.611,0,0,1,.664-.808,1.954,1.954,0,0,1,1.083-.31q.114,0,.284,0t.258.013v1.048q-.052-.013-.238-.041a2.585,2.585,0,0,0-.391-.028,1.828,1.828,0,0,0-.871.2,1.55,1.55,0,0,0-.6.559,1.506,1.506,0,0,0-.221.81V3.127Zm7.914-6.709v.874H35.437v-.874ZM36.45-5.189h1.031V1.205a1.3,1.3,0,0,0,.129.653.632.632,0,0,0,.332.288,1.277,1.277,0,0,0,.43.072,1.628,1.628,0,0,0,.28-.02l.175-.033.21.926a2.145,2.145,0,0,1-.769.122,2.06,2.06,0,0,1-.854-.188,1.682,1.682,0,0,1-.69-.572,1.634,1.634,0,0,1-.273-.97ZM44.7.384V-3.582h1.031V3.127H44.7V1.991h-.07a2.185,2.185,0,0,1-.734.867,2.11,2.11,0,0,1-1.258.356,2.227,2.227,0,0,1-1.118-.277,1.91,1.91,0,0,1-.769-.839,3.171,3.171,0,0,1-.28-1.417V-3.582H41.5V.611a1.635,1.635,0,0,0,.413,1.171,1.387,1.387,0,0,0,1.055.437,1.768,1.768,0,0,0,.784-.2,1.724,1.724,0,0,0,.673-.6A1.819,1.819,0,0,0,44.7.384Zm2.918,2.743V-3.582h1v1.013h.07a1.611,1.611,0,0,1,.664-.808,1.954,1.954,0,0,1,1.083-.31q.114,0,.284,0t.258.013v1.048q-.052-.013-.238-.041a2.586,2.586,0,0,0-.391-.028,1.828,1.828,0,0,0-.871.2,1.55,1.55,0,0,0-.6.559,1.507,1.507,0,0,0-.221.81V3.127Zm7.181.14a3.132,3.132,0,0,1-1.671-.43,2.837,2.837,0,0,1-1.079-1.205,4.077,4.077,0,0,1-.378-1.806,4.162,4.162,0,0,1,.378-1.819A2.96,2.96,0,0,1,53.1-3.226a2.839,2.839,0,0,1,1.588-.443,3.18,3.18,0,0,1,1.035.175,2.579,2.579,0,0,1,.93.566A2.737,2.737,0,0,1,57.323-1.9a4.394,4.394,0,0,1,.249,1.581V.122H52.4V-.769h4.123A2.217,2.217,0,0,0,56.3-1.782a1.732,1.732,0,0,0-.638-.7,1.8,1.8,0,0,0-.972-.258,1.849,1.849,0,0,0-1.064.3,2.021,2.021,0,0,0-.688.788,2.31,2.31,0,0,0-.24,1.04v.594a2.845,2.845,0,0,0,.264,1.286,1.86,1.86,0,0,0,.736.8,2.149,2.149,0,0,0,1.1.273,2.211,2.211,0,0,0,.736-.116,1.535,1.535,0,0,0,.57-.349,1.567,1.567,0,0,0,.371-.583l1,.28a2.19,2.19,0,0,1-.528.889,2.537,2.537,0,0,1-.917.594A3.37,3.37,0,0,1,54.794,3.267Z" transform="translate(690.144 318.019)" fill="#f4f5f5"/>
      <rect id="Rectangle_1193-2" data-name="Rectangle 1193" width="224.466" height="43.048" rx="5" transform="translate(26.333 378.401)" fill="#051f4c"/>
      <path id="Path_8141" data-name="Path 8141" d="M5.539-6.828a1.922,1.922,0,0,0-.961-1.664,1.922,1.922,0,0,0-1.922,0A1.922,1.922,0,0,0,1.7-6.828a1.922,1.922,0,0,0,.961,1.664,1.922,1.922,0,0,0,1.922,0A1.922,1.922,0,0,0,5.539-6.828ZM2.945-2.5H5.26a2.383,2.383,0,0,1-.2-.961,2.6,2.6,0,0,1,.024-.345,2.4,2.4,0,0,0-.793-.135H2.945a2.4,2.4,0,0,0-2.393,2.2L.428-.261A1.921,1.921,0,0,0,1.7,1.709V5.9a.721.721,0,1,0,1.441,0V1.82H4.1v-.48A3.379,3.379,0,0,1,4.236.379H2.344a.478.478,0,0,1-.477-.519l.123-1.48A.959.959,0,0,1,2.945-2.5Zm6.918-.961a2.383,2.383,0,0,1-.2.961h2.114a.482.482,0,0,1,.462.348l1,3.5H10.824v.48a2.834,2.834,0,0,1-.165.961h1.126V5.9a.721.721,0,1,0,1.441,0V2.781h.649A.961.961,0,0,0,14.8,1.556L13.626-2.552a1.92,1.92,0,0,0-1.847-1.393h-.946a1.914,1.914,0,0,0-.979.267c.006.069.009.141.009.213Zm3.363-3.363a1.922,1.922,0,0,0-.961-1.664,1.922,1.922,0,0,0-1.922,0,1.922,1.922,0,0,0-.961,1.664,1.922,1.922,0,0,0,.961,1.664,1.922,1.922,0,0,0,1.922,0A1.922,1.922,0,0,0,13.226-6.828Zm-5.765,4.8a1.441,1.441,0,0,0,1.248-.721,1.441,1.441,0,0,0,0-1.441,1.441,1.441,0,0,0-1.248-.721,1.441,1.441,0,0,0-1.248.721,1.441,1.441,0,0,0,0,1.441A1.441,1.441,0,0,0,7.461-2.024Zm.961,3.363v.48a.482.482,0,0,1-.48.48H6.98a.482.482,0,0,1-.48-.48v-.48a.961.961,0,0,1,1.922,0Zm1.441.48v-.48a2.4,2.4,0,1,0-4.8,0v.48A1.917,1.917,0,0,0,6.04,3.5a1.341,1.341,0,0,0-.021.246V5.663a.96.96,0,0,0,.961.961h.961A.96.96,0,0,0,8.9,5.663V3.742A1.341,1.341,0,0,0,8.881,3.5,1.917,1.917,0,0,0,9.863,1.82Z" transform="translate(41.934 400.538)" fill="#f4f5f5"/>
      <text id="Passengers" transform="translate(26.333 368.004)" fill="#8aa2ce" font-size="11" font-family="Inter-Bold, Inter" font-weight="700"><tspan x="0" y="0">Passengers</tspan></text>
      <text id="Cabin" transform="translate(260.023 368.004)" fill="#8aa2ce" font-size="11" font-family="Inter-Bold, Inter" font-weight="700"><tspan x="0" y="0">Cabin</tspan></text>
      <rect id="Rectangle_1197" data-name="Rectangle 1197" width="172.193" height="30.749" rx="4" transform="translate(72.456 384.55)" fill="#1a386d"/>
      <path id="Path_8140" data-name="Path 8140" d="M3.514,3.79A2.965,2.965,0,0,1,1.819,3.3,3.045,3.045,0,0,1,.729,1.909a5.664,5.664,0,0,1-.376-2.2A5.61,5.61,0,0,1,.733-2.47,2.991,2.991,0,0,1,1.822-3.844a2.981,2.981,0,0,1,1.691-.472A2.972,2.972,0,0,1,5.2-3.842,3.016,3.016,0,0,1,6.3-2.468a5.528,5.528,0,0,1,.378,2.18,5.72,5.72,0,0,1-.38,2.2A3.05,3.05,0,0,1,5.207,3.308,2.935,2.935,0,0,1,3.514,3.79Zm0-1.372a1.21,1.21,0,0,0,1.074-.676,4.04,4.04,0,0,0,.4-2.029A5.141,5.141,0,0,0,4.8-1.771a1.932,1.932,0,0,0-.512-.89,1.124,1.124,0,0,0-.778-.3,1.209,1.209,0,0,0-1.07.669,3.992,3.992,0,0,0-.405,2,5.29,5.29,0,0,0,.182,1.5,1.94,1.94,0,0,0,.514.9A1.127,1.127,0,0,0,3.514,2.418Zm7.743-6.627V3.618H9.6V-2.638H9.556L7.763-1.515V-2.982L9.7-4.209Zm5.752,7.827H15.235l2.7-7.827h2.133l2.7,7.827H20.994L19.034-2.421h-.061ZM16.9.541h4.189V1.833H16.9Zm8.668,3.172a2.2,2.2,0,0,1-1.21-.346,2.355,2.355,0,0,1-.856-1.02A3.9,3.9,0,0,1,23.184.69a3.844,3.844,0,0,1,.325-1.68,2.34,2.34,0,0,1,.866-1.005,2.213,2.213,0,0,1,1.187-.334,1.824,1.824,0,0,1,.824.166,1.64,1.64,0,0,1,.535.413,2.158,2.158,0,0,1,.311.483h.05V-4.209h1.624V3.618H27.3v-.94h-.069a2.092,2.092,0,0,1-.323.483,1.627,1.627,0,0,1-.539.4A1.868,1.868,0,0,1,25.565,3.713Zm.516-1.3a1.042,1.042,0,0,0,.667-.216,1.363,1.363,0,0,0,.42-.606,2.582,2.582,0,0,0,.147-.913,2.58,2.58,0,0,0-.145-.91,1.306,1.306,0,0,0-.42-.6,1.069,1.069,0,0,0-.669-.21,1.056,1.056,0,0,0-.676.218,1.332,1.332,0,0,0-.417.6,2.594,2.594,0,0,0-.141.894,2.624,2.624,0,0,0,.143.9,1.363,1.363,0,0,0,.417.611A1.042,1.042,0,0,0,26.081,2.418ZM40.81-6.732V6.14h-.764V-6.732ZM54.629,3.725a2.326,2.326,0,0,1-1.471-.472,2.926,2.926,0,0,1-.929-1.372A6.508,6.508,0,0,1,51.908-.3a6.446,6.446,0,0,1,.323-2.169,2.956,2.956,0,0,1,.932-1.376,2.31,2.31,0,0,1,1.466-.476A2.31,2.31,0,0,1,56.1-3.84a2.957,2.957,0,0,1,.933,1.376A6.446,6.446,0,0,1,57.351-.3a6.508,6.508,0,0,1-.321,2.176A2.926,2.926,0,0,1,56.1,3.253,2.326,2.326,0,0,1,54.629,3.725Zm0-.841a1.468,1.468,0,0,0,1.33-.825A4.783,4.783,0,0,0,56.433-.3a6.043,6.043,0,0,0-.216-1.731A2.4,2.4,0,0,0,55.6-3.116a1.373,1.373,0,0,0-.969-.375,1.469,1.469,0,0,0-1.326.835A4.8,4.8,0,0,0,52.826-.3a6.053,6.053,0,0,0,.214,1.727,2.356,2.356,0,0,0,.617,1.082A1.386,1.386,0,0,0,54.629,2.884ZM71.292-1.763h-.948a1.99,1.99,0,0,0-.292-.718,2.028,2.028,0,0,0-.5-.522,2.191,2.191,0,0,0-.655-.319,2.61,2.61,0,0,0-.749-.107,2.378,2.378,0,0,0-1.286.359,2.481,2.481,0,0,0-.913,1.059A3.92,3.92,0,0,0,65.606-.3a3.92,3.92,0,0,0,.338,1.716,2.481,2.481,0,0,0,.913,1.059,2.378,2.378,0,0,0,1.286.359,2.61,2.61,0,0,0,.749-.107,2.191,2.191,0,0,0,.655-.319,2.015,2.015,0,0,0,.5-.524,2.009,2.009,0,0,0,.292-.717h.948a3.157,3.157,0,0,1-.39,1.074,2.909,2.909,0,0,1-.7.8,3.062,3.062,0,0,1-.942.5,3.536,3.536,0,0,1-1.114.172,3.28,3.28,0,0,1-1.781-.489,3.356,3.356,0,0,1-1.227-1.391A4.769,4.769,0,0,1,64.688-.3a4.769,4.769,0,0,1,.447-2.14,3.356,3.356,0,0,1,1.227-1.391,3.28,3.28,0,0,1,1.781-.489,3.536,3.536,0,0,1,1.114.172,3.062,3.062,0,0,1,.942.5,2.919,2.919,0,0,1,.7.8A3.138,3.138,0,0,1,71.292-1.763Zm1.529,5.381V-4.209h.948V-.724h4.173V-4.209h.948V3.618h-.948V.117H73.769v3.5ZM91.058-6.732V6.14h-.764V-6.732ZM104.878,3.725a2.326,2.326,0,0,1-1.471-.472,2.926,2.926,0,0,1-.929-1.372A6.508,6.508,0,0,1,102.157-.3a6.446,6.446,0,0,1,.323-2.169,2.957,2.957,0,0,1,.933-1.376,2.31,2.31,0,0,1,1.466-.476,2.31,2.31,0,0,1,1.466.476,2.957,2.957,0,0,1,.933,1.376A6.446,6.446,0,0,1,107.6-.3a6.508,6.508,0,0,1-.321,2.176,2.926,2.926,0,0,1-.929,1.372A2.326,2.326,0,0,1,104.878,3.725Zm0-.841a1.468,1.468,0,0,0,1.33-.825A4.783,4.783,0,0,0,106.682-.3a6.042,6.042,0,0,0-.216-1.731,2.4,2.4,0,0,0-.619-1.089,1.373,1.373,0,0,0-.969-.375,1.469,1.469,0,0,0-1.326.835,4.8,4.8,0,0,0-.478,2.36,6.053,6.053,0,0,0,.214,1.727,2.356,2.356,0,0,0,.617,1.082A1.386,1.386,0,0,0,104.878,2.884Zm8.286-7.093V3.618h-.948V-4.209Zm2.675,4.3V3.618h-.9v-5.87h.871v.917h.076a1.688,1.688,0,0,1,.627-.72,1.959,1.959,0,0,1,1.085-.273,2.154,2.154,0,0,1,1.043.243,1.661,1.661,0,0,1,.7.734,2.738,2.738,0,0,1,.248,1.24v3.73h-.9V-.051a1.528,1.528,0,0,0-.359-1.08,1.278,1.278,0,0,0-.986-.388,1.563,1.563,0,0,0-.77.187,1.336,1.336,0,0,0-.533.547A1.8,1.8,0,0,0,115.839.086Zm8.01-2.339v.764h-3.164v-.764Zm-2.217,5.87v-6.68a1.424,1.424,0,0,1,.237-.841,1.468,1.468,0,0,1,.615-.5,1.945,1.945,0,0,1,.8-.168,2.261,2.261,0,0,1,.543.054,2.107,2.107,0,0,1,.313.1l-.26.78q-.069-.023-.189-.057a1.181,1.181,0,0,0-.315-.034.814.814,0,0,0-.644.225.978.978,0,0,0-.2.661V3.618Z" transform="translate(88.02 399.503)" fill="#f4f5f5"/>
      <rect id="Rectangle_1194-3" data-name="Rectangle 1194" width="184.492" height="43.048" rx="5" transform="translate(260.023 378.032)" fill="#051f4c"/>
      <path id="Path_8441" data-name="Path 8441" d="M1.75-15.75a.873.873,0,0,0-.875-.875A.873.873,0,0,0,0-15.75v4.335a3.769,3.769,0,0,0,.332,1.55L3.249-3.353a3.211,3.211,0,0,0,2.928,1.9h1.7V.294h-3.5a.875.875,0,1,0,0,1.75h8.751a.875.875,0,0,0,0-1.75h-3.5v-1.75h3.209A2.628,2.628,0,0,0,15.26-3.072L16.27-5.5a.865.865,0,0,0-.08-.82.888.888,0,0,0-.729-.39H3.664L3.143-7.874H11.96a.873.873,0,0,0,.875-.875.873.873,0,0,0-.875-.875h-9.6l-.427-.955a2.057,2.057,0,0,1-.179-.835V-15.75Zm3.1,11.683-.4-.89h9.7l-.5,1.211a.879.879,0,0,1-.809.54H6.177A1.459,1.459,0,0,1,4.846-4.067Z" transform="translate(273.154 406.448)" fill="#f4f5f5"/>
      <path id="Path_8139" data-name="Path 8139" d="M4.772-.04a.5.5,0,0,1-.713,0L.694-3.4a.5.5,0,0,1,0-.713.5.5,0,0,1,.713,0L4.413-1.11,7.421-4.118a.5.5,0,0,1,.713,0,.5.5,0,0,1,0,.713Z" transform="translate(421.747 401.95)" fill="#f4f5f5"/>
      <rect id="Rectangle_1323" data-name="Rectangle 1323" width="106.083" height="30.749" rx="4" transform="translate(304.609 384.55)" fill="#1a386d"/>
      <path id="Path_8137" data-name="Path 8137" d="M.506,3.127V-5.818H6.533v1.559H2.4v2.131H6.223V-.568H2.4V1.568H6.551V3.127Zm10.531.131a3.411,3.411,0,0,1-1.771-.439A2.92,2.92,0,0,1,8.13,1.6a3.935,3.935,0,0,1-.4-1.8,3.916,3.916,0,0,1,.4-1.81A2.956,2.956,0,0,1,9.272-3.23a3.373,3.373,0,0,1,1.756-.439,3.494,3.494,0,0,1,1.537.319,2.57,2.57,0,0,1,1.044.9A2.631,2.631,0,0,1,14.032-1.1H12.277a1.372,1.372,0,0,0-.391-.81,1.137,1.137,0,0,0-.828-.308,1.246,1.246,0,0,0-.753.234,1.509,1.509,0,0,0-.5.679A2.894,2.894,0,0,0,9.625-.228,2.989,2.989,0,0,0,9.8.864a1.5,1.5,0,0,0,.5.686,1.247,1.247,0,0,0,.756.236,1.24,1.24,0,0,0,.574-.131,1.12,1.12,0,0,0,.424-.382,1.456,1.456,0,0,0,.221-.6h1.756a2.75,2.75,0,0,1-.417,1.352,2.543,2.543,0,0,1-1.029.911A3.43,3.43,0,0,1,11.036,3.258Zm7.224,0A3.411,3.411,0,0,1,16.5,2.823,2.937,2.937,0,0,1,15.36,1.609a3.9,3.9,0,0,1-.4-1.81,3.918,3.918,0,0,1,.4-1.819A2.937,2.937,0,0,1,16.5-3.235a3.411,3.411,0,0,1,1.758-.435,3.411,3.411,0,0,1,1.758.435A2.937,2.937,0,0,1,21.161-2.02a3.919,3.919,0,0,1,.4,1.819,3.9,3.9,0,0,1-.4,1.81,2.937,2.937,0,0,1-1.142,1.214A3.411,3.411,0,0,1,18.26,3.258Zm.009-1.441a1.15,1.15,0,0,0,.773-.264,1.625,1.625,0,0,0,.47-.723,3.17,3.17,0,0,0,.159-1.044,3.17,3.17,0,0,0-.159-1.044,1.641,1.641,0,0,0-.47-.725,1.145,1.145,0,0,0-.773-.266,1.176,1.176,0,0,0-.784.266,1.615,1.615,0,0,0-.476.725A3.17,3.17,0,0,0,16.85-.214,3.17,3.17,0,0,0,17.009.829a1.6,1.6,0,0,0,.476.723A1.182,1.182,0,0,0,18.269,1.817ZM24.637-.752V3.127H22.777V-3.582H24.55V-2.4h.079a1.883,1.883,0,0,1,.747-.928,2.271,2.271,0,0,1,1.271-.343,2.359,2.359,0,0,1,1.219.306,2.081,2.081,0,0,1,.808.871,2.934,2.934,0,0,1,.288,1.347V3.127H27.1V-.813a1.356,1.356,0,0,0-.314-.963,1.133,1.133,0,0,0-.878-.347,1.322,1.322,0,0,0-.662.162,1.111,1.111,0,0,0-.446.47A1.629,1.629,0,0,0,24.637-.752Zm8.818,4.01A3.411,3.411,0,0,1,31.7,2.823a2.937,2.937,0,0,1-1.142-1.214,3.9,3.9,0,0,1-.4-1.81,3.918,3.918,0,0,1,.4-1.819A2.937,2.937,0,0,1,31.7-3.235a3.411,3.411,0,0,1,1.758-.435,3.411,3.411,0,0,1,1.758.435A2.937,2.937,0,0,1,36.356-2.02a3.918,3.918,0,0,1,.4,1.819,3.9,3.9,0,0,1-.4,1.81,2.937,2.937,0,0,1-1.142,1.214A3.411,3.411,0,0,1,33.456,3.258Zm.009-1.441a1.15,1.15,0,0,0,.773-.264,1.625,1.625,0,0,0,.47-.723,3.17,3.17,0,0,0,.159-1.044,3.17,3.17,0,0,0-.159-1.044,1.641,1.641,0,0,0-.47-.725,1.145,1.145,0,0,0-.773-.266,1.176,1.176,0,0,0-.784.266,1.615,1.615,0,0,0-.476.725,3.17,3.17,0,0,0-.159,1.044A3.17,3.17,0,0,0,32.2.829a1.6,1.6,0,0,0,.476.723A1.182,1.182,0,0,0,33.464,1.817Zm4.507,1.31V-3.582h1.773V-2.4h.079a1.861,1.861,0,0,1,.7-.93,2,2,0,0,1,1.171-.341,1.982,1.982,0,0,1,1.175.343,1.635,1.635,0,0,1,.646.928h.07a1.793,1.793,0,0,1,.745-.924,2.309,2.309,0,0,1,1.278-.347,2.049,2.049,0,0,1,1.527.6,2.3,2.3,0,0,1,.587,1.688V3.127H45.864V-1.018a1.1,1.1,0,0,0-.3-.839,1.041,1.041,0,0,0-.743-.28,1,1,0,0,0-.791.321,1.229,1.229,0,0,0-.284.845v4.1h-1.8V-1.057a1.086,1.086,0,0,0-.282-.786.981.981,0,0,0-.74-.293,1.025,1.025,0,0,0-.557.155,1.094,1.094,0,0,0-.391.432,1.388,1.388,0,0,0-.144.649V3.127Zm12.12,2.516a3.792,3.792,0,0,1-.662-.055,2.5,2.5,0,0,1-.509-.138l.419-1.389a2.3,2.3,0,0,0,.592.109.754.754,0,0,0,.459-.122.917.917,0,0,0,.317-.446l.109-.284-2.407-6.9h1.957l1.389,4.927h.07l1.4-4.927H55.2L52.591,3.852a3.18,3.18,0,0,1-.509.946,2.141,2.141,0,0,1-.81.625A2.856,2.856,0,0,1,50.092,5.643Z" transform="translate(317.18 399.572)" fill="#f4f5f5"/>
      <path id="Path_8138" data-name="Path 8138" d="M7.017-3.95a.5.5,0,0,0,0-.713.5.5,0,0,0-.713,0l-2.5,2.5-2.5-2.5a.5.5,0,0,0-.713,0,.5.5,0,0,0,0,.713l2.5,2.5-2.5,2.5a.5.5,0,0,0,.713.713l2.5-2.5,2.5,2.5a.5.5,0,0,0,.713-.713l-2.5-2.5Z" transform="translate(389.402 400.532)" fill="#f4f5f5"/>
      <g id="Group_7247" data-name="Group 7247" transform="translate(655.228 368.386)">
        <rect id="Rectangle_1324" data-name="Rectangle 1324" width="212.166" height="50.735" rx="6" fill="#1aa5da"/>
        <path id="Path_8131" data-name="Path 8131" d="M5.52,6.522A6.348,6.348,0,0,1,3,6.044,4.134,4.134,0,0,1,1.231,4.665a3.63,3.63,0,0,1-.67-2.125H3.433a1.857,1.857,0,0,0,.584,1.3,2.069,2.069,0,0,0,1.446.479,2.224,2.224,0,0,0,1.474-.45,1.463,1.463,0,0,0,.536-1.178,1.361,1.361,0,0,0-.364-.977,2.549,2.549,0,0,0-.91-.6A15.052,15.052,0,0,0,4.7.625,16.1,16.1,0,0,1,2.581-.132a3.706,3.706,0,0,1-1.4-1.13A3.22,3.22,0,0,1,.6-3.282,3.612,3.612,0,0,1,1.193-5.35,3.776,3.776,0,0,1,2.859-6.7,6.061,6.061,0,0,1,5.31-7.169,5.317,5.317,0,0,1,8.67-6.163,3.727,3.727,0,0,1,10.1-3.358H7.148A1.532,1.532,0,0,0,6.564-4.5a2.2,2.2,0,0,0-1.446-.45,1.862,1.862,0,0,0-1.254.4,1.454,1.454,0,0,0-.469,1.168,1.207,1.207,0,0,0,.354.89,2.7,2.7,0,0,0,.881.574q.527.22,1.484.507a15.59,15.59,0,0,1,2.125.766A3.817,3.817,0,0,1,9.656.51,3.191,3.191,0,0,1,10.25,2.52a3.782,3.782,0,0,1-.555,1.991A3.92,3.92,0,0,1,8.067,5.977,5.552,5.552,0,0,1,5.52,6.522ZM22.428.854a6.327,6.327,0,0,1-.077,1.034H14.6a2.637,2.637,0,0,0,.8,1.8,2.48,2.48,0,0,0,1.742.651,2.189,2.189,0,0,0,2.125-1.283H22.16A4.832,4.832,0,0,1,20.4,5.574a5.143,5.143,0,0,1-3.2.986,5.534,5.534,0,0,1-2.748-.68,4.785,4.785,0,0,1-1.9-1.924,5.9,5.9,0,0,1-.68-2.872,6.006,6.006,0,0,1,.67-2.891,4.676,4.676,0,0,1,1.877-1.915,5.622,5.622,0,0,1,2.777-.67,5.577,5.577,0,0,1,2.709.651,4.582,4.582,0,0,1,1.857,1.848A5.592,5.592,0,0,1,22.428.854ZM19.652.088a2.126,2.126,0,0,0-.747-1.656,2.646,2.646,0,0,0-1.781-.622,2.433,2.433,0,0,0-1.675.6A2.652,2.652,0,0,0,14.616.088Zm4.04.957a6.14,6.14,0,0,1,.641-2.853,4.7,4.7,0,0,1,1.742-1.915,4.639,4.639,0,0,1,2.461-.67,4.322,4.322,0,0,1,2.078.479,4.216,4.216,0,0,1,1.427,1.206V-4.22h2.7V6.388h-2.7V4.837a3.988,3.988,0,0,1-1.427,1.235,4.365,4.365,0,0,1-2.1.488,4.508,4.508,0,0,1-2.441-.689,4.824,4.824,0,0,1-1.742-1.944A6.242,6.242,0,0,1,23.692,1.046Zm8.349.038a3.438,3.438,0,0,0-.383-1.675,2.7,2.7,0,0,0-1.034-1.072,2.764,2.764,0,0,0-1.4-.373,2.715,2.715,0,0,0-1.379.364A2.74,2.74,0,0,0,26.823-.61a3.329,3.329,0,0,0-.393,1.656,3.439,3.439,0,0,0,.393,1.675,2.826,2.826,0,0,0,1.034,1.1,2.627,2.627,0,0,0,1.369.383,2.764,2.764,0,0,0,1.4-.373A2.7,2.7,0,0,0,31.658,2.76,3.438,3.438,0,0,0,32.041,1.084Zm8-3.657a3.769,3.769,0,0,1,1.35-1.321A3.754,3.754,0,0,1,43.3-4.373v2.815h-.708a2.715,2.715,0,0,0-1.905.594A2.737,2.737,0,0,0,40.045,1.1V6.388H37.364V-4.22h2.681Zm4.366,3.657a5.95,5.95,0,0,1,.67-2.882,4.79,4.79,0,0,1,1.857-1.915,5.374,5.374,0,0,1,2.719-.68,5.228,5.228,0,0,1,3.265.986A4.8,4.8,0,0,1,54.655-.639H51.763a2.115,2.115,0,0,0-.776-1.082,2.251,2.251,0,0,0-1.35-.393,2.211,2.211,0,0,0-1.819.833,3.687,3.687,0,0,0-.67,2.365,3.653,3.653,0,0,0,.67,2.346,2.211,2.211,0,0,0,1.819.833,2.033,2.033,0,0,0,2.125-1.455h2.891a4.893,4.893,0,0,1-1.742,2.738,5.135,5.135,0,0,1-3.255,1.015,5.374,5.374,0,0,1-2.719-.68,4.79,4.79,0,0,1-1.857-1.915A5.95,5.95,0,0,1,44.411,1.084ZM62.6-4.373a4.306,4.306,0,0,1,2.145.527A3.628,3.628,0,0,1,66.211-2.3,5.325,5.325,0,0,1,66.737.165V6.388H64.057V.529a2.751,2.751,0,0,0-.632-1.944,2.238,2.238,0,0,0-1.723-.68,2.293,2.293,0,0,0-1.752.68A2.725,2.725,0,0,0,59.308.529V6.388H56.627V-7.781h2.681V-2.9a3.5,3.5,0,0,1,1.379-1.082A4.566,4.566,0,0,1,62.6-4.373Zm19.493-2.6v2.164H76.522v3.428h4.27V.74h-4.27V6.388H73.841V-6.977Zm4.576-.8V6.388H83.99V-7.781Zm4,2.3a1.633,1.633,0,0,1-1.178-.45,1.489,1.489,0,0,1-.469-1.12,1.489,1.489,0,0,1,.469-1.12,1.633,1.633,0,0,1,1.178-.45,1.633,1.633,0,0,1,1.178.45,1.489,1.489,0,0,1,.469,1.12,1.489,1.489,0,0,1-.469,1.12A1.633,1.633,0,0,1,90.673-5.484ZM91.994-4.22V6.388H89.313V-4.22Zm6.8-.172a4.452,4.452,0,0,1,2.087.469A3.843,3.843,0,0,1,102.3-2.707V-4.22H105V6.465A5.691,5.691,0,0,1,104.4,9.1a4.407,4.407,0,0,1-1.781,1.838,5.692,5.692,0,0,1-2.872.68,6.135,6.135,0,0,1-3.705-1.053A3.9,3.9,0,0,1,94.407,7.69h2.662a1.982,1.982,0,0,0,.91,1.158,3.169,3.169,0,0,0,1.695.431,2.623,2.623,0,0,0,1.9-.7,2.807,2.807,0,0,0,.728-2.116V4.818a4.072,4.072,0,0,1-1.427,1.245,4.256,4.256,0,0,1-2.078.5,4.556,4.556,0,0,1-2.451-.689,4.8,4.8,0,0,1-1.752-1.944,6.242,6.242,0,0,1-.641-2.882,6.14,6.14,0,0,1,.641-2.853,4.7,4.7,0,0,1,1.743-1.915A4.639,4.639,0,0,1,98.792-4.392Zm3.5,5.476a3.439,3.439,0,0,0-.383-1.675,2.7,2.7,0,0,0-1.034-1.072,2.764,2.764,0,0,0-1.4-.373,2.715,2.715,0,0,0-1.379.364A2.74,2.74,0,0,0,97.078-.61a3.329,3.329,0,0,0-.393,1.656,3.439,3.439,0,0,0,.393,1.675,2.826,2.826,0,0,0,1.034,1.1,2.627,2.627,0,0,0,1.369.383,2.764,2.764,0,0,0,1.4-.373,2.7,2.7,0,0,0,1.034-1.072A3.439,3.439,0,0,0,102.3,1.084Zm11.3-5.457a4.306,4.306,0,0,1,2.145.527A3.628,3.628,0,0,1,117.2-2.3a5.325,5.325,0,0,1,.527,2.461V6.388h-2.681V.529a2.751,2.751,0,0,0-.632-1.944,2.238,2.238,0,0,0-1.723-.68,2.293,2.293,0,0,0-1.752.68A2.725,2.725,0,0,0,110.3.529V6.388h-2.681V-7.781H110.3V-2.9a3.5,3.5,0,0,1,1.379-1.082A4.566,4.566,0,0,1,113.593-4.373Zm9.8,2.355V3.114a1.014,1.014,0,0,0,.259.776,1.27,1.27,0,0,0,.871.239h1.245V6.388h-1.685q-3.389,0-3.389-3.294V-2.018h-1.264v-2.2H120.7V-6.843h2.7V-4.22h2.374v2.2Z" transform="translate(67.745 26.178)" fill="#fff"/>
        <path id="Path_8134" data-name="Path 8134" d="M6.672-8.835A2.031,2.031,0,0,1,8.2-8.894l7.563,2.775a.668.668,0,0,0,.538-.034L20-8.045a4.7,4.7,0,0,1,2.144-.517h2.564a.729.729,0,0,1,.664,1.034,6.812,6.812,0,0,1-3.136,3.237L10.745,1.46a.682.682,0,0,1-.3.071H4.595a.675.675,0,0,1-.475-.2L1.434-1.348l1-.572a.669.669,0,0,1,.605-.029L5.44-.881A.669.669,0,0,0,6.02-.9L10.855-3.37a.67.67,0,0,0,.366-.572.679.679,0,0,0-.315-.6L5.125-8.129l-.277-.614.277.614,1.551-.706Zm1.993-1.32a3.364,3.364,0,0,0-2.548.1l-1.551.706a1.343,1.343,0,0,0-.151,2.367L9.186-4.021,5.7-2.239l-2.11-.937L3.33-2.6l.256-.576a2.015,2.015,0,0,0-1.82.092l-1,.568A1.346,1.346,0,0,0,.479-.4L3.161,2.284a2.018,2.018,0,0,0,1.425.593h5.856a1.986,1.986,0,0,0,.9-.214L22.84-3.084A8.135,8.135,0,0,0,26.594-6.96,2.074,2.074,0,0,0,24.711-9.9H22.146a6.032,6.032,0,0,0-2.754.664L15.954-7.481l-7.29-2.674ZM.673,6.913a.673.673,0,1,0,0,1.345h25.56a.673.673,0,1,0,0-1.345Z" transform="translate(17.52 26.782)" fill="#fff"/>
      </g>
      <path id="Path_8439" data-name="Path 8439" d="M6.77,0h95.617a6.77,6.77,0,0,1,6.77,6.77V25.516a6.77,6.77,0,0,1-6.77,6.77H6.77A6.77,6.77,0,0,1,0,25.516V6.77A6.77,6.77,0,0,1,6.77,0Z" transform="translate(29.477 244.403)" fill="#214d9c"/>
      <g id="Group_7262" data-name="Group 7262" transform="translate(41.268 254.229)">
        <path id="Path_8436" data-name="Path 8436" d="M9.626-.839A5.714,5.714,0,0,1,9.018,1.9,4.239,4.239,0,0,1,7.364,3.626a4.673,4.673,0,0,1-2.349.594,4.664,4.664,0,0,1-2.356-.6A4.245,4.245,0,0,1,1.009,1.9,5.721,5.721,0,0,1,.4-.839,5.732,5.732,0,0,1,1.009-3.58,4.228,4.228,0,0,1,2.659-5.3,4.678,4.678,0,0,1,5.015-5.9,4.673,4.673,0,0,1,7.364-5.3,4.239,4.239,0,0,1,9.018-3.58,5.714,5.714,0,0,1,9.626-.839Zm-2.111,0a4.43,4.43,0,0,0-.31-1.76,2.4,2.4,0,0,0-.873-1.087,2.342,2.342,0,0,0-1.318-.37,2.342,2.342,0,0,0-1.318.37A2.4,2.4,0,0,0,2.825-2.6a4.43,4.43,0,0,0-.31,1.76,4.43,4.43,0,0,0,.31,1.76A2.4,2.4,0,0,0,3.7,2.008a2.342,2.342,0,0,0,1.318.37,2.342,2.342,0,0,0,1.318-.37A2.4,2.4,0,0,0,7.205.921,4.43,4.43,0,0,0,7.515-.839Zm5.66.654v4.27H11.127V-3.3h1.952V-2h.087a2.073,2.073,0,0,1,.822-1.022,2.5,2.5,0,0,1,1.4-.377,2.6,2.6,0,0,1,1.342.337,2.291,2.291,0,0,1,.89.959,3.231,3.231,0,0,1,.317,1.483v4.7H15.887V-.252a1.492,1.492,0,0,0-.346-1.06,1.247,1.247,0,0,0-.967-.382,1.456,1.456,0,0,0-.728.178,1.224,1.224,0,0,0-.49.517A1.794,1.794,0,0,0,13.175-.185Zm9.737,4.414a3.916,3.916,0,0,1-1.959-.464,3.139,3.139,0,0,1-1.262-1.318A4.34,4.34,0,0,1,19.248.426a4.318,4.318,0,0,1,.442-2,3.265,3.265,0,0,1,1.248-1.342A3.622,3.622,0,0,1,22.831-3.4a3.909,3.909,0,0,1,1.363.233,3.073,3.073,0,0,1,1.106.7,3.187,3.187,0,0,1,.738,1.171A4.677,4.677,0,0,1,26.3.353V.916H20.066V-.353h4.308a1.569,1.569,0,0,0-.192-.784,1.4,1.4,0,0,0-.531-.536,1.55,1.55,0,0,0-.786-.195,1.577,1.577,0,0,0-.825.214,1.535,1.535,0,0,0-.56.572,1.63,1.63,0,0,0-.207.8V.921a2.054,2.054,0,0,0,.2.947,1.463,1.463,0,0,0,.579.615,1.75,1.75,0,0,0,.89.216,1.937,1.937,0,0,0,.625-.1,1.3,1.3,0,0,0,.486-.289,1.254,1.254,0,0,0,.308-.471l1.895.125a2.583,2.583,0,0,1-.589,1.19,2.959,2.959,0,0,1-1.144.789A4.3,4.3,0,0,1,22.912,4.229Zm9.329-5V.853H27.75V-.772Zm3.2,4.857L33.433-3.3h2.072L36.65,1.661h.067L37.91-3.3h2.034l1.212,4.934h.063L42.344-3.3h2.068L42.406,4.085H40.238L38.968-.56h-.091L37.607,4.085ZM47.6,4.224a3.052,3.052,0,0,1-1.26-.248,1.991,1.991,0,0,1-.873-.736,2.18,2.18,0,0,1-.32-1.219A2.153,2.153,0,0,1,45.378.988a1.83,1.83,0,0,1,.615-.673,2.982,2.982,0,0,1,.887-.385,6.68,6.68,0,0,1,1.046-.183q.644-.067,1.039-.127a1.451,1.451,0,0,0,.572-.18.4.4,0,0,0,.178-.356V-.945a.889.889,0,0,0-.286-.707,1.193,1.193,0,0,0-.81-.25,1.444,1.444,0,0,0-.88.243,1.14,1.14,0,0,0-.433.608L45.412-1.2a2.591,2.591,0,0,1,.567-1.166,2.752,2.752,0,0,1,1.094-.76A4.189,4.189,0,0,1,48.628-3.4a4.754,4.754,0,0,1,1.181.144,3.113,3.113,0,0,1,1.005.447,2.188,2.188,0,0,1,.695.777A2.358,2.358,0,0,1,51.764-.9V4.085H49.821V3.061h-.058a2.054,2.054,0,0,1-.476.608,2.147,2.147,0,0,1-.716.409A2.917,2.917,0,0,1,47.6,4.224Zm.587-1.414a1.7,1.7,0,0,0,.8-.18,1.4,1.4,0,0,0,.543-.488,1.265,1.265,0,0,0,.2-.7V.661a1.047,1.047,0,0,1-.262.113q-.166.05-.373.091t-.414.072l-.375.055a2.534,2.534,0,0,0-.63.168,1.017,1.017,0,0,0-.418.31.772.772,0,0,0-.149.483.735.735,0,0,0,.305.637A1.3,1.3,0,0,0,48.191,2.811Zm6.16,4.044a4.175,4.175,0,0,1-.728-.06,2.748,2.748,0,0,1-.56-.151l.462-1.529a2.533,2.533,0,0,0,.652.12.83.83,0,0,0,.5-.135,1.01,1.01,0,0,0,.349-.49l.12-.313L52.5-3.3h2.154l1.529,5.424h.077L57.8-3.3h2.169L57.1,4.883a3.5,3.5,0,0,1-.56,1.041,2.357,2.357,0,0,1-.892.688A3.144,3.144,0,0,1,54.351,6.855Z" transform="translate(25.296 5.898)" fill="#fff"/>
        <path id="Path_8438" data-name="Path 8438" d="M13.356-.818a.632.632,0,0,0,0-.9l-3.6-3.6a.632.632,0,0,0-.9,0,.634.634,0,0,0,0,.9l2.512,2.512L.635-1.9A.633.633,0,0,0,0-1.268a.633.633,0,0,0,.635.635h10.74L8.862,1.879a.634.634,0,1,0,.9.9Z" transform="translate(0 7.466)" fill="#fff"/>
      </g>
    </g>
    <g id="Rectangle_1838" data-name="Rectangle 1838" transform="translate(-86.276 43.54)" fill="none" stroke="#5f7db3" stroke-width="4" stroke-dasharray="25 10" opacity="0.4">
      <rect width="909" height="470" rx="25" stroke="none"/>
      <rect x="-2" y="-2" width="913" height="474" rx="27" fill="none"/>
    </g>
  </g>
</svg>
