<svg xmlns="http://www.w3.org/2000/svg" width="502.434" height="495.244" viewBox="0 0 502.434 495.244">
  <g id="favicon" transform="translate(0 -0.004)">
    <path id="Path_8639" data-name="Path 8639" d="M501.409,18.581c-10.24,25.77-21.162,63.487-21.333,106.835v308.9a60.817,60.817,0,0,1-60.756,60.927H60.927A60.963,60.963,0,0,1,0,434.317V82.238A60.963,60.963,0,0,1,60.927,21.312H375.971C392.7,20.8,441.335,17.9,484.172,1c10.922-4.437,21.674,6.656,17.237,17.578" transform="translate(0 0.003)" fill="#ff6700"/>
    <path id="Path_8640" data-name="Path 8640" d="M256.822,59.545,237.366,95.725,217.74,137.367A430.011,430.011,0,0,0,176.1,306.324H106.3V226.112L26.938,59.033l-3.755-7.68-3.072-6.485L4.24,11.759h79.7L138.381,152.9h.171l2.389,6.144s15.189-43.69,20.48-56.148c9.386-22.7,40.447-91.134,40.447-91.134l23.552,20.48,10.24,8.875Z" transform="translate(68.121 188.923)" fill="#fff"/>
    <path id="Path_8641" data-name="Path 8641" d="M130.818,5.688l.307.051c3.089.546,4.284,3.43,4.369,6.366.256,10.479-6.4,20.343-12.424,28.108-4.642,5.99-9.967,11.3-14.643,17.254l5.581,14.643a3.374,3.374,0,0,1,3.908-.6c.751.393,4.232,3.516,4.488,4.215,1.263,3.482-2.543,5.854-4.13,8.38l.563,1.86c2.423-1.69,4.028-.478,5.939,1.212.393.341.956.819,1.314,1.161a6.408,6.408,0,0,1,1.331,2.253c.614,2.714-3.106,5.137-4.028,7.339l5.8,15.855a5.077,5.077,0,0,1-.632,2.935,70.658,70.658,0,0,1-5.6,6.741,3.256,3.256,0,0,1-4.744-.785L98.375,91.344,87.931,81.719,73.51,97.505,62.826,107.967l4.2,25.651c.154,2.816-2.7,5.41-4.523,7.117l-2.184.171a6.692,6.692,0,0,1-1.946-1.911c-3.413-5.325-6.059-11.776-9.438-17.22-.512-.6-1.434-1.775-2.236-1.707-.6.051-1.109.529-1.673.649-3.908.836-6.332-1.314-6.127-5.478.034-.7.478-1.331.341-2.065-.341-1.707-6.349-3.516-7.953-4.164-3.635-1.519-8.909-3.226-12.185-5.069a6.67,6.67,0,0,1-1.638-1.451l-.171-2.27c1.331-2.15,3.379-5.461,6.076-5.717l24.968.478c3.157-5.017,6.519-9.864,9.864-14.728l11.3-15.07-9.95-8.892-33.467-16.2a3.513,3.513,0,0,1-1.451-4.762A66.331,66.331,0,0,1,30.2,28.54a4.439,4.439,0,0,1,2.679-1.092L48.78,31.066c1.57-1.195,2.389-3.089,3.857-4.369a3.314,3.314,0,0,1,3.533-.58A9.6,9.6,0,0,1,58.218,27.5a12.437,12.437,0,0,1,2.1,2.031,4.1,4.1,0,0,1,.853,3.464c-.085.375-.495.512-.358.973l1.86.29c2.1-1.911,3.942-6.485,7.322-5.5a20.92,20.92,0,0,1,4.676,3.994,3.749,3.749,0,0,1,.017,4.113l.256.222,14.472,3.328c4.983-5.837,9.335-12.2,14.4-17.937C110.168,15.3,118.8,6.558,128.685,5.722a11.161,11.161,0,0,1,2.133-.034" transform="translate(277.835 90.736)" fill="#b04b13"/>
    <path id="Path_8642" data-name="Path 8642" d="M147.083,3.476l.358.051c3.533.631,4.9,3.925,4.983,7.287.29,11.981-7.3,23.244-14.182,32.136-5.325,6.844-11.417,12.919-16.759,19.729l6.383,16.742a3.813,3.813,0,0,1,4.471-.683c.853.444,4.847,4.011,5.12,4.813,1.451,3.976-2.9,6.69-4.71,9.574l.631,2.133c2.782-1.928,4.608-.546,6.809,1.382.427.393,1.092.939,1.485,1.331a6.961,6.961,0,0,1,1.536,2.577c.7,3.106-3.567,5.871-4.625,8.4l6.656,18.107a5.8,5.8,0,0,1-.734,3.362,79.543,79.543,0,0,1-6.4,7.714,3.748,3.748,0,0,1-5.427-.9L110,101.4,98.051,90.4,81.565,108.452,69.345,120.4l4.8,29.337c.188,3.208-3.072,6.2-5.154,8.141l-2.492.188a7.376,7.376,0,0,1-2.236-2.184c-3.908-6.093-6.929-13.465-10.786-19.678-.58-.7-1.655-2.031-2.56-1.963-.683.068-1.263.6-1.911.734-4.471.973-7.253-1.485-7-6.263.034-.785.546-1.519.375-2.355-.392-1.946-7.253-4.011-9.079-4.762-4.164-1.724-10.189-3.686-13.943-5.8a7.242,7.242,0,0,1-1.877-1.655l-.188-2.594c1.536-2.44,3.874-6.246,6.946-6.536l28.552.546c3.6-5.717,7.441-11.264,11.264-16.827L76.974,71.486,65.608,61.331,27.345,42.814a4.042,4.042,0,0,1-1.672-5.461,78.973,78.973,0,0,1,6.366-7.748,5.271,5.271,0,0,1,3.072-1.263l18.176,4.147c1.792-1.365,2.748-3.516,4.4-5a3.786,3.786,0,0,1,4.045-.649,10.207,10.207,0,0,1,2.338,1.57,14.087,14.087,0,0,1,2.406,2.321,4.805,4.805,0,0,1,.99,3.959c-.1.427-.58.6-.427,1.109l2.133.341c2.406-2.185,4.506-7.407,8.362-6.28.939.273,4.744,3.652,5.342,4.557a4.231,4.231,0,0,1,.034,4.693l.29.273,16.554,3.789c5.683-6.673,10.666-13.943,16.452-20.514,7.253-8.209,17.135-18.176,28.45-19.131a12.783,12.783,0,0,1,2.423-.051" transform="translate(277.835 55.214)" fill="#fff"/>
    <path id="Path_8643" data-name="Path 8643" d="M40.585,19.984,27.546,41.471,16.59,35.5,29.014,12.731Z" transform="translate(266.536 204.536)" fill="#ff6700"/>
    <path id="Path_8644" data-name="Path 8644" d="M37.176,20.248,25.264,42.673,15.6,38.031l11.025-23.3Z" transform="translate(250.701 236.746)" fill="#ff6700"/>
    <path id="Path_8645" data-name="Path 8645" d="M33.768,21.039,23,44.01l-8.277-3.482,9.83-23.739Z" transform="translate(236.53 269.743)" fill="#ff6700"/>
    <path id="Path_8646" data-name="Path 8646" d="M30.332,22.007,20.74,45.593l-6.792-2.44,8.6-24.268Z" transform="translate(224.093 303.394)" fill="#ff6700"/>
    <path id="Path_8647" data-name="Path 8647" d="M26.745,23.137,18.519,47.218,13.3,45.7l7.168-24.678Z" transform="translate(213.631 337.73)" fill="#ff6700"/>
    <path id="Path_8648" data-name="Path 8648" d="M23.025,24.459,16.4,49.086,12.785,48.3l5.529-25.1Z" transform="translate(205.403 372.677)" fill="#ff6700"/>
    <path id="Path_8649" data-name="Path 8649" d="M19.047,25.988,14.371,51.041l-1.928-.273,3.55-25.361Z" transform="translate(199.907 408.21)" fill="#ff6700"/>
    <path id="Path_8650" data-name="Path 8650" d="M14.7,27.809,12.481,51.19H12.31l1.024-23.552Z" transform="translate(197.777 444.052)" fill="#ff6700"/>
  </g>
</svg>
