<svg id="hand-1" xmlns="http://www.w3.org/2000/svg" xmlns:xlink="http://www.w3.org/1999/xlink" width="119.112" height="181.703" viewBox="0 0 119.112 181.703">
  <defs>
    <clipPath id="clip-path">
      <rect id="Rectangle_1936" data-name="Rectangle 1936" width="119.112" height="181.703" fill="none"/>
    </clipPath>
  </defs>
  <g id="Group_7500" data-name="Group 7500" clip-path="url(#clip-path)">
    <path id="Path_8753" data-name="Path 8753" d="M116.161,41.217c-1.073,2.292-3.761,4.119-5.908,5.366C95.527,55.189,76.315,58.776,61.937,68.532L39.64,88.315c.387,1.18.861,1.682,1.518,1.653a.471.471,0,0,0,.116-.01,3.371,3.371,0,0,0,1.412-.667c2.978-2.088,6.623-6.44,9.5-8.973,6.652-5.84,12.792-11.168,20.933-14.958,5.763-2.688,12.4-5.463,18.3-7.851,2.823-1.141,5.492-2.282,8.441-2.4.193-.01.387-.01.59-.01a13.141,13.141,0,0,1,1.711.135,5.634,5.634,0,0,1,.464,3.21c-.4,1.827-4.245,5.25-5.8,6.507C88.169,71.926,78.287,75.91,70.4,84.167c-6.913,7.242-10.307,11.67-12.705,21.668-2.253,9.437-.59,15.383-1.122,24.521-.735,12.831-5.888,25.062-8.605,37.554Q46.5,174.8,45.674,181.795H2.85c2.727-9.476,5.685-18.893,7.929-28.5,3.752-16.07,5.125-25.913,2.678-42.427-1.6-10.684-5.357-22.8-6.159-33.329-.512-6.7,2.437-8.4,3.084-13.372.532-4.09-.551-9.282.019-13.314.193-1.383,1.9-4.68,2.64-6.082C18.852,33.637,26.21,22.721,32.205,11.621c2.968-3.984,10.249-5.55,14.968-6.575,1.866-.4,3.732-.774,5.6-1.093a77.388,77.388,0,0,1,8.76-1.083q.551-.044,1.1-.058a45.546,45.546,0,0,1,10.046.619c2.968.532,9.524,1.914,11.844,3.539,3.752,2.64-.754,5.347-3.887,6.033l-.319.058a2.5,2.5,0,0,1-.358.058c-.155.019-.309.029-.464.039-.387.039-.783.068-1.18.1a4.9,4.9,0,0,1-.657.039c-1.847.116-3.713.145-5.569.106-1.383-.01-2.775-.01-4.177.019q-1.291.029-2.582.145c-.387.029-.783.068-1.17.116-.319.029-.638.077-.957.126-.155.019-.309.048-.474.068a25.4,25.4,0,0,0-2.6.541c-3.955,1.035-12.966,4.757-15.77,7.571C43,23.359,40.279,28,39.2,29.9c-2.485,4.38-5.3,12.55-8.045,16.07-1.9,2.437-9.331,7.271-12.289,9.775-.822.706-1.6.106-1.3,1.779a1.645,1.645,0,0,0,.783,1.276.115.115,0,0,0,.077-.01h.029c1.17-.29,8.605-5.985,9.862-6.942,7.871-5.995,16.021-13.5,24.163-18.922,6.527-4.361,15.374-5.482,23.476-6.353,1.9-.2,3.761-.4,5.54-.619,4.409-.541,8.963-1.209,13.527-1.663.309-.039.619-.068.928-.1a81.664,81.664,0,0,1,12.067-.367c.377.019.745.048,1.122.077,2.379.184,6.12.058,5.3,3.771-.861,3.9-10.085,7.107-13.633,7.929-1.363.319-2.736.609-4.119.89-6.169,1.257-12.454,2.224-18.642,3.491C74.565,40.7,71.1,41.5,67.71,42.513,57.006,45.7,54,50.413,46.051,57.268c-4.776,4.109-9.814,7.948-14.368,12.309-1.189,1.141-2.785,1.18-1.8,3.578l.087-.01,1.982-.232C39.273,66.366,46.8,60.072,54.26,53.681c5.7-4.9,6.353-6.188,14.078-8.489q10.472-3.017,21.156-5.144,3.553-.711,7.116-1.325c1.557-.271,3.123-.522,4.68-.764,1.615-.242,3.229-.483,4.854-.7l.242-.029q1.16-.131,2.321-.2c.213-.029.416-.039.628-.048,1.093-.068,2.185-.1,3.278-.106,2.417.29,4.825,1.615,3.549,4.341" transform="translate(-0.094 -0.091)" fill="#cc987a"/>
    <path id="Path_8754" data-name="Path 8754" d="M23.367,85.926a13.061,13.061,0,0,1,3.941-6.706,13.055,13.055,0,0,0-3.941,6.706" transform="translate(-0.774 -2.622)" fill="#cc987a"/>
    <path id="Path_8755" data-name="Path 8755" d="M23.588,79.271c-.887,1.14-2.556,3.592-2.685,5.191.13-1.6,1.8-4.051,2.685-5.19.234-.3.483-.612.752-.914-.269.3-.518.614-.753.913Z" transform="translate(-0.692 -2.594)" fill="#cc987a"/>
    <path id="Path_8756" data-name="Path 8756" d="M27.466,79.188l.253-.257Z" transform="translate(-0.909 -2.613)" fill="#cc987a"/>
    <path id="Path_8757" data-name="Path 8757" d="M27.784,78.87l.157-.157Z" transform="translate(-0.92 -2.606)" fill="#cc987a"/>
    <path id="Path_8758" data-name="Path 8758" d="M28.125,78.534l.077-.075Z" transform="translate(-0.931 -2.597)" fill="#cc987a"/>
    <path id="Path_8759" data-name="Path 8759" d="M117.575,44.849l-3.326,2.572-11.032,5.125c6.12,6.546-2.727,13-7.726,16.64-5.3,3.868-12.231,7.107-17.153,11.052-3.945,3.152-13.672,13.421-15.528,17.81-5.618,13.314-2.466,24.936-4.235,38.337-1.16,8.8-4.351,17.24-6.517,25.787A159.626,159.626,0,0,0,48.306,181.7h-2.64c.551-4.66,1.305-9.3,2.282-13.885,2.727-12.492,7.88-24.733,8.615-37.554.522-9.137-1.141-15.084,1.112-24.521,2.4-10,5.792-14.436,12.705-21.668,7.89-8.257,17.772-12.241,26.435-19.212,1.557-1.257,5.415-4.689,5.8-6.507a5.679,5.679,0,0,0-.464-3.22,12.656,12.656,0,0,0-1.789-.126c-.2,0-.4,0-.59.01-2.92.135-5.56,1.257-8.364,2.388C85.5,59.8,78.87,62.572,73.107,65.26c-8.141,3.8-14.281,9.128-20.933,14.968-2.881,2.533-6.527,6.875-9.495,8.973a3.164,3.164,0,0,1-1.5.667.471.471,0,0,1-.116.01c-.609-.019-1.073-.522-1.441-1.653l22.3-19.783C76.3,58.675,95.51,55.088,110.236,46.492c2.147-1.257,4.834-3.084,5.908-5.376,1.276-2.727-1.122-4.042-3.539-4.341-1.122.01-2.243.039-3.365.116-.213.01-.416.019-.628.048q-1.16.073-2.321.2l-.242.029c-1.624.213-3.239.454-4.854.7-1.557.242-3.123.493-4.68.764q-3.568.609-7.116,1.325Q78.768,42.088,68.321,45.09c-7.726,2.3-8.364,3.587-14.078,8.489-7.455,6.391-14.987,12.686-22.306,19.232l-.077.01-1.982.232c-1-2.388.6-2.427,1.8-3.578,4.544-4.351,9.582-8.2,14.358-12.309C53.982,50.312,56.989,45.6,67.7,42.412c3.365-1.006,6.8-1.808,10.249-2.524,6.188-1.267,12.473-2.234,18.642-3.491,1.412-.271,2.8-.57,4.2-.89,3.558-.822,12.773-4.042,13.633-7.929.832-3.723-2.91-3.6-5.289-3.771-.4-.029-.8-.058-1.209-.077a81.664,81.664,0,0,0-12.067.367c-.309.029-.619.058-.928.1-4.564.454-9.118,1.122-13.527,1.663-1.779.222-3.636.416-5.54.619-8.083.88-16.882,2-23.4,6.343C44.332,38.245,36.181,45.748,28.3,51.743c-1.276.986-9.07,6.952-9.94,6.952h-.029a1.63,1.63,0,0,1-.783-1.276c-.29-1.673.474-1.064,1.305-1.779,2.959-2.5,10.394-7.348,12.289-9.775,2.746-3.52,5.56-11.69,8.045-16.07,1.073-1.9,3.79-6.536,5.163-7.909,2.8-2.814,11.815-6.536,15.77-7.571.841-.222,1.682-.4,2.514-.532.164-.019.319-.048.474-.068.319-.048.638-.087.957-.126.387-.048.783-.087,1.17-.116.861-.077,1.721-.116,2.582-.145,3.268-.1,6.517.058,9.746-.126a4.9,4.9,0,0,0,.657-.039c.4-.019.793-.048,1.18-.1.155-.01.309-.019.464-.039a2.5,2.5,0,0,0,.358-.058,1.846,1.846,0,0,0,.319-.058c3.133-.648,7.755-3.384,3.974-6.043C82.2,5.244,75.631,3.862,72.672,3.33a46.324,46.324,0,0,0-10.133-.609q-.551.015-1.1.058a77.388,77.388,0,0,0-8.76,1.083q-2.756.493-5.511,1.093C42.447,5.97,35.156,7.546,32.2,11.529,26.2,22.629,18.845,33.546,13.024,44.675c-.725,1.4-2.446,4.7-2.64,6.082-.57,4.032.522,9.224-.019,13.314-.648,4.96-3.587,6.672-3.084,13.372.8,10.53,4.573,22.645,6.159,33.329,2.456,16.515,1.073,26.358-2.669,42.427-2.243,9.611-5.2,19.038-7.929,28.5H0c2.978-9.582,5.917-19.241,8.209-29.017a165.6,165.6,0,0,0,3.723-21.4c1.779-17.791-5.84-35.872-7.213-53.334A23.233,23.233,0,0,1,5.879,68.3C6.411,66.758,7.59,65.26,7.8,63.558c.609-4.718-.967-8.77.126-13.73a15.537,15.537,0,0,1,.919-2.417l1.972-3.916c6.159-10.162,11.264-21.078,17.6-31.134,4.225-6.7,8.219-7.7,15.683-9.437C56.4.023,66.842-1.388,79.257,1.88,83.608,3.03,91.372,6.385,87.553,12c-3.394,5.018-11.68,3.326-16.93,3.587A44.9,44.9,0,0,0,49.2,21.846c-4.757,2.9-9.079,11.6-11.516,16.708a14.643,14.643,0,0,0-1.131,3.22l18.091-13.44c12.879-4.486,26.648-5.444,40.1-6.575,4.612-.4,9.737-1.392,14.4-1.035a18.375,18.375,0,0,1,5.038,1.122c3.645,2.147,3.568,5.714,1.46,9-1.015,1.576-2.059,1.924-3.181,3.229,2.93.29,5.54.967,6.43,4.08.793,2.727-.648,4.245-1.305,6.691" transform="translate(0 0)" fill="#20204e"/>
    <path id="Path_8760" data-name="Path 8760" d="M28.3,78.161c-2.205,2.118-4.391,4.56-4.923,7.678-4.776.744-1.16-4.738.3-6.627,1.064-1.364,2.468-3.005,4.334-2.585Z" transform="translate(-0.695 -2.534)" fill="#20204e"/>
  </g>
</svg>
