<svg id="hand-2" xmlns="http://www.w3.org/2000/svg" xmlns:xlink="http://www.w3.org/1999/xlink" width="71.03" height="181.55" viewBox="0 0 71.03 181.55">
  <defs>
    <clipPath id="clip-path">
      <rect id="Rectangle_1935" data-name="Rectangle 1935" width="71.03" height="181.55" fill="none"/>
    </clipPath>
  </defs>
  <g id="Group_7497" data-name="Group 7497" clip-path="url(#clip-path)">
    <path id="Path_8748" data-name="Path 8748" d="M67.86,70.97a.01.01,0,0,0-.01.01c-.17.45-.38.9-.59,1.35-.3.61-.62,1.22-.95,1.86h.01c-6.4,12.24-19.22,25.93-26.44,39.91l-.01.01q-.69,1.365-1.32,2.73a.01.01,0,0,0-.01.01,40.011,40.011,0,0,0-3.83,13.74c-.93,13.26.5,26.97,1.44,40.06.23,3.27.08,7,.46,10.24.03.22.06.44.1.66H2.6v-.42c0-.53-.01-1.01,0-1.35a1.852,1.852,0,0,1,.01-.25q.75-8.775,1.2-17.57.225-4.185.36-8.39c.03-.81.06-1.62.08-2.43q.585-19.095-.27-38.21c-.06-1.22-.15-2.46-.25-3.71-.06-.81-.12-1.62-.17-2.43a49.579,49.579,0,0,1-.13-5.17c.02-.43.04-.86.08-1.3a58.152,58.152,0,0,1,3.2-13.86c.21-.64.44-1.28.66-1.92.31-.88.62-1.75.93-2.62a.01.01,0,0,1,.01-.01c.36-1,.72-1.99,1.07-2.97s.69-1.95,1.02-2.91l.01-.01a6.5,6.5,0,0,0,.18-.73c.01-.05.02-.11.03-.17a15.672,15.672,0,0,1,.44-2.15,2.674,2.674,0,0,1,.14-.34c.01-.01.01-.03.03-.04a1.224,1.224,0,0,1,.18-.26,2.829,2.829,0,0,1,.34-.38c.06-.06.12-.13.19-.19.74-.71,1.79-1.54,2.29-2.14.39-.47.9-1.26,1.44-2.09.35-.55.72-1.12,1.07-1.63l.01-.01c.18-.25.35-.49.52-.71a5.3,5.3,0,0,1,.7-.79,1.4,1.4,0,0,1,.2-.17,6.1,6.1,0,0,1,5.11-.46,6.547,6.547,0,0,1,1.91.94c.49,1.08,1.01,2.16,1.52,3.24.34.72.68,1.44,1,2.17.16.36.32.73.47,1.1.31.73.6,1.47.86,2.22.08.24.18.52.29.83.08.21.16.43.23.65.04.11.08.23.12.35.08.24.16.48.23.73.04.13.08.25.11.38.08.25.14.49.2.74.3,1.29.39,2.53-.14,3.22-.57.65-1.16,1.29-1.78,1.91-.18.2-.38.41-.59.61-.41.41-.82.81-1.24,1.2a.01.01,0,0,1-.01.01c-.42.39-.85.77-1.28,1.15-1.97,1.84-4.03,3.56-6.03,5.31-.5.44-1,.89-1.5,1.33-.99.89-1.95,1.8-2.87,2.74q-.69.705-1.35,1.44c-.25.28-.3.73-.58,1.06-2.57,2.97-5.25,5.77-6.94,9.38l.42,1.54a2.872,2.872,0,0,0,1.34.01.5.5,0,0,0,.24-.09,1.6,1.6,0,0,0,.56-.4,26.007,26.007,0,0,0,1.35-2.28c5.29-7.39,11.97-13.49,18.6-19.59h.01c.12-.11.27-.23.43-.37h.01c.34-.27.74-.57,1.16-.9h.01c.42-.31.85-.64,1.24-.97.21-.18.41-.36.59-.53a4.827,4.827,0,0,0,.45-.47c0-.01,0-.01.01-.01a2.507,2.507,0,0,0,.3-.45,1.173,1.173,0,0,0,.05-.11,21.61,21.61,0,0,0,.21-5.29c-.01-.17-.03-.31-.04-.42-.01-.08-.02-.17-.04-.26a5.04,5.04,0,0,0-.13-.57V75.3c-.05-.21-.11-.44-.19-.68-.15-.49-.33-1.04-.53-1.62-.1-.28-.21-.58-.33-.88-.01,0,0-.01,0-.01a67.822,67.822,0,0,0-3.15-7.09c-.31-.58-.58-1.06-.81-1.41a5.611,5.611,0,0,0-.89-1.04,5.37,5.37,0,0,0-.7-.56,7.687,7.687,0,0,0-1.72-.86,6.772,6.772,0,0,0-.77-.22,10.66,10.66,0,0,0-5.65.26l-.01.01c-1.62.54-2.76,2.03-3.85,3.69-.66,1.02-1.31,2.1-2.03,3.06a.01.01,0,0,0-.01.01c-.17.24-.36.47-.54.69a.01.01,0,0,0-.01.01q-.285.33-.6.63a5.714,5.714,0,0,1-2.08,1.37c-.13.05-.26.09-.4.13a1.993,1.993,0,0,1-1.66-2.12c.03-.27.06-.54.09-.8.09-.71.21-1.42.35-2.12.05-.24.1-.47.16-.71A40.581,40.581,0,0,1,8.53,61c.23-.66.48-1.32.73-1.97.27-.65.55-1.29.84-1.93,1.2-2.06,4.44-3.36,7.08-4.21.41-.13.8-.25,1.17-.37.18-.05.36-.11.53-.16,3.28-.98,9.39-2.46,12.61-1.41A4.664,4.664,0,0,1,33,52.08a56.962,56.962,0,0,1,5.85,7.82c2.87,4.46,5.43,9.21,7.91,13.92.35.67.7,1.35,1.06,2.02l2.27.05h.01c.69-1.99-1.64-3.83-1.87-5.35-.02-.12-.04-.25-.05-.37a18.944,18.944,0,0,1,0-2.82c.05-.94.1-1.9.07-2.79,0-.18-.02-.36-.03-.53a26.388,26.388,0,0,0-.54-3.3c-.08-.35-.16-.71-.25-1.08s-.18-.73-.28-1.11a58.635,58.635,0,0,0-2.84-8.25c-.14-.31-.28-.62-.43-.91-.07-.15-.15-.3-.21-.44-.21-.42-.42-.8-.63-1.15-1.54-2.53-2.67-3.31-5.73-3.59-.67-.06-1.36-.09-2.05-.09a19.37,19.37,0,0,0-3.72.35,11.658,11.658,0,0,0-1.44.36c-.24.07-.47.14-.7.23a12.346,12.346,0,0,0-1.3.55,9.876,9.876,0,0,0-2.96,2.18c-.17.18-.33.36-.49.56l-9.48,2.4c.08-.31.17-.61.27-.92a22.056,22.056,0,0,1,1.02-2.66,73.217,73.217,0,0,1,4.24-7.91c.09-.15.19-.28.27-.41.06-.08.12-.16.17-.23a5.458,5.458,0,0,1,.42-.53l.13-.13a5.988,5.988,0,0,1,1.17-.84c.18-.1.37-.2.56-.3.12-.06.24-.12.37-.18.26-.12.52-.24.8-.35a49.116,49.116,0,0,1,7.34-2.21c.4-.09.78-.18,1.14-.25a.749.749,0,0,0,.16-.04c.48-.1.92-.18,1.29-.25.47-.09.98-.18,1.51-.26s1.09-.18,1.66-.26c.37-.06.75-.11,1.14-.16a33.663,33.663,0,0,1,5.54-.32c.28.02.55.04.81.07a6.1,6.1,0,0,1,2.3.71,5.594,5.594,0,0,1,.9.63h.01a16.181,16.181,0,0,1,3.31,4.72q2.295,4.38,4.27,8.92v.01c.54,1.2,1.05,2.42,1.54,3.63v.01c.26.61.5,1.22.74,1.83,1.73,4.16,3.21,8.45,4.85,12.65q.345.9.72,1.8a1.261,1.261,0,0,0,.2.2,1.187,1.187,0,0,0,.23.16,1.506,1.506,0,0,0,.22.11.044.044,0,0,0,.05.01,1.239,1.239,0,0,0,.347.06,1.618,1.618,0,0,0,.241,0,1.352,1.352,0,0,0,.382-.081,1.124,1.124,0,0,0,.276-.149,1.259,1.259,0,0,0,.164-.121,1.4,1.4,0,0,0,.43-.64,1.1,1.1,0,0,0,.06-.26,4.125,4.125,0,0,0-.39-1.6.01.01,0,0,1-.01-.01c-.14-.35-.3-.72-.48-1.09q-.18-.39-.36-.75c-.11-.24-.23-.47-.35-.7-.06-.12-.11-.24-.16-.34-.1-.21-.19-.41-.27-.59-.04-.09-.08-.18-.11-.26-1.6-4.13-3.53-9.67-5.73-15.02-.82-2-1.68-3.97-2.58-5.83-.01-.01,0-.01,0-.01-.3-.62-.6-1.23-.91-1.82-.16-.29-.31-.59-.46-.88-.31-.57-.62-1.13-.94-1.67a30.923,30.923,0,0,0-2.44-3.63,7.521,7.521,0,0,0-.76-.82c-3.19-2.95-7.76-1.56-11.77-2.02a34.387,34.387,0,0,1-4.4-.94c-.19-.04-.38-.09-.57-.14-.56-.15-1.12-.29-1.68-.4-.37-.07-.75-.15-1.14-.21-.37-.06-.73-.11-1.09-.14a25.232,25.232,0,0,0-8.53.82c-.47.11-.93.24-1.4.36-.43.12-.87.24-1.31.37-.48.14-.96.28-1.45.42-.45.13-.9.26-1.37.39-1.04.28-2.13.56-3.27.79-.46.1-.96.2-1.48.28-2.34.38-5.06.49-6.51-1.4a1.739,1.739,0,0,1-.06-.81c.23-1.36,2.02-2.34,3.11-3.01a.01.01,0,0,0,.01-.01c1.14-.7,2.31-1.35,3.5-1.96a58.6,58.6,0,0,1,16.43-5.6c3.16.59,6.38.98,9.6,1.34,2.14.24,4.29.47,6.42.76,1.61.21,3.21.45,4.8.73s3.15.62,4.7,1.03c.58.15,1.13.29,1.65.44h.01c.34.09.66.19.98.3a5.883,5.883,0,0,1,2.38,1.39,3.65,3.65,0,0,1,.31.36,4.045,4.045,0,0,1,.28.4,5.843,5.843,0,0,1,.48.97c.07.18.14.38.2.58.33,1.13.63,2.27.91,3.43s.54,2.34.8,3.52c.51,2.35,1,4.72,1.55,7.01.73,3.06,1.44,6.15,2.17,9.24,0,0-.01,0,0,.01.73,3.08,1.47,6.17,2.27,9.24.54,2.05,1.1,4.08,1.7,6.11a10.964,10.964,0,0,1-.84,5.54" fill="#a16a4a"/>
    <path id="Path_8749" data-name="Path 8749" d="M50.549,84.956c.166-1.39-.4-3.084.463-4.19,1.085-1.39,2.217-.794,2.363.933.225,2.753-.629,5.54-1.443,8.141l-2.3.026c-.318-1.708.728-3.336.92-4.911" fill="#a16a4a"/>
    <path id="Path_8750" data-name="Path 8750" d="M67.318,48.416l-1.761-5.924c-1.5-5.586-2.092-12.06-3.932-17.494-.9-2.648-2.489-3.382-5-4.3-6.235-2.277-12.986-2.29-19.321-3.5-5.639-1.072-13.953-6.328-17.613-10.59-.192-.218-.979,0-1.191-1.344-.41-2.615,1.708-2.687,3.779-2.383,4.64.695,10.478,3.19,15.1,4.455,7.036,1.926,14.8,3.323,21.558,5.924,2.019.774,4.243,1.251,5.01,3.369,1.688,4.653,1.5,11.252,1.992,16.177.364,3.674,1.158,7.473,1.4,11.173.093,1.456-.106,2.978-.02,4.441" fill="#a16a4a"/>
    <path id="Path_8751" data-name="Path 8751" d="M51.922,89.837l-2.3.026c-.318-1.708.728-3.336.92-4.911.165-1.39-.4-3.084.463-4.19,1.086-1.39,2.217-.794,2.363.933.225,2.753-.629,5.54-1.443,8.141Z" fill="#20204e"/>
    <path id="Path_8752" data-name="Path 8752" d="M69.63,40.28c-1.14-7.03-1.07-14.3-2.42-21.33-.27-1.46-.88-4.16-1.74-5.24-1.12-1.4-4.63-2.76-6.4-3.38-6.75-2.38-14.68-3.9-21.67-5.8C32.26,3.13,27.23.96,21.93.44,21.45.39,20.99.01,20.52,0a5.163,5.163,0,0,0-4.9,4.43c-.2,2.06,2.04,4.48,3.49,5.81,2.46,2.26,5.77,3.72,8.16,6.04a26.927,26.927,0,0,0-9.45,1.97C14.38,19.5,4.25,24.23,2.37,27.01.04,30.44,2.9,33.67,6.52,34c7.46.69,13.09-3.28,19.61-3.75.75-.06,1.26.41,1.85.46,1.33.1,3.35-.55,3.95.94-3.84.45-9.95,1.94-12.59,4.89-1.39,1.55-3.1,5.13-4.08,7.09-1.65,3.3-2.48,6.93-4.99,9.43-2.36,2.34-3.08,4.26-4.4,7.26l-.71,3c.25.36-.62,2.8-.69,3.52-.32,3.11-.18,6.6,3.71,6.26l.01.71c-1.34,5.26-3.6,10.23-5.02,15.48-2.78,10.23-1.88,17.53-1.5,27.8.45,11.87.26,23.7-.17,35.54q-.105,3.03-.24,6.06-.315,7.62-.7,15.23C.47,175.94.37,177.97.28,180a8.449,8.449,0,0,1-.19,1.12c-.03.14-.05.28-.09.43H2.59c.01-.11.01-.22.01-.33v-.09c0-.53-.01-1.01,0-1.35a1.852,1.852,0,0,1,.01-.25q.75-8.775,1.2-17.57.225-4.185.36-8.39c.03-.81.06-1.62.08-2.43q.585-19.095-.28-38.2c-.06-1.23-.15-2.47-.24-3.72-.06-.81-.12-1.62-.17-2.43a49.579,49.579,0,0,1-.13-5.17c.01-.43.04-.86.07-1.29A58.858,58.858,0,0,1,6.71,86.46c.21-.64.44-1.28.66-1.92.31-.88.62-1.76.93-2.62a.01.01,0,0,1,.01-.01c.36-1,.72-1.99,1.07-2.97s.69-1.95,1.02-2.91a4.69,4.69,0,0,0,.19-.74c.01-.05.02-.11.03-.17a14.308,14.308,0,0,1,.44-2.15,2.674,2.674,0,0,1,.14-.34c.01-.01.01-.03.03-.04a1.224,1.224,0,0,1,.18-.26,2.829,2.829,0,0,1,.34-.38c.06-.06.12-.13.19-.19.74-.71,1.79-1.54,2.29-2.14.39-.47.9-1.26,1.44-2.09.35-.55.72-1.12,1.07-1.63l.01-.01c.18-.26.35-.5.52-.71a5.3,5.3,0,0,1,.7-.79,1.268,1.268,0,0,1,.2-.16,6.1,6.1,0,0,1,5.11-.47,6.9,6.9,0,0,1,1.9.95c.49,1.08,1.02,2.15,1.53,3.23.34.72.68,1.44,1,2.17.16.36.32.73.47,1.1.31.73.59,1.47.85,2.22.08.24.18.52.3.83.08.21.16.43.23.65.04.11.08.23.12.35.08.24.16.48.23.73.04.13.08.25.11.38.08.25.14.49.2.74.3,1.29.39,2.53-.14,3.22-.57.65-1.16,1.29-1.78,1.91-.18.2-.38.41-.59.61-.4.41-.81.81-1.24,1.2a.01.01,0,0,1-.01.01c-.42.39-.85.78-1.28,1.16-1.96,1.83-4.02,3.55-6.03,5.3-.5.44-1,.89-1.5,1.33-.99.89-1.95,1.8-2.87,2.74q-.69.705-1.35,1.44c-.25.28-.3.73-.58,1.06-2.57,2.97-5.25,5.77-6.94,9.38l.41,1.55a2.763,2.763,0,0,0,1.35,0,.5.5,0,0,0,.24-.09,1.512,1.512,0,0,0,.56-.4,26.007,26.007,0,0,0,1.35-2.28c5.29-7.39,11.97-13.49,18.6-19.59h.01c.12-.12.27-.24.43-.37h.01c.33-.27.74-.58,1.16-.9h.01c.42-.31.85-.65,1.24-.97.21-.18.41-.36.59-.53a6.415,6.415,0,0,0,.45-.47c0-.01,0-.01.01-.01a3.19,3.19,0,0,0,.3-.45,1.173,1.173,0,0,0,.05-.11,22.784,22.784,0,0,0,.21-5.29c-.01-.17-.03-.31-.04-.42-.01-.08-.02-.17-.04-.26-.03-.17-.08-.37-.13-.57V75.3c-.05-.21-.12-.44-.19-.68-.15-.49-.33-1.04-.53-1.62-.11-.28-.22-.58-.33-.88-.01,0,0-.01,0-.01a72.532,72.532,0,0,0-3.15-7.09c-.31-.58-.58-1.06-.81-1.41a5.611,5.611,0,0,0-.89-1.04,5.37,5.37,0,0,0-.7-.56,7.687,7.687,0,0,0-1.72-.86c-.25-.08-.51-.16-.77-.22a10.324,10.324,0,0,0-4.03-.13,9.471,9.471,0,0,0-1.63.4c-1.62.54-2.76,2.03-3.85,3.69-.67,1.01-1.31,2.09-2.03,3.06a.01.01,0,0,0-.01.01c-.17.24-.36.47-.54.69a.01.01,0,0,0-.01.01q-.285.33-.6.63a5.714,5.714,0,0,1-2.08,1.37,2.828,2.828,0,0,1-.41.14,1.993,1.993,0,0,1-1.66-2.12c.03-.27.06-.54.1-.81.09-.71.21-1.42.35-2.12.05-.23.1-.47.15-.7.33-1.37.73-2.72,1.19-4.05.22-.66.47-1.32.73-1.97s.55-1.29.84-1.93c1.2-2.06,4.44-3.36,7.08-4.21.41-.13.8-.25,1.17-.37.18-.05.36-.11.53-.16,3.28-.98,9.39-2.46,12.61-1.41A4.664,4.664,0,0,1,33,52.08a58.035,58.035,0,0,1,5.84,7.82c2.87,4.46,5.42,9.21,7.92,13.92.35.67.7,1.35,1.06,2.02l2.27.05c.69-1.98-1.64-3.82-1.87-5.34-.02-.12-.03-.25-.04-.38a18.941,18.941,0,0,1,0-2.82c.05-.94.1-1.9.07-2.79-.01-.18-.03-.35-.04-.53a28.15,28.15,0,0,0-.53-3.3c-.08-.35-.16-.71-.25-1.08s-.18-.73-.28-1.11a58.635,58.635,0,0,0-2.84-8.25c-.15-.32-.29-.62-.43-.91-.07-.15-.15-.3-.21-.44-.22-.42-.43-.8-.64-1.14-1.54-2.53-2.67-3.31-5.73-3.59-.67-.06-1.35-.1-2.04-.1a19.37,19.37,0,0,0-3.72.35,14.429,14.429,0,0,0-1.44.36c-.24.07-.47.14-.7.23a12.346,12.346,0,0,0-1.3.55,9.876,9.876,0,0,0-2.96,2.18c-.17.18-.33.36-.49.56l-.01.01-9.48,2.4c.09-.31.18-.62.28-.93a22.056,22.056,0,0,1,1.02-2.66,73.217,73.217,0,0,1,4.24-7.91c.09-.15.18-.28.27-.41.06-.08.12-.16.17-.23.15-.21.3-.39.42-.53l.13-.13a5.988,5.988,0,0,1,1.17-.84c.18-.1.37-.2.56-.3.12-.06.24-.12.37-.18.26-.12.52-.24.8-.35a49.116,49.116,0,0,1,7.34-2.21c.4-.09.79-.17,1.14-.25a.749.749,0,0,0,.16-.04l1.28-.24c.48-.09.99-.18,1.52-.27s1.09-.18,1.66-.26c.37-.06.75-.11,1.14-.16a33.663,33.663,0,0,1,5.54-.32c.28.02.55.04.81.07a6.1,6.1,0,0,1,2.3.71,5.594,5.594,0,0,1,.9.63h.01a16.483,16.483,0,0,1,3.3,4.73q2.28,4.38,4.28,8.91v.01c.54,1.2,1.05,2.42,1.54,3.63v.01c.25.61.49,1.23.73,1.84,1.73,4.16,3.21,8.44,4.86,12.64q.345.9.72,1.8a1.261,1.261,0,0,0,.2.2,1.187,1.187,0,0,0,.23.16,1.506,1.506,0,0,0,.22.11.044.044,0,0,0,.05.01,1.222,1.222,0,0,0,.26.06c.03,0,.057,0,.087,0a1.213,1.213,0,0,0,.241,0,1.529,1.529,0,0,0,.382-.081,2.089,2.089,0,0,0,.276-.149,1.061,1.061,0,0,0,.094-.051.234.234,0,0,0,.07-.07,1.4,1.4,0,0,0,.43-.64,2.212,2.212,0,0,0,.05-.25,4.162,4.162,0,0,0-.38-1.61.01.01,0,0,1-.01-.01c-.14-.35-.31-.72-.48-1.09q-.18-.39-.36-.75l-.35-.7c-.06-.12-.11-.24-.16-.34-.1-.22-.2-.41-.27-.59-.04-.09-.08-.18-.11-.26-1.6-4.13-3.53-9.67-5.73-15.02-.83-2-1.69-3.97-2.58-5.83-.01-.01,0-.01,0-.01-.31-.62-.61-1.23-.91-1.82-.16-.29-.31-.59-.46-.88-.31-.57-.63-1.13-.94-1.67a30.923,30.923,0,0,0-2.44-3.63,7.521,7.521,0,0,0-.76-.82c-3.19-2.94-7.77-1.55-11.77-2.01a32.837,32.837,0,0,1-4.4-.95c-.19-.04-.38-.09-.57-.14-.56-.14-1.12-.28-1.68-.4-.37-.07-.75-.15-1.14-.21-.37-.05-.74-.1-1.1-.13a25.465,25.465,0,0,0-8.52.81c-.47.11-.93.24-1.4.36-.43.12-.87.25-1.31.37-.48.14-.96.28-1.45.42-.45.13-.9.26-1.37.39-1.04.28-2.13.56-3.27.79-.46.1-.96.2-1.48.28-2.34.39-5.06.5-6.52-1.39a1.655,1.655,0,0,1-.05-.82c.23-1.36,2.02-2.34,3.11-3.01a.01.01,0,0,0,.01-.01c1.14-.69,2.31-1.35,3.5-1.96a58.6,58.6,0,0,1,16.43-5.6c3.16.59,6.38.98,9.6,1.34,2.15.25,4.29.48,6.42.76,1.61.21,3.21.45,4.8.73s3.14.63,4.69,1.04c.59.15,1.14.29,1.66.43h.01c.34.09.66.19.98.3a5.883,5.883,0,0,1,2.38,1.39,3.65,3.65,0,0,1,.31.36,4.045,4.045,0,0,1,.28.4,5.843,5.843,0,0,1,.48.97c.07.18.13.38.19.58.33,1.12.64,2.27.92,3.43s.54,2.34.8,3.52c.5,2.36.98,4.72,1.54,7.02.74,3.06,1.45,6.14,2.18,9.23,0,0-.01,0,0,.01.72,3.08,1.46,6.17,2.27,9.24q.795,3.075,1.69,6.12a11.033,11.033,0,0,1-.83,5.53.01.01,0,0,0-.01.01c-.18.45-.38.9-.59,1.35-.3.61-.62,1.22-.95,1.86a.01.01,0,0,0-.01.01c-6.4,12.23-19.2,25.91-26.42,39.9l-.01.01q-.69,1.365-1.32,2.73a.01.01,0,0,0-.01.01,40.107,40.107,0,0,0-3.85,13.75c-.93,13.25.5,26.96,1.44,40.05.24,3.27.08,7,.46,10.24.03.22.06.44.1.66h2.59c-.67-16.52-3.32-33.47-1.79-50.01.5-5.36,1.16-8.61,2.91-12.56.07-.16.14-.33.22-.5.53-1.17,1.16-2.41,1.92-3.78.21-.39.43-.78.64-1.17.65-1.16,1.33-2.31,2.03-3.45.23-.38.46-.76.7-1.13.47-.76.95-1.5,1.44-2.25s.97-1.49,1.47-2.23,1-1.47,1.51-2.2c1.01-1.46,2.05-2.92,3.08-4.36,4.42-6.15,8.97-12.21,12.89-18.59.72-1.18,4.73-8.14,4.73-8.77V60.52ZM39.84,47.71c1.08.95,2.14,3.81,2.7,5.23a46.506,46.506,0,0,1,2.02,6.73c.01.12.04.38.08.7.01.08.02.16.03.26a9.379,9.379,0,0,1,.1,1.91l-.47,1.81-2.15-4.03c-2.53-4.17-5.24-8.35-8.84-11.66l-3.25-1.18c2.2-.37,8.16-1.18,9.78.23m25.72-5.22c-1.5-5.59-2.09-12.06-3.93-17.5-.9-2.64-2.49-3.38-5-4.3-6.24-2.27-12.99-2.29-19.32-3.5C31.67,16.12,23.35,10.87,19.69,6.6c-.19-.21-.98,0-1.19-1.34-.41-2.61,1.71-2.69,3.78-2.38,4.64.7,10.48,3.19,15.1,4.45,7.04,1.93,14.8,3.33,21.56,5.93,2.02.77,4.24,1.25,5.01,3.37,1.69,4.65,1.5,11.25,1.99,16.17.37,3.68,1.16,7.48,1.4,11.18.09,1.45-.1,2.96-.02,4.43Z" fill="#20204e"/>
  </g>
</svg>
