<svg xmlns="http://www.w3.org/2000/svg" width="216.592" height="54.527" viewBox="0 0 216.592 54.527">
  <g id="line-2" transform="translate(-521.543 -7421.038)">
    <path id="Path_8593" data-name="Path 8593" d="M528.979,595.484H388.245a1.862,1.862,0,0,1,0-3.724H528.979a1.862,1.862,0,0,1,0,3.724" transform="translate(199.392 6829.278)" fill="#363660"/>
    <path id="Path_8594" data-name="Path 8594" d="M514.872,638.594H302a1.862,1.862,0,1,1,0-3.724H514.872a1.862,1.862,0,1,1,0,3.724" transform="translate(221.401 6809.821)" fill="#363660"/>
    <path id="Path_8595" data-name="Path 8595" d="M517.966,688.076h-60.61a1.862,1.862,0,0,1,0-3.724h60.61a1.862,1.862,0,0,1,0,3.724" transform="translate(181.754 6787.489)" fill="#363660"/>
  </g>
</svg>
