<svg xmlns="http://www.w3.org/2000/svg" width="241.136" height="52.865" viewBox="0 0 241.136 52.865">
  <g id="line-1" transform="translate(-544.976 -7000.122)">
    <path id="Path_8596" data-name="Path 8596" d="M604.005,3.724H463.271a1.862,1.862,0,0,1,0-3.724H604.005a1.862,1.862,0,0,1,0,3.724" transform="translate(180.245 7000.122)" fill="#363660"/>
    <path id="Path_8597" data-name="Path 8597" d="M546.334,46.836H333.466a1.862,1.862,0,1,1,0-3.724H546.334a1.862,1.862,0,1,1,0,3.724" transform="translate(213.372 6979.89)" fill="#363660"/>
    <path id="Path_8598" data-name="Path 8598" d="M536.98,96.317H476.37a1.862,1.862,0,0,1,0-3.724h60.61a1.862,1.862,0,1,1,0,3.724" transform="translate(176.902 6956.669)" fill="#363660"/>
  </g>
</svg>
