<svg xmlns="http://www.w3.org/2000/svg" width="570.839" height="191.086" viewBox="0 0 570.839 191.086">
  <g id="logo-sta" transform="translate(-1135 -928)">
    <g id="Group_7266" data-name="Group 7266" transform="translate(0 -0.002)">
      <path id="Path_8420" data-name="Path 8420" d="M46.328,9.775,35,53.307H58.907L47.579,9.775Z" transform="translate(1330.503 982.601)" fill="#4adeab"/>
      <path id="Path_8421" data-name="Path 8421" d="M320.992.361c-16.53,6.52-35.3,7.64-41.754,7.837H30.295A30.313,30.313,0,0,0,0,38.559V160.791a30.3,30.3,0,0,0,30.295,30.295H151.342V63.321h-29.57v-21.4h82.059v21.4h-29.5V191.086H289.117a30.313,30.313,0,0,0,30.361-30.295V48.372A111.243,111.243,0,0,1,327.709,7.21,5.255,5.255,0,0,0,320.992.361M113.078,126.15a25.5,25.5,0,0,1-2.766,12.118,20.237,20.237,0,0,1-8.1,8.035,24.512,24.512,0,0,1-12.052,2.832H35.893V128.126h46.43a7.821,7.821,0,0,0,5.8-1.976,7.685,7.685,0,0,0,2.042-5.8v-4.61a7.851,7.851,0,0,0-1.91-5.269,10.368,10.368,0,0,0-5.334-3.161L56.44,101.651a31.264,31.264,0,0,1-10.8-4.544,20.574,20.574,0,0,1-7.179-8.035,23.949,23.949,0,0,1-2.568-11.328V64.9a25.52,25.52,0,0,1,2.832-12.118,19.831,19.831,0,0,1,8.1-8.035,24.512,24.512,0,0,1,12.052-2.832h51.172V62.926h-43.2A6.94,6.94,0,0,0,59.075,70.7v2.634a8.3,8.3,0,0,0,1.778,5.2,9.148,9.148,0,0,0,5.269,3.029L92.6,87.228A34.187,34.187,0,0,1,103.4,91.9a21.341,21.341,0,0,1,7.179,7.969,22.868,22.868,0,0,1,2.5,10.932Zm152,22.721-5.335-20.614h-34.51l-5.4,20.614H194.018l3.359-10.669v-.066l6.388-20.087L227.8,41.918h29.175l30.558,96.219v.066l3.359,10.669Z" transform="translate(1135 928.002)" fill="#4adeab"/>
    </g>
    <g id="Group_7267" data-name="Group 7267" transform="translate(0 -3.407)">
      <path id="Path_8422" data-name="Path 8422" d="M61.638,60.858V20.448H83a9.347,9.347,0,0,1,4.564,1.067,7.417,7.417,0,0,1,3.029,3.029A9.375,9.375,0,0,1,91.656,29.1V40.074a9.376,9.376,0,0,1-1.067,4.557,7.378,7.378,0,0,1-3.029,3.029A9.349,9.349,0,0,1,83,48.734H70.351V60.858ZM80.111,40.824a3,3,0,0,0,2.167-.751,2.846,2.846,0,0,0,.777-2.134V31.295a2.949,2.949,0,0,0-.777-2.193,3.026,3.026,0,0,0-2.167-.744h-9.76V40.824Z" transform="translate(1479.297 1042.219)" fill="#c3c3cf"/>
      <rect id="Rectangle_1830" data-name="Rectangle 1830" width="8.713" height="40.41" transform="translate(1576.999 1062.66)" fill="#c3c3cf"/>
      <path id="Path_8423" data-name="Path 8423" d="M90.5,56.965l-2.779-8.832L78.96,20.447h-11L59.268,47.785,56.416,56.9,55.165,60.93H64.9l2.088-7.791H79.993l2.022,7.791h9.734ZM68.942,45.42,73.25,29.009h.487L77.978,45.42Z" transform="translate(1443.141 1042.214)" fill="#c3c3cf"/>
      <path id="Path_8424" data-name="Path 8424" d="M103.36,40.072l-2.779-8.832L91.815,3.554H80.823L72.13,30.892l-2.852,9.115-1.251,4.031h9.734l2.088-7.791H92.855l2.022,7.791h9.734ZM81.8,28.527l4.314-16.412H86.6L90.84,28.527Z" transform="translate(1514.985 947.853)" fill="#c3c3cf"/>
      <path id="Path_8425" data-name="Path 8425" d="M105.194,39.73l-2.371-3.965-4.38-7.376a6.326,6.326,0,0,0,2.015-.692,7.2,7.2,0,0,0,2.647-2.575,8.164,8.164,0,0,0,1.113-4.175V12.254a8.981,8.981,0,0,0-1.113-4.59,7.305,7.305,0,0,0-2.99-2.99,9.742,9.742,0,0,0-4.6-1.12H74.168V44.037h8.693V29.574h7.027l6.955,14.462h10.919Zm-9.6-21.009a3.2,3.2,0,0,1-.764,2.226,3.105,3.105,0,0,1-2.16.7H82.861V11.49h9.806a3.139,3.139,0,0,1,2.16.764,3.072,3.072,0,0,1,.764,2.226Z" transform="translate(1549.287 947.853)" fill="#c3c3cf"/>
      <path id="Path_8426" data-name="Path 8426" d="M106.108,39.755v-.046l-.692-6.737L105.4,32.8,102.413,3.56h-9.76L83.7,26.432h-.4L74.4,3.56H64.644L61.581,33.051l-.007-.072-1.133,11h9.569l1.561-26.159h.349l7.91,20.383h7.33l7.916-20.383h.4l1.5,26.159h9.556Z" transform="translate(1472.616 947.883)" fill="#c3c3cf"/>
      <path id="Path_8427" data-name="Path 8427" d="M83.586,25.417a8.031,8.031,0,0,0-2.72-3A12.714,12.714,0,0,0,76.8,20.649l-10-2.134a3.394,3.394,0,0,1-1.963-1.153,3.079,3.079,0,0,1-.691-1.963v-.988a2.957,2.957,0,0,1,.757-2.193,2.978,2.978,0,0,1,2.193-.751h16.28V3.559H64.1a9.347,9.347,0,0,0-4.564,1.067A7.394,7.394,0,0,0,56.5,7.662a9.3,9.3,0,0,0-1.067,4.557v4.847a9.144,9.144,0,0,0,.948,4.274A7.913,7.913,0,0,0,59.1,24.377a11.887,11.887,0,0,0,4.077,1.706l9.991,2.134A3.932,3.932,0,0,1,75.156,29.4a2.977,2.977,0,0,1,.718,2v1.732a2.618,2.618,0,0,1-2.937,2.937h-17.5v7.916H75.874a9.42,9.42,0,0,0,4.564-1.067,7.433,7.433,0,0,0,3.029-3.036,9.3,9.3,0,0,0,1.067-4.557V29.547a8.716,8.716,0,0,0-.948-4.129" transform="translate(1444.666 947.88)" fill="#c3c3cf"/>
      <path id="Path_8428" data-name="Path 8428" d="M106.515,3.559H79.856V11.64H91V43.983h8.667V11.64h11.143V3.559Z" transform="translate(1581.058 947.882)" fill="#c3c3cf"/>
      <path id="Path_8429" data-name="Path 8429" d="M91.632,48.14l-2.371-3.965L84.881,36.8a6.325,6.325,0,0,0,2.015-.692,7.2,7.2,0,0,0,2.647-2.575,8.164,8.164,0,0,0,1.113-4.175V20.664a8.981,8.981,0,0,0-1.113-4.59,7.36,7.36,0,0,0-2.99-3,9.818,9.818,0,0,0-4.6-1.113H60.606V52.447H69.3V37.985h7.027l6.955,14.462H94.2Zm-9.6-21.009a3.2,3.2,0,0,1-.764,2.226,3.1,3.1,0,0,1-2.16.7H69.3V19.9h9.806a3.138,3.138,0,0,1,2.16.764,3.072,3.072,0,0,1,.764,2.226Z" transform="translate(1473.533 994.829)" fill="#c3c3cf"/>
      <path id="Path_8430" data-name="Path 8430" d="M82.7,52.389V11.965H91.41V44.472h17.5v7.916Z" transform="translate(1596.93 994.834)" fill="#c3c3cf"/>
      <path id="Path_8431" data-name="Path 8431" d="M81.825,11.965H55.165v8.081H66.309V52.389h8.667V20.046H86.119V11.965Z" transform="translate(1443.143 994.834)" fill="#c3c3cf"/>
      <path id="Path_8432" data-name="Path 8432" d="M101.78,48.483,99,39.652,90.235,11.965H79.243L70.55,39.3,67.7,48.417l-1.251,4.031h9.734l2.088-7.791H91.276L93.3,52.448h9.734ZM80.218,36.938l4.314-16.412h.487L89.26,36.938Z" transform="translate(1506.16 994.835)" fill="#c3c3cf"/>
      <path id="Path_8433" data-name="Path 8433" d="M98.25,11.96v.072L89.971,43.888h-.487v-.072L81.14,12.032V11.96H71.4L84.2,52.443H95.187L102.7,28.72l1.251-3.965,2.786-8.832,1.251-3.965Z" transform="translate(1533.823 994.805)" fill="#c3c3cf"/>
      <path id="Path_8434" data-name="Path 8434" d="M99.081,11.965H77.836V52.389h26.218V44.472h-17.5V35.878h11.9V28.133h-11.9V19.881h17.5V11.965Z" transform="translate(1569.774 994.834)" fill="#c3c3cf"/>
    </g>
  </g>
</svg>
