<svg id="logo" xmlns="http://www.w3.org/2000/svg" width="228.676" height="64.917" viewBox="0 0 228.676 64.917">
  <path id="Path_16" data-name="Path 16" d="M108.584.124A45.015,45.015,0,0,1,94.451,2.781H10.257A10.256,10.256,0,0,0,0,13.039V54.382A10.257,10.257,0,0,0,10.257,64.639h59.2V54.17L59.1,32.362l-.49-1-.4-.846-2.072-4.321h10.4l7.106,18.422h.023l.312.8s1.982-5.7,2.673-7.328c1.224-2.963,5.279-11.895,5.279-11.895L85,28.858l-1.348,2.47,1.43.78,1.263-2.081,2.76,2.4-2.539,4.722L84,42.587a56.125,56.125,0,0,0-5.435,22.052H97.8a10.257,10.257,0,0,0,10.257-10.257V16.358A37.856,37.856,0,0,1,110.84,2.434a1.762,1.762,0,0,0-2.256-2.31M29.448,39.37H17.731V54.117h-8.8V21.372h8.8v10H29.448ZM35.262,21.3H20.716V13.331H35.261Zm24,24.82L63.05,54.1H40.687V13.313h8.8V46.124Z" transform="translate(0 0.001)" fill="#ff6700"/>
  <path id="Path_17" data-name="Path 17" d="M39.382,15.455l-1.375-.719-1.44,3.041,1.261.606Z" transform="translate(44.886 18.088)" fill="#ff6700"/>
  <path id="Path_18" data-name="Path 18" d="M35.685,19.888l1.078.454,1.408-3-1.2-.554Z" transform="translate(43.804 20.609)" fill="#ff6700"/>
  <path id="Path_19" data-name="Path 19" d="M34.911,22.05l.887.319L37.05,19.29l-1.016-.405Z" transform="translate(42.853 23.18)" fill="#ff6700"/>
  <path id="Path_20" data-name="Path 20" d="M34.259,24.238l.684.2,1.071-3.145-.818-.277Z" transform="translate(42.053 25.806)" fill="#ff6700"/>
  <path id="Path_21" data-name="Path 21" d="M33.747,26.476l.472.1.864-3.214-.615-.164Z" transform="translate(41.426 28.47)" fill="#ff6700"/>
  <path id="Path_22" data-name="Path 22" d="M33.4,28.72l.252.033.61-3.268-.4-.078Z" transform="translate(41.005 31.187)" fill="#ff6700"/>
  <path id="Path_23" data-name="Path 23" d="M33.266,30.982h.024l.3-3.327-.176-.018Z" transform="translate(40.834 33.934)" fill="#ff6700"/>
  <path id="Path_24" data-name="Path 24" d="M93.412,5.021H71.587V50.09h29.229V41.269H81.308V31.675H94.573V23.048H81.308V13.842h19.509V5.014h-7.4Z" transform="translate(87.874 6.155)" fill="#fff"/>
  <path id="Path_25" data-name="Path 25" d="M120.471,9.3a8.083,8.083,0,0,0-3.363-3.386,10.464,10.464,0,0,0-5.1-1.2H96.815a10.375,10.375,0,0,0-5.079,1.2A8.134,8.134,0,0,0,88.351,9.3a10.312,10.312,0,0,0-1.181,5.079V41.425A10.309,10.309,0,0,0,88.351,46.5a8.264,8.264,0,0,0,3.386,3.386,10.368,10.368,0,0,0,5.079,1.181H108.71V42.249h-8.665a2.949,2.949,0,0,1-3.23-3.274V16.834a3.255,3.255,0,0,1,.869-2.45,3.262,3.262,0,0,1,2.361-.846H108.8a3.335,3.335,0,0,1,2.45.846,3.333,3.333,0,0,1,.824,2.45v21.3h9.6V14.383a10.315,10.315,0,0,0-1.2-5.079" transform="translate(107.002 5.807)" fill="#fff"/>
  <path id="Path_26" data-name="Path 26" d="M78.367,5.021H62.594a10.469,10.469,0,0,0-5.088,1.191,8.277,8.277,0,0,0-3.381,3.379,10.49,10.49,0,0,0-1.19,5.085V40.431a10.493,10.493,0,0,0,1.19,5.088A8.277,8.277,0,0,0,57.507,48.9a10.469,10.469,0,0,0,5.088,1.192H85.771V24.979H76.113v16.29h-10.3a2.965,2.965,0,0,1-3.219-3.283V17.125a3.256,3.256,0,0,1,.869-2.449,3.248,3.248,0,0,1,2.35-.835H85.771V5.014h-7.4Z" transform="translate(64.998 6.155)" fill="#fff"/>
  <path id="Path_27" data-name="Path 27" d="M53.07,5.655l.04.007a.771.771,0,0,1,.57.832,6.174,6.174,0,0,1-1.622,3.669c-.606.782-1.3,1.475-1.911,2.252l.729,1.911a.44.44,0,0,1,.508-.079,2.944,2.944,0,0,1,.586.55c.165.454-.332.764-.539,1.094l.073.243c.316-.221.526-.062.775.158.051.045.125.107.171.152a.836.836,0,0,1,.174.294c.08.354-.405.67-.526.958l.757,2.069a.663.663,0,0,1-.082.383,9.224,9.224,0,0,1-.731.88.425.425,0,0,1-.619-.1l-2.591-4.089L47.471,15.58l-1.882,2.06L44.2,19l.548,3.348c.02.368-.352.706-.59.929l-.285.023a.873.873,0,0,1-.254-.25c-.445-.695-.791-1.537-1.232-2.248-.067-.078-.187-.231-.292-.223-.078.007-.145.069-.218.085-.51.109-.826-.171-.8-.716,0-.092.062-.174.045-.27-.045-.223-.829-.459-1.038-.544-.475-.2-1.163-.421-1.59-.662a.87.87,0,0,1-.214-.189l-.023-.3c.174-.281.441-.713.793-.746l3.259.062c.412-.655.851-1.287,1.287-1.922l1.475-1.967-1.3-1.16L39.4,10.146a.459.459,0,0,1-.189-.621,8.656,8.656,0,0,1,.726-.887.579.579,0,0,1,.35-.143l2.076.472c.2-.156.312-.4.5-.57a.432.432,0,0,1,.462-.076,1.253,1.253,0,0,1,.267.18,1.623,1.623,0,0,1,.274.265.535.535,0,0,1,.111.452c-.011.049-.065.067-.046.127l.243.038c.274-.25.514-.846.955-.716a2.731,2.731,0,0,1,.61.521.489.489,0,0,1,0,.537l.033.029,1.888.434c.65-.762,1.218-1.593,1.88-2.341.829-.938,1.956-2.079,3.245-2.187a1.457,1.457,0,0,1,.278,0" transform="translate(46.961 6.93)" fill="#c65406"/>
  <path id="Path_28" data-name="Path 28" d="M55.2,3.445l.046.007a.879.879,0,0,1,.651.951A7.069,7.069,0,0,1,54.042,8.6c-.695.893-1.49,1.686-2.187,2.575l.833,2.185a.5.5,0,0,1,.584-.089,3.277,3.277,0,0,1,.668.628c.189.519-.379.873-.615,1.25l.082.278c.363-.252.6-.071.889.18.056.051.143.122.194.174a.909.909,0,0,1,.2.336c.092.405-.466.766-.6,1.1l.869,2.363a.757.757,0,0,1-.1.439,10.383,10.383,0,0,1-.835,1.007.489.489,0,0,1-.708-.118l-2.96-4.675L48.8,14.789l-2.152,2.356L45.051,18.7l.626,3.829c.024.419-.4.809-.673,1.063l-.325.024a.963.963,0,0,1-.292-.285c-.51-.8-.9-1.758-1.408-2.568-.076-.092-.216-.265-.334-.256-.089.009-.165.078-.25.1-.584.127-.947-.194-.913-.818,0-.1.071-.2.049-.307-.051-.254-.947-.523-1.185-.621a19.1,19.1,0,0,1-1.82-.757.945.945,0,0,1-.245-.216l-.024-.339c.2-.319.506-.815.907-.853l3.727.071c.47-.746.97-1.47,1.47-2.2l1.686-2.25L44.563,11,39.568,8.579a.528.528,0,0,1-.218-.713,10.306,10.306,0,0,1,.832-1.011.688.688,0,0,1,.4-.165l2.371.541c.234-.178.359-.459.575-.653a.494.494,0,0,1,.528-.085,1.332,1.332,0,0,1,.305.2,1.838,1.838,0,0,1,.314.3.627.627,0,0,1,.129.517c-.013.056-.076.078-.056.145l.278.045c.314-.285.588-.967,1.092-.82a3.073,3.073,0,0,1,.7.595.552.552,0,0,1,0,.613l.038.036,2.161.495c.742-.871,1.392-1.82,2.147-2.678.947-1.071,2.237-2.372,3.713-2.5a1.668,1.668,0,0,1,.316-.007" transform="translate(46.957 4.216)" fill="#fff"/>
  <path id="Path_29" data-name="Path 29" d="M4.011,8.71h0A4.309,4.309,0,0,1,8.321,4.4h.187a4.31,4.31,0,1,1,0,8.621H8.321a4.309,4.309,0,0,1-4.31-4.311" transform="translate(4.923 5.403)" fill="#1511b1"/>
  <rect id="Rectangle_6" data-name="Rectangle 6" width="8.995" height="8.803" transform="translate(219.341 47.51)" fill="#ff6700"/>
</svg>
