<svg xmlns="http://www.w3.org/2000/svg" width="569.612" height="190.675" viewBox="0 0 569.612 190.675">
  <g id="logo-stp" transform="translate(0 -0.148)">
    <g id="Group_7243" data-name="Group 7243" transform="translate(0 0.148)">
      <g id="Group_7245" data-name="Group 7245">
        <path id="Path_8401" data-name="Path 8401" d="M61.607,9.555H35.78v32.99H61.607a7.953,7.953,0,0,0,5.717-1.971,7.485,7.485,0,0,0,2.1-5.652V17.375a7.754,7.754,0,0,0-2.1-5.849,7.953,7.953,0,0,0-5.717-1.971" transform="translate(199.353 53.236)" fill="#1aa5da"/>
        <path id="Path_8402" data-name="Path 8402" d="M320.3.36c-16.495,6.506-35.224,7.623-41.664,7.82H30.23A30.248,30.248,0,0,0,0,38.476v121.97a30.234,30.234,0,0,0,30.23,30.23H151.016V63.251H121.51V41.828h81.883V63.251H173.951V190.675H288.5a30.248,30.248,0,0,0,30.3-30.23V48.268A111,111,0,0,1,327,7.195,5.244,5.244,0,0,0,320.3.36M112.835,125.879a25.446,25.446,0,0,1-2.76,12.092,19.4,19.4,0,0,1-8.083,8.017,24.459,24.459,0,0,1-12.026,2.826H35.815v-20.9h46.33c2.563,0,4.469-.657,5.783-2.037,1.38-1.314,2.037-3.22,2.037-5.783v-4.6a7.957,7.957,0,0,0-1.906-5.257,11.313,11.313,0,0,0-5.323-3.154l-26.418-5.652a32.425,32.425,0,0,1-10.777-4.469,21.481,21.481,0,0,1-7.163-8.017,24.168,24.168,0,0,1-2.563-11.369V64.763a25.465,25.465,0,0,1,2.826-12.092,20.193,20.193,0,0,1,8.083-8.017A25.2,25.2,0,0,1,58.75,41.828h51.062V62.791H66.7a7.8,7.8,0,0,0-5.783,1.971,7.97,7.97,0,0,0-1.971,5.849v2.563a8.15,8.15,0,0,0,1.774,5.192,9.2,9.2,0,0,0,5.257,3.089L92.4,87.106a32.686,32.686,0,0,1,10.777,4.666,20.811,20.811,0,0,1,7.163,7.952,22.64,22.64,0,0,1,2.5,10.909Zm178.683-32.07a24.719,24.719,0,0,1-2.826,12.092,20.031,20.031,0,0,1-8.017,8.017,24.718,24.718,0,0,1-12.092,2.826h-33.45v32.07H212.067V41.828h56.516a25.465,25.465,0,0,1,12.092,2.826,20.031,20.031,0,0,1,8.017,8.017,24.719,24.719,0,0,1,2.826,12.092Z" transform="translate(0 0)" fill="#1aa5da"/>
      </g>
      <g id="Group_7244" data-name="Group 7244" transform="translate(362.527 19.661)">
        <path id="Path_8403" data-name="Path 8403" d="M103.284,40l-2.773-8.813L91.764,3.557H80.8L72.121,30.836l-2.846,9.1-1.249,4.022H77.74l2.083-7.774H92.8l2.017,7.774h9.713ZM81.768,28.477l4.3-16.377h.486l4.232,16.377Z" transform="translate(16.494 -3.557)" fill="#c3c3cf"/>
        <path id="Path_8404" data-name="Path 8404" d="M105.127,39.655,102.761,35.7l-4.37-7.36a6.312,6.312,0,0,0,2.011-.69,7.18,7.18,0,0,0,2.642-2.57,8.147,8.147,0,0,0,1.111-4.166V12.238a8.961,8.961,0,0,0-1.111-4.58,7.29,7.29,0,0,0-2.983-2.984,9.721,9.721,0,0,0-4.587-1.117H74.168v40.4h8.675V29.522h7.012l6.94,14.431h10.9ZM95.546,18.691a3.189,3.189,0,0,1-.762,2.221,3.1,3.1,0,0,1-2.156.7H82.843V11.476h9.785a3.132,3.132,0,0,1,2.156.762,3.066,3.066,0,0,1,.762,2.221Z" transform="translate(50.71 -3.557)" fill="#c3c3cf"/>
        <path id="Path_8405" data-name="Path 8405" d="M106.01,39.681v-.046l-.69-6.723-.013-.171L102.323,3.563H92.584L83.646,26.386h-.4L74.367,3.563H64.635L61.579,32.991l-.007-.072L60.442,43.9h9.549l1.557-26.1H71.9l7.893,20.339H87.1L95,17.8h.4l1.5,26.1h9.535Z" transform="translate(-25.767 -3.523)" fill="#c3c3cf"/>
        <path id="Path_8406" data-name="Path 8406" d="M83.525,25.374a8.014,8.014,0,0,0-2.714-3,12.687,12.687,0,0,0-4.055-1.761l-9.976-2.129a3.387,3.387,0,0,1-1.958-1.15,3.072,3.072,0,0,1-.69-1.958v-.986a2.951,2.951,0,0,1,.756-2.188,2.971,2.971,0,0,1,2.188-.749H83.321V3.563H64.08a9.4,9.4,0,0,0-4.554,1.065A7.378,7.378,0,0,0,56.5,7.657,9.283,9.283,0,0,0,55.438,12.2v4.837a9.125,9.125,0,0,0,.946,4.265,7.9,7.9,0,0,0,2.708,3.03,11.861,11.861,0,0,0,4.068,1.7l9.969,2.129a3.924,3.924,0,0,1,1.985,1.176,2.971,2.971,0,0,1,.716,2V33.07A2.612,2.612,0,0,1,72.9,36H55.438v7.9H75.83a9.4,9.4,0,0,0,4.554-1.065,7.417,7.417,0,0,0,3.023-3.03,9.283,9.283,0,0,0,1.065-4.548V29.495a8.7,8.7,0,0,0-.946-4.12" transform="translate(-53.647 -3.524)" fill="#c3c3cf"/>
        <path id="Path_8407" data-name="Path 8407" d="M106.458,3.563h-26.6v8.063H90.975V43.9h8.648V11.626h11.119V3.563Z" transform="translate(82.401 -3.524)" fill="#c3c3cf"/>
        <path id="Path_8408" data-name="Path 8408" d="M91.565,48.066,89.2,44.11l-4.37-7.36a6.313,6.313,0,0,0,2.011-.69,7.18,7.18,0,0,0,2.642-2.57,8.147,8.147,0,0,0,1.111-4.166V20.649a8.962,8.962,0,0,0-1.111-4.58,7.344,7.344,0,0,0-2.984-2.99,9.8,9.8,0,0,0-4.587-1.111H60.606v40.4h8.675V37.933h7.012l6.94,14.431h10.9ZM81.984,27.1a3.188,3.188,0,0,1-.762,2.221,3.1,3.1,0,0,1-2.155.7H69.281V19.887h9.785a3.132,3.132,0,0,1,2.155.762,3.066,3.066,0,0,1,.762,2.221Z" transform="translate(-24.853 43.306)" fill="#c3c3cf"/>
        <path id="Path_8409" data-name="Path 8409" d="M82.7,52.305V11.969h8.694V44.406h17.461v7.9Z" transform="translate(98.232 43.31)" fill="#c3c3cf"/>
        <path id="Path_8410" data-name="Path 8410" d="M81.767,11.969h-26.6v8.063H66.285V52.305h8.648V20.032H86.052V11.969Z" transform="translate(-55.165 43.309)" fill="#c3c3cf"/>
        <path id="Path_8411" data-name="Path 8411" d="M101.7,48.408,98.931,39.6,90.184,11.968H79.216L70.541,39.247l-2.846,9.1-1.249,4.022H76.16l2.083-7.774H91.222l2.017,7.774h9.713ZM80.188,36.888l4.3-16.377h.486l4.232,16.377Z" transform="translate(7.692 43.306)" fill="#c3c3cf"/>
        <path id="Path_8412" data-name="Path 8412" d="M98.192,11.963v.072L89.931,43.823h-.486V43.75L81.119,12.036v-.072H71.4l12.775,40.4H95.136l7.5-23.671,1.249-3.956,2.78-8.813,1.249-3.956Z" transform="translate(35.285 43.28)" fill="#c3c3cf"/>
        <path id="Path_8413" data-name="Path 8413" d="M99.036,11.969h-21.2V52.305H104v-7.9H86.536V35.83H98.411V28.1H86.536V19.868H104v-7.9Z" transform="translate(71.144 43.309)" fill="#c3c3cf"/>
        <path id="Path_8414" data-name="Path 8414" d="M55.719,60.8V20.462H77.031a9.326,9.326,0,0,1,4.554,1.065,7.417,7.417,0,0,1,3.023,3.03A9.283,9.283,0,0,1,85.673,29.1V40.052a9.309,9.309,0,0,1-1.065,4.554,7.4,7.4,0,0,1-3.023,3.023A9.4,9.4,0,0,1,77.031,48.7H64.413V60.8Zm18.433-20a2.993,2.993,0,0,0,2.162-.749,2.843,2.843,0,0,0,.782-2.129V31.292a2.925,2.925,0,0,0-.782-2.188,2.993,2.993,0,0,0-2.162-.749H64.413V40.8Z" transform="translate(-52.081 90.632)" fill="#c3c3cf"/>
        <path id="Path_8415" data-name="Path 8415" d="M69.848,60.849A9.5,9.5,0,0,1,65.3,59.811a7.286,7.286,0,0,1-3.03-2.951,8.883,8.883,0,0,1-1.065-4.423V28.865a8.883,8.883,0,0,1,1.065-4.423,7.286,7.286,0,0,1,3.03-2.951,9.5,9.5,0,0,1,4.548-1.038h13.6A9.5,9.5,0,0,1,88,21.491a7.286,7.286,0,0,1,3.03,2.951,8.883,8.883,0,0,1,1.065,4.423V52.437a8.883,8.883,0,0,1-1.065,4.423A7.286,7.286,0,0,1,88,59.811a9.5,9.5,0,0,1-4.548,1.038ZM80.573,53.16a3.022,3.022,0,0,0,2.188-.723A2.892,2.892,0,0,0,83.51,50.3V31a2.892,2.892,0,0,0-.749-2.136,3.051,3.051,0,0,0-2.188-.723h-7.84a2.982,2.982,0,0,0-2.1.723A2.829,2.829,0,0,0,69.848,31V50.3a2.829,2.829,0,0,0,.782,2.136,2.953,2.953,0,0,0,2.1.723Z" transform="translate(-21.51 90.582)" fill="#c3c3cf"/>
        <path id="Path_8416" data-name="Path 8416" d="M82.7,60.8V20.462h8.694V52.9h17.461v7.9Z" transform="translate(98.232 90.631)" fill="#c3c3cf"/>
        <path id="Path_8417" data-name="Path 8417" d="M98.032,56.551l-2.366-3.956-4.37-7.36a6.312,6.312,0,0,0,2.011-.69,7.181,7.181,0,0,0,2.642-2.57,8.147,8.147,0,0,0,1.111-4.166V29.134a8.962,8.962,0,0,0-1.111-4.58,7.345,7.345,0,0,0-2.984-2.99,9.8,9.8,0,0,0-4.587-1.111H67.073v40.4h8.675V46.418H82.76L89.7,60.849h10.9ZM88.451,35.587a3.188,3.188,0,0,1-.762,2.221,3.1,3.1,0,0,1-2.155.7H75.748V28.372h9.785a3.132,3.132,0,0,1,2.155.762,3.066,3.066,0,0,1,.762,2.221Z" transform="translate(11.179 90.582)" fill="#c3c3cf"/>
        <path id="Path_8418" data-name="Path 8418" d="M98.857,20.462h-26.6v8.063H83.374V60.8h8.648V28.525h11.119V20.462Z" transform="translate(40.052 90.631)" fill="#c3c3cf"/>
        <path id="Path_8419" data-name="Path 8419" d="M111.907,56.9l-2.773-8.813-8.747-27.627H89.419L80.744,47.741l-2.846,9.1L76.65,60.858h9.713l2.083-7.774h12.979l2.017,7.774h9.713ZM90.4,45.382l4.3-16.377h.486l4.232,16.377Z" transform="translate(64.539 90.632)" fill="#c3c3cf"/>
      </g>
    </g>
  </g>
</svg>
