<svg xmlns="http://www.w3.org/2000/svg" xmlns:xlink="http://www.w3.org/1999/xlink" width="242" height="84" viewBox="0 0 242 84">
  <defs>
    <linearGradient id="linear-gradient" x1="0.5" x2="0.5" y2="1" gradientUnits="objectBoundingBox">
      <stop offset="0.033" stop-color="#19aade"/>
      <stop offset="0.951" stop-color="#134e8e"/>
    </linearGradient>
    <linearGradient id="linear-gradient-2" x1="0.5" x2="0.5" y2="1" gradientUnits="objectBoundingBox">
      <stop offset="0.132" stop-color="#e02527"/>
      <stop offset="0.742" stop-color="#a1141c"/>
    </linearGradient>
    <linearGradient id="linear-gradient-3" y1="0.5" x2="1" y2="0.5" gradientUnits="objectBoundingBox">
      <stop offset="0.005" stop-color="#71251d"/>
      <stop offset="0.742" stop-color="#c73127"/>
    </linearGradient>
    <linearGradient id="linear-gradient-4" y1="0.5" x2="1" y2="0.5" gradientUnits="objectBoundingBox">
      <stop offset="0.148" stop-color="#e8ebee"/>
      <stop offset="0.742" stop-color="#95a5af"/>
    </linearGradient>
  </defs>
  <g id="_1" data-name="1" transform="translate(3353 3056)">
    <rect id="Rectangle_40" data-name="Rectangle 40" width="242" height="84" transform="translate(-3353 -3056)" fill="none"/>
    <g id="american-airlines-seeklogo" transform="translate(-3305 -3041)">
      <path id="Path_8736" data-name="Path 8736" d="M174.393,0h6.725a8.575,8.575,0,0,1,6.54,2.838L202.341,21.35h-10.3s-4.566.2-6.415-2.9Z" transform="translate(-89.442 0)" fill="url(#linear-gradient)"/>
      <path id="Path_8737" data-name="Path 8737" d="M220.7,66.324l6.046,9.994s2.222,5.059,9.564,5.059h15.422l-21.84-26.4-9.192,2.1S218.173,60.4,220.7,66.324Z" transform="translate(-112.617 -28.194)" fill="url(#linear-gradient-2)"/>
      <path id="Path_8738" data-name="Path 8738" d="M233.2,58.618l-3.539-4.288-8.92,2.411s-2.529,3.331,0,9.254l.371.632c-.03-.392-.3-6.5,12.088-8.008Z" transform="translate(-112.636 -27.865)" fill="url(#linear-gradient-3)"/>
      <path id="Path_8739" data-name="Path 8739" d="M215.929,62.179S213.135,55,222.252,51.556c0,0,6.494-2.323,10.838-.946,0,0-.3-5.247-10.968-4.9a35.062,35.062,0,0,0-10.064,1.506s-4.689,1.247-1.2,6.623Z" transform="translate(-107.482 -23.434)" fill="url(#linear-gradient-4)"/>
      <g id="Group_7474" data-name="Group 7474" transform="translate(0 12.05)">
        <path id="Path_8740" data-name="Path 8740" d="M141.55,63.752h-.75V63.49h1.825v.262h-.753v2.123h-.322Zm3.426,1.076c-.018-.333-.04-.733-.036-1.03h-.011q-.139.458-.311.906l-.435,1.157h-.242l-.4-1.135c-.117-.336-.215-.644-.285-.927h-.008q-.015.528-.048,1.055l-.066,1.022h-.3l.171-2.385h.406l.42,1.154c.1.294.187.555.248.8h.011c.062-.241.151-.5.26-.8l.438-1.154h.406l.153,2.385h-.311ZM49.4,30.637c-3.964-1.333-3.758,3.183-3.758,3.183v5.529H43.089v-7.24c0-1.448-.02-2.479-.083-3.444h2.225l.083,1.72s.812-2.739,4.235-1.73Zm1.267,8.712V28.665H53.25V39.349H50.671Zm0-12.279V24.737H53.25v2.332ZM63.26,39.02a7.014,7.014,0,0,1-2.87.57c-3.161,0-5.22-2.15-5.22-5.463,0-3.2,1.8-5.761,5.636-5.7a6.35,6.35,0,0,1,2.475.5l0,2.213a6.39,6.39,0,0,0-2.389-.611c-1.955,0-3.12,1.513-3.1,3.466,0,2.194,1.352,3.444,3.1,3.444a6.381,6.381,0,0,0,2.354-.569Zm10.2-2.238a16.826,16.826,0,0,0,.134,2.529H71.163l-.155-1.147h-.065a3.955,3.955,0,0,1-3.152,1.426,3.167,3.167,0,0,1-3.348-3.181c0-2.7,2.385-4.059,6.323-4.037V32.2c0-.7-.284-1.865-2.166-1.865a6.72,6.72,0,0,0-3.124.953l-.108-2.126a7.342,7.342,0,0,1,3.692-.736c3.695-.021,4.4,2.172,4.4,4.5v3.861Zm-2.626-2.655c-1.9-.044-3.719.373-3.719,2a1.415,1.415,0,0,0,1.532,1.536,2.181,2.181,0,0,0,2.1-1.47,1.944,1.944,0,0,0,.087-.593v-1.47Zm4.709-1.937c0-1.229-.012-2.61-.075-3.531l2.41.006.024,1.416.164-.237c.71-.793,1.034-1.42,3.223-1.42,1.768,0,3.6,1.206,3.6,4.585v6.282H82.327V33.316c0-1.535-.54-2.7-1.934-2.7a2.385,2.385,0,0,0-2.164,1.58,2.9,2.9,0,0,0-.1.877v6.217h-2.6Zm1.609,22.463a6.723,6.723,0,0,0,3.447.706c1.272-.109,1.844-.548,1.844-1.249,0-.724-.447-1.185-1.891-1.558-2.727-.7-3.621-1.949-3.6-3.2,0-1.886,1.428-3.272,4.389-3.272a6.562,6.562,0,0,1,2.915.613v1.969a6.941,6.941,0,0,0-3.11-.705c-1.04,0-1.607.509-1.607,1.167,0,.68.526,1.064,2.008,1.492,2.216.64,3.452,1.694,3.464,3.274.016,2.258-1.78,3.355-4.829,3.357A7.584,7.584,0,0,1,77.1,56.64ZM26.368,28.424a3.338,3.338,0,0,0-2.077.584,3.858,3.858,0,0,0-1.238,1.326h-.042a3.052,3.052,0,0,0-2.931-1.959,3.467,3.467,0,0,0-3.192,1.634h-.064l-.106-1.345H14.461c.064.922.085,1.952.085,3.181v7.5H17.1V33.031a2.38,2.38,0,0,1,.149-.878,2.06,2.06,0,0,1,1.875-1.535c1.214,0,1.789,1.053,1.789,2.545v6.187h2.556V34.027a6.108,6.108,0,0,1,.464-2.477,1.588,1.588,0,0,1,1.5-.933c1.256,0,1.853,1.053,1.853,2.831v5.9h2.7v-6.3c.109-3.5-1.369-4.629-3.614-4.629ZM10.8,39.317H13.48L8.267,25.22H5.4L0,39.317H2.593l1.116-3.146H9.686ZM4.344,34.289l2.35-6.54,2.314,6.54ZM28.222,57.047H30.9l-5.213-14.1H22.816l-5.4,14.1h2.593L21.126,53.9H27.1ZM21.761,52.02l2.35-6.54,2.314,6.54Zm21.556-3.707c-3.964-1.333-3.758,3.183-3.758,3.183v5.528H37V49.785c0-1.448-.02-2.479-.083-3.444h2.225l.083,1.719s.811-2.738,4.235-1.729ZM31.875,57.023V46.34h2.579V57.023Zm0-12.279V42.412h2.579v2.332ZM49.89,57.023V46.34h2.579V57.023Zm0-12.279V42.412h2.579v2.332Zm-5.08-2.379h2.5V57.048h-2.5Zm10.209,7.563c0-1.229-.012-2.61-.075-3.532l2.409.007.024,1.416.163-.237c.71-.792,1.034-1.42,3.223-1.42,1.768,0,3.6,1.206,3.6,4.585v6.282H61.8V51.053c0-1.535-.541-2.7-1.934-2.7a2.384,2.384,0,0,0-2.164,1.58,2.884,2.884,0,0,0-.1.877v6.217h-2.6Zm13.458,2.32a3.12,3.12,0,0,0,3.211,3.1,8.1,8.1,0,0,0,3.016-.677l.072,1.982a8.682,8.682,0,0,1-3.452.594c-3.382,0-5.373-2.15-5.373-5.419,0-2.961,1.474-5.748,5.094-5.748,3.4,0,4.5,2.852,4.5,5.2a4.522,4.522,0,0,1-.087.968H68.476Zm4.581-1.715c.021-1.017-.412-2.689-2.187-2.689-1.645,0-2.337,1.559-2.445,2.689ZM34.247,34.542a3.12,3.12,0,0,0,3.211,3.1,8.094,8.094,0,0,0,3.016-.677l.072,1.982a8.69,8.69,0,0,1-3.452.593c-3.382,0-5.373-2.15-5.373-5.418,0-2.962,1.474-5.748,5.094-5.748,3.4,0,4.5,2.852,4.5,5.2a4.573,4.573,0,0,1-.086.969H34.247Zm4.581-1.714c.021-1.017-.412-2.689-2.187-2.689C35,30.138,34.3,31.7,34.2,32.828Z" transform="translate(0 -24.737)" fill="#37495a"/>
      </g>
    </g>
  </g>
</svg>
