<svg xmlns="http://www.w3.org/2000/svg" width="243" height="85" viewBox="0 0 243 85">
  <g id="_10" data-name="10" transform="translate(2828 2952)">
    <rect id="Rectangle_42" data-name="Rectangle 42" width="243" height="85" transform="translate(-2828 -2952)" fill="none"/>
    <g id="srilankan-airlines-1" transform="translate(-2807.1 -2936)">
      <path id="Path_8705" data-name="Path 8705" d="M59.407.349A2.621,2.621,0,0,1,60.454,0c-.2.325-.495.576-.69.909a8,8,0,0,0-.974,2.7,24.81,24.81,0,0,1-.535,2.677,10.062,10.062,0,0,1-1.777,3.391,16.4,16.4,0,0,1-3.643,3.172A33.113,33.113,0,0,0,48.1,16.38a9.012,9.012,0,0,0-2.239,3.578,57.221,57.221,0,0,1-2.767,7.44,17.894,17.894,0,0,1-3.318,4.641,28.278,28.278,0,0,1-5.963,4.405,55.788,55.788,0,0,1-15.131,5.785A79.185,79.185,0,0,1,.717,44.241,3.926,3.926,0,0,1,.1,44.209,61.042,61.042,0,0,0,15.7,40.12a40.289,40.289,0,0,0,12.4-8.032c.787-.763,1.541-1.558,2.247-2.393a30.775,30.775,0,0,0,3.821-6.507c.56-1.168,1.1-2.353,1.761-3.481a13.619,13.619,0,0,1,3.975-4.3,26.8,26.8,0,0,1,6.426-2.994c1.3-.471,2.6-.925,3.87-1.46a15.863,15.863,0,0,0,2.466-1.225A9.36,9.36,0,0,0,56.2,5.939c.519-1.079.763-2.264,1.2-3.375a1.871,1.871,0,0,0-.982,1.176,1.849,1.849,0,0,1-1.509,1.152,2.032,2.032,0,0,0,.657-.941A2.262,2.262,0,0,1,57.525,2.3,4.851,4.851,0,0,1,59.407.349M58.214,1.842a.39.39,0,0,0-.041.617.379.379,0,1,0,.041-.617Z" fill="#dc001c"/>
      <path id="Path_8706" data-name="Path 8706" d="M142.985,168.166a35.814,35.814,0,0,1,4.981-1.566c-.292.162-.617.268-.925.414a15.129,15.129,0,0,0-5,3.732,24.807,24.807,0,0,0-3.854,5.9,20.909,20.909,0,0,1-6.45,8.032,29.1,29.1,0,0,1-13.249,5.444,26.393,26.393,0,0,1-3.091.3c1.339-.43,2.677-.852,3.975-1.4a26.484,26.484,0,0,0,9.363-6.361,36.34,36.34,0,0,0,3.967-5.144c.617-.974,1.2-1.971,1.9-2.888a21.8,21.8,0,0,1,2.742-2.929A18.592,18.592,0,0,1,142.985,168.166Z" transform="translate(-105.946 -153.084)" fill="#01742f"/>
      <path id="Path_8707" data-name="Path 8707" d="M425.839,198.863a8.406,8.406,0,0,1,1.144-1.663,26.412,26.412,0,0,0-.592,3.294,39.077,39.077,0,0,0-.008,5.249,13.271,13.271,0,0,1-4.357,11.237,14.73,14.73,0,0,1-7.626,3.367,15.907,15.907,0,0,1-3.4.178c.592-.381,1.233-.69,1.842-1.055a28.542,28.542,0,0,0,5.16-3.627,20.285,20.285,0,0,0,3.9-5.022,22.2,22.2,0,0,0,1.963-5.923A22.7,22.7,0,0,1,425.839,198.863Z" transform="translate(-377.563 -181.201)" fill="#ff3c00"/>
      <path id="Path_8708" data-name="Path 8708" d="M655.723,180.585A9.626,9.626,0,0,1,661.4,179.1a15.91,15.91,0,0,1,4.495.714,5.478,5.478,0,0,1,2.945,1.971,4.427,4.427,0,0,1,.446,2.7,5.955,5.955,0,0,0-1.176-1.744,8.236,8.236,0,0,0-5.76-1.777,10.048,10.048,0,0,0-3.959.779,3.056,3.056,0,0,0-1.769,2.093,3.718,3.718,0,0,0,.722,2.75,11.409,11.409,0,0,0,4.446,3.529,25.729,25.729,0,0,1,5.768,3.253,6.906,6.906,0,0,1,2.377,3.335,6.342,6.342,0,0,1-1.282,5.606,9.023,9.023,0,0,1-3.578,2.507,13.711,13.711,0,0,1-7.27.706,8.848,8.848,0,0,1-4.746-2.328,4.185,4.185,0,0,1-1.087-3.091,4.48,4.48,0,0,1,.308-1.761,4.469,4.469,0,0,0,1.923,3.343,10.417,10.417,0,0,0,6.742,1.623,6.155,6.155,0,0,0,3.554-1.274,4.463,4.463,0,0,0,1.5-3.667,4.85,4.85,0,0,0-1.639-2.953,34.783,34.783,0,0,0-5.8-3.789,16.1,16.1,0,0,1-4.17-3.213,4.708,4.708,0,0,1-1.144-2.572A5.938,5.938,0,0,1,655.723,180.585Zm31.479-1.03a2.121,2.121,0,1,1-1.339,1.477A2.081,2.081,0,0,1,687.2,179.554Zm-7.983,7.107a4.781,4.781,0,0,1,3.156-.657,3.231,3.231,0,0,1,2.191,1.4,4.869,4.869,0,0,0-2.653-.235,5.592,5.592,0,0,0-3.2,2.953,16.2,16.2,0,0,0-1.752,6.3,50.931,50.931,0,0,0-.349,5.217,5.456,5.456,0,0,0,.933,3.513c-1.217-.008-2.45.065-3.667-.024a11.589,11.589,0,0,1-.5-3.253c-.146-2.791.454-5.541.755-8.308a35.956,35.956,0,0,0,.154-5.76,4.255,4.255,0,0,0-.7-1.679c1.022-.041,2.036-.016,3.059-.024a1.5,1.5,0,0,1,.568.073,2.94,2.94,0,0,1,.511,1.834A8.492,8.492,0,0,1,679.219,186.661Zm6.937-.535a5.092,5.092,0,0,1,3.44,1.59,4.082,4.082,0,0,1,.511,3.156c-.357,3.188-.787,6.385-.884,9.6-.016,1.574-.146,3.261.673,4.681-1.144,0-2.288.049-3.424-.016a6.411,6.411,0,0,1-.657-3.261,116.036,116.036,0,0,1,1.2-12.527A5.727,5.727,0,0,0,686.155,186.126Z" transform="translate(-598.985 -164.569)" fill="#027499"/>
      <path id="Path_8709" data-name="Path 8709" d="M1943.421,532.471a13.217,13.217,0,0,1,1.387,0,13.122,13.122,0,0,1,1.469,3.9c.543,1.988.876,4.121,2.117,5.825a8.105,8.105,0,0,1-1.4-.016,4.388,4.388,0,0,1-.949-1.825c-.487-1.468-.827-2.986-1.209-4.479a11.963,11.963,0,0,0-.771-2.28,11,11,0,0,1-.227,1.7c-.195.819-.633,1.558-.868,2.361a2.187,2.187,0,0,1,2.215.73,2.783,2.783,0,0,0-2.394.308,5.223,5.223,0,0,0-1.452,3.5q-.718.024-1.436,0a13.991,13.991,0,0,1,1.744-4.649A12.977,12.977,0,0,0,1943.421,532.471Zm6.085.065a.8.8,0,1,1-.1,1.387A.808.808,0,0,1,1949.506,532.536Zm7.488-.073c.438-.008.885-.008,1.323.008a23.805,23.805,0,0,1-.024,6.353,7.791,7.791,0,0,0,.114,3.383c-.454.008-.909.008-1.363-.008a2.562,2.562,0,0,1-.162-1.047C1956.938,538.264,1957.546,535.344,1956.994,532.463Zm3.278.073a.859.859,0,0,1,1.225.649.84.84,0,0,1-1.428.633A.8.8,0,0,1,1960.272,532.536Zm5.492,2.661a4,4,0,0,1,2.32-.357,2.206,2.206,0,0,1,1.939,2.085c-.008.828-.162,1.647-.2,2.475a6.09,6.09,0,0,0,.276,2.807c-.422,0-.844,0-1.266-.016a10.288,10.288,0,0,1,.041-4.195c.057-.641.178-1.476-.43-1.906a2.659,2.659,0,0,0-3.789,1.168,7.378,7.378,0,0,0-.43,2.588,4.306,4.306,0,0,0,.26,2.353c-.47,0-.941,0-1.4-.016-.616-2.377.739-4.8,0-7.172.463-.016.925,0,1.387.024.065.373.122.738.178,1.12A5.071,5.071,0,0,1,1965.765,535.2Zm6.669.487a3.558,3.558,0,0,1,2.539-.868,2.4,2.4,0,0,1,2.15,1.128,1.664,1.664,0,0,1-.86,2.174,8.963,8.963,0,0,0-3.213,1.825.67.67,0,0,0-.032.836,2.079,2.079,0,0,0,1.72.949,4.253,4.253,0,0,0,2.215-.8,3.234,3.234,0,0,1-1.517,1.314,3.007,3.007,0,0,1-2.694-.252,3.649,3.649,0,0,1-1.42-3.05,4.349,4.349,0,0,1,1.112-3.253m.8.9a3.9,3.9,0,0,0-.689,2.807,10.975,10.975,0,0,1,1.736-1.03,3.19,3.19,0,0,0,1.826-1.558c.211-.641-.447-1.168-1.022-1.225A2.244,2.244,0,0,0,1973.237,536.585Zm5.4-.892a2.323,2.323,0,0,1,1.842-.86,3.675,3.675,0,0,1,2.28.544c.3.2.324.592.4.917a10.073,10.073,0,0,0-.852-.706,2.782,2.782,0,0,0-2.207.008.811.811,0,0,0-.6.763,1.565,1.565,0,0,0,.576.892c.8.657,1.89.852,2.613,1.6a1.957,1.957,0,0,1,.543,1.907,2.136,2.136,0,0,1-1.208,1.331,3.885,3.885,0,0,1-2.637.195,2.2,2.2,0,0,1-1.209-.8,2.043,2.043,0,0,1-.187-1.168,2.572,2.572,0,0,0,.876,1.047,2.968,2.968,0,0,0,2.5.186,1.194,1.194,0,0,0,.454-1.825c-.893-.974-2.3-1.249-3.164-2.239A1.439,1.439,0,0,1,1978.632,535.692Zm-24.907.008a1.933,1.933,0,0,1,1.225-.738,1.4,1.4,0,0,1,1.347.544c-.5-.057-1.111-.211-1.525.179a4.8,4.8,0,0,0-1.379,3.351,6.3,6.3,0,0,0,.162,3.18c-.47,0-.933,0-1.4-.016a8.751,8.751,0,0,1-.057-2.8,18.4,18.4,0,0,0,.284-3.529,2.666,2.666,0,0,0-.235-.86h1.412C1953.6,535.246,1953.66,535.465,1953.725,535.7Zm-4.543-.706c.478.122,1.055.195,1.347.649a1.662,1.662,0,0,1,.17,1.184,33.3,33.3,0,0,0-.349,4.308,3.539,3.539,0,0,0,.243,1.071,12.885,12.885,0,0,1-1.371-.024,3.031,3.031,0,0,1-.195-1.4c.073-1.444.276-2.888.438-4.324A3.194,3.194,0,0,0,1949.182,534.995Zm10.823-.008c.609.13,1.4.389,1.485,1.12.049,1.063-.162,2.117-.211,3.18a6.378,6.378,0,0,0,.114,2.929,5.279,5.279,0,0,1-1.338-.065,4.994,4.994,0,0,1-.114-2.272c.1-1.177.26-2.345.389-3.513A3.129,3.129,0,0,0,1960,534.987Z" transform="translate(-1782.421 -489.253)" fill="#027499"/>
      <g id="Group_7468" data-name="Group 7468" transform="translate(94.668 14.862)">
        <path id="Path_8710" data-name="Path 8710" d="M1165.985,183.186c1.168,0,2.344,0,3.513.016a41.205,41.205,0,0,1,.536,9.533c-.122,4.454-1.136,8.851-.868,13.322a18.387,18.387,0,0,1,5.768.56c1.3.438,2.467,1.266,3.854,1.4a5.113,5.113,0,0,1-3.115-5.914,4.319,4.319,0,0,1,2.369-2.734c2.84-1.225,5.963-1.623,8.778-2.921a3.641,3.641,0,0,0,1.939-1.671,2.69,2.69,0,0,0-1.006-2.953,5.984,5.984,0,0,0-3.586-.925,13.8,13.8,0,0,0-6.726,1.98,5.49,5.49,0,0,1,1.964-1.988,11,11,0,0,1,5.931-1.566,12.37,12.37,0,0,1,4.008.471,4.507,4.507,0,0,1,2.848,2.637,5.968,5.968,0,0,1,.138,2.653c-.2,2.231-.73,4.422-.9,6.661-.089,1.014-.049,2.028-.057,3.042a8.717,8.717,0,0,0,.763,4.113c-1.168.016-2.337.041-3.5-.016-.852-3.854-.349-7.813,0-11.691-2.466,1.8-5.687,1.98-8.251,3.586a5.429,5.429,0,0,0-2.255,2.288,3.071,3.071,0,0,0,.746,3.4,3.766,3.766,0,0,0,2.726.892,9.038,9.038,0,0,0,5.225-2.118,7.241,7.241,0,0,1-3.6,2.929,11.61,11.61,0,0,1-5.371.941c-1.574-.081-3.115-.43-4.673-.576a30,30,0,0,0-6.872.373,13.562,13.562,0,0,1-.479-5.874c.268-3.472.771-6.937.844-10.425C1166.682,189.474,1167.112,186.2,1165.985,183.186Zm50.577,0c1.193.008,2.393-.016,3.586.016a62.766,62.766,0,0,1,.39,10.831c-.041,1.055-.187,2.093-.235,3.148,1.7-1.209,2.9-2.961,4.47-4.332a12.156,12.156,0,0,1,5.1-2.848,18.818,18.818,0,0,1,3.975-.584,24.07,24.07,0,0,0-3.132,1.4c-2.913,1.663-4.8,4.519-7.115,6.864a26.992,26.992,0,0,1,3.8,5.436,17.774,17.774,0,0,0,3.659,4.657,14.789,14.789,0,0,0,1.688,1.111c-1.241.049-2.5.065-3.74.008a6.446,6.446,0,0,1-1.623-1.193,21.813,21.813,0,0,1-3.854-5.379,15.478,15.478,0,0,0-3.278-4.527c-.146,1.55-.308,3.1-.43,4.657a23.477,23.477,0,0,0-.041,4.405,5.788,5.788,0,0,0,.625,2.061c-1.184.008-2.369.049-3.553-.032a7.139,7.139,0,0,1-.544-3.27c.1-4.925.909-9.809.893-14.742.016-1.8.008-3.6-.13-5.4A7.855,7.855,0,0,0,1216.562,183.186ZM1202.3,190.5a10,10,0,0,1,6.328-1.03,5.85,5.85,0,0,1,4.243,2.872,6.155,6.155,0,0,1,.722,3.919,49.291,49.291,0,0,0-.576,8.535,8.438,8.438,0,0,0,.917,4.105c-1.03,0-2.069.057-3.091-.024a4.371,4.371,0,0,1-.836-2.807,31.356,31.356,0,0,1,.162-5.16,30.143,30.143,0,0,0,.568-5.971,3.044,3.044,0,0,0-1.217-2.3,6.347,6.347,0,0,0-4.049-.957,7.15,7.15,0,0,0-5.233,2.6,8.469,8.469,0,0,0-1.306,3.026,22.393,22.393,0,0,0-.682,5.825c-.065,1.923-.357,4.073.819,5.752-1.217-.008-2.434.081-3.643-.032a11.563,11.563,0,0,1-.487-3.026,30.335,30.335,0,0,1,.535-6.685,28.729,28.729,0,0,0,.446-6.669,6.146,6.146,0,0,0-.819-2.661c1.12.008,2.239.016,3.351.008.333-.049.487.308.584.56a9.783,9.783,0,0,1,.3,2.913A8.813,8.813,0,0,1,1202.3,190.5Z" transform="translate(-1165.719 -183.185)" fill="#0f1e7d"/>
        <path id="Path_8711" data-name="Path 8711" d="M2002.235,259.494a14.68,14.68,0,0,1,4.827-.576,8.8,8.8,0,0,1,3.87.819,4.764,4.764,0,0,1,1.964,2.118,4.224,4.224,0,0,1,.219,1.988c-.138,2.556-.8,5.055-.933,7.61a35.4,35.4,0,0,0-.008,4.454,6.772,6.772,0,0,0,.681,2.58c-.99.016-1.988.016-2.985.016-.17-.024-.471.04-.487-.2a17.328,17.328,0,0,1-.446-4.04c-.016-2.5.227-4.99.446-7.472a18.719,18.719,0,0,1-5.533,2.377,9.291,9.291,0,0,0-4.608,2.758,3.244,3.244,0,0,0,1.136,4.7,5.032,5.032,0,0,0,3.221.13,9.939,9.939,0,0,0,3.959-1.915,7.686,7.686,0,0,1-3.7,3.229,7.448,7.448,0,0,1-4.292.625,4.671,4.671,0,0,1-2.912-1.744,4.914,4.914,0,0,1-.5-5.063,6.793,6.793,0,0,1,4.04-3.44c2.288-.876,4.73-1.306,7-2.231a5.685,5.685,0,0,0,2-1.282,2.3,2.3,0,0,0,.3-2.223,2.921,2.921,0,0,0-1.452-1.6,6.328,6.328,0,0,0-2.726-.625,12.583,12.583,0,0,0-4.381.7,21.5,21.5,0,0,0-2.823,1.282A7.315,7.315,0,0,1,2002.235,259.494Zm21.962.041a10.531,10.531,0,0,1,4.649-.552,6.208,6.208,0,0,1,3.8,1.744,6.023,6.023,0,0,1,1.712,3.935,12.549,12.549,0,0,1-.219,2.328,42.732,42.732,0,0,0-.4,8.2,6.588,6.588,0,0,0,.908,3.294,30.269,30.269,0,0,1-3.212-.041,5.38,5.38,0,0,1-.739-3.124c0-1.412-.049-2.823.073-4.227.17-1.76.576-3.489.649-5.257a4.7,4.7,0,0,0-.6-2.929,4.517,4.517,0,0,0-2.686-1.5,7.833,7.833,0,0,0-5.615,1.038,5.929,5.929,0,0,0-2.32,2.726,16.594,16.594,0,0,0-1.185,5.347c-.057,1.331-.105,2.653-.146,3.984a6.454,6.454,0,0,0,.892,3.992c-1.249.008-2.507.065-3.748-.041a21.923,21.923,0,0,1-.155-8.032,36.622,36.622,0,0,0,.722-8.194,7.029,7.029,0,0,0-.762-2.8c1.209,0,2.41.016,3.618,0a6.864,6.864,0,0,1,.6,3.5A8.364,8.364,0,0,1,2024.2,259.535Z" transform="translate(-1928.342 -252.767)" fill="#0f1e7d"/>
      </g>
    </g>
  </g>
</svg>
