<svg xmlns="http://www.w3.org/2000/svg" width="241" height="85" viewBox="0 0 241 85">
  <g id="_11" data-name="11" transform="translate(2564 2952)">
    <rect id="Rectangle_43" data-name="Rectangle 43" width="241" height="85" transform="translate(-2564 -2952)" fill="none"/>
    <g id="biman-airlines-classic-logo" transform="translate(-2539 -2936)">
      <path id="Path_8653" data-name="Path 8653" d="M839.975,105.743l1.874-.413,2.4-.26,3.075.26a3,3,0,0,1,2,.826,3.379,3.379,0,0,1,.665,1.392V109.2l-.8,4.9a2.815,2.815,0,0,0-.268,1.285l.268,1.086h-4.276l-.268-.566v-.773a6.8,6.8,0,0,1-2,1.186,7.111,7.111,0,0,1-2.67.413,4.228,4.228,0,0,1-3.067-.926,2.005,2.005,0,0,1-.665-2.218,3.526,3.526,0,0,1,1.071-2.065,6.759,6.759,0,0,1,3.205-1.285l3.473-.719,1.6-.413c.268-.62.268-.926,0-1.132a1.492,1.492,0,0,0-1.071-.314,4.342,4.342,0,0,0-1.866.314c-.138.207-.666.52-.8.979l-4.276-.467a4.8,4.8,0,0,1,1.071-1.6Zm-5.071,3.763-1.339,6.961h-4.406l1.071-6.341c.268-.52.268-.88,0-1.132a.978.978,0,0,0-1.071-.566,1.713,1.713,0,0,0-1.339.566,4.226,4.226,0,0,0-.665,1.752l-1.2,5.722h-4.406l1.071-6.081c.268-.52.268-.88,0-1.033a1.029,1.029,0,0,0-.138-.673l-.933-.26a1.923,1.923,0,0,0-1.339.566,4.167,4.167,0,0,0-.933,1.805l-1.071,5.668H813.8l2.134-11.137h4.276l-.4,1.6a6.511,6.511,0,0,1,2.134-1.446,5.879,5.879,0,0,1,2.272-.413,3,3,0,0,1,2,.513,1.735,1.735,0,0,1,1.071,1.339,11.439,11.439,0,0,1,2.272-1.446,6.041,6.041,0,0,1,2.272-.413,3.344,3.344,0,0,1,2.67,1.079C835.171,106.875,835.171,107.954,834.9,109.507Zm10.281,1.752-2,.512a5.533,5.533,0,0,0-1.866.673l-.4.773c-.268.36,0,.62.268.88a1.052,1.052,0,0,0,.8.26,2.9,2.9,0,0,0,1.6-.36c.4-.26.933-.52,1.071-.773a7.848,7.848,0,0,0,.535-1.392v-.574Zm6.142,5.2,2-11.137h4.276l-.4,1.859a6.445,6.445,0,0,1,2.134-1.6,5.557,5.557,0,0,1,2.54-.513,3.35,3.35,0,0,1,2.67,1.086c.665.719.665,1.805.4,3.3l-1.339,7.014H859.2l1.071-6.081a1.507,1.507,0,0,0-.268-1.545.829.829,0,0,0-.8-.413,2.088,2.088,0,0,0-1.6.566,5.34,5.34,0,0,0-.933,2.165l-.8,5.309h-4.544Zm68.644,11.665a2.449,2.449,0,0,1-.535.558,3.541,3.541,0,0,1-2.4.773,4.157,4.157,0,0,1-2.4-.673,2.763,2.763,0,0,1-1.339-1.752l1.736-.413a1.957,1.957,0,0,0,.933.926c.138.26.665.36,1.331.36a1.657,1.657,0,0,0,.8-.26c.268-.153.268-.413.268-.773,0-.413-.4-.773-1.339-1.132l-.4-.153a4.649,4.649,0,0,1-1.6-.926,2.159,2.159,0,0,1-.665-1.392,2.239,2.239,0,0,1,.933-1.9,3.936,3.936,0,0,1,2.134-.673,3.414,3.414,0,0,1,2,.62c.191.122.375.237.535.36Zm0-5.133-.933.275a1.549,1.549,0,0,0-.4-.88,1.648,1.648,0,0,0-1.2-.306c-.4,0-.673.054-.8.26l-.268.673c0,.413.4.773,1.339,1.132l.666.26a5.684,5.684,0,0,1,1.6.926Zm-6.54-.757h-4.008l-.4,1.958h3.6l-.268,1.392h-3.6l-.4,2.165h4.406l-.13,1.545h-6.272l1.6-8.452H913.7Zm-7.351-1.392-1.331,8.452H903.28l-2.67-6.188-1.2,6.188h-1.339l1.339-8.452h1.866l2.67,5.622.8-5.622Zm-12.147,6.907-.268,1.545h-5.607l1.339-8.452h2l-1.331,6.907Zm.4,1.553,1.6-8.452h2l-1.6,8.452Zm-6.41-6.035a2.509,2.509,0,0,1-.535,1.446,2.7,2.7,0,0,1-1.331.88l.933,3.71h-1.736l-.933-3.457h-1.736l-.665,3.457h-1.6l1.339-8.452h3.335a4.038,4.038,0,0,1,2.272.62,2.557,2.557,0,0,1,.658,1.8Zm-2.272-.88a2.259,2.259,0,0,0-1.071-.26h-1.339l-.535,2.425h1.6c.4,0,.933-.107,1.071-.36a1.309,1.309,0,0,0,.535-.926A1.014,1.014,0,0,0,885.648,122.388Zm-5.607-1.545-1.469,8.452h-2l1.469-8.452Zm-6.678,1.652-1.469,3.35h2Zm1.339-1.652,1.339,8.452H874.3l-.268-2.065h-2.67L870.3,129.3h-1.339l3.74-8.452Zm-14.159,4.743-.665,3.71h-1.866l1.339-8.452h1.866l-.535,3.3h2.937l.4-3.3h2l-1.469,8.452h-1.874l.535-3.71Zm-4-4.276a2.519,2.519,0,0,1,1.071,1.446l-1.6.512a1.813,1.813,0,0,0-.666-.88c-.13-.26-.665-.306-1.071-.306l-.933.26-.13.673c0,.413.4.773,1.331,1.132l.665.26c.666.26,1.339.512,1.469.926a2.626,2.626,0,0,1,.535,1.392,2.334,2.334,0,0,1-.933,1.958,3.541,3.541,0,0,1-2.4.773,5.017,5.017,0,0,1-2.54-.673,2.909,2.909,0,0,1-1.071-1.752l1.6-.413a1.684,1.684,0,0,0,.8.926,1.813,1.813,0,0,0,1.339.36,2.148,2.148,0,0,0,.933-.26.817.817,0,0,0,.4-.773c0-.413-.4-.773-1.469-1.132l-.535-.153a3.057,3.057,0,0,1-1.469-.926,2.832,2.832,0,0,1-.535-1.392,3.023,3.023,0,0,1,.665-1.9,4.045,4.045,0,0,1,2.272-.673,4.2,4.2,0,0,1,2.272.62Zm-6.28.926h-4.008l-.405,1.958h3.473l-.13,1.392h-3.6l-.268,2.165H849.6l-.268,1.545h-6.142l1.469-8.452h5.875Zm-7.611,2.425a6.24,6.24,0,0,1-.4,2.218,3.467,3.467,0,0,1-1.339,1.652,1.98,1.98,0,0,1-1.063.566l-1.339.207h-3.6l1.339-8.452h2.67l1.071.107.933.26a2.258,2.258,0,0,1,1.339,1.293A5.37,5.37,0,0,1,842.652,124.66Zm-3.74-2.272h-.933l-1.071,5.362h1.331a2.194,2.194,0,0,0,1.736-.773,4.231,4.231,0,0,0,.268-4.069A1.6,1.6,0,0,0,838.911,122.388Zm-11.619,6.395,3.871-7.94h2l1.339,8.452h-1.866l-.13-2.065h-2.937l-.933,2.065h-6.808l1.469-8.452h1.866l-1.2,6.907h3.6Zm4.544-6.288-1.6,3.35h2ZM791.907,101.1h9.347a4.135,4.135,0,0,1,3.335,1.132,2.965,2.965,0,0,1,.933,2.731,4.831,4.831,0,0,1-1.339,2.318,12.478,12.478,0,0,1-2,1.033,3.64,3.64,0,0,1,2.272,1.392,2.812,2.812,0,0,1,.4,2.371,4.589,4.589,0,0,1-1.071,2.165,8.13,8.13,0,0,1-1.866,1.545,4.856,4.856,0,0,1-2,.513l-2.134.153H789.1Zm17.356,0h4.544l-.535,2.937h-4.406Zm-12.82,3.09-.535,2.937h2.272a2.616,2.616,0,0,0,1.6-.36,1.378,1.378,0,0,0,.666-1.132.96.96,0,0,0-.268-1.033,2.6,2.6,0,0,0-1.6-.413Zm-1.6,9.026h2.4a3,3,0,0,0,2-.512,2.361,2.361,0,0,0,.665-1.132c.268-.413,0-.826-.138-1.086a2.914,2.914,0,0,0-1.866-.467h-2.67ZM808.6,105.33h4.544l-2.272,11.137h-4.406Zm11.619,16.033a2.723,2.723,0,0,1,1.071,1.9l-1.469.36c-.268-.467-.535-.773-.666-1.033a1.707,1.707,0,0,0-1.2-.467l-.665.26-.665.727a3.145,3.145,0,0,0-.4,1.285l-.268,1.545a2.509,2.509,0,0,0,.535,1.446c.138.413.4.62,1.071.62a1.264,1.264,0,0,0,1.071-.52,2,2,0,0,0,.535-1.392h-1.622l.268-1.293h3.335l-.666,4.482h-.933l-.268-.979a1.3,1.3,0,0,1-.8.773,2.955,2.955,0,0,1-1.339.36,3.016,3.016,0,0,1-2.272-1.033,3.573,3.573,0,0,1-.933-2.677l.535-2.111a2.7,2.7,0,0,1,1.071-1.805l1.071-.773a3.221,3.221,0,0,1,1.6-.36A3.978,3.978,0,0,1,820.217,121.363Zm-6.678-.52-1.6,8.452H810.6l-2.807-6.188-1.2,6.188h-1.339l1.6-8.452h1.736l2.54,5.622.8-5.622Zm-11.351,1.652-1.6,3.35h2Zm-4.674-1.132a2.014,2.014,0,0,1,.665,1.545,3.347,3.347,0,0,1-.4,1.293,4.631,4.631,0,0,1-1.331.719,1.318,1.318,0,0,1,.8.773,2.012,2.012,0,0,1,.535,1.186,2.559,2.559,0,0,1-.666,1.805,4.351,4.351,0,0,1-2.54.62h-4.008l1.331-8.452h3.343A3.585,3.585,0,0,1,797.514,121.363Zm-1.071,1.8a.8.8,0,0,0-.535-.673,1.052,1.052,0,0,0-.8-.26h-1.6l-.268,2.065h1.6c.4,0,.933-.107,1.071-.36A.925.925,0,0,0,796.443,123.16Zm-2,2.325H793.1l-.535,2.425h1.866a1.567,1.567,0,0,0,1.071-.36,1.161,1.161,0,0,0,.4-.926.832.832,0,0,0-.4-.773C795.242,125.585,795.112,125.486,794.439,125.486Zm3.075,3.817,4.008-8.452h2l1.339,8.452h-1.736l-.268-2.065h-2.677l-1.071,2.065Z" transform="translate(-728.739 -93.367)" fill="#3d7357"/>
      <path id="Path_8654" data-name="Path 8654" d="M7.611,7.833a26.746,26.746,0,0,1,8.414-5.775A26.249,26.249,0,0,1,26.306,0,25.986,25.986,0,0,1,36.456,2.065,27.166,27.166,0,0,1,45,7.84a25.257,25.257,0,0,1,5.477,8.407,26.859,26.859,0,0,1,2,10.311,27.632,27.632,0,0,1-2,10.311A26.258,26.258,0,0,1,45,45.276a25.282,25.282,0,0,1-8.544,5.668,26.3,26.3,0,0,1-20.431,0,24.7,24.7,0,0,1-8.414-5.668A24.425,24.425,0,0,1,2,36.869,27.7,27.7,0,0,1,0,26.551,26.859,26.859,0,0,1,2,16.239,23.525,23.525,0,0,1,7.611,7.833ZM32.448,25.671l2.67,2.578a2.253,2.253,0,0,0,2.937,0l6.012-4.024-1.6-1.446h8.544l-12.69,9.08c-1.6.872-2.67.979-3.6.207-1.071-.773-1.6-1.239-1.6-1.132-.8-1.132-2-1.293-3.473-.52L21.77,36.242H7.749L21.1,26.191l-19.5.107,2.67-2.585H28.983c1.331-.153,2.4.52,3.465,1.958Z" transform="translate(0)" fill="#e1241a"/>
      <path id="Path_8655" data-name="Path 8655" d="M51.842,300.691l2.67,2.578a2.253,2.253,0,0,0,2.937,0l6.012-4.023-1.6-1.446h8.544l-12.69,9.08c-1.6.872-2.67.979-3.6.207-1.071-.773-1.6-1.239-1.6-1.132-.8-1.132-2-1.293-3.473-.52l-7.879,5.829H27.142L40.5,301.212l-19.5.107,2.67-2.585H48.377c1.331-.153,2.4.52,3.465,1.958Z" transform="translate(-19.394 -275.021)" fill="#fff"/>
    </g>
  </g>
</svg>
