<svg xmlns="http://www.w3.org/2000/svg" width="241" height="85" viewBox="0 0 241 85">
  <g id="_12" data-name="12" transform="translate(2302 2952)">
    <rect id="Rectangle_43" data-name="Rectangle 43" width="241" height="85" transform="translate(-2302 -2952)" fill="none"/>
    <g id="logo-ethiopian-airlines" transform="translate(-2245 -2936.047)">
      <path id="Path_8677" data-name="Path 8677" d="M118.631,397.688a1.718,1.718,0,0,0-.513.067,131.008,131.008,0,0,1-21.325,5.117c-.456.062-.338.277.205.308a106.064,106.064,0,0,0,12.567.687c3.01-.1,5.261.318,7.794-2.369C119.693,399.088,119.729,397.7,118.631,397.688Zm-94.01,1.923-3.707,1.1,1.543,1.1v12.429L20.914,415.3h5.22l-1.513-1.066v-6.553l1.41-.995a4.968,4.968,0,0,1,3.158-1.169c1.328,0,1.754.826,1.754,1.3V415.3h3.707l-1.513-1.067V406.82c0-1.472-.851-2.61-3.3-2.61a6.539,6.539,0,0,0-3.984,1.41l-1.236.964ZM0,400.057l1.513,1.1v13.08L0,415.3H12.188v-2.815l-2.164,1.754H3.707v-6.558H8.065l1.718,1.3v-3.707l-1.718,1.3H3.707v-5.425H9.783l1.959,1.513v-2.61Zm37.6,1.307c-.651,0-1.2.374-1.2.856s.554.892,1.2.892c.661,0,1.2-.41,1.2-.892S38.26,401.364,37.6,401.364Zm32.892,0c-.661,0-1.2.374-1.2.856s.543.892,1.2.892,1.2-.41,1.2-.892S71.152,401.364,70.491,401.364ZM17,402.221l-4.358,3.056H14.8v8.07a2.4,2.4,0,0,0,2.61,2.3,3.323,3.323,0,0,0,2.851-1.41l-.651-.446a2.135,2.135,0,0,1-1.856.892,1.035,1.035,0,0,1-.754-.241v-9.168h3.261v-.856H17Zm30.077,1.989c-3.871,0-6.558,2.723-6.558,5.666.01,2.928,2.687,5.666,6.558,5.666,3.9-.005,6.522-2.738,6.522-5.666S50.976,404.2,47.074,404.21Zm15.039,0c-1.3,0-3.343.185-4.358,1.513v-1.3l-3.707,1.1,1.513,1.067v11.982l-1.513,1.1h5.015l-1.3-1.1V414a5.952,5.952,0,0,0,4.358,1.543c3.2-.005,5.22-3.041,5.22-5.666A5.434,5.434,0,0,0,62.113,404.21Zm17.653,0a10.691,10.691,0,0,0-4.358.856v2.4l2.574-1.887a2.747,2.747,0,0,1,1.784-.513c1.338,0,2.4.738,2.4,1.754v1.953H79.115c-2.8.005-5.22,1.784-5.22,3.912a2.746,2.746,0,0,0,2.815,2.851,4.05,4.05,0,0,0,1.3-.241l4.153-1.753V415.3h3.707l-1.543-1.066V406.82c0-1.682-1.548-2.61-4.563-2.61Zm15.244,0a6.419,6.419,0,0,0-4.122,1.441l-1.1.928V404.42l-3.707,1.1,1.543,1.067v7.655l-1.543,1.066h5.256L89.8,414.239v-6.558l1.3-1.1a4.536,4.536,0,0,1,3.261-1.066c1.759,0,2.2.769,2.2,1.307v8.481h3.707l-1.543-1.066V406.82C98.717,405.82,98.066,404.21,95.01,404.21Zm-56.211.21-3.707,1.1,1.513,1.067v7.655l-1.513,1.066h5.22L38.8,414.239Zm32.9,0-3.707,1.1,1.543,1.067v7.655l-1.543,1.066h5.256L71.7,414.239Zm-24.622.651c2.9,0,3.912,2.523,3.912,4.809,0,2.271-1.01,4.774-3.912,4.774-2.871,0-3.912-2.5-3.912-4.774C43.162,407.594,44.2,405.071,47.074,405.071Zm14.182.205c2.759-.005,3.466,2.569,3.466,4.6s-.713,4.569-3.466,4.569a3.882,3.882,0,0,1-3.5-1.754V407.03A3.828,3.828,0,0,1,61.256,405.276Zm18.51,4.363h2.4v2.851l-3.056,1.3a4.973,4.973,0,0,1-1.3.446,1.528,1.528,0,0,1-1.543-1.754C76.264,410.747,77.669,409.64,79.766,409.64ZM48.623,421.31c-1.415,0-2.933.477-3.4,1.543a2.131,2.131,0,0,0-.169.723c.01.738-.2,1.861.723,2.574l1.3,1.031,1.169.892a.7.7,0,0,1,.41.62v.964l-.928.651h3.092l-.892-.651v-1.031a1.315,1.315,0,0,0-.549-1.236l-1.3-1.031c-.467-.333-.456-.369-.723-.549,0,0,1.051.046,1.543.036,1.969.031,2.876-.451,3.158-1.031a2.752,2.752,0,0,0,.169-1.338,1.85,1.85,0,0,0-.241-1.031C51.53,421.612,50.156,421.31,48.623,421.31Zm7.312,0-2.164.651.892.651v.513h1.784L54.458,425.7a2.45,2.45,0,0,0-.549,1.513v2.436l-.928.651h3.092l-.892-.651v-2.436a1.382,1.382,0,0,1,.277-.892c.108-.144.169-.221.205-.277a.431.431,0,0,1,.205-.138c.328-.087,3.02-.461,3.02.856v2.748c0,.518.261.79.513.79a.976.976,0,0,0,.513-.138,8.031,8.031,0,0,0,.79-.513v.651h2.164l-.892-.651v-1.133h-.62l-1.169.754v-2.61c-.036-1.513-1.918-1.63-3.984-1.374l1.682-2.164v-.513H55.924Zm10.162,0-2.2.651.892.651v.513h1.3v2.164h-3.6v1.271l-.892.651h2.2V425.8h2.3v3.846l-.892.651H68.26l-.892-.651V425.8h2.3v1.41h2.2l-.892-.651v-1.271h-3.6v-2.061c0-.513-.231-.62-.62-.62H66.1v-1.3Zm9.752,0c-1.41,0-2.943.477-3.4,1.543a2.173,2.173,0,0,0-.205.723c.021.738-.164,1.861.754,2.574l1.3,1.031,1.169.892a.658.658,0,0,1,.379.62v.964l-.892.651h3.092l-.928-.651v-1.031a1.3,1.3,0,0,0-.549-1.236L75.3,426.36c-.467-.333-.456-.369-.723-.549,0,0,1.025.046,1.513.036,1.979.031,2.887-.451,3.158-1.031a1.609,1.609,0,0,0,.138-.41h.549v1.41h2.2l-.892-.651v-1.272H79.458v-.41a1.943,1.943,0,0,0-.241-1.031C78.761,421.612,77.392,421.31,75.849,421.31Zm11.024,0-2.164.651.892.651c-1.318,0-2.692.538-2.748,1.784-.051,1.19.815,1.784,1.989,1.82l-1.3.446a1.541,1.541,0,0,0-1.169,1.718v1.272l-.892.651H84.57l-.892-.651v-1.169c0-.369-.067-.661.513-.856,0,0,2.092-.728,2.2-.754,1.02.072,1.887.133,1.887,1.272v1.513l-.892.651h3.092l-.892-.651v-1.513c0-1.461-1.072-1.661-1.959-1.753.118-.041.446-.169.549-.205,1.164-.426,1.446-.918,1.477-1.754V424.4h.513v1.41h2.164l-.892-.651v-1.272H89.58c-.185-.646-.841-1.241-2.712-1.272Zm9.752,0c-1.41,0-2.907.477-3.364,1.543a2.3,2.3,0,0,0-.205.723c.01.738-.159,1.861.754,2.574l2.815,2.266-4.087.344v.892l-.892.651H94.7l-.892-.651v-.482l4.635-.41v-.513l-3.056-2.435s1.015.046,1.513.036c1.969.031,2.9-.451,3.158-1.031a2.694,2.694,0,0,0,.205-1.338,1.766,1.766,0,0,0-.241-1.031C99.578,421.612,98.168,421.31,96.625,421.31Zm-48,.518c1.272-.015,2.251.272,2.23,1.543v.482a1.218,1.218,0,0,1-1.272,1.338,12.794,12.794,0,0,1-2.712.036c-.543-.108-.456-1.031-.446-1.338v-.41C46.443,422.4,47.3,421.838,48.623,421.828Zm27.226,0c1.272-.015,2.215.272,2.2,1.543v.482a1.218,1.218,0,0,1-1.272,1.338,12.458,12.458,0,0,1-2.676.036c-.533-.108-.467-1.031-.446-1.338v-.41c.01-1.077.882-1.641,2.195-1.651Zm20.776,0c1.272-.015,2.251.272,2.23,1.543v.482a1.218,1.218,0,0,1-1.272,1.338,12.459,12.459,0,0,1-2.676.036c-.533-.108-.456-1.031-.446-1.338v-.41C94.471,422.4,95.312,421.838,96.625,421.828ZM86.252,423.1c1.748-.036,2.082.533,2.061,1.133-.01.385-.005.749-.856,1.066-.164.061-.82.292-1.374.482-1.436-.036-1.856-.267-1.856-1.41C84.227,423.243,85.534,423.114,86.252,423.1Z" transform="translate(0 -377.252)" fill="#c8332f"/>
      <path id="Path_8678" data-name="Path 8678" d="M1840.379,246.445c7-1.779,24.519-11.2,27.119-12.87,1.282-.8,2.7-.323.436,3.364-1.543,2.266-2.6,3.584-6.717,4.83a118.449,118.449,0,0,1-20.663,5.009c-.544.051-.718-.149-.175-.333" transform="translate(-1745.703 -221.241)" fill="#ffcb08"/>
      <path id="Path_8679" data-name="Path 8679" d="M1843.523,24.712c6.107-2.143,19.4-9.142,23.935-11.921,3.261-1.984,5.783-3.451,6.768-5.937,2.107-5.681.492-8-1.508-6.219-2.553,2.482-14.577,15.095-29.964,23.96-.23.128-.261.436.769.118" transform="translate(-1748.144 0)" fill="#5e8f4d"/>
    </g>
  </g>
</svg>
