<svg xmlns="http://www.w3.org/2000/svg" width="241" height="85" viewBox="0 0 241 85">
  <g id="_13" data-name="13" transform="translate(2040 2952)">
    <rect id="Rectangle_43" data-name="Rectangle 43" width="241" height="85" transform="translate(-2040 -2952)" fill="none"/>
    <g id="qatar-airways-1" transform="translate(-2013 -2935.956)">
      <path id="Path_8691" data-name="Path 8691" d="M203.98,287.405q-.6.044-1.2.044c-.458,0-.9-.044-1.344-.044l1.329-3.19Zm1.462,3.618c.236-.015.591-.074.96-.074s.812.059,1.019.074c-.591-1.255-1.447-3.219-1.935-4.342-.473-1.093-1.241-2.909-1.861-4.682a1.334,1.334,0,0,1-.414.059,2,2,0,0,1-.428-.059,58.291,58.291,0,0,1-2.378,5.686l-1.506,3.338a3.4,3.4,0,0,1,.576-.074,3.76,3.76,0,0,1,.62.074,27.663,27.663,0,0,1,1.034-2.806c.517-.03,1.034-.044,1.551-.059.561,0,1.108.03,1.669.059l.546,1.373Zm3.116-5.892c0,2.215,0,4.357-.148,5.892.281-.015.65-.074.93-.074s.605.059.916.074c-.1-1.049-.133-2.451-.133-4.386a42.7,42.7,0,0,1,.148-4.519,6.728,6.728,0,0,1-.916.074c-.192,0-.679-.059-.916-.074a29.738,29.738,0,0,1,.118,3.013m7.709,1.492a2.452,2.452,0,0,0,2.26-2.392,2.007,2.007,0,0,0-.591-1.447,2.677,2.677,0,0,0-2.038-.635c-.3,0-1.8.059-2.141.059-.665,0-1-.044-1.3-.059.089,1.669.089,1.861.089,3.559,0,2.5-.015,2.791-.118,5.346a5.818,5.818,0,0,1,.886-.074,7.393,7.393,0,0,1,.871.074c0-.34-.059-2.008-.059-2.392v-1.846h.31c.694.989,1.506,2.127,2.171,3.146.192.3.487.783.679,1.078a5.457,5.457,0,0,1,1.049-.074c.473,0,.8.044,1.152.074-.812-1.019-1.167-1.477-2.186-2.909-.192-.266-.487-.694-.679-.975Zm-2.127-3.8c.192-.015.679-.074.916-.074a1.951,1.951,0,0,1,1.211.325,1.492,1.492,0,0,1,.546,1.344,1.669,1.669,0,0,1-1.772,1.787c-.34,0-.65-.03-.9-.044ZM223.016,288c-.605-1.8-1.447-4.327-1.861-5.863a6.526,6.526,0,0,1-.9.074c-.31,0-.753-.044-1.019-.074.532,1.4.989,2.643,1.344,3.633.591,1.684.989,2.85,1.447,4.283l.325.989a2.413,2.413,0,0,1,.532-.074,2.442,2.442,0,0,1,.487.074c.207-.679.458-1.506.635-2.038.5-1.477.576-1.684,1.226-3.53l.384-1.078.532,1.492c.148.4.812,2.392.96,2.836.207.576.266.753.738,2.319a4.364,4.364,0,0,1,.561-.074,3.353,3.353,0,0,1,.517.074c.487-1.536.546-1.7,1.27-3.781.709-2.023,1.152-3.175,1.935-5.125a2.289,2.289,0,0,1-1.181,0c-.473,1.684-.694,2.511-1.078,3.618-.605,1.816-.694,2.023-1.063,3.013-.413-1.122-.812-2.245-1.2-3.382-.207-.62-1-3.219-1-3.249a2.024,2.024,0,0,1-.576.074,3.045,3.045,0,0,1-.576-.074c-.384,1.58-1.757,5.39-1.89,5.745l-.325.842Zm13.085-.591q-.6.044-1.2.044c-.458,0-.9-.044-1.344-.044l1.314-3.19Zm1.477,3.618c.236-.015.605-.074.96-.074s.812.059,1,.074c-.576-1.255-1.433-3.219-1.935-4.342-.473-1.093-1.241-2.909-1.861-4.682a1.334,1.334,0,0,1-.414.059A2,2,0,0,1,234.9,282a58.3,58.3,0,0,1-2.378,5.686l-1.506,3.338a3.392,3.392,0,0,1,.591-.074,3.76,3.76,0,0,1,.62.074,27.657,27.657,0,0,1,1.034-2.806c.517-.03,1.034-.044,1.551-.059.561,0,1.108.03,1.654.059l.546,1.373Zm5.435-3.471a.99.99,0,0,1,.162-.413c.546-.93,1.049-1.905,1.639-2.835.192-.31,1.137-1.816,1.344-2.171a1.347,1.347,0,0,1-.546.074,4.338,4.338,0,0,1-.753-.074,34.959,34.959,0,0,1-2.245,4.386c-1.108-1.935-1.595-2.954-2.274-4.386a5.154,5.154,0,0,1-1.063.074c-.281,0-.591-.03-1.063-.074.679,1.122,1.772,2.924,2.437,4.061l.768,1.329c0,.812-.044,2.5-.074,3.515a8.311,8.311,0,0,1,.871-.074c.3,0,.606.044.9.074-.059-1.211-.089-1.905-.089-3Zm3.884,1.536a4.95,4.95,0,0,1-.3,1.462,5.246,5.246,0,0,0,2.422.665c2.378,0,3.293-1.521,3.293-2.835a2.574,2.574,0,0,0-.635-1.713,4.048,4.048,0,0,0-1.757-.945c-1.137-.443-1.8-.694-1.8-1.639a1.372,1.372,0,0,1,1.536-1.4,1.62,1.62,0,0,1,1.7,1.122h.177a6.8,6.8,0,0,1,.4-1.226,4.778,4.778,0,0,0-2.156-.532c-2.348,0-3.027,1.447-3.027,2.6a2.253,2.253,0,0,0,1.639,2.3c.369.162.975.384,1.329.546a1.565,1.565,0,0,1,1.063,1.492,1.6,1.6,0,0,1-1.7,1.624c-.768,0-1.418-.192-2.008-1.492H246.9Z" transform="translate(-169.526 -240.391)" fill="#505967"/>
      <path id="Path_8692" data-name="Path 8692" d="M5.331,83.917c0-9.806,5.257-12.45,9.215-12.45,6.38,0,9.141,5.287,9.141,10.928,0,3.234-.384,6.262-1.979,8.713a8.481,8.481,0,0,1-7.118,3.928c-7.192,0-9.26-6.852-9.26-11.12m19.376,20.04a29.265,29.265,0,0,1,4.312-2.407l-8.787-5.464c5.405-1.905,8.787-6.734,8.787-13.306,0-9.333-7.118-13.306-14.4-13.306C6.764,69.474,0,73.83,0,83.725A13.265,13.265,0,0,0,3.736,93.1c3.382,3.426,7.4,3.928,10.781,3.928a12.451,12.451,0,0,0,1.285-.044ZM47.169,85.63c-1.211.074-2.378.162-3.589.162-1.359,0-2.688-.118-4.046-.162l3.973-9.57Zm4.4,10.855c.694-.044,1.787-.236,2.88-.236s2.452.192,3.042.236c-1.757-3.781-4.312-9.644-5.8-13.04-1.4-3.264-3.736-8.713-5.6-14.044a4.52,4.52,0,0,1-1.241.192,4.581,4.581,0,0,1-1.285-.192c-.93,3.19-3.19,8.255-7.118,17.042L31.929,96.485a11.779,11.779,0,0,1,1.757-.236,13.3,13.3,0,0,1,1.861.236,86.393,86.393,0,0,1,3.116-8.447c1.551-.074,3.116-.148,4.667-.148,1.669,0,3.308.074,4.977.148l1.624,4.12Zm17.264-19.73c0-1.477.044-2.954.074-4.357,2.688,0,5.449.044,7.738.266a7.273,7.273,0,0,1-.192-1.4,10.005,10.005,0,0,1,.192-1.477c-3.736.192-7.163.236-10.382.236-3,0-7.31-.044-10.382-.236a6.068,6.068,0,0,1,.192,1.433,5.968,5.968,0,0,1-.192,1.433c1.994-.192,5.715-.266,6.07-.266H63.9c.044,1.521.074,2.88.074,4.327l.044,10.855c0,2.954-.236,5.952-.384,8.905,1.4-.148,1.979-.236,2.643-.236.473,0,1.713.118,2.835.236a42.074,42.074,0,0,1-.266-5.331Zm21.65,8.876c-1.211.074-2.378.162-3.574.162-1.359,0-2.688-.118-4.046-.162l3.973-9.57Zm4.4,10.855c.694-.044,1.787-.236,2.88-.236s2.452.192,3.042.236C99.05,92.7,96.495,86.841,95,83.444c-1.4-3.264-3.736-8.713-5.6-14.044a4.52,4.52,0,0,1-1.241.192,4.581,4.581,0,0,1-1.285-.192c-.93,3.19-3.19,8.255-7.118,17.042L75.244,96.485A11.779,11.779,0,0,1,77,96.248a13.3,13.3,0,0,1,1.861.236,82.709,82.709,0,0,1,3.116-8.447c1.551-.074,3.116-.148,4.667-.148,1.669,0,3.308.074,4.977.148l1.639,4.12Zm21.591-13.232c3.544-.665,6.764-2.88,6.764-7.192a6.033,6.033,0,0,0-1.787-4.357c-1.684-1.595-3.589-1.92-6.114-1.92-.9,0-5.405.192-6.424.192a37.762,37.762,0,0,1-3.884-.192c.266,5.021.266,5.568.266,10.663,0,7.517-.044,8.359-.354,16.023a19.98,19.98,0,0,1,2.688-.236,24.546,24.546,0,0,1,2.6.236c0-1.019-.148-6.025-.148-7.163V83.784h.93c2.1,2.954,4.519,6.38,6.5,9.452.576.9,1.433,2.333,2.023,3.234a19.12,19.12,0,0,1,3.146-.236,28.931,28.931,0,0,1,3.471.236c-2.451-3.072-3.5-4.43-6.572-8.757-.591-.812-1.433-2.1-2.023-2.924ZM110.1,71.9c.576-.044,2.023-.192,2.762-.192a5.88,5.88,0,0,1,3.618.975c1.359,1.019,1.639,2.407,1.639,4.046,0,2.525-1.433,5.376-5.331,5.376-1.019,0-1.949-.074-2.688-.118Z" transform="translate(0 -59.188)" fill="#5c0632"/>
      <path id="Path_8693" data-name="Path 8693" d="M928.765,67.132c0,.251-3.515.487-8.551.679a11.489,11.489,0,0,1-2.053-1.447c6.1.222,10.6.487,10.6.768m-3.618-8.492c0,.207-2.954.4-7.177.576.62-.369,1.255-.724,1.89-1.063,3.19.148,5.287.31,5.287.487M893.705,76.909c-1.949.03-3.663.03-5.006.03-1.92,0-3.485-.591-3.485-1.329s1.565-1.329,3.485-1.329c1.7,0,4.017.015,6.66.044-1.019,1.477-1.506,2.363-1.565,2.422Zm1.048,1.772a17.831,17.831,0,0,0,2.082,2.141s.31.443,1.255.059a5.975,5.975,0,0,0,2.7-2.156c2.688.044,5.538.1,8.344.162.236.34.694,1.034,1.27,1.89-7.812.207-16.3.325-20.661.325-1.817,0-3.278-.561-3.278-1.255s1.462-1.255,3.278-1.255c1.329,0,3.027.015,4.977.03.03.044.03.059.03.059m-3.027,6.528c-1.61,0-2.909-.5-2.909-1.108s1.3-1.108,2.909-1.108c4.253,0,12.966.133,20.424.34.354.517.724,1.034,1.063,1.506-7.68.222-17.028.369-21.488.369m24.8,3.544c-6.262.281-17.042.458-21.532.458-1.255,0-2.289-.4-2.289-.871s1.019-.871,2.289-.871c4.283,0,14.34.162,20.69.428.3.3.576.591.842.857M900.174,91.1c3.692,0,14.96.281,14.96.62s-11.253.62-14.96.62c-.724,0-1.3-.281-1.3-.62s.576-.62,1.3-.62m.044-22.758c-4.652.074-8.831.118-11.5.118-1.92,0-3.485-.591-3.485-1.329s1.565-1.329,3.485-1.329c3.116,0,8.241.059,13.793.162-.8.768-1.551,1.565-2.289,2.378m22.832-5.937c2.732.148,4.445.31,4.445.473,0,.192-2.082.369-5.287.517a2.377,2.377,0,0,0,.842-.989m-33.273,1.728c-1.816,0-3.279-.561-3.279-1.255s1.462-1.255,3.279-1.255c3.722,0,10.456.089,17.22.236-.8.679-1.58,1.359-2.363,2.068-5.937.133-11.578.207-14.857.207m20.2-4.667c-6.911.177-14.4.281-18.253.281-1.61,0-2.909-.487-2.909-1.108s1.3-1.108,2.909-1.108c4.238,0,12.937.133,20.395.34-.369.266-.738.546-1.122.827-.34.266-.679.517-1.019.768M895,55.273c-1.255,0-2.289-.384-2.289-.871s1.019-.871,2.289-.871c4.755,0,16.614.207,22.639.5-.384.251-.768.517-1.152.768-6.291.281-17.028.473-21.487.473m-6.66,17.456c-1.964,0-3.544-.605-3.544-1.359s1.6-1.344,3.544-1.344c2.451,0,6.129.03,10.293.1-.709.827-1.388,1.669-2.038,2.54-3.323.03-6.217.059-8.255.059M898.859,51.02c0-.34.576-.62,1.3-.62,3.692,0,14.96.281,14.96.62s-11.253.62-14.96.62c-.709,0-1.285-.281-1.3-.62" transform="translate(-754.132 -42.994)" fill="#747f8a"/>
      <path id="Path_8694" data-name="Path 8694" d="M667.642,27.372a17.915,17.915,0,0,1-.015,1.994c-6.557.266-12.76.65-12.76,1.093s6.07.827,12.553,1.078c-.118.738-.266,1.477-.443,2.2-6.38.266-12.3.65-12.3,1.078s5.523.8,11.652,1.049a21.828,21.828,0,0,1-.96,2.274c-5.257.251-9.6.591-9.6.96,0,.34,3.8.665,8.58.9-.266.428-.546.857-.842,1.27-.325.443-.65.886-1,1.314-3,.222-5.051.487-5.051.768,0,.236,1.477.458,3.736.665a22.254,22.254,0,0,1-4.416,3.367,35.854,35.854,0,0,1-3.707-3.781c-1.492-1.816-4.667-6.616-5.405-7.694s-1.24-1.388-2.112-1.078a11.572,11.572,0,0,1-2.954.62c-.428,0-.65-.162.059-.443a9.8,9.8,0,0,0,4.814-4.283c1.521-3.027.177-7.222.177-7.222a5.248,5.248,0,0,1-1.684,3.072,6.566,6.566,0,0,0-1.063-5.287l-.576,2.629s-.354-.015-1.241.724a3.707,3.707,0,0,0-1.122,1.831c.694.281,1.536-.414,1.536-.414a33.965,33.965,0,0,1-3.722,8.994,6.4,6.4,0,0,1-3.16,2.835c-.945.384-1.255-.059-1.255-.059a16.772,16.772,0,0,1-2.082-2.141s-.059-.089.118-.089c.458,0,1.285-.783,1.462-1.108.207-.369.177-.665.074-.679s-.281.281-1.167.842-1.285.177-1.58-.133c-.221-.251,0-.561.133-.753s4.814-8.89,17.19-18.061C665.723,3.7,676.09.45,676.68.214c.4-.148,1.034-.354,1.181-.207a.608.608,0,0,1,.221.5c-.015.192-.118.3-.871.62A141.363,141.363,0,0,0,659.594,11.1a84.185,84.185,0,0,0-10.1,6.1c-.384.236-.1.591.133.443,8.58-5.7,18.623-9.585,29.743-12.774.532-.148.827-.148.916-.03a.812.812,0,0,1,.162.443c.015.207-.148.31-.606.487q-17.9,6.646-26.391,12.361s-.591.354-.591.768c0,.162.31.177.31.177,2.835.044,6.616.222,8.418.325,0,0-.251.916-1.979,1.654a9.28,9.28,0,0,1-3.781.487.337.337,0,0,0-.281.561c.059.148,2.658,4.327,12.1,5.272m-86.5,21.857h-1.595s-.221-.989.369-1.359a9.619,9.619,0,0,1,1.24-.679Zm7.591-3.677a11.215,11.215,0,0,0-1.58,1.108c-.605.546.133.753.133.753v1.831h-4.637V42.834s-1.7,1.551-1.846,1.757.4.414.4.414l-.089.605s-.679.354-1.492.9-1.418,1.241-1.418,1.728S578,50.617,578,50.617h10.751V45.552ZM579.122,43.2c.532,0,.9-.207.9-.635s-.251-.724-.9-.724c-.576,0-.738.251-.738.724s.207.635.738.635m1.979,0c.532,0,.9-.207.9-.635s-.251-.724-.9-.724c-.591,0-.739.251-.739.724s.207.635.739.635m3,7.975c-.576,0-.738.251-.738.709s.207.635.738.635.9-.207.9-.635-.236-.709-.9-.709m2.053,0c-.576,0-.738.251-.738.709s.207.635.738.635.9-.207.9-.635-.236-.709-.9-.709m23.186-8.093c.532,0,.9-.207.9-.62s-.251-.724-.9-.724c-.576,0-.738.251-.738.724s.207.62.738.62m2.053,0c.532,0,.9-.207.9-.62s-.251-.724-.9-.724c-.576,0-.738.251-.738.724s.207.62.738.62m5.671.177c-.3.251-.207.546.162.5v6.882h1.536V42.081s-1.4.93-1.7,1.181m-6.114,3.854h-.989c0-.546.989-.842.989-.842Zm-6.5,1.137c0,.251-.015.65-.029.989h-8.61V47.723c.222-.576.605-.65,1.2-.65H603.3c1.359,0,1.152.709,1.152,1.181m10.072-4.49v5.479h-2.053V44.267s-.414.162-.989.414-2.629,1.093-2.629,2.23v1.314h2.1v1.019h-4.977c0-.236.015-.591.015-1.108a2.549,2.549,0,0,0-2.629-2.525H597.6a2.421,2.421,0,0,0-1.772.517V41.919s-.9.635-1.565,1.137,0,.842,0,.842v5.346h-1.89l-.044-4.593s-1.314.96-1.684,1.255-.162.546.251.546c0,0-.074,3.382-.074,4.194a1.428,1.428,0,0,1-2.068,1.3s-.443.089-.074.428a1.968,1.968,0,0,0,1.314.591,2.286,2.286,0,0,0,2.3-2.319h23.747V42.1s-1.4.93-1.684,1.167-.207.546.162.5" transform="translate(-492.64)" fill="#5c0632"/>
    </g>
  </g>
</svg>
