<svg xmlns="http://www.w3.org/2000/svg" width="241" height="85" viewBox="0 0 241 85">
  <g id="_14" data-name="14" transform="translate(1778 2952)">
    <rect id="Rectangle_1923" data-name="Rectangle 1923" width="241" height="85" transform="translate(-1778 -2952)" fill="none"/>
    <g id="Fly_Dubai_logo_2010_03" transform="translate(-1752.703 -2929.027)">
      <path id="Path_8675" data-name="Path 8675" d="M46.762,8.223V25.4c0,1.581-.686,3.945-7.006,3.945s-7.007-2.364-7.007-3.945V8.223h-3.59V25.594c0,4.253,3.492,6.106,9.973,6.106a26.687,26.687,0,0,0,7.591-1.081v7.764h3.534l-.019-30.16H46.762ZM14.2.027c-3.784,0-9.4.795-9.4,4.692v3.5H.7v2.01H4.8V31.154H8.238V10.233h5.409l0-2.01H8.238V5.151c0-2.992,3.46-3.468,5.96-3.468,4.138,0,6.2.315,6.2,4.886l0,24.585h3.435V.58H20.395c-1.914,0-2.838-.553-6.2-.553Zm171.065,10.39a3.812,3.812,0,1,0,3.775,3.809A3.788,3.788,0,0,0,185.263,10.417Z" transform="translate(0 0)" fill="#ff8200" fill-rule="evenodd"/>
      <path id="Path_8676" data-name="Path 8676" d="M148.517,13.19a64.877,64.877,0,0,1,6.571-.461c-.83-3.228-4.62-4.49-10.874-4.49a31.653,31.653,0,0,0-10.223,1.882v4.484s3.34-2.714,10.316-2.714c2.285,0,3.546.412,4.21,1.3ZM65.166,24.458c-.194,2.485-2.846,3.829-5.423,3.829-5.581,0-6.363-2.449-6.363-8.043s1.094-8.031,6.089-8.031c3.237,0,5.5,1.336,5.7,3.819.155,2.008.236,3.034.236,4.212s-.081,2.326-.236,4.214ZM65.4,9.609a16.8,16.8,0,0,0-6.91-1.379c-8.7,0-11.356,3.312-11.356,12.014,0,8.666,3.9,12.017,12.607,12.017,5.3,0,9.161-2,11.9-2V1.141H65.4V9.609Zm101.333-.846-6.244,0v3.78h6.244V8.763ZM149.244,24.4c0,3.274-3.035,4.1-5.114,4.1-3.546,0-5.362-1.077-5.362-3.4,0-3.914,4.974-5.928,10.476-6.263V24.4Zm18.805-9.621-1.813,0c-25.313,0-33.516,4.745-33.516,10.17,0,5.039,4.293,7.25,11.241,7.25,4.483,0,9.021-1.955,11.395-1.955V18.032c2.961-.378,5.175-.439,5.175-.439V31.718h6.239V21.085a15.017,15.017,0,0,1,1.28-6.3ZM116.836,28.287c-2.578,0-5.229-1.344-5.423-3.829-.155-1.887-.234-3.033-.234-4.214s.079-2.2.234-4.214c.194-2.481,2.462-3.817,5.7-3.817,4.993,0,6.087,2.444,6.087,8.031s-.781,8.043-6.363,8.043Zm1.249-20.056a16.776,16.776,0,0,0-6.906,1.379V1.141h-6.244V30.258c2.74,0,6.593,2,11.9,2,8.7,0,12.607-3.351,12.607-12.017,0-8.7-2.656-12.014-11.358-12.014ZM93.544,24.616c0,1.581-.511,3.94-5.193,3.94s-5.186-2.359-5.186-3.94V8.784H76.916V26.155c0,4.253,4.33,6.106,10.815,6.106,5.734,0,9.437-1.773,11.273-1.971l.781-.082V8.784h-6.24V24.616Z" transform="translate(9.325 0.224)" fill="#006496" fill-rule="evenodd"/>
    </g>
  </g>
</svg>
