<svg xmlns="http://www.w3.org/2000/svg" width="241" height="85" viewBox="0 0 241 85">
  <g id="_15" data-name="15" transform="translate(1778 3056)">
    <rect id="Rectangle_1925" data-name="Rectangle 1925" width="241" height="85" transform="translate(-1778 -3056)" fill="none"/>
    <path id="Path_8741" data-name="Path 8741" d="M188.09,108.629c-2.32,6.525-8.555,10.729-18.848,10.729-8.555,0-16.965-4.928-14.789-16.383,1.594-9.713,10.439-16.093,20.588-16.093,11.309,0,16.383,7.684,14.5,16.817l-.436,2.031H167.791a19.244,19.244,0,0,0-.289,2.318c0,2.756,1.449,3.77,3.189,3.77a4.923,4.923,0,0,0,4.494-3.189Zm-10.875-9.277.146-.727c.434-2.465-.727-4.2-3.189-4.2-2.32,0-4.352,1.6-4.93,4.931h7.973ZM152.424,87.461a9.284,9.284,0,0,0-7.686,4.205h-.289l.58-3.915H131.256l-.871,4.06,7.539-.87-.145.726-7.684,1.305-5.365,25.517h14.789s1.449-7.395,2.465-11.6c1.449-6.959,5.219-8.408,7.684-8.408a5.768,5.768,0,0,1,3.77,1.16L155.9,88.332a6.84,6.84,0,0,0-3.479-.871ZM17.877,100.51C11.933,98.625,7.438,95.146,7.438,88.477c0-9.714,9.714-15.224,22.763-15.369,10.874,0,18.268,4.64,16.963,13.774H31.5c.58-2.465-.87-3.915-3.625-3.915-2.03,0-3.625,1.015-3.915,2.32-.29,1.74.87,2.9,3.625,3.625,2.32.725,3.915,1.16,6.234,1.74,6.669,2.03,9.859,5.944,10.584,10l-19.573,2.029-6.958-2.176Zm.58,10.584,1.305-6.234H2.944c-1.16,10.439,7.1,14.789,17.833,14.789,10.148,0,21.022-3.48,23.343-12.76l-25.663,4.205Zm87.137-21.168A13.671,13.671,0,0,1,114,86.882c4.494,0,7.975,1.885,9.568,5.509L89.354,96.016l4.5-21.748h14.788L105.3,89.926h.291Zm-.871,7.105a16.832,16.832,0,0,0-2.32,5.943c-1.305,6.09.146,7.686,1.887,7.686,2.463,0,4.494-2.32,5.508-7.541.58-3.334.436-5.8-.434-6.813l14.787-2.32a17.359,17.359,0,0,1,.146,8.7c-2.176,11.018-8.846,16.672-16.238,16.672-3.336,0-7.105-.869-8.555-4.494h-.436l-1.16,3.625H84.57l3.915-18.848,16.238-2.61ZM67.751,107.615c-.435,2.318-2.029,4.2-4.2,4.2s-3.045-1.738-2.755-3.623c.435-1.6,2.03-3.191,5.075-3.191h2.464l-.58,2.611ZM63.982,97.031a4,4,0,0,1,3.77-3.335,2.349,2.349,0,0,1,2.175,3.191l-.145,1.158L83.555,96.6c-1.015-7.1-7.539-10.149-15.224-10.149-11.454,0-16.963,5.654-18.123,10.729l-.145.724H63.837l.145-.869Zm-16.963,9.424a11.07,11.07,0,0,0-.725,3.914c0,4.785,3.625,8.988,9.714,8.988,5.509,0,8.7-2.318,10.149-3.914H66.3l-.29,3.045H79.931l3.334-16.094c.145-.58.29-1.305.435-1.885l-36.681,5.946Z" transform="translate(-1753.835 -3110.108)" fill="#cc2131" fill-rule="evenodd"/>
  </g>
</svg>
