<svg xmlns="http://www.w3.org/2000/svg" width="241" height="85" viewBox="0 0 241 85">
  <g id="_17" data-name="17" transform="translate(1513 2952)">
    <g id="Group_7485" data-name="Group 7485">
      <rect id="Rectangle_1927" data-name="Rectangle 1927" width="241" height="85" transform="translate(-1513 -2952)" fill="none"/>
    </g>
    <g id="Travelport_logo" transform="translate(-6970.999 -11847)">
      <g id="Group_7470" data-name="Group 7470" transform="translate(5475.999 8925)">
        <path id="Path_8725" data-name="Path 8725" d="M461.143,478.257a12.424,12.424,0,1,0,12.423,12.423,12.424,12.424,0,0,0-12.423-12.423Zm2.037,18.448-3.235,3.235V488.317l3.235,3.235Zm4.507-8.382-3.235,3.235v-4.514H453.467l3.235-3.235h10.985Z" transform="translate(-448.719 -478.257)" fill="#080808"/>
        <g id="Group_7469" data-name="Group 7469" transform="translate(34.722 5.242)">
          <path id="Path_8726" data-name="Path 8726" d="M895,505.92,890.4,517.7l-4.62-11.778h-3.05l5.946,15.017H892.1l5.945-15.017Z" transform="translate(-830.123 -505.596)" fill="#080808"/>
          <path id="Path_8727" data-name="Path 8727" d="M981.875,505.92v15.017h10.218v-2.573h-7.622v-3.654h6.062v-2.574h-6.062v-3.64h7.623V505.92Z" transform="translate(-909.32 -505.596)" fill="#080808"/>
          <path id="Path_8728" data-name="Path 8728" d="M1062.92,505.92v15.017h10.218v-2.573h-7.622V505.92Z" transform="translate(-974.059 -505.596)" fill="#080808"/>
          <path id="Path_8729" data-name="Path 8729" d="M1145.483,512.589h-4.3v-4.1h4.3a2.053,2.053,0,1,1,0,4.1m.166-6.673h-7.065v15.017h2.594v-5.77h4.467a4.626,4.626,0,1,0,0-9.246" transform="translate(-1034.497 -505.593)" fill="#080808"/>
          <path id="Path_8730" data-name="Path 8730" d="M1222.7,517.405a4.957,4.957,0,0,1-5.09-5.213,5.1,5.1,0,1,1,10.182,0,4.971,4.971,0,0,1-5.092,5.213m.023-13.086a7.83,7.83,0,1,0,7.8,7.873,7.631,7.631,0,0,0-7.8-7.873" transform="translate(-1095.439 -504.317)" fill="#080808"/>
          <path id="Path_8731" data-name="Path 8731" d="M1323.13,512.593h-4.387V508.5h4.387a2.055,2.055,0,1,1,0,4.1m4.8-2.061a4.387,4.387,0,0,0-4.632-4.611h-7.149v15.017h2.594v-5.77h3.867l2.594,5.792h2.825l-2.825-6.136a4.362,4.362,0,0,0,2.721-4.291" transform="translate(-1176.33 -505.597)" fill="#080808"/>
          <path id="Path_8732" data-name="Path 8732" d="M728.142,512.593h-4.387V508.5h4.387a2.054,2.054,0,1,1,0,4.1m4.8-2.061a4.388,4.388,0,0,0-4.633-4.611h-7.149v15.017h2.594v-5.77h3.868l2.594,5.792h2.825l-2.825-6.136a4.362,4.362,0,0,0,2.722-4.291" transform="translate(-701.062 -505.597)" fill="#080808"/>
          <path id="Path_8733" data-name="Path 8733" d="M1391.991,505.92l-2.574,2.575h6.531v12.442h2.594V508.495h4.771l2.574-2.575Z" transform="translate(-1234.858 -505.596)" fill="#080808"/>
          <path id="Path_8734" data-name="Path 8734" d="M809.025,508.905l2.632,6.883h-5.276Zm-1.547-2.985-5.9,15.017H804.4l.988-2.573h7.25l.984,2.573h2.846l-5.92-15.017Z" transform="translate(-765.301 -505.596)" fill="#080808"/>
          <path id="Path_8735" data-name="Path 8735" d="M623.855,505.92l-2.574,2.575h6.531v12.442h2.594V508.495h4.771l2.575-2.575Z" transform="translate(-621.281 -505.596)" fill="#080808"/>
        </g>
      </g>
    </g>
  </g>
</svg>
