<svg xmlns="http://www.w3.org/2000/svg" width="241" height="85" viewBox="0 0 241 85">
  <g id="_18" data-name="18" transform="translate(1255 2952)">
    <g id="Group_7486" data-name="Group 7486">
      <rect id="Rectangle_1928" data-name="Rectangle 1928" width="241" height="85" transform="translate(-1255 -2952)" fill="none"/>
      <g id="Travelfusion-Logo-colour-high-res-01" transform="translate(-1260.96 -2946.464)">
        <path id="Path_8712" data-name="Path 8712" d="M550.583,97.573c-2.176,0-4.352.018-6.53-.011-.578-.009-.653.2-.524.685.577,2.176,2.218,3.366,4.744,3.38,2.935.016,5.87.026,8.8,0,.588,0,.728.177.7.726-.043.863-.026,1.725,0,2.588.007.351-.062.509-.466.506-3.08-.016-6.161.018-9.241-.022a10.157,10.157,0,0,1-3.722-.723,6.962,6.962,0,0,1-4.231-4.733,14.833,14.833,0,0,1,.134-8.955,6.827,6.827,0,0,1,4.855-4.632,11.834,11.834,0,0,1,8.238.437,6.955,6.955,0,0,1,3.849,4.611,18.861,18.861,0,0,1,.578,5.784c0,.439-.283.37-.541.37Q553.909,97.573,550.583,97.573Zm-1.931-3.82h4.733c.2,0,.5.1.414-.313a4.281,4.281,0,0,0-1.725-2.865,6.29,6.29,0,0,0-4.179-.863,4.327,4.327,0,0,0-4.33,3.4c-.123.473-.071.664.477.653C545.578,93.733,547.115,93.753,548.652,93.753Z" transform="translate(-446.749 -54.698)" fill="#63a6d5"/>
        <path id="Path_8713" data-name="Path 8713" d="M241.664,95.932c-.06,1.18.1,2.783-.075,4.378a4.871,4.871,0,0,1-3.839,4.436,13.158,13.158,0,0,1-8.625-.278,4.88,4.88,0,0,1-3.186-4.109,5.309,5.309,0,0,1,1.644-4.978,7.58,7.58,0,0,1,4.1-1.645c1.524-.221,3.08.012,4.592-.36a1.734,1.734,0,0,0,1.573-1.981,1.39,1.39,0,0,0-1.042-1.431,10.532,10.532,0,0,0-6.116-.007,1.291,1.291,0,0,0-.986,1.147c-.035.4-.246.446-.578.44-.9-.014-1.808-.027-2.711,0-.455.016-.551-.159-.532-.57a5.216,5.216,0,0,1,3.517-4.548,13.6,13.6,0,0,1,8.291-.155,5.048,5.048,0,0,1,3.971,5.307C241.677,92.889,241.664,94.2,241.664,95.932Zm-3.82.946c-.888.171-1.716.391-2.576.477-.882.087-1.763.026-2.639.1a9.168,9.168,0,0,0-1.572.262,1.777,1.777,0,0,0-.018,3.457,10.981,10.981,0,0,0,5.35.039c.695-.16,1.385-.493,1.444-1.313.063-.994,0-2,0-3.021Z" transform="translate(-171.77 -54.565)" fill="#63a6d5"/>
        <path id="Path_8714" data-name="Path 8714" d="M1296.714,95.359a12.593,12.593,0,0,1-.763,5,7.111,7.111,0,0,1-5.493,4.585,13.025,13.025,0,0,1-6.438-.2,6.9,6.9,0,0,1-4.909-4.805,14.888,14.888,0,0,1-.015-8.93,6.9,6.9,0,0,1,4.915-4.874,12.478,12.478,0,0,1,7.431.067c2.977.96,4.462,3.216,5.026,6.174A12.477,12.477,0,0,1,1296.714,95.359Zm-3.82.134a12.478,12.478,0,0,0-.123-2.07,4.063,4.063,0,0,0-3.741-3.849,8.919,8.919,0,0,0-3,.017,3.866,3.866,0,0,0-3.418,3.08,11.927,11.927,0,0,0,.009,5.6,3.723,3.723,0,0,0,2.989,2.918,8.614,8.614,0,0,0,4.139-.036,3.773,3.773,0,0,0,2.892-3.023,9.5,9.5,0,0,0,.266-2.637Z" transform="translate(-1094.628 -54.484)" fill="#1c5c77"/>
        <path id="Path_8715" data-name="Path 8715" d="M1080.469,99.472h1.539c.163,0,.37-.017.38.211.072,1.109.891,1.392,1.76,1.569a10.861,10.861,0,0,0,4.929-.083,1.752,1.752,0,0,0,1.344-2.4,1.42,1.42,0,0,0-1.2-1.005,33.038,33.038,0,0,0-4.2-.493,12.146,12.146,0,0,1-3.339-.729,4.539,4.539,0,0,1-2.988-3.534,6.063,6.063,0,0,1,.891-4.976,5.524,5.524,0,0,1,3.484-2,13.9,13.9,0,0,1,8.262.515,4.99,4.99,0,0,1,3.032,4.616c0,.285-.116.341-.37.339q-1.57-.011-3.14,0c-.229,0-.32-.07-.354-.3a1.7,1.7,0,0,0-1.495-1.426,11.255,11.255,0,0,0-5.236.02,1.759,1.759,0,0,0-1.337,2.36,1.257,1.257,0,0,0,.89.933,16.871,16.871,0,0,0,3.573.484,16.741,16.741,0,0,1,3.915.676c2.778.912,3.709,3.285,3.5,5.785-.266,3.268-2.512,4.587-5,5a14.7,14.7,0,0,1-7.223-.382,4.931,4.931,0,0,1-3.528-4.666c-.007-.378.057-.566.493-.53C1079.523,99.5,1080,99.472,1080.469,99.472Z" transform="translate(-919.372 -54.524)" fill="#1c5b77"/>
        <path id="Path_8716" data-name="Path 8716" d="M1468.264,99.891c0,1.682-.012,3.364.009,5.052,0,.409-.123.53-.524.518-.9-.027-1.806-.037-2.711,0-.473.022-.573-.123-.57-.58q.029-4.559,0-9.107a12.252,12.252,0,0,0-.255-2.622,3.926,3.926,0,0,0-3.645-3.354,8.6,8.6,0,0,0-3.356.1,3.907,3.907,0,0,0-3.18,3.393,15.66,15.66,0,0,0-.238,2.748c0,2.933-.01,5.866.008,8.8,0,.46-.079.652-.593.626-.9-.047-1.805-.028-2.711-.007-.358.009-.515-.069-.509-.468.065-3.711-.149-7.428.107-11.131.186-2.68,1.087-5.083,3.493-6.638a8.614,8.614,0,0,1,3.983-1.283,12.292,12.292,0,0,1,5.979.684,7.366,7.366,0,0,1,4.384,5.614,14.984,14.984,0,0,1,.323,3.292Q1468.264,97.707,1468.264,99.891Z" transform="translate(-1245.038 -54.697)" fill="#1d5c77"/>
        <path id="Path_8717" data-name="Path 8717" d="M905.765,92.267c0-2.194.011-4-.009-5.8,0-.4.094-.538.509-.525.9.03,1.808.038,2.711,0,.472-.021.592.136.589.584q-.025,4.525,0,9.047a11.809,11.809,0,0,0,.271,2.865,3.839,3.839,0,0,0,3.146,3.056,8.579,8.579,0,0,0,4.066-.074,3.829,3.829,0,0,0,2.9-3.369,18.644,18.644,0,0,0,.226-3.121q.02-4.214,0-8.431c0-.412.078-.573.53-.556.964.036,1.93.02,2.893,0,.312,0,.431.08.43.413-.01,3.425.03,6.852-.026,10.276a11.4,11.4,0,0,1-.771,4.013,7.422,7.422,0,0,1-6.461,4.76,13.162,13.162,0,0,1-5.3-.3c-3.112-.863-4.786-3.04-5.421-6.108C905.537,96.636,905.871,94.248,905.765,92.267Z" transform="translate(-767.88 -54.774)" fill="#1d5c77"/>
        <path id="Path_8718" data-name="Path 8718" d="M374.317,99.847c.61-1.541,1.174-2.965,1.736-4.389q1.793-4.543,3.582-9.088a.549.549,0,0,1,.6-.4c1.046.018,2.095.032,3.14,0,.593-.018.387.291.281.559q-1.283,3.26-2.575,6.513-2.415,6.112-4.823,12.229c-.136.346-.29.527-.7.51-.84-.035-1.683-.026-2.523,0a.6.6,0,0,1-.674-.449c-1.5-3.838-3.021-7.658-4.534-11.49-.972-2.452-1.933-4.916-2.915-7.37-.142-.352-.17-.516.3-.505,1.005.023,2.012.031,3.016,0a.694.694,0,0,1,.76.541c1.146,2.937,2.307,5.869,3.461,8.8q.834,2.116,1.66,4.234A2.342,2.342,0,0,0,374.317,99.847Z" transform="translate(-293.598 -54.8)" fill="#64a6d5"/>
        <path id="Path_8719" data-name="Path 8719" d="M805.26,40.114c0-3.036.057-6.073-.013-9.108-.1-4.3,2.165-6.407,5.967-7.209a18.952,18.952,0,0,1,3.356-.331c.409-.012.524.123.51.526-.028.922-.031,1.848,0,2.769.015.428-.115.566-.542.561a10.672,10.672,0,0,0-3.276.418,2.829,2.829,0,0,0-2.169,3.144c.025.38.255.29.465.29,1.643,0,3.285.026,4.929-.009.509-.011.616.156.6.616-.034.863-.042,1.725,0,2.588.026.5-.1.665-.626.654-1.58-.036-3.161,0-4.741-.023-.477-.009-.616.112-.616.616.02,4.78,0,9.56.025,14.34,0,.61-.111.872-.791.816a18.041,18.041,0,0,0-2.464,0c-.493.026-.616-.139-.616-.616.018-3.344.01-6.688.01-10.032Z" transform="translate(-679.756)" fill="#1f5d78"/>
        <path id="Path_8720" data-name="Path 8720" d="M33.692,40.169c.057,1.278-.106,2.834.08,4.391a2.446,2.446,0,0,0,1.609,2.071,8.86,8.86,0,0,0,3.674.6c.477-.011.658.123.638.616-.036.9-.01,1.8-.012,2.711,0,.255,0,.509-.37.493a12.74,12.74,0,0,1-6.506-1.518,5.65,5.65,0,0,1-2.82-5.021c-.042-6.728-.014-13.454-.026-20.182,0-.414.142-.526.53-.516.863.021,1.725.03,2.588,0,.469-.017.635.11.628.616-.028,2.133,0,4.266-.023,6.4-.007.518.092.707.665.691,1.578-.046,3.161,0,4.74-.02.442,0,.625.123.607.591-.033.863-.039,1.725,0,2.588.023.532-.187.648-.68.639-1.58-.027-3.161,0-4.74-.02-.468-.009-.6.15-.589.6C33.708,37.223,33.692,38.557,33.692,40.169Z" transform="translate(0 -0.302)" fill="#63a6d5"/>
        <path id="Path_8721" data-name="Path 8721" d="M713.131,34.323c0-3.281.01-6.561-.011-9.841,0-.505.123-.683.646-.658.88.039,1.764.023,2.645,0,.37-.009.515.1.5.484-.026.656-.007,1.312,0,1.971q.009,8.889.025,17.775A2.634,2.634,0,0,0,719,46.766a10.763,10.763,0,0,0,3.4.469c.426-.006.573.123.559.553-.03.943-.015,1.886-.009,2.834,0,.255-.027.444-.356.43-2.579-.106-5.126-.325-7.27-2.006a5.91,5.91,0,0,1-2.174-4.872C713.105,40.885,713.131,37.6,713.131,34.323Z" transform="translate(-598.983 -0.314)" fill="#65a7d5"/>
        <path id="Path_8722" data-name="Path 8722" d="M128.126,98.742v-5.6a6.363,6.363,0,0,1,1.971-4.979,8.5,8.5,0,0,1,4.338-1.891A18.617,18.617,0,0,1,137.31,86c.389-.009.553.1.542.516-.025.943-.022,1.886,0,2.834.01.392-.148.493-.509.482a9.672,9.672,0,0,0-3.45.477,2.6,2.6,0,0,0-1.971,2.772c0,3.936-.012,7.872.011,11.808,0,.542-.138.715-.685.685-.863-.046-1.725-.035-2.588,0-.431.016-.556-.115-.551-.547C128.139,102.925,128.126,100.834,128.126,98.742Z" transform="translate(-86.055 -54.827)" fill="#64a6d5"/>
        <path id="Path_8723" data-name="Path 8723" d="M1227.232,95.646c0-3.034.014-6.067-.012-9.1,0-.526.156-.654.655-.632.9.039,1.805.027,2.711,0,.352-.01.447.1.446.447q-.014,9.346,0,18.694c0,.349-.1.46-.455.451-.923-.021-1.848-.038-2.769,0-.477.022-.584-.137-.582-.583.016-2.849.008-5.7.008-8.548Z" transform="translate(-1049.737 -54.752)" fill="#1f5d78"/>
        <path id="Path_8724" data-name="Path 8724" d="M1229.174,27.26c-.493,0-.986-.016-1.479.006-.315.014-.44-.09-.436-.415.014-1,.009-2.007,0-3.011,0-.261.1-.37.361-.37h3.08c.246,0,.37.094.361.363-.011,1.025-.016,2.049,0,3.08,0,.329-.152.362-.414.356-.493-.012-.986,0-1.479,0Z" transform="translate(-1049.772 -0.005)" fill="#215f7a"/>
      </g>
    </g>
  </g>
</svg>
