<svg xmlns="http://www.w3.org/2000/svg" xmlns:xlink="http://www.w3.org/1999/xlink" width="243" height="84" viewBox="0 0 243 84">
  <defs>
    <linearGradient id="linear-gradient" x1="-4.639" y1="-1.244" x2="-4.641" y2="-1.226" gradientUnits="objectBoundingBox">
      <stop offset="0" stop-color="#d2068a"/>
      <stop offset="0.737" stop-color="#413691"/>
      <stop offset="1" stop-color="#413691"/>
    </linearGradient>
  </defs>
  <g id="_2" data-name="2" transform="translate(3091 3056)">
    <rect id="Rectangle_41" data-name="Rectangle 41" width="243" height="84" transform="translate(-3091 -3056)" fill="none"/>
    <g id="Page-1" transform="translate(-3109.024 -3372.212)">
      <g id="logo_hawaiian_airlines_logoroll" transform="translate(47.024 331.213)">
        <g id="hawaiian_airlines_logo" transform="translate(0 0)">
          <g id="g556" transform="translate(0 17.438)">
            <g id="Group" transform="translate(0 0)">
              <g id="g558" transform="translate(0 0)">
                <g id="g564" transform="translate(133.547 31.451)">
                  <path id="path566" d="M403.361,454.035a.164.164,0,0,0-.186-.186h-.248c-.031,0-.031,0-.031.031v.278c0,.031,0,.031.031.031h.248c.124,0,.186-.062.186-.155Zm-.65.835a.03.03,0,0,1-.031-.031v-1.114a.03.03,0,0,1,.031-.031h.464c.279,0,.433.124.433.371a.335.335,0,0,1-.248.34l.248.464c.031.031,0,.031-.031.031h-.124c-.031,0-.031-.031-.062-.031l-.248-.433h-.217c-.031,0-.031,0-.031.031v.433a.03.03,0,0,1-.031.031h-.155Zm1.3-.588a.879.879,0,0,0-.9-.9.861.861,0,0,0-.9.9.879.879,0,0,0,.9.9.918.918,0,0,0,.9-.9Zm-2.011,0a1.083,1.083,0,1,1,2.166,0,1.083,1.083,0,0,1-1.083,1.114A1.1,1.1,0,0,1,402,454.283Z" transform="translate(-402 -453.2)" fill="#413691"/>
                </g>
                <g id="g568" transform="translate(0 0.01)">
                  <path id="path570" d="M62.873,369.6v16.615c0,.743,0,1.795-1.021,1.795H59.036v-7.519h-8.2v5.724c0,.743.062,1.795-.959,1.795H47V371.395c0-.743,0-1.795,1.021-1.795h2.816v7.921h8.23v-6.126c0-.712-.062-1.795.959-1.795Z" transform="translate(-47 -369.6)" fill="#413691"/>
                </g>
                <g id="g572" transform="translate(17.872 0.008)">
                  <path id="path574" d="M106.381,380l-2.63-7.735-3.744,10.211.155.031a4.51,4.51,0,0,1,3.9-2.537l2.321.031Zm6.1,8.014H109.1l-1.764-5.136h-7.333l-1.269,3.775c-.217.588-.5,1.361-1.454,1.361H94.5l6-16.894c.217-.588.5-1.516,1.516-1.516h4.548l6.343,17.822c.093.34-.062.588-.433.588Z" transform="translate(-94.5 -369.6)" fill="#413691"/>
                </g>
                <g id="g576" transform="translate(35.427 0.01)">
                  <path id="path578" d="M167.855,369.6l-6.126,17.049c-.124.371-.371,1.361-1.33,1.361h-2.352l-3.5-9.808-3.094,8.478c-.124.371-.371,1.361-1.33,1.361h-2.568l-6.343-17.822c-.124-.371.062-.588.433-.588h3.373l4.579,13.707,3.311-9.777-1.207-3.342c-.124-.371.062-.588.433-.588h3.4l4.239,13.336,3.682-12.005c.186-.588.5-1.33,1.454-1.33h2.939V369.6Z" transform="translate(-141.177 -369.6)" fill="#413691"/>
                </g>
                <g id="g580" transform="translate(60.927 0.008)">
                  <path id="path582" d="M220.75,380l-2.63-7.735-3.744,10.211.155.031a4.51,4.51,0,0,1,3.9-2.537l2.321.031Zm6.1,8.014h-3.373l-1.764-5.136h-7.3l-1.269,3.775c-.217.588-.5,1.361-1.454,1.361H208.9l6-16.894c.217-.588.5-1.516,1.516-1.516h4.548l6.343,17.822a.433.433,0,0,1-.464.588Z" transform="translate(-208.9 -369.6)" fill="#413691"/>
                </g>
                <g id="g584" transform="translate(81.479)">
                  <path id="path586" d="M263.6,371.295c0-.743,0-1.795.9-1.795h2.939v16.615c0,.743,0,1.795-.9,1.795H263.6Z" transform="translate(-263.6 -369.5)" fill="#413691"/>
                </g>
                <g id="g588" transform="translate(89.269)">
                  <path id="path590" d="M284.3,371.295c0-.743,0-1.795.9-1.795h2.939v16.615c0,.743,0,1.795-.9,1.795H284.3Z" transform="translate(-284.3 -369.5)" fill="#413691"/>
                </g>
                <g id="g592" transform="translate(95.058 0.008)">
                  <path id="path594" d="M311.581,380l-2.63-7.735-3.744,10.211.155.031a4.51,4.51,0,0,1,3.9-2.537l2.321.031Zm6.1,8.014H314.3l-1.764-5.136h-7.333l-1.269,3.775c-.217.588-.5,1.361-1.454,1.361H299.7l6-16.894c.217-.588.5-1.516,1.516-1.516h4.548l6.343,17.822c.124.34-.062.588-.433.588Z" transform="translate(-299.7 -369.6)" fill="#413691"/>
                </g>
                <g id="g596" transform="translate(115.655 0.01)">
                  <path id="path598" d="M370.62,369.6v16.615c0,.743,0,1.795-.9,1.795H367.31l-9.1-12.16v10.365c0,.743,0,1.795-.99,1.795H354.5V371.395c0-.743,0-1.795.9-1.795H357.9l9,12.407V371.395c0-.743-.155-1.795.866-1.795Z" transform="translate(-354.5 -369.6)" fill="#413691"/>
                </g>
                <g id="g600" transform="translate(65.335 24.416)">
                  <path id="path602" d="M226,440.441l-1.454-4.177h-.031l-1.485,4.177Zm-2.073-5.817c.031-.062.062-.124.155-.124h.9a.209.209,0,0,1,.186.124l3.187,8.942c.031.062-.031.124-.093.124H227.3a.17.17,0,0,1-.186-.124l-.712-2.011h-3.775l-.712,2.011a.17.17,0,0,1-.186.124h-.959c-.093,0-.124-.062-.093-.124Z" transform="translate(-220.663 -434.5)" fill="#413691"/>
                </g>
                <g id="g604" transform="translate(75.945 24.403)">
                  <path id="path606" d="M248.9,434.524a.133.133,0,0,1,.124-.124h.928a.113.113,0,0,1,.124.124v8.942a.133.133,0,0,1-.124.124h-.928a.113.113,0,0,1-.124-.124Z" transform="translate(-248.9 -434.4)" fill="#413691"/>
                </g>
                <g id="g608" transform="translate(81.408 24.374)">
                  <path id="path610" d="M268.567,436.961c0-.959-.65-1.516-1.733-1.516h-2.2c-.062,0-.093.031-.093.062v2.908c0,.062.031.062.093.062h2.2a1.483,1.483,0,0,0,1.733-1.516Zm.217,6.559c-.093,0-.124-.031-.186-.124l-1.856-3.775h-2.073c-.062,0-.093.031-.093.062v3.682a.133.133,0,0,1-.124.124h-.928a.113.113,0,0,1-.124-.124v-8.942a.133.133,0,0,1,.124-.124H266.9a2.632,2.632,0,0,1,2.908,2.63,2.485,2.485,0,0,1-1.826,2.506l1.98,3.868c.062.062.031.155-.093.155l-1.083.062Z" transform="translate(-263.4 -434.3)" fill="#413691"/>
                </g>
                <g id="g612" transform="translate(91.493 24.403)">
                  <path id="path614" d="M290.2,434.524a.133.133,0,0,1,.124-.124h.928a.113.113,0,0,1,.124.124v7.859c0,.062.031.062.093.062h4.456a.113.113,0,0,1,.124.124v.835a.133.133,0,0,1-.124.124h-5.6a.113.113,0,0,1-.124-.124Z" transform="translate(-290.2 -434.4)" fill="#413691"/>
                </g>
                <g id="g616" transform="translate(100.09 24.403)">
                  <path id="path618" d="M313.1,434.524a.133.133,0,0,1,.124-.124h.928a.113.113,0,0,1,.124.124v8.911a.133.133,0,0,1-.124.124h-.928a.113.113,0,0,1-.124-.124Z" transform="translate(-313.1 -434.4)" fill="#413691"/>
                </g>
                <g id="g620" transform="translate(105.552 24.403)">
                  <path id="path622" d="M327.6,434.524a.133.133,0,0,1,.124-.124h.866a.251.251,0,0,1,.248.124l4.208,6.9h.062v-6.9a.133.133,0,0,1,.124-.124h.866a.113.113,0,0,1,.124.124v8.942a.133.133,0,0,1-.124.124h-.866a.281.281,0,0,1-.248-.124l-4.239-6.869h-.031v6.869a.133.133,0,0,1-.124.124h-.866a.113.113,0,0,1-.124-.124v-8.942Z" transform="translate(-327.6 -434.4)" fill="#413691"/>
                </g>
                <g id="g624" transform="translate(116.412 24.403)">
                  <path id="path626" d="M356.5,434.524a.133.133,0,0,1,.124-.124h5.6a.113.113,0,0,1,.124.124v.835a.133.133,0,0,1-.124.124H357.8c-.062,0-.093.031-.093.062v2.692c0,.062.031.062.093.062h3.775a.113.113,0,0,1,.124.124v.835a.133.133,0,0,1-.124.124H357.8c-.062,0-.093.031-.093.062v2.785c0,.062.031.062.093.062h4.425a.113.113,0,0,1,.124.124v.835a.133.133,0,0,1-.124.124h-5.6a.113.113,0,0,1-.124-.124Z" transform="translate(-356.5 -434.4)" fill="#413691"/>
                </g>
                <g id="g628" transform="translate(125.333 24.236)">
                  <path id="path630" d="M380.256,442.354a.149.149,0,0,1-.031-.217l.619-.681a.146.146,0,0,1,.186-.031,4.263,4.263,0,0,0,2.6.959c1.3,0,2.042-.65,2.042-1.578,0-.8-.464-1.3-1.949-1.516l-.464-.062c-1.826-.248-2.723-1.114-2.723-2.537,0-1.64,1.207-2.692,3.032-2.692a5.156,5.156,0,0,1,2.847.835c.093.062.093.124.031.186l-.464.743a.146.146,0,0,1-.186.031,4.173,4.173,0,0,0-2.259-.681c-1.145,0-1.764.619-1.764,1.485,0,.773.526,1.3,1.949,1.454l.464.062c1.825.247,2.723,1.052,2.723,2.568,0,1.609-1.145,2.785-3.4,2.785a4.786,4.786,0,0,1-3.249-1.114" transform="translate(-380.191 -434)" fill="#413691"/>
                </g>
              </g>
            </g>
          </g>
          <g id="Group_1_" transform="translate(138.561)">
            <g id="g638" transform="translate(0)">
              <g id="g644">
                <g id="g646">
                  <path id="path656" d="M415.4,345.13a22,22,0,0,0,18.286,21.628h0c-.093.773-.186,1.516-.309,2.1h0c-.712,3.465-3.125,6.652-4.456,7.426h0c3.5-.309,6.281-1.33,7.952-2.939h0c-.124,0-1.207-.031-1.3-.031h0a12.449,12.449,0,0,0,1.949-.928h0a25.107,25.107,0,0,0-.371-7.395h0c-.712-3.837-2.166-5.136-2.413-5.384h0l-.031-.031h0c0-.031.031-.031.062-.031h0a23.3,23.3,0,0,0,2.816-2.1h0c.371-.309.248-.464-.155-.309h0a18.04,18.04,0,0,1-4.951,1.33h0a21.717,21.717,0,0,1-6.683-.278h0a1.714,1.714,0,0,1-1.485-1.98h0a5.7,5.7,0,0,1,.526-1.485h0a2.135,2.135,0,0,0,.155-.99h0a2.305,2.305,0,0,0-.217-.371h0a.751.751,0,0,1-.031-.773h0a1.561,1.561,0,0,1,1.207-.712h0c.309-.031.65-.031,1.021-.031h0a8.512,8.512,0,0,0,1.3-.062h0c.99-.186,1.609-.835,1.485-1.052h0c-.093-.124-.99.031-1.269.093h0a4.873,4.873,0,0,1-1.7-.4h0c-.65-.217-1.021-.371-1.578-.124h0c-.371.155-.65.866-.743.526h0a.666.666,0,0,1,.155-.5h0c.124-.186.371-.5.371-.681h0c.031-.186.093-.5-.5-.9h0a5.208,5.208,0,0,1-.866-.681h0c-.557-.557-.65-1.114.433-2.011h0A13.575,13.575,0,0,0,427,342.686h0a1.329,1.329,0,0,0,.031-1.485h0a6.049,6.049,0,0,1-.5-.774h0c-.248-.464-.093-.9.34-1.516h0a8.493,8.493,0,0,0,.774-1.949h0a9.892,9.892,0,0,1,2.259-3.806h0a9.53,9.53,0,0,1,1.176-3.434h0a8.807,8.807,0,0,1,1.33-1.887h0a8.968,8.968,0,0,1,1.826-1.361h0a13.974,13.974,0,0,1,3.032-1.269h0a18.224,18.224,0,0,1,4.951-.681h0a17.875,17.875,0,0,1,4.27.526h0l.186.062h0a21.84,21.84,0,0,0-9.22-2.011h0A22.125,22.125,0,0,0,415.4,345.13m8.818,2.692c-.031.093.031.124.124.155h0a12.6,12.6,0,0,1,1.33.712h0c.866.5,1.238.093,1.423-.248h0c.062-.093.124-.464.031-.557h0c-.093-.124-.248-.031-.4.124h0c-.186.186-.65.093-.8.062h0c-.155-.031-.866-.186-1.3-.279h0a.6.6,0,0,0-.217-.031h0c-.124,0-.186,0-.186.062" transform="translate(-415.4 -323.1)" fill="url(#linear-gradient)"/>
                </g>
              </g>
            </g>
            <g id="g660" transform="translate(12.066 0.104)">
              <g id="g666" transform="translate(0 13.855)">
                <path id="path668" d="M454.2,360.91a24.152,24.152,0,0,0-4.022-.619,3.47,3.47,0,0,0-2.321,1.207,1.927,1.927,0,0,0-.464.9.5.5,0,0,0,.681.557,1.816,1.816,0,0,0,.8-.712c.186-.278.309-.619.588-.773a5.179,5.179,0,0,1,2.568-.34c.99.031,1.826.093,2.011.093.4-.031.309-.278.155-.309" transform="translate(-447.394 -360.287)" fill="#413691"/>
              </g>
              <g id="g670" transform="translate(1.264 15.822)">
                <path id="path672" d="M454.613,366.8a3.723,3.723,0,0,0-1.423-.34c-.155-.031-.186-.186.031-.278.309-.124.866-.031.866-.124.031-.093-.093-.278-.526-.433a3.088,3.088,0,0,0-.99-.124,2.368,2.368,0,0,0-1.485.743,1.048,1.048,0,0,0-.309.5c-.062.309.155.557.34.835a2.711,2.711,0,0,1,.217.371c.031.155.031.248-.124.34-.155.124-.062.34.248.247a1.673,1.673,0,0,0,.835-.433c.371-.309.371-.526.65-.774a2.508,2.508,0,0,1,1.547-.186c.557.124.681,0,.124-.34" transform="translate(-450.765 -365.5)" fill="#413691"/>
              </g>
              <g id="g674" transform="translate(2.524 1.379)">
                <path id="path676" d="M484.089,347.057a30.558,30.558,0,0,0-.34-3.342,18.129,18.129,0,0,0-1.33-5.105,16.4,16.4,0,0,0-4.3-6.621,18.25,18.25,0,0,0-7.147-4.208,1,1,0,0,1-.186-.062h0a17.693,17.693,0,0,0-4.27-.526c-4.92-.093-8.54,1.949-9.808,3.311a7.832,7.832,0,0,0-1.33,1.887,9.066,9.066,0,0,0-1.176,3.434h0a7.044,7.044,0,0,1,2.6-1.733,5.6,5.6,0,0,0,2.383,1.918,16.553,16.553,0,0,0,2.939,1.114s1.918.557,3.868,1.207a6.342,6.342,0,0,1,3.156,2.939c0,.835-.835,1.64-1.671,4.177a19.8,19.8,0,0,0-.928,8.354v.062a41.041,41.041,0,0,0,1.176,6.034h0a18.079,18.079,0,0,1,.588,5.384,12.618,12.618,0,0,1-6.559,9.746h0a16.023,16.023,0,0,1-1.949.928c.093,0,1.207.031,1.3.031a13.7,13.7,0,0,0,10.18-4.053,14.655,14.655,0,0,0,2.692-3.682,18.164,18.164,0,0,0,1.826-5.786c.093-.464.309-1.98.309-1.98s.155,1.083.186,2.042A14.7,14.7,0,0,1,475.58,368a10.08,10.08,0,0,0,3.156-3.125,19.847,19.847,0,0,0,1.578-2.382c2.228-3.5,3.837-7.611,3.775-15.44" transform="translate(-454.2 -327.19)" fill="#413691"/>
              </g>
              <g id="g678" transform="translate(10.388 0)">
                <path id="path680" d="M484.839,337.052q-.046.232.186.093a6.938,6.938,0,0,1,3-1.485,3.942,3.942,0,0,0,3.032-1.98,4.337,4.337,0,0,1,1.269-2.073c.248-.186,0-.247-.217-.217a4.373,4.373,0,0,0-2.011,1.083,1.764,1.764,0,0,1-.371-1.578c.031-.124-.062-.186-.217-.093a3.263,3.263,0,0,0-1.021,1.392.89.89,0,0,1-.186-1.052c.031-.124-.062-.093-.093-.031a1.722,1.722,0,0,0-.712,1.485,5.957,5.957,0,0,0-1.98-.588c-.186-.774-1.485-.99-1.7-.186-.186.712,1.052,1.269,1.578.681a5.936,5.936,0,0,1,3.187,1.64c.155.155.186.279.093.34-.062.062-.279-.062-.557-.248-.309-.186-2.351-1.485-4.115-.619-.093.031-.093.124-.031.124.34.093,1.083.34,1.269.835a2.592,2.592,0,0,0-1.795,1.516c-.155.309.031.34.186.217a5.022,5.022,0,0,1,1.7-.681,11.254,11.254,0,0,0-.5,1.423m14.14-8.261a11.507,11.507,0,0,0,.526,3.558,3.158,3.158,0,0,1-1.764,3.682,2.759,2.759,0,0,0-2.135-1.052c-.464-.031-.34.186-.093.248,3.28,1.361,2.135,5.105,1.7,5.91a3.7,3.7,0,0,0-.309,1.887,6.008,6.008,0,0,0-2.785.031,6.1,6.1,0,0,1-3.558-.4,3,3,0,0,1-1.887-2.29c-.031-.248-.186-.4-.279.031a2.728,2.728,0,0,0,.5,2.29c-.588,2.939-6.467,2.723-6.467,2.723-.371-1.269-3.063-1.64-3.651-3.5a3.808,3.808,0,0,1-.062-1.795,2.692,2.692,0,0,0,2.908-.959c.278-.34.062-.371-.155-.248a2.622,2.622,0,0,1-4.115-1.7A3.869,3.869,0,0,0,475,334.732c1.331-.835.959-2.259,1.671-3.465,1.825-3.187,4.455-2.228,4.455-2.228a2.481,2.481,0,0,0,1.795,1.516c.433.124.371-.093.186-.248a2.533,2.533,0,0,1,.062-4.363c2.568-1.7,3-2.444,3-2.444a7.666,7.666,0,0,0,3.032.774c2.939.248,3.62,1.733,3.682,2.321a2.834,2.834,0,0,0-1.207,1.578c-.155.433.093.371.248.186,1.145-1.516,2.537-1.238,3.868-.65.774.371,1.98,1.33,3.187,1.083" transform="translate(-475 -323.5)" fill="#ef3138"/>
              </g>
            </g>
          </g>
        </g>
      </g>
    </g>
  </g>
</svg>
