<svg xmlns="http://www.w3.org/2000/svg" width="242" height="84" viewBox="0 0 242 84">
  <g id="_4" data-name="4" transform="translate(2565 3056)">
    <rect id="Rectangle_43" data-name="Rectangle 43" width="242" height="84" transform="translate(-2565 -3056)" fill="none"/>
    <g id="United_Airlines_logo_1_" transform="translate(-2546 -3037.363)">
      <g id="Globe_1_" transform="translate(165.195 6.363)">
        <path id="Globe" d="M426.915,6.363V40.325h-7.039a22.322,22.322,0,0,0-25.589-29.567l-1.353.333V6.363h33.982Zm-24.627,5.325a9.942,9.942,0,0,0-6.313-.779l.751.086.107-.053a10.475,10.475,0,0,1,2.948.165,11.883,11.883,0,0,0-1.184.4,3.767,3.767,0,0,1,.649.325,14.782,14.782,0,0,1,1.611-.44,7.833,7.833,0,0,1,1.845.946,21.142,21.142,0,0,0-2.337.377,2.666,2.666,0,0,1,.456.532,20.842,20.842,0,0,1,2.68-.286,4.672,4.672,0,0,1,1.091,1.373,20.938,20.938,0,0,0-3.142.038,3.539,3.539,0,0,1,.248.741,23.978,23.978,0,0,1,3.351.132,5.815,5.815,0,0,1,.41,1.747,26.651,26.651,0,0,0-3.576-.47,7.467,7.467,0,0,1-.034.988,25.081,25.081,0,0,1,3.673.665,8.84,8.84,0,0,1-.262,1.932,30.169,30.169,0,0,0-3.715-1.039,8.627,8.627,0,0,1-.521,1.527,28.991,28.991,0,0,1,3.65,1.542,10.933,10.933,0,0,1-.735,1.647,37.7,37.7,0,0,0-3.593-1.823,17.421,17.421,0,0,1-1.26,1.954c1.171.712,2.277,1.483,3.375,2.311-.33.483-.8,1.062-1.088,1.406-1.054-.876-3.216-2.6-3.216-2.6A11.828,11.828,0,0,1,396.176,27c.887.908,2.048,2.206,2.773,3.1a7.289,7.289,0,0,1-1.181,1.007c-.88-1.081-1.94-2.448-2.556-3.306a12.707,12.707,0,0,1-2.279,1.5v1.271l1.4,2.81a6.2,6.2,0,0,1-.988.505l-.417-.819v1.477c5.417-2.406,10.932-7.711,12.535-13.472a9.135,9.135,0,0,0-.27-6.41,6.717,6.717,0,0,0-2.91-2.979m-.808-.837c.236.077.461.182.687.28l.127-.022a10.355,10.355,0,0,1,3.255,1.118c-.538,0-1.1,0-1.633.041a8.99,8.99,0,0,1,.657.651c.728-.014,1.432,0,2.126.047a6.477,6.477,0,0,1,1.78,1.881,22.866,22.866,0,0,0-2.9-.429c.128.294.259.6.367.91a32.477,32.477,0,0,1,3.242.629,7.767,7.767,0,0,1,.728,2.288,26.455,26.455,0,0,0-3.589-1.06c.031.4.034.8.036,1.2a27.274,27.274,0,0,1,3.7,1.332,9.351,9.351,0,0,1-.263,2.322,29.928,29.928,0,0,0-3.707-1.627,16.917,16.917,0,0,1-.622,2.089,39.585,39.585,0,0,1,3.6,2.026,10.3,10.3,0,0,1-.908,1.9c-1.138-.779-2.279-1.536-3.467-2.195a14.113,14.113,0,0,1-1.523,2.486c1.058.833,2.142,1.7,3.162,2.624a12.413,12.413,0,0,1-1.291,1.624c-.745-.785-1.988-1.9-3.023-2.775a20.7,20.7,0,0,1-2.468,2.59c.665.7,2.639,3.077,2.639,3.077a11.611,11.611,0,0,1-1.392,1.162s-2.016-2.585-2.512-3.208a21.34,21.34,0,0,1-3.54,2.348c.552.942,1.925,3.494,1.925,3.494a6.3,6.3,0,0,1-1.088.554c-.648-1.075-1.428-2.633-1.843-3.522a6.116,6.116,0,0,1-.8.363V39.7a26.863,26.863,0,0,0,11.35-7.27c2.986-3.236,5.349-6.73,6.05-10.905a8.8,8.8,0,0,0-3.186-8.583,10.173,10.173,0,0,0-5.668-2.095m-1.4,2.217c-1.839-1.859-4.659-2.014-7.148-1.429,0,0,0,.226,0,.226a9.022,9.022,0,0,1,1.811-.215,9.875,9.875,0,0,0-1.141.827,2.63,2.63,0,0,1,.453.144,15.9,15.9,0,0,1,1.557-1,5.675,5.675,0,0,1,1.841.312,12.291,12.291,0,0,0-2.447,1.178,1.461,1.461,0,0,1,.333.261,18.826,18.826,0,0,1,2.839-1.2,3.959,3.959,0,0,1,1.179.749,23.147,23.147,0,0,0-3.457,1.054,2.346,2.346,0,0,1,.287.448,29.562,29.562,0,0,1,3.708-1.006,3.437,3.437,0,0,1,.652,1.013,26.7,26.7,0,0,0-4.077.7,2.879,2.879,0,0,1,.139.528,28.907,28.907,0,0,1,4.219-.5,4.5,4.5,0,0,1,.2,1.3,28.428,28.428,0,0,0-4.354.1c0,.169-.024.507-.046.716a30.45,30.45,0,0,1,4.356.151,10.515,10.515,0,0,1-.3,1.452,26.391,26.391,0,0,0-4.284-.6,4.259,4.259,0,0,1-.313.934,25.83,25.83,0,0,1,4.1,1.113,12.457,12.457,0,0,1-.631,1.263,30.447,30.447,0,0,0-3.93-1.456,7.558,7.558,0,0,1-.833,1.307c.835.407,2.435,1.31,3.532,2.019a11.167,11.167,0,0,1-.867,1.038c-1.063-.828-2.117-1.606-3.271-2.34a11.91,11.91,0,0,1-1.257,1.243v.134l2.652,2.823a10.556,10.556,0,0,1-.908.743l-1.743-2.229v3.933a19.79,19.79,0,0,0,6.95-6.921c1.25-2.2,2.2-5.178.985-7.707a4.554,4.554,0,0,0-.787-1.113m7.922.028.783.1a8.153,8.153,0,0,1,2.147,1.662,5.09,5.09,0,0,1,.661.807c-.646-.183-1.271-.405-1.939-.55a6.711,6.711,0,0,1,.552,1.106c.745.214,1.484.472,2.208.729a9.22,9.22,0,0,1,.964,2.826c-.835-.418-1.672-.825-2.531-1.162a8.65,8.65,0,0,1,.066,1.481,23.547,23.547,0,0,1,2.656,1.43,11.294,11.294,0,0,1-.247,2.7,23.221,23.221,0,0,0-2.718-1.707A12.136,12.136,0,0,1,409.824,25a29.126,29.126,0,0,1,2.706,2.01,16.067,16.067,0,0,1-.977,2.127c-.871-.749-1.758-1.465-2.68-2.157a15.742,15.742,0,0,1-1.892,2.937c.886.817,1.731,1.617,2.578,2.493a13.7,13.7,0,0,1-1.421,1.757c-.806-.864-1.635-1.751-2.477-2.58a27.1,27.1,0,0,1-2.9,2.942,27.015,27.015,0,0,1,2.254,2.777c-.515.441-1,.856-1.509,1.233l-2.178-2.811a30.619,30.619,0,0,1-4.2,2.693l1.143,1.907h3.542c5.413-3.7,10.3-9.185,11.81-15.312a11.189,11.189,0,0,0-2.536-10.377,8.394,8.394,0,0,0-3.99-2.317,6.114,6.114,0,0,1,.907.778m-15.068-.312v.655l.366-.254a3.026,3.026,0,0,1,.887.376c-.423.248-.858.493-1.248.76v.41c.522-.318,1.136-.691,1.622-.937a2.016,2.016,0,0,1,.509.5c-.7.28-1.68.757-2.136,1v.423a17.94,17.94,0,0,1,2.459-1.015,2.13,2.13,0,0,1,.25.637,17.008,17.008,0,0,0-2.7.856v.387a19.008,19.008,0,0,1,2.813-.735,3.9,3.9,0,0,1,.065.792,25.605,25.605,0,0,0-2.877.436v.441a22.67,22.67,0,0,1,2.83-.192,4.49,4.49,0,0,1-.24.892,25.565,25.565,0,0,0-2.593-.094c-.005,0-.005.589-.005.592a17.966,17.966,0,0,1,2.27.356,5.469,5.469,0,0,1-.408.795,13.037,13.037,0,0,0-1.863-.51v1.162a11.6,11.6,0,0,1,1.08.546,4.21,4.21,0,0,1-.525.617c-.244-.162-.555-.343-.555-.343v1.485a15.206,15.206,0,0,0,1.694-1.9c1.186-1.709,2.12-3.926,1.269-6.063a3.8,3.8,0,0,0-2.961-2.07m19.847,3.272a12.919,12.919,0,0,1,.679,1.29l.944.435a11.821,11.821,0,0,1,1.5,3.494c-.521-.329-1.051-.67-1.583-.959a13.24,13.24,0,0,1,.117,1.677,19.557,19.557,0,0,1,1.8,1.373,14.332,14.332,0,0,1-.18,3.056,15.757,15.757,0,0,0-1.944-1.615,13.881,13.881,0,0,1-.861,2.814,18.462,18.462,0,0,1,2.027,1.916,14.624,14.624,0,0,1-1.005,2.278c-.643-.692-1.345-1.411-2.045-2.027a28.335,28.335,0,0,1-2.07,3.233c.7.718,1.348,1.469,1.99,2.222a20.367,20.367,0,0,1-1.51,1.833c-.65-.749-1.258-1.518-1.937-2.248a25.378,25.378,0,0,1-3.115,3.157c.725.88,1.824,2.341,1.824,2.341h.619A36.168,36.168,0,0,0,411.288,37a22.273,22.273,0,0,0,5.121-10.031,12.173,12.173,0,0,0-2.9-10.64l-.724-.272Zm2.478,1.976-.012.029a12.685,12.685,0,0,1,2.5,4.548l-.009.018-.873-.661a15.073,15.073,0,0,1,.224,2.006,7.424,7.424,0,0,1,1.213,1.144,15.9,15.9,0,0,1-.137,3.494,13,13,0,0,0-1.354-1.511,14.78,14.78,0,0,1-.825,3.023,14.669,14.669,0,0,1,1.431,1.852,13.682,13.682,0,0,1-1.007,2.393c-.493-.636-.842-1.151-1.486-1.909a27.948,27.948,0,0,1-2.217,3.477c.562.663,1.08,1.354,1.569,2.053a21.945,21.945,0,0,1-1.505,1.9c-.512-.7-1.057-1.4-1.589-2.1a24.2,24.2,0,0,1-2.4,2.538h4.17a23.1,23.1,0,0,0,5.429-10.462,12.874,12.874,0,0,0-2.36-11.046,4.943,4.943,0,0,0-.766-.787m3.559,5.461a18.643,18.643,0,0,1,.327,2.358,8.512,8.512,0,0,1,.68.907,14.917,14.917,0,0,1-.266,3.492l-.633-.78a19.035,19.035,0,0,1-.857,3.219l.7,1.216a17.387,17.387,0,0,1-.994,2.54c-.263-.425-.507-.894-.777-1.265a29.432,29.432,0,0,1-2.2,3.568l.979,1.579H416a22.271,22.271,0,0,0,4.105-11.761,10.736,10.736,0,0,0-1.19-4.976l-.1-.1Zm1.874,6.3c-.08.591-.121,1.188-.228,1.747l-.187-.254a18.211,18.211,0,0,1-.91,3.438l.291.806a23.034,23.034,0,0,1-.927,2.583,4.414,4.414,0,0,0-.419-.86,28.91,28.91,0,0,1-1.765,3.073h1.563a26.317,26.317,0,0,0,2.01-5.2,15.313,15.313,0,0,0,.578-5.338h-.007Zm.1,4.3a47.627,47.627,0,0,1-1.417,5.362,3.837,3.837,0,0,1-.166-.359c-.234.471-.588,1.226-.588,1.226h.8a21.923,21.923,0,0,0,1.37-6.229M395.911,39a26.443,26.443,0,0,1-2.979,1.144v.183h3.72L395.911,39Zm8.145.249c-.387.277-.878.714-1.469,1.086h2.18s-.471-.709-.711-1.086" transform="translate(-392.932 -6.363)" fill="#005daa"/>
      </g>
      <g id="UNITED" transform="translate(5 15.499)">
        <path id="path16" d="M318.736,32.49h3.8c4.165.005,5.857,1.75,5.857,4.917,0,3.25-1.739,4.9-5.857,4.91h-3.8Zm-5.06-4V46.317h8.975c7.39-.006,11.017-3.347,11.017-8.934,0-5.287-3.266-8.886-11.017-8.895h-8.975Z" transform="translate(-186.209 -28.488)" fill="#005daa"/>
        <path id="polygon18" d="M266.269,28.489V32.4h-11.6v3.161h9.827v3.623h-9.827v3.257h11.677v3.881H249.62V28.489Z" transform="translate(-148.605 -28.489)" fill="#005daa"/>
        <path id="polygon20" d="M202.444,28.49v4.037H195.9v13.79h-5.072V32.527h-6.534V28.49Z" transform="translate(-110.255 -28.489)" fill="#005daa"/>
        <path id="polygon22" d="M150.067,28.49h5.161V46.318h-5.161V28.49Z" transform="translate(-90.162 -28.489)" fill="#005daa"/>
        <path id="polygon24" d="M80.391,35.158,91.352,46.318h3.79V28.489H90.417v10.69L80.053,28.489h-4.39V46.318h4.728Z" transform="translate(-46.483 -28.489)" fill="#005daa"/>
        <path id="path26" d="M24.467,38.454c0,5.453-3.394,8.191-9.7,8.191C8.45,46.645,5,43.921,5,38.486v-10h5.064V38.5c0,2.719,1.542,4.077,4.723,4.067,3.145-.011,4.632-1.336,4.634-4.036V28.49h5.047v9.964Z" transform="translate(-5 -28.489)" fill="#005daa"/>
      </g>
    </g>
  </g>
</svg>
