<svg xmlns="http://www.w3.org/2000/svg" width="242" height="84" viewBox="0 0 242 84">
  <g id="_5" data-name="5" transform="translate(2303 3056)">
    <rect id="Rectangle_44" data-name="Rectangle 44" width="242" height="84" transform="translate(-2303 -3056)" fill="none"/>
    <g id="DesktopNegative" transform="translate(-2269 -3041)">
      <path id="Path_8659" data-name="Path 8659" d="M119.549,47.083V59.049h1.884V47.083Zm32.893,0V59.049h9.665V57.3h-7.781V53.56H161.1V51.952h-6.776V48.714h7.527V47.095h-9.412Zm-79.718,0V59.049h1.884V47.083ZM103.859,59.06h8.787V57.441h-6.9V47.095h-1.884Zm-14.44-5.236a7.914,7.914,0,0,1-3.642-.873v-4.49h4.9c2.382,0,3.26,1.252,3.26,2.366C93.939,52.446,92.679,53.824,89.419,53.824Zm-29.124.494H54.768L57.532,48.7Zm72.191,4.743V49.208l8.29,9.347a1.216,1.216,0,0,0,1.133.494h1.134V47.083h-1.758v9.474l-8.173-8.968c-.255-.379-.5-.494-1.134-.494h-1.26V59.06Zm-46.709,0V54.7a7.4,7.4,0,0,0,3.515.746,8.842,8.842,0,0,0,1.884-.126l2.509,3.744H95.7l-2.764-4.237a4.393,4.393,0,0,0,2.89-3.985c0-2.239-1.884-3.87-5.272-3.87h-6.66V59.06Zm-23.216,0h1.873L58.792,47.588a.934.934,0,0,0-.879-.494H56.537l-5.9,11.965h1.884l1.5-3.112h7.029ZM175.923,46.842c-3.26,0-5.4,1.378-5.4,3.491,0,2,1.631,2.744,4.266,3.238l1.261.253c1.884.379,2.89,1,2.89,2s-1.006,1.745-3.515,1.745a8.685,8.685,0,0,1-4.521-1.125l-.5,1.745a11.282,11.282,0,0,0,4.891,1c3.515,0,5.526-1.366,5.526-3.491,0-2-1.758-3-4.521-3.491l-1.26-.253c-2.012-.379-2.636-.746-2.636-1.745s1.133-1.746,3.387-1.746a11.416,11.416,0,0,1,3.9.62l.382-1.493A12.221,12.221,0,0,0,175.923,46.842Z" transform="translate(-6.486 -5.999)" fill="#28348a"/>
      <path id="Path_8660" data-name="Path 8660" d="M106.166,29.333h5.3V14.68l9.249-.609V10.294H96.916v3.778l9.249.609Zm-38.212,0,2.174-4.387H57.271V10.294h-5.5V29.333Zm20.464-7.361H81.285l3.607-7.625Zm47.866,0h-7.145l3.607-7.625Zm24.2,2.71a1.937,1.937,0,0,0,1.907,1.148h5.5l4.081-11.208,3.873,14.721h5.168l-4.278-16.88c-.4-1.688-1.365-2.159-2.925-2.159h-5.376l-3.873,11.139L161.5,11.982a2.221,2.221,0,0,0-2.381-1.688h-6.047l-4.96,19.039h5.238l3.8-14.721Zm-20.591,4.651h5.781L136.561,11.5a1.961,1.961,0,0,0-2.035-1.217H129.5l-9.584,19.039h5.85l1.7-3.514H138.2Zm-47.935,0h5.85L88.7,11.5a1.967,1.967,0,0,0-2.046-1.217H81.62L72.036,29.321h5.839l1.7-3.514H90.315Z" transform="translate(-6.63 -1.317)" fill="#28348a"/>
      <g id="Group_7496" data-name="Group 7496">
        <path id="Path_8661" data-name="Path 8661" d="M8.977,54.048l4.694-1.7c.983-.356.983.425.983,1.6v2.147c0,1.734-.59,1.941-1.364,2.228L8.977,59.881Z" transform="translate(-1.15 -6.693)" fill="#28348a"/>
        <path id="Path_8662" data-name="Path 8662" d="M8.977,42.76,20.9,38.454c.983-.356.983.425.983,1.6v2.136c0,1.745-.59,1.952-1.364,2.239L8.977,48.593Z" transform="translate(-1.15 -4.914)" fill="#28348a"/>
        <path id="Path_8663" data-name="Path 8663" d="M6.844,25.55.786,23.357C0,23.07,0,22.013,0,21.634c0,0,0,1.275,1.168.85L30.881,11.747c2.347-.85,2.347-1.5,1.364-1.86.983.356.983.356.983,3.2,0,2.721,0,3.629-1.168,4.054L8.8,25.55A1.921,1.921,0,0,1,6.844,25.55Z" transform="translate(0 -1.266)" fill="#28348a"/>
        <path id="Path_8664" data-name="Path 8664" d="M33.407,20.805c.983.356.983,1.01-1.364,1.86L8.977,31v5.822l24.245-8.762c1.168-.425,1.168-1.332,1.168-4.054C34.39,21.15,34.39,21.15,33.407,20.805Z" transform="translate(-1.15 -2.665)" fill="#28348a"/>
      </g>
      <path id="Path_8665" data-name="Path 8665" d="M2.545,14.2l10.382,3.755,8.059-2.917L1.574,8.018C.21,7.525.013,7.456.013,8.42v2.526A3.256,3.256,0,0,0,2.545,14.2Z" transform="translate(-0.002 -0.982)" fill="#ed1650"/>
      <path id="Path_8666" data-name="Path 8666" d="M35.34,20.633l-3.214-1.171-8.058,2.917,5.1,1.849,4.81-1.734C36.322,21.632,36.322,20.978,35.34,20.633Z" transform="translate(-3.082 -2.493)" fill="#ed1650"/>
      <path id="Path_8667" data-name="Path 8667" d="M33.407,8.621,10.538.353C9.174-.14,8.977-.209,8.977.755V3.282a3.275,3.275,0,0,0,2.544,3.25l15.724,5.684,4.81-1.734C34.39,9.632,34.39,8.977,33.407,8.621Z" transform="translate(-1.15 0)" fill="#ed1650"/>
      <path id="Path_8668" data-name="Path 8668" d="M1.181,23.6l6.648-2.4L1.574,18.936c-1.364-.494-1.561-.563-1.561.4v3.41C0,22.749,0,24.024,1.181,23.6Z" transform="translate(-0.001 -2.38)" fill="#ed1650"/>
    </g>
  </g>
</svg>
