<svg xmlns="http://www.w3.org/2000/svg" width="242" height="84" viewBox="0 0 242 84">
  <g id="_6" data-name="6" transform="translate(2041 3056)">
    <rect id="Rectangle_44" data-name="Rectangle 44" width="242" height="84" transform="translate(-2041 -3056)" fill="none"/>
    <g id="Group_7472" data-name="Group 7472" transform="translate(1160.961 -313.829)">
      <path id="Path_8657" data-name="Path 8657" d="M20.652,96.649a1.4,1.4,0,0,0,.687-1.374V83.048a1.522,1.522,0,0,0-.687-1.374h5.771c2.61,0,5.22,1.1,5.22,4.121a3.352,3.352,0,0,1-2.885,3.022c2.2,0,4.121,1.237,4.121,3.572,0,3.435-3.435,4.259-5.908,4.259h-6.32Zm4.671-13.6h-.961v5.22h.686c1.786,0,3.435-.549,3.435-2.611s-1.374-2.609-3.16-2.609Zm.412,6.594H24.362v5.5a10.424,10.424,0,0,0,2.061.137c1.511,0,3.022-.549,3.022-2.885,0-2.2-1.786-2.748-3.71-2.748ZM38.65,83.048h-.687v5.22h.687a2.633,2.633,0,0,0,2.885-2.748C41.536,83.735,40.3,83.048,38.65,83.048Zm7.556,13.739a4.041,4.041,0,0,1-1.785-.275c-.962-.275-2.336-2.473-2.885-3.435-.962-1.374-1.648-3.435-3.572-3.435v5.632a1.4,1.4,0,0,0,.687,1.374H34.117a1.4,1.4,0,0,0,.687-1.374V83.048a1.522,1.522,0,0,0-.687-1.374h5.5c2.335,0,5.22.962,5.22,3.847,0,2.336-1.924,3.572-4.122,3.572,3.023,0,4.945,7.281,8.381,7.281a10.412,10.412,0,0,1-2.885.414Zm3.022-.138a1.448,1.448,0,0,0,.824-1.374V83.048a1.615,1.615,0,0,0-.824-1.374H53.9a1.616,1.616,0,0,0-.824,1.374V95.275a1.448,1.448,0,0,0,.824,1.374H49.229Zm10.029,0a1.691,1.691,0,0,0,.687-1.374V83.46h-3.3a6.4,6.4,0,0,0-2.335.412l1.1-2.2H66.265a16.58,16.58,0,0,0,2.61-.138A3.135,3.135,0,0,1,66.54,83.46H62.968V95.275a1.511,1.511,0,0,0,.825,1.374H59.258Zm10.166,0a1.448,1.448,0,0,0,.825-1.374V83.048a1.614,1.614,0,0,0-.825-1.374H74.1a1.615,1.615,0,0,0-.825,1.374V95.275a1.448,1.448,0,0,0,.825,1.374H69.424Zm13.6-3.435c0-2.747-6.733-3.434-6.733-7.968,0-2.748,2.611-3.71,4.947-3.71a10.239,10.239,0,0,1,3.572.55l.137,2.885a4.008,4.008,0,0,0-3.435-2.2c-1.1,0-2.2.549-2.2,1.786,0,2.885,6.87,3.71,6.87,7.968,0,3.023-2.748,4.4-5.5,4.4a9.044,9.044,0,0,1-4.671-1.1c0-.55-.138-1.1-.138-1.512a9.316,9.316,0,0,1,.275-1.923,4.584,4.584,0,0,0,4.259,3.16A2.311,2.311,0,0,0,83.026,93.214Zm14.286,3.435A1.644,1.644,0,0,0,98,95.275v-5.5a21.384,21.384,0,0,0-3.16-.137,22.41,22.41,0,0,0-3.3.137v5.5a1.644,1.644,0,0,0,.687,1.374h-4.4a1.644,1.644,0,0,0,.687-1.374V83.048a1.883,1.883,0,0,0-.687-1.374h4.4a1.885,1.885,0,0,0-.687,1.374v5.083c.824,0,1.924.138,3.3.138,1.237,0,2.336-.138,3.16-.138V83.048a1.883,1.883,0,0,0-.687-1.374h4.4a1.518,1.518,0,0,0-.687,1.374V95.275a1.372,1.372,0,0,0,.687,1.374h-4.4Zm-70.89,19.372a.718.718,0,0,0,.275-.55,1.424,1.424,0,0,1-.138-.55s-1.237-3.3-1.373-3.709h-5.5c-.138.412-1.511,3.709-1.511,3.709-.138.413-.275.55-.275.689,0,.274.275.274.412.412H15.3a4.187,4.187,0,0,0,1.1-1.1L21.2,102.145a.134.134,0,0,0,.138-.137.929.929,0,0,0-.55-.826h3.847l4.945,13.738a2.815,2.815,0,0,0,1.1,1.1H26.423Zm-3.984-12.09-2.2,5.771a10.432,10.432,0,0,0,2.061.137,14.171,14.171,0,0,0,2.335-.137Zm8.93,12.09a1.449,1.449,0,0,0,.825-1.374V102.42a1.248,1.248,0,0,0-.825-1.237H36.04a1.248,1.248,0,0,0-.825,1.237v12.227a1.449,1.449,0,0,0,.825,1.374H31.368Zm11.541-13.6h-.687v5.221h.687a2.565,2.565,0,0,0,2.885-2.748C45.794,103.106,44.557,102.42,42.909,102.42Zm7.968,13.738a7.281,7.281,0,0,1-1.786-.137c-.961-.412-2.473-2.611-3.022-3.573-.825-1.373-1.924-3.433-3.847-3.433v5.632a1.4,1.4,0,0,0,.687,1.374H38.376a1.4,1.4,0,0,0,.687-1.374V102.42c0-.412-.138-1.1-.687-1.237h5.5c2.335,0,5.221.826,5.221,3.71a3.736,3.736,0,0,1-3.71,3.572c3.16.139,5.083,7.281,8.243,7.281a8.868,8.868,0,0,1-2.749.412Zm18.547-13.6L64.89,116.021a1.6,1.6,0,0,1-.962-.275,14.073,14.073,0,0,1-1.373-2.885l-2.061-5.221-3.022,8.381H56.1l-5.084-13.465a2.189,2.189,0,0,0-1.1-1.374h4.4a.716.716,0,0,0-.275.55.825.825,0,0,0,.137.549l3.3,8.931,3.435-10.03,3.847,9.617,3.022-8.793c0-.139.138-.275.138-.413,0-.274-.138-.274-.275-.412h2.885a2.192,2.192,0,0,0-1.1,1.374Zm5.358,1.374-2.2,5.771a10.425,10.425,0,0,0,2.061.137,11.857,11.857,0,0,0,2.2-.137Zm3.847,12.09c.275-.139.275-.275.275-.55a1.368,1.368,0,0,0-.138-.55s-1.1-3.3-1.374-3.709H72.035c-.137.412-1.511,3.709-1.511,3.709-.138.413-.275.55-.275.689,0,.274.275.274.412.412H67.638a2.441,2.441,0,0,0,.962-1.1l4.946-12.776.138-.137a.93.93,0,0,0-.549-.826h3.847l4.945,13.738a2.811,2.811,0,0,0,1.1,1.1h-4.4Zm13.465-13.328-3.435,6.183v5.771a1.593,1.593,0,0,0,.55,1.374h-4.26a1.6,1.6,0,0,0,.55-1.374v-5.771l-3.023-4.945c-.275-.412-1.51-2.61-3.16-2.61a11.463,11.463,0,0,1,2.61-.413c1.512,0,2.2.139,3.023,1.512l2.885,4.534c.275-.413,2.473-4.4,2.473-4.4a2.383,2.383,0,0,0,.413-.962c0-.137,0-.274-.275-.412H93.6a5.283,5.283,0,0,0-1.51,1.51Zm8.242,9.893c0-2.748-6.6-3.435-6.6-7.968,0-2.748,2.611-3.71,4.945-3.71a10.268,10.268,0,0,1,3.573.55l.137,2.885a4.011,4.011,0,0,0-3.435-2.2c-1.1,0-2.2.549-2.2,1.786,0,2.885,6.731,3.71,6.731,7.968,0,3.16-2.61,4.4-5.358,4.4a9.024,9.024,0,0,1-4.671-1.1c0-.549-.139-.96-.139-1.51,0-.687.139-1.237.139-1.786a4.958,4.958,0,0,0,4.259,3.022c1.511,0,2.61-.686,2.61-2.335ZM140.59,71.37c-2.61,2.473-8.105,4.671-10.715,5.633-3.71,1.374-5.359,1.924-7.42,2.61-2.335.687-7.007,2.2-7.007,2.2a108.815,108.815,0,0,0,16.488,3.71,50.072,50.072,0,0,0,8.242-3.71,17.885,17.885,0,0,0,4.945-3.16,3.837,3.837,0,0,0,1.512-2.473c0-.137.137-.275.137-.55v-.275a.425.425,0,0,1-.137-.275,1.359,1.359,0,0,0-.139-.549,2.3,2.3,0,0,0-.824-1.237,8.143,8.143,0,0,0-3.023-1.649,16.26,16.26,0,0,0-1.923-.55Z" transform="translate(-3162.256 -2790.277)" fill="#2c4a7c" fill-rule="evenodd"/>
      <path id="Path_8658" data-name="Path 8658" d="M158.678,73.215a.681.681,0,0,0-.137-.412c0-.275-.139-.412-.275-.687a5.291,5.291,0,0,1-.687-.824,3.622,3.622,0,0,1-.824-.687,13.575,13.575,0,0,0-4.535-1.511,52.077,52.077,0,0,0-5.358-.275c-.824,0-6.456,0-7.83.137-6.32.138-14.152.138-16.212.138-21.02,0-30.224-.412-40.391-2.473a108.48,108.48,0,0,1-13.464-3.3c7.694-.275,52.344-2.2,60.449-2.335a115.962,115.962,0,0,1,12.09,0,19.871,19.871,0,0,1,4.809.55,28.356,28.356,0,0,1,3.983.962,8.682,8.682,0,0,1,4.122,2.748,1.637,1.637,0,0,1,.549.549,6.114,6.114,0,0,0,.826,1.237,24.189,24.189,0,0,1,1.786,3.16,4.911,4.911,0,0,1,.55,1.237.889.889,0,0,1,.274.686c.139.412.139.825.275.962v.137Z" transform="translate(-3174.161 -2788)" fill="#c82e37" fill-rule="evenodd"/>
    </g>
  </g>
</svg>
