<svg xmlns="http://www.w3.org/2000/svg" xmlns:xlink="http://www.w3.org/1999/xlink" width="242" height="85" viewBox="0 0 242 85">
  <defs>
    <clipPath id="clip-path">
      <rect id="Rectangle_1859" data-name="Rectangle 1859" width="119.163" height="24.054" fill="#c23c40"/>
    </clipPath>
    <clipPath id="clip-path-2">
      <rect id="Rectangle_1860" data-name="Rectangle 1860" width="42.697" height="53.188" fill="#c23c40"/>
    </clipPath>
  </defs>
  <g id="_7" data-name="7" transform="translate(3615 2952)">
    <rect id="Rectangle_39" data-name="Rectangle 39" width="242" height="85" transform="translate(-3615 -2952)" fill="none"/>
    <g id="Group_7323" data-name="Group 7323" transform="translate(-3581 -2936)" style="isolation: isolate">
      <g id="Group_7320" data-name="Group 7320" transform="translate(54.562 13.582)">
        <g id="Group_7319" data-name="Group 7319" transform="translate(0 0)" clip-path="url(#clip-path)">
          <path id="Path_8469" data-name="Path 8469" d="M14.1,21.141H8.744c-1.688,0-1.56-1.4-1.707-2.6v-7.69s1.177-.028,2.5-.028a9.524,9.524,0,0,1,5.128.8A5.529,5.529,0,0,0,9.53,8.506H7.036V6.045a6.548,6.548,0,0,0-.524-2.779l3.532.012c3.061,0,5.428-.044,7.889,1.6,0,0-.471-4.052-6.384-4.052H0a6.873,6.873,0,0,1,1.95,5.21l.056,14c0,3.513,1.407,3.61,1.407,3.61H14.8a3.143,3.143,0,0,0,3.47-2.777c0-.024.006-.046.007-.068l.038-1.342s-.82,1.687-4.218,1.687Z" transform="translate(0 0.388)" fill="#c23c40" fill-rule="evenodd"/>
          <path id="Path_8470" data-name="Path 8470" d="M38.31,18.517V8.727c0-3.8-3.1-4.808-5.416-4.808a4.678,4.678,0,0,0-4.367,3.435A5.122,5.122,0,0,0,23.5,3.891a4.868,4.868,0,0,0-4.635,3.52s-.087-3.4-3.055-3.4H12.905S14.59,4.7,14.59,7.642V18.514c0,3.59,1.448,3.651,1.448,3.651h4.793a4.657,4.657,0,0,1-1.84-3.679V8.843a2.722,2.722,0,0,1,2.851-1.885,2.659,2.659,0,0,1,2.43,2.595v8.96c0,3.641,1.428,3.651,1.428,3.651h4.813a4.756,4.756,0,0,1-1.84-3.679l-.028-9.653a2.7,2.7,0,0,1,5.26.748s-.009,8.178,0,8.938c.022,3.666,1.429,3.632,1.429,3.632,2.5,0,4.813.01,4.813.01a4.674,4.674,0,0,1-1.835-3.648Z" transform="translate(6.088 1.834)" fill="#c23c40" fill-rule="evenodd"/>
          <path id="Path_8471" data-name="Path 8471" d="M37.831,18.477a4.612,4.612,0,0,0,1.847,3.654s-2.289-.01-4.793-.01c0,0-1.472.022-1.472-3.616V7.587c0-2.874-1.666-3.613-1.666-3.613h2.908c1.03,0,3.161,0,3.161,4.065L37.809,18.46l.016.018Z" transform="translate(14.977 1.875)" fill="#c23c40" fill-rule="evenodd"/>
          <path id="Path_8472" data-name="Path 8472" d="M49.838,5.351a2.4,2.4,0,0,0-2.453-1.307c-3.011,0-3.744,3.578-3.744,3.578-.244-2.829-1-3.665-3.127-3.665L37.6,3.964s1.685.69,1.685,3.628V18.483c0,3.593,1.447,3.651,1.447,3.651H45.53a4.64,4.64,0,0,1-1.84-3.679V9.542A2.6,2.6,0,0,1,44.868,7.7a3.774,3.774,0,0,1,4.973.729Z" transform="translate(17.74 1.867)" fill="#c23c40" fill-rule="evenodd"/>
          <path id="Path_8473" data-name="Path 8473" d="M63.883,7.333a6.144,6.144,0,0,1,2.836.709L66.734,5.3H62.7V1.15a14.9,14.9,0,0,1-3.228,3.613,27.823,27.823,0,0,1-4.221,2.5L58.3,7.32V19.952c0,3.5,1.472,3.5,1.472,3.5,2.63,0,4.789.01,4.789.01a4.53,4.53,0,0,1-1.851-3.545V7.327c1.258-.007.389,0,1.177,0Z" transform="translate(26.065 0.543)" fill="#c23c40" fill-rule="evenodd"/>
          <path id="Path_8474" data-name="Path 8474" d="M70.641,19.731a4.947,4.947,0,0,1-2.4-3.782c1.678-2.06,3.8-1.619,6.49-4.43,3.532-3.694.9-7.638-3.974-7.609-4.96.029-7.594,4.607-7.594,9.552,0,5.019,3.223,8.727,7.933,8.727,3.915,0,5.136-1.428,5.136-1.428l.015-2.929a.112.112,0,0,1-.029.059,4.157,4.157,0,0,1-5.578,1.84M70.48,5.367c2.708-.206,2.1,3.5,1.31,4.989-1.222,2.237-2.8,2.473-3.856,3.62,0,0-.6-8.374,2.546-8.61" transform="translate(29.798 1.845)" fill="#c23c40" fill-rule="evenodd"/>
          <path id="Path_8475" data-name="Path 8475" d="M35.084,4.38a2.232,2.232,0,1,0-.012,0h.012" transform="translate(15.495 0.001)" fill="#c23c40" fill-rule="evenodd"/>
          <path id="Path_8476" data-name="Path 8476" d="M58.334,18.5V8.3c0-2.443-2.693-4.342-5.578-4.342a7.909,7.909,0,0,0-4.5,1.325V8.449a4.066,4.066,0,0,1,3.488-2.5c2.443,0,2.62,1.222,2.6,1.825a2.573,2.573,0,0,1-.353,1.884c-1.119,1.957-9.8,2.37-8.463,9.081.515,2.664,2.3,3.444,4.533,3.444a4.348,4.348,0,0,0,4-2.193c.324,2.031,1.354,2.134,1.354,2.134,2.5,0,4.783.015,4.783.015A4.643,4.643,0,0,1,58.334,18.5m-7.167,1.56v.015a2.147,2.147,0,0,1-1.884-2.3c0-4.533,3.709-5.151,4.71-6.373l.015,7.638a3.287,3.287,0,0,1-2.84,1.016" transform="translate(21.413 1.868)" fill="#c23c40" fill-rule="evenodd"/>
          <path id="Path_8477" data-name="Path 8477" d="M80.508,17.248a3.218,3.218,0,0,1-3.438,2.98l-.125-.012a4.072,4.072,0,0,1-3.5-2.559V20.9a8.456,8.456,0,0,0,4.562,1.286c3.281,0,6.6-2.493,6.523-5.964a5.382,5.382,0,0,0-1.126-3.158,16.6,16.6,0,0,0-4.695-3.49,3.037,3.037,0,0,1-1.378-1.878c-.026-.608.268-1.835,2.711-1.835a4.044,4.044,0,0,1,3.4,2.5l-.009-3.038a7.924,7.924,0,0,0-4.587-1.448c-2.876,0-5.487,1.9-5.438,4.339a5.738,5.738,0,0,0,2.7,4.838,22.413,22.413,0,0,0,2.475,1.55,3.122,3.122,0,0,1,1.924,2.637Z" transform="translate(34.629 1.827)" fill="#c23c40" fill-rule="evenodd"/>
        </g>
      </g>
      <g id="Group_7322" data-name="Group 7322" transform="translate(0 0)">
        <g id="Group_7321" data-name="Group 7321" clip-path="url(#clip-path-2)">
          <path id="Path_8478" data-name="Path 8478" d="M22.913,4.348a6.56,6.56,0,0,0-1.371,3.929c0,.479.008,11.941,0,12.352a4.612,4.612,0,0,1-.989,2.553c-.309.309-2.21,2.038-2.379,2.219l1.077.017c.35-.336,4.012-3.581,4.4-4.017a6.33,6.33,0,0,0,1.685-4.255V5.277a4.584,4.584,0,0,1,1.257-3.245c.439-.489,1.882-1.693,2.138-1.966L27.595.033c-.264.275-4.307,3.921-4.682,4.315M13.847,49.26l4.484,3.917h3a11.018,11.018,0,0,0,7.684-3.146A9.227,9.227,0,0,0,31.538,43.4V36.977a5.209,5.209,0,0,0-1.732-3.79c-.206-.2-1.511-1.436-1.511-1.436v4.925s1.44,1.486,1.718,1.787c1.33,1.413,1.322,3.986-2.895,8.09a8.534,8.534,0,0,1-5.737,2.7H13.847Z" transform="translate(4.457 0.011)" fill="#c23c40" fill-rule="evenodd"/>
          <path id="Path_8479" data-name="Path 8479" d="M30.316,19.141a4.946,4.946,0,0,0-.978,2.961v2.431H31.8A3.766,3.766,0,0,0,34.3,23.2c.016-.034,0-2.411,0-2.411a6.637,6.637,0,0,0,1.322,1.385c.256-.325,2.5-3.04,4.381-3.062,3.138-.025,2.428,3.934,1.147,5.2-.415.407-2.268,2.108-2.842,2.653-1.482,1.41-4.02.736-4.02-2.908,0,0-2.723,2.586-3.13,2.928s-1.815,1.83-1.815,1.83v6.406a6.214,6.214,0,0,1-1.851,5.023c-.325.358-3.785,3.515-4.247,3.857l-1.13.025s2.024-1.84,2.43-2.262a4.348,4.348,0,0,0,1-3.072c0-.411-.052-10.066-.052-10.066H9.761c-5.473,0-6.643-6.081-6.677-7.7-.008-.479,0-5.33,0-6.081a4.061,4.061,0,0,0-1.659-3.2H2.969c.178.075,1.147.465,1.147,4.19,0,0-.066,4.333-.066,4.565a4.007,4.007,0,0,0,3.664,4.053l17.81-.017a6.937,6.937,0,0,1,1.35-3.256c.486-.542,4.305-4.037,4.743-4.373l1.132-.013c-.172.157-2.02,1.814-2.432,2.247m5.848,3.648a14.993,14.993,0,0,0,1.523,1.763c1.918,1.539,2.829-.114,1.541-1.882-.509-.7-2.483-.5-3.064.118Z" transform="translate(0.459 3.781)" fill="#c23c40" fill-rule="evenodd"/>
          <path id="Path_8480" data-name="Path 8480" d="M15.9,38.044c0,.861-2.747,3.142-2.908,3.3-.2-.925-.891-1.95-2.939-4l3.006-3.006c2.013,2.016,2.841,2.444,2.841,3.7M21.112,3.586c.6.6,1.9,2.239,1.122,3.019-.687.689-1.754,1.779-1.754,1.779-.054-.4-1.058-1.34-1.058-1.34s.008,2.908,0,3.262c-.034,1.31-.529,1.684-.529,1.684a8.725,8.725,0,0,1,2.422,5.49v3.173a2.2,2.2,0,0,1-.6,1.607c-.217.241-2.463,2.5-2.805,2.805a2.632,2.632,0,0,1-1.851.683H7.723c-1.315,0-2.668-1.026-2.668-2.053,0-.256.017-3.1.017-3.1a2.248,2.248,0,0,0,1.915,1.058,3.335,3.335,0,0,0,1.925-.887c.239-.242,6.316-6.594,6.316-6.594a51.246,51.246,0,0,0-4.73-3.892,1.614,1.614,0,0,0-2.313.966,21.172,21.172,0,0,0,0,6.317l-2.305-2.3a3.207,3.207,0,0,1,.212-4.139A6.12,6.12,0,0,1,10.1,9.051h3.332c2.237,0,4.682,2.227,4.682,2.227a1.412,1.412,0,0,0,.36-.775c0-1.146-.042-4.238-.042-4.238-1.683-1.681-1.911-3.418-1.105-4.23C18.834.531,19.382,0,19.382,0a5.445,5.445,0,0,0,1.737,3.58ZM10.637,20.361A6.77,6.77,0,0,1,8.9,21.9h9.4c2.549,0,2.041-1.586,1.586-2.379a35.8,35.8,0,0,0-3.9-4.676s-5.186,5.334-5.356,5.515Z" transform="translate(1.627 0)" fill="#c23c40" fill-rule="evenodd"/>
          <path id="Path_8481" data-name="Path 8481" d="M1.543,21.877H0a3.7,3.7,0,0,1,1.659,3.261v7.5c0,4.883,4.028,9.4,8.921,9.4h4.083a5.9,5.9,0,0,0,4.8-1.911c.543-.484,1.251-1.277,1.51-1.565a5.192,5.192,0,0,0,1.766-4.246V31.863a4.508,4.508,0,0,0-1.823-3.6c-.381-.381-1.426-1.38-1.426-1.38v5.034s1.031,1.1,1.484,1.454a2.594,2.594,0,0,1-1.535,4.586c-.4,0-8.43,0-8.977.016a7.947,7.947,0,0,1-7.774-7.824V26.067c0-4.19-1.147-4.19-1.147-4.19Z" transform="translate(0 7.042)" fill="#c23c40" fill-rule="evenodd"/>
          <path id="Path_8482" data-name="Path 8482" d="M10.034,29.691c0,.857-2.747,3.142-2.908,3.3-.2-.925-.891-1.95-2.94-4l3.006-3.006c2.016,2.016,2.841,2.443,2.841,3.7Z" transform="translate(1.347 8.366)" fill="#c23c40" fill-rule="evenodd"/>
        </g>
      </g>
    </g>
  </g>
</svg>
