<svg xmlns="http://www.w3.org/2000/svg" width="242" height="85" viewBox="0 0 242 85">
  <g id="_8" data-name="8" transform="translate(3353 2952)">
    <rect id="Rectangle_40" data-name="Rectangle 40" width="242" height="85" transform="translate(-3353 -2952)" fill="none"/>
    <g id="singapore-airlines-6" transform="translate(-3305 -2936)">
      <g id="Group_7467" data-name="Group 7467" transform="translate(0 0)">
        <path id="Path_8700" data-name="Path 8700" d="M0,863.4H100.384l-1.989,3.109H0Z" transform="translate(0 -813.321)" fill="#fcb130"/>
        <path id="Path_8701" data-name="Path 8701" d="M1926.193,161.9H1922.5l7.453-11.763a5.866,5.866,0,0,0-.342-5.011l-10.388-17.2a3.316,3.316,0,0,1,0-3.126l3.074-4.6,12.192,19.918a8.174,8.174,0,0,1-.273,9.338Z" transform="translate(-1807.527 -113.228)" fill="#fcb130"/>
        <path id="Path_8702" data-name="Path 8702" d="M1859.914,45.067l4.53-6.9a5.321,5.321,0,0,1,4.739-2.848h4.808l3.353,5.284s-2.645-.273-3.828,1.612l-4.942,7.453a6.576,6.576,0,0,1-5.922,3.486H1839.37l8.857-13.6s1.253-1.6-.5-4.24l-7.883-12.668s-1.937-1.873.07-5.081l2.3-3.486,10.951,17.754a4.61,4.61,0,0,1,0,5.359l-8.225,12.824h17.342s1.955.36,3.637-2.146l4.31-6.63a6.653,6.653,0,0,1,3.144-3.144h-3.486a4.379,4.379,0,0,0-3.208,2.233l-3.828,5.922a5.294,5.294,0,0,1-4.466,2.506h-6.061l7.314-11.351s3.985-5.238,1.183-10.046L1848.7,7.314a3.526,3.526,0,0,1,.139-3.347L1851.486,0l13.8,22.232s2.024,3.329,2.024,5.9-1.612,5.493-2.506,6.972l-6.079,9.478s-.684.911-.2,1.253.974-.273,1.386-.771" transform="translate(-1732.339 0)" fill="#fcb130"/>
      </g>
      <path id="Path_8703" data-name="Path 8703" d="M51.391,385.342h2.146v8.5h5.238v1.821H51.391Zm9.031,10.319H62.55V385.342H60.422Zm-26.13,0H36.4V385.342H34.292Zm43.484-10.319h8.085v1.705H79.922v2.523h5.046v1.873H79.922v2.506h5.939v1.717H77.776Zm11.386-13.868h8.085v1.7H91.308v2.506h5.064v1.873H91.308v2.506h5.939v1.7H89.162ZM39.68,395.66V385.342h6.131a2.952,2.952,0,0,1,2.952,3A3.42,3.42,0,0,1,46.53,391.8l3.109,3.863H46.994L42.7,390.306h2.233a1.608,1.608,0,0,0,1.6-1.647,1.552,1.552,0,0,0-1.682-1.647H41.826v8.654H39.68Zm37.719-13.9V371.473H83.53a2.952,2.952,0,0,1,2.952,3,3.431,3.431,0,0,1-2.233,3.434l3.109,3.846H84.713l-4.292-5.319h2.233a1.608,1.608,0,0,0,1.6-1.647,1.542,1.542,0,0,0-1.682-1.647H79.545v8.619Zm-42.95-1.786h2.9v-4.721h2.059v6.508H34a5.153,5.153,0,0,1,.157-10.284h5.307v1.821H34.675a3.2,3.2,0,0,0-3.213,3.382,3.447,3.447,0,0,0,2.987,3.294m30.9,5.371h2.163v1.6l1.357-1.6H71.43a3.3,3.3,0,0,1,3.5,3.556v6.763H72.753v-7.088a1.485,1.485,0,0,0-1.543-1.409H67.521v8.5H65.358ZM17.726,371.473h2.146v1.578l1.357-1.578h2.558a3.31,3.31,0,0,1,3.521,3.556v6.728H25.128V374.7a1.507,1.507,0,0,0-1.56-1.409H19.873v8.462H17.726Zm-5.081,10.284h2.111V371.473H12.646Zm75.571,13.886v-1.752H94.19s1.183.22,1.183-1.218-.893-1.288-1.218-1.288H90.7s-2.662.186-2.662-2.935,2.627-3.109,2.627-3.109h6.56v1.821H91.476s-1.253,0-1.253,1.183.841,1.409,1.63,1.409h3.074s2.593-.273,2.593,2.813a2.746,2.746,0,0,1-2.662,3.074ZM1.074,381.757v-1.752H7.048s1.183.226,1.183-1.218S7.338,377.5,7.014,377.5H3.562S.9,377.685.9,374.582c0-3.126,2.627-3.109,2.627-3.109h6.56v1.821H4.334s-1.253,0-1.253,1.183.858,1.409,1.63,1.409H7.785s2.593-.273,2.593,2.8a2.741,2.741,0,0,1-2.662,3.074Z" transform="translate(-0.848 -349.926)" fill="#1d4886"/>
      <path id="Path_8704" data-name="Path 8704" d="M391.283,360.5a5.623,5.623,0,1,0,5.62,5.673v-.046a5.608,5.608,0,0,0-5.62-5.626m0,9.176a3.55,3.55,0,0,1,0-7.1,3.55,3.55,0,1,1,0,7.1m-22.116-8.538H366.9L362,371.422h2.413l1.3-2.958h4.663l1.288,2.958h2.407m-7.755-4.472,1.717-4.211,1.7,4.2Zm-17.256,8.062H346.8l-4.9,10.318h2.413l1.3-2.964h4.663l1.288,2.964h2.407m-7.761-4.489,1.717-4.223,1.7,4.211Zm34.917-19.7h-5.713v10.284h2.192v-4.994l1.264,1.74h2.256a3.522,3.522,0,0,0,0-7.03m-.081,5.127H377.6v-3.237h3.445c.771,0,1.3.853,1.3,1.63a1.49,1.49,0,0,1-1.3,1.607" transform="translate(-322.069 -339.59)" fill="#1d4886"/>
    </g>
  </g>
</svg>
