<svg xmlns="http://www.w3.org/2000/svg" width="242" height="84" viewBox="0 0 242 84">
  <g id="_0" data-name="0" transform="translate(3615 3056)">
    <rect id="Rectangle_39" data-name="Rectangle 39" width="242" height="84" transform="translate(-3615 -3056)" fill="none"/>
    <g id="Group_7489" data-name="Group 7489" transform="translate(-3586.887 -3035.26)" opacity="0.5">
      <g id="Group_7298" data-name="Group 7298" transform="translate(0.887 18.893)">
        <path id="Path_8443" data-name="Path 8443" d="M46.336,25.89a5.785,5.785,0,0,0,2.835-5.153c0-5.062-3.622-6.735-10.034-6.735H28V31.156h5.467V27.562h5.692a20.055,20.055,0,0,0,2.407-.136,10.265,10.265,0,0,1,2.25,3.707h5.669A13.453,13.453,0,0,0,46.336,25.89Zm-6.929-2.283H33.467v-5.65h5.939c2.88,0,4.522.52,4.522,2.78C43.906,23.02,42.286,23.607,39.406,23.607Z" transform="translate(8.992 -14.002)" fill="#c3c3cf"/>
        <path id="Path_8444" data-name="Path 8444" d="M26.155,14H20.688V31.156h5.467Z" transform="translate(6.42 -14.002)" fill="#c3c3cf"/>
        <path id="Path_8445" data-name="Path 8445" d="M58.748,14H53.281V31.156h5.467Z" transform="translate(17.882 -14.002)" fill="#c3c3cf"/>
        <path id="Path_8446" data-name="Path 8446" d="M104.068,14H98.6V31.156h5.466Z" transform="translate(33.821 -14.002)" fill="#c3c3cf"/>
        <path id="Path_8447" data-name="Path 8447" d="M90.877,14h-10.8V31.156h10.8c6.345,0,11.024-2.87,11.024-8.588S97.222,14,90.877,14Zm-.652,13.063h-4.68V18.093h4.68c4.072,0,6.232,1.446,6.232,4.475S94.3,27.065,90.225,27.065Z" transform="translate(27.306 -14.002)" fill="#c3c3cf"/>
        <path id="Path_8448" data-name="Path 8448" d="M77.286,21.822A26.234,26.234,0,0,0,65.2,14H60.57V31.156h5.242V19.562c4.994,1.627,9.607,6.735,11.879,11.594h4.815V14H77.264v7.82Z" transform="translate(20.446 -14.002)" fill="#c3c3cf"/>
        <path id="Path_8449" data-name="Path 8449" d="M9.295,14C5.695,18.093.633,24.986.633,31.156H6.077a11.933,11.933,0,0,1,.337-2.8h12.4a12.079,12.079,0,0,1,.338,2.8h5.444c0-6.17-5.062-13.063-8.662-17.154ZM7.652,24.737a33.477,33.477,0,0,1,4.95-7.594,33.474,33.474,0,0,1,4.95,7.594Z" transform="translate(-0.633 -14.002)" fill="#c3c3cf"/>
        <path id="Path_8450" data-name="Path 8450" d="M120.275,14h-6.637c-3.6,4.091-8.662,10.984-8.662,17.154h5.445a11.964,11.964,0,0,1,.337-2.8h12.4a12.037,12.037,0,0,1,.338,2.8h5.445C128.937,24.963,123.875,18.093,120.275,14ZM112,24.737a33.489,33.489,0,0,1,4.949-7.594,33.446,33.446,0,0,1,4.95,7.594Z" transform="translate(36.063 -14.002)" fill="#c3c3cf"/>
      </g>
      <path id="Path_8451" data-name="Path 8451" d="M147.512,29.7a17.284,17.284,0,0,0-1.034-8.136c-.473-1.333-.856-2.4-1.192-3.345a71.632,71.632,0,0,1-2.88-9.425l-.36-1.424-1.395-.452a67.394,67.394,0,0,1-9.156-3.594c-.923-.407-1.957-.881-3.24-1.446a17.8,17.8,0,0,0-6.569-1.65c-4.252-.158-8.325,1.582-12.127,5.153l.068-.023a34.211,34.211,0,0,0-2.97,3.006s.023.068.247-.113c1.327-1.085,5.67-5.153,17.481.181,5.8,2.622,11.384,4.95,11.384,4.95s1.822,5.763,3.914,11.82c4.252,12.272-.157,16.272-1.349,17.493-.181.2-.114.226-.114.226a29.7,29.7,0,0,0,4.229-3.706A16.813,16.813,0,0,0,147.512,29.7Z" transform="translate(37.541 0.043)" fill="#c3c3cf"/>
    </g>
  </g>
</svg>
