<svg xmlns="http://www.w3.org/2000/svg" xmlns:xlink="http://www.w3.org/1999/xlink" width="242" height="84" viewBox="0 0 242 84">
  <defs>
    <clipPath id="clip-path">
      <path id="Path_8454" data-name="Path 8454" d="M146.364,49.81l5.74,9.451a10.051,10.051,0,0,0,9,4.934h15.984l-18.56-22.533c-8.561.354-13.094,5.845-12.164,8.148" transform="translate(-146.244 -41.662)" fill="#c3c3cf"/>
    </clipPath>
    <clipPath id="clip-path-2">
      <path id="Path_8455" data-name="Path 8455" d="M145.722,46.029a6.914,6.914,0,0,0,.507,2.549c-.93-2.3,3.6-7.794,12.164-8.148l-2.93-3.557c-5.182,1.065-9.741,4.012-9.741,9.156" transform="translate(-145.722 -36.873)" fill="#363660"/>
    </clipPath>
    <clipPath id="clip-path-3">
      <path id="Path_8456" data-name="Path 8456" d="M137.642,34.468a7.587,7.587,0,0,0,1.309,3.824l5.2,8.549a6.914,6.914,0,0,1-.507-2.549c0-5.144,4.559-8.091,9.741-9.156a22.76,22.76,0,0,1,4.557-.458,10.387,10.387,0,0,1,3.378.4c-.54-1.97-1.97-4.96-10.011-4.96-7.825,0-13.667,1.288-13.667,4.351" transform="translate(-137.642 -30.117)" fill="#c3c3cf"/>
    </clipPath>
    <clipPath id="clip-path-4">
      <path id="Path_8457" data-name="Path 8457" d="M114.367,0l10.371,17.035c2.152,3.528,2.949,4.408,8.07,4.415h9.785L129.1,4.413C126.125.732,124.409.056,121.677,0Z" transform="translate(-114.367)" fill="#c3c3cf"/>
    </clipPath>
    <clipPath id="clip-path-5">
      <rect id="Rectangle_1858" data-name="Rectangle 1858" width="143.657" height="53.477" fill="none"/>
    </clipPath>
  </defs>
  <g id="_1" data-name="1" transform="translate(3353 3056)">
    <rect id="Rectangle_40" data-name="Rectangle 40" width="242" height="84" transform="translate(-3353 -3056)" fill="none"/>
    <g id="Group_7487" data-name="Group 7487" transform="translate(-3304 -3041)" opacity="0.5">
      <g id="Group_7300" data-name="Group 7300" transform="translate(0 12.082)">
        <g id="Group_7312" data-name="Group 7312">
          <path id="Path_8453" data-name="Path 8453" d="M82.489,31.027V24.045c0-1.335-.61-2.147-1.748-2.147-1.508,0-2.513,1.608-2.513,3.778v5.351H75.773v-7.94c0-.877-.082-2.148-.117-2.874h1.969c.226,0,.29.093.29.3.006.227.024,1.347.024,1.347h.052A3.466,3.466,0,0,1,81.3,19.987a3.37,3.37,0,0,1,3.639,3.385v7.655ZM63.3,28.654c.063,0,.156.041.174.232.046.516.07,1.358.07,1.619a6.47,6.47,0,0,1-2.856.726c-3.273,0-5.282-1.9-5.282-5.619,0-3.483,1.788-5.619,5.282-5.619a6.483,6.483,0,0,1,2.856.726c0,.383-.035,1.254-.07,1.625-.012.151-.087.227-.174.227a.336.336,0,0,1-.192-.053,5.033,5.033,0,0,0-2.2-.574c-2.084,0-2.943,1.364-2.943,3.668,0,2.061.685,3.668,2.943,3.668a5.117,5.117,0,0,0,2.136-.54c.128-.063.151-.087.255-.087m8.48,2.374a.336.336,0,0,1-.382-.354c-.023-.348-.076-1.033-.076-1.033H71.3a3.772,3.772,0,0,1-3.291,1.59,3.313,3.313,0,0,1-3.378-3.477c0-2.519,2.45-3.79,6.083-3.79h.482V23.57c0-1.133-.807-1.742-2.311-1.742a6.668,6.668,0,0,0-2.914.7.491.491,0,0,1-.186.058c-.11,0-.18-.07-.186-.2-.017-.406-.064-1.184-.069-1.678a10.188,10.188,0,0,1,3.529-.72c3.209,0,4.592,1.5,4.592,3.872v4.22a22.386,22.386,0,0,0,.192,2.948Zm-.591-5.484h-.418c-3.082,0-3.686,1.073-3.686,2.159a1.658,1.658,0,0,0,1.736,1.735c1.532,0,2.369-1.48,2.369-3.036ZM40.411,28.654c.134,0,.175.122.186.244.041.459.082,1.5.076,1.771a10.5,10.5,0,0,1-3.35.563c-3.448,0-5.514-1.782-5.514-5.613,0-3.286,1.764-5.625,4.94-5.625,3.111,0,4.6,2.078,4.6,4.667,0,.307-.035.819-.087,1.5h-6.93a3.025,3.025,0,0,0,3.343,3.174,5.879,5.879,0,0,0,2.537-.615.416.416,0,0,1,.2-.064m-6.054-4.144H38.9c.093-1.742-.818-2.716-2.2-2.716-1.445,0-2.275,1.044-2.339,2.716m-6.792,6.518V24.109c0-1.243-.522-2.211-1.8-2.211-1.428,0-2.259,1.567-2.259,3.761v5.368h-2.45V24.086c0-1.133-.476-2.188-1.788-2.188-1.451,0-2.263,1.567-2.263,3.842v5.287H14.546V23.151c0-1.016-.093-2.456-.116-2.938h1.961c.221,0,.29.076.3.3,0,.29.017,1.341.017,1.341h.058a3.391,3.391,0,0,1,3.21-1.869,3.243,3.243,0,0,1,3.1,1.973,3.582,3.582,0,0,1,3.245-1.973c2.2,0,3.7,1.185,3.7,3.558v7.482Zm18.122-5.276v5.276H43.232V22.994c0-.772-.087-2.24-.122-2.78H45.1c.215,0,.279.093.279.3.006.319.023,1.341.023,1.341h.058a2.972,2.972,0,0,1,2.932-1.864,3.348,3.348,0,0,1,1.27.25c0,.464-.052,1.486-.075,1.759-.012.175-.093.232-.18.232a.393.393,0,0,1-.169-.035,2.733,2.733,0,0,0-1-.175c-1.313,0-2.543.946-2.543,3.727m5.27-5.538h2.45V31.027h-2.45Zm-.029-3.947h2.508v2.368H50.928Zm-40.1,14.76L9.705,27.842H3.691L2.565,31.027H0L5.387,16.836H8.242l5.305,14.191ZM6.722,19.419H6.675l-2.3,6.5H9.02Zm73.5,29.532c3.193,0,4.719-1.306,4.719-3.245,0-1.915-1.358-2.715-2.8-3.192-.412-.133-.814-.273-1.191-.394-.986-.326-1.5-.756-1.5-1.394,0-.673.615-1.143,1.891-1.143a5.575,5.575,0,0,1,2.433.638.427.427,0,0,0,.215.064c.075,0,.168-.046.186-.238.023-.359.064-1.015.064-1.648a6.836,6.836,0,0,0-3.1-.69c-2.634,0-4.26,1.375-4.26,3.186,0,1.754,1.2,2.554,2.525,3,.3.1.865.29,1.2.4,1.383.458,1.771.876,1.771,1.52,0,.843-.895,1.254-2.438,1.254a5.376,5.376,0,0,1-2.484-.627.444.444,0,0,0-.21-.063c-.18,0-.186.238-.186.279-.012.116-.07,1.236-.07,1.612a8.18,8.18,0,0,0,3.234.685m-5.752-2.576c.139,0,.18.116.191.238.041.464.076,1.508.076,1.77a10.337,10.337,0,0,1-3.356.568c-3.442,0-5.513-1.775-5.513-5.612,0-3.292,1.764-5.63,4.939-5.63,3.117,0,4.6,2.083,4.6,4.673,0,.3-.029.818-.087,1.5H68.388a3.034,3.034,0,0,0,3.35,3.176,5.847,5.847,0,0,0,2.531-.616.425.425,0,0,1,.2-.063m-6.055-4.145h4.546c.093-1.742-.825-2.717-2.206-2.717-1.44,0-2.271,1.045-2.34,2.717m-6.784,6.518V41.766c0-1.335-.611-2.147-1.754-2.147-1.508,0-2.513,1.607-2.513,3.773v5.357h-2.45V40.8c0-.87-.082-2.147-.123-2.867h1.974c.221,0,.285.093.285.3.005.226.029,1.346.029,1.346h.052a3.443,3.443,0,0,1,3.314-1.868,3.367,3.367,0,0,1,3.633,3.382v7.657ZM39.285,43.472v5.276H36.824V40.715c0-.772-.087-2.245-.116-2.779h1.979c.215,0,.279.093.284.3,0,.319.017,1.34.017,1.34h.058a2.974,2.974,0,0,1,2.932-1.868,3.354,3.354,0,0,1,1.272.255c0,.464-.053,1.485-.076,1.759-.017.174-.093.232-.18.232a.407.407,0,0,1-.169-.035,2.737,2.737,0,0,0-1-.174c-1.312,0-2.536.945-2.536,3.726M47.1,34H44.654V48.748H47.1ZM31.7,37.935h2.455V48.749H31.7Zm-.029-3.953h2.513v2.373H31.67Zm18.115,3.953h2.45V48.749h-2.45Zm-.029-3.953h2.507v2.373H49.756ZM27.972,48.749l-1.12-3.193H20.838l-1.126,3.193H17.147l5.381-14.2h2.861l5.305,14.2Zm-4.11-11.61h-.041l-2.3,6.5h4.644Z" transform="translate(0 -16.267)" fill="#c3c3cf"/>
        </g>
      </g>
      <g id="Group_7302" data-name="Group 7302" transform="translate(108.62 30.944)">
        <g id="Group_7301" data-name="Group 7301" clip-path="url(#clip-path)">
          <rect id="Rectangle_1854" data-name="Rectangle 1854" width="31.654" height="22.533" transform="translate(-0.81 0)" fill="#c3c3cf"/>
        </g>
      </g>
      <g id="Group_7304" data-name="Group 7304" transform="translate(108.232 27.387)">
        <g id="Group_7303" data-name="Group 7303" clip-path="url(#clip-path-2)">
          <rect id="Rectangle_1855" data-name="Rectangle 1855" width="13.094" height="11.705" transform="translate(-0.423 0)" fill="#363660"/>
        </g>
      </g>
      <g id="Group_7306" data-name="Group 7306" transform="translate(102.231 22.369)">
        <g id="Group_7305" data-name="Group 7305" clip-path="url(#clip-path-3)">
          <rect id="Rectangle_1856" data-name="Rectangle 1856" width="28.909" height="26.53" transform="translate(-7.383 4.436) rotate(-31)" fill="#c3c3cf"/>
        </g>
      </g>
      <g id="Group_7308" data-name="Group 7308" transform="translate(84.944)">
        <g id="Group_7307" data-name="Group 7307" clip-path="url(#clip-path-4)">
          <rect id="Rectangle_1857" data-name="Rectangle 1857" width="28.225" height="21.45" transform="translate(0 0)" fill="#c3c3cf"/>
        </g>
      </g>
      <g id="Group_7310" data-name="Group 7310" transform="translate(0 0)">
        <g id="Group_7309" data-name="Group 7309" clip-path="url(#clip-path-5)">
          <path id="Path_8458" data-name="Path 8458" d="M192.58,69.951a1.209,1.209,0,1,1-1.209-1.209,1.2,1.2,0,0,1,1.209,1.209m-2.181,0a.972.972,0,1,0,.971-.972.97.97,0,0,0-.971.972m.94.079h-.11v.5h-.213v-1.2h.355c.277,0,.427.143.427.356a.309.309,0,0,1-.237.316l.292.529h-.244Zm-.023-.15c.181,0,.269-.079.269-.206s-.1-.2-.269-.2a.478.478,0,0,0-.087.008v.388a.84.84,0,0,0,.087.007" transform="translate(-48.923 -17.685)" fill="#334757"/>
        </g>
      </g>
    </g>
  </g>
</svg>
