<svg xmlns="http://www.w3.org/2000/svg" width="243" height="85" viewBox="0 0 243 85">
  <g id="_10" data-name="10" transform="translate(2828 2952)">
    <rect id="Rectangle_42" data-name="Rectangle 42" width="243" height="85" transform="translate(-2828 -2952)" fill="none"/>
    <g id="srilankan-airlines-1" transform="translate(-2808 -2936)" opacity="0.5">
      <path id="Path_8491" data-name="Path 8491" d="M59.825.351A2.64,2.64,0,0,1,60.879,0c-.2.327-.5.58-.694.915a8.053,8.053,0,0,0-.98,2.721,24.984,24.984,0,0,1-.539,2.7,10.132,10.132,0,0,1-1.789,3.415,16.51,16.51,0,0,1-3.668,3.195A33.346,33.346,0,0,0,48.436,16.5a9.076,9.076,0,0,0-2.255,3.6,57.626,57.626,0,0,1-2.786,7.492,18.02,18.02,0,0,1-3.342,4.673A28.478,28.478,0,0,1,34.048,36.7,56.181,56.181,0,0,1,18.81,42.527,79.744,79.744,0,0,1,.721,44.553,3.955,3.955,0,0,1,.1,44.52,61.473,61.473,0,0,0,15.812,40.4,40.573,40.573,0,0,0,28.3,32.314c.793-.768,1.552-1.569,2.263-2.41a30.991,30.991,0,0,0,3.848-6.553c.564-1.177,1.111-2.369,1.773-3.505a13.715,13.715,0,0,1,4-4.33A26.985,26.985,0,0,1,46.655,12.5c1.307-.474,2.615-.931,3.9-1.471A15.975,15.975,0,0,0,53.036,9.8,9.426,9.426,0,0,0,56.6,5.981c.523-1.087.768-2.28,1.209-3.4a1.885,1.885,0,0,0-.989,1.185,1.862,1.862,0,0,1-1.52,1.16,2.046,2.046,0,0,0,.662-.948A2.278,2.278,0,0,1,57.93,2.32a4.885,4.885,0,0,1,1.9-1.969m-1.2,1.5a.392.392,0,0,0-.041.621.382.382,0,1,0,.041-.621Z" transform="translate(-0.1)" fill="#c3c3cf"/>
      <path id="Path_8492" data-name="Path 8492" d="M143.179,168.177A36.07,36.07,0,0,1,148.2,166.6c-.294.163-.621.27-.931.417a15.235,15.235,0,0,0-5.033,3.758,24.983,24.983,0,0,0-3.881,5.94,21.056,21.056,0,0,1-6.5,8.089,29.308,29.308,0,0,1-13.342,5.482,26.573,26.573,0,0,1-3.113.3c1.348-.433,2.7-.858,4-1.413a26.67,26.67,0,0,0,9.429-6.406,36.6,36.6,0,0,0,4-5.18c.621-.98,1.209-1.985,1.912-2.909a21.948,21.948,0,0,1,2.762-2.949,18.723,18.723,0,0,1,5.678-3.554Z" transform="translate(-105.98 -152.988)" fill="#c3c3cf"/>
      <path id="Path_8493" data-name="Path 8493" d="M425.944,198.875A8.471,8.471,0,0,1,427.1,197.2a26.6,26.6,0,0,0-.6,3.317,39.36,39.36,0,0,0-.008,5.286,13.364,13.364,0,0,1-4.387,11.316,14.834,14.834,0,0,1-7.68,3.391,16.021,16.021,0,0,1-3.423.18c.6-.384,1.242-.695,1.855-1.062a28.745,28.745,0,0,0,5.2-3.652,20.426,20.426,0,0,0,3.93-5.057,22.356,22.356,0,0,0,1.977-5.964A22.857,22.857,0,0,1,425.944,198.875Z" transform="translate(-377.248 -181.088)" fill="#c3c3cf"/>
      <path id="Path_8494" data-name="Path 8494" d="M655.749,180.6a9.694,9.694,0,0,1,5.719-1.5,16.023,16.023,0,0,1,4.526.719,5.517,5.517,0,0,1,2.966,1.985,4.458,4.458,0,0,1,.449,2.721,6,6,0,0,0-1.185-1.757,8.3,8.3,0,0,0-5.8-1.789,10.118,10.118,0,0,0-3.987.784,3.077,3.077,0,0,0-1.781,2.108,3.744,3.744,0,0,0,.727,2.77,11.487,11.487,0,0,0,4.477,3.554,25.914,25.914,0,0,1,5.809,3.276,6.955,6.955,0,0,1,2.394,3.358,6.386,6.386,0,0,1-1.291,5.646,9.084,9.084,0,0,1-3.6,2.525,13.807,13.807,0,0,1-7.321.711,8.911,8.911,0,0,1-4.78-2.345,4.215,4.215,0,0,1-1.095-3.113,4.511,4.511,0,0,1,.31-1.773,4.5,4.5,0,0,0,1.936,3.366,10.491,10.491,0,0,0,6.79,1.634,6.2,6.2,0,0,0,3.578-1.283A4.494,4.494,0,0,0,666.1,198.5a4.884,4.884,0,0,0-1.65-2.974,35.021,35.021,0,0,0-5.842-3.816,16.211,16.211,0,0,1-4.2-3.235,4.741,4.741,0,0,1-1.152-2.59A5.979,5.979,0,0,1,655.749,180.6Zm31.7-1.038a2.136,2.136,0,1,1-1.348,1.487A2.1,2.1,0,0,1,687.45,179.558Zm-8.04,7.157a4.816,4.816,0,0,1,3.178-.662,3.253,3.253,0,0,1,2.206,1.413,4.9,4.9,0,0,0-2.672-.237A5.631,5.631,0,0,0,678.9,190.2a16.311,16.311,0,0,0-1.765,6.348,51.248,51.248,0,0,0-.351,5.254,5.493,5.493,0,0,0,.94,3.538c-1.226-.008-2.468.065-3.693-.025a11.666,11.666,0,0,1-.507-3.276c-.147-2.811.458-5.58.76-8.366a36.206,36.206,0,0,0,.155-5.8,4.285,4.285,0,0,0-.7-1.691c1.029-.041,2.051-.016,3.08-.025a1.513,1.513,0,0,1,.572.074,2.96,2.96,0,0,1,.515,1.847A8.552,8.552,0,0,1,679.411,186.715Zm6.986-.539a5.128,5.128,0,0,1,3.464,1.6,4.111,4.111,0,0,1,.515,3.178c-.36,3.211-.793,6.43-.891,9.665-.016,1.585-.147,3.284.678,4.714-1.152,0-2.3.049-3.448-.016a6.455,6.455,0,0,1-.662-3.284,116.815,116.815,0,0,1,1.209-12.615A5.768,5.768,0,0,0,686.4,186.175Z" transform="translate(-598.387 -164.467)" fill="#c3c3cf"/>
      <path id="Path_8495" data-name="Path 8495" d="M1943.446,532.472a13.235,13.235,0,0,1,1.4,0,13.213,13.213,0,0,1,1.479,3.93c.547,2,.882,4.151,2.132,5.866a8.162,8.162,0,0,1-1.413-.016,4.412,4.412,0,0,1-.956-1.838c-.49-1.479-.833-3.007-1.217-4.51a12.058,12.058,0,0,0-.776-2.3,11.067,11.067,0,0,1-.229,1.716c-.2.825-.637,1.569-.874,2.378a2.2,2.2,0,0,1,2.231.735,2.8,2.8,0,0,0-2.41.31,5.259,5.259,0,0,0-1.463,3.53q-.723.024-1.446,0a14.081,14.081,0,0,1,1.757-4.682,13.071,13.071,0,0,0,1.789-5.123Zm6.128.065a.806.806,0,1,1-.1,1.4A.814.814,0,0,1,1949.574,532.537Zm7.541-.074c.441-.008.891-.008,1.332.008a23.962,23.962,0,0,1-.025,6.4,7.846,7.846,0,0,0,.115,3.407c-.458.008-.915.008-1.373-.008a2.577,2.577,0,0,1-.163-1.054C1957.058,538.305,1957.671,535.364,1957.115,532.463Zm3.3.074a.866.866,0,0,1,1.234.654.847.847,0,0,1-1.438.637A.811.811,0,0,1,1960.416,532.537Zm5.531,2.68a4.03,4.03,0,0,1,2.337-.359,2.221,2.221,0,0,1,1.953,2.1c-.008.833-.163,1.659-.2,2.492a6.132,6.132,0,0,0,.278,2.827c-.425,0-.85,0-1.275-.016a10.361,10.361,0,0,1,.041-4.224c.057-.646.18-1.487-.433-1.92a2.677,2.677,0,0,0-3.816,1.177,7.429,7.429,0,0,0-.433,2.606,4.33,4.33,0,0,0,.261,2.369c-.474,0-.948,0-1.414-.016-.621-2.394.744-4.837,0-7.223.466-.016.931,0,1.4.025.065.376.123.743.18,1.128A5.111,5.111,0,0,1,1965.947,535.217Zm6.716.49a3.583,3.583,0,0,1,2.557-.874,2.418,2.418,0,0,1,2.165,1.136,1.676,1.676,0,0,1-.866,2.19,9.029,9.029,0,0,0-3.235,1.838.675.675,0,0,0-.033.842,2.094,2.094,0,0,0,1.732.956,4.285,4.285,0,0,0,2.23-.809,3.256,3.256,0,0,1-1.528,1.324,3.028,3.028,0,0,1-2.713-.253,3.674,3.674,0,0,1-1.429-3.072,4.379,4.379,0,0,1,1.119-3.276m.809.907a3.931,3.931,0,0,0-.694,2.827,11.07,11.07,0,0,1,1.748-1.038,3.213,3.213,0,0,0,1.838-1.569c.212-.645-.449-1.176-1.03-1.234A2.26,2.26,0,0,0,1973.472,536.614Zm5.433-.9a2.34,2.34,0,0,1,1.854-.866,3.7,3.7,0,0,1,2.3.547c.3.2.327.6.4.923a10.2,10.2,0,0,0-.858-.711,2.8,2.8,0,0,0-2.223.008.817.817,0,0,0-.6.768,1.576,1.576,0,0,0,.58.9c.8.662,1.9.858,2.631,1.61a1.971,1.971,0,0,1,.547,1.92,2.151,2.151,0,0,1-1.218,1.34,3.909,3.909,0,0,1-2.655.2,2.215,2.215,0,0,1-1.218-.8,2.056,2.056,0,0,1-.188-1.176,2.583,2.583,0,0,0,.882,1.054,2.988,2.988,0,0,0,2.516.188,1.2,1.2,0,0,0,.458-1.838c-.9-.98-2.312-1.258-3.186-2.255A1.449,1.449,0,0,1,1978.905,535.715Zm-25.083.008a1.945,1.945,0,0,1,1.234-.744,1.415,1.415,0,0,1,1.356.547c-.506-.057-1.119-.213-1.536.18a4.827,4.827,0,0,0-1.389,3.374,6.346,6.346,0,0,0,.163,3.2c-.474,0-.939,0-1.413-.016a8.824,8.824,0,0,1-.057-2.819,18.532,18.532,0,0,0,.286-3.554,2.676,2.676,0,0,0-.237-.866h1.422C1953.7,535.266,1953.757,535.486,1953.823,535.723Zm-4.575-.711c.482.122,1.062.2,1.356.654a1.674,1.674,0,0,1,.172,1.193,33.528,33.528,0,0,0-.352,4.339,3.569,3.569,0,0,0,.245,1.078,13.015,13.015,0,0,1-1.381-.024,3.052,3.052,0,0,1-.2-1.405c.074-1.454.278-2.909.441-4.355A3.212,3.212,0,0,0,1949.247,535.013Zm10.9-.008c.613.131,1.414.392,1.5,1.127.049,1.07-.163,2.133-.213,3.2a6.42,6.42,0,0,0,.114,2.949,5.322,5.322,0,0,1-1.348-.065,5.038,5.038,0,0,1-.114-2.288c.1-1.185.261-2.361.392-3.538A3.147,3.147,0,0,0,1960.146,535Z" transform="translate(-1780.413 -488.948)" fill="#c3c3cf"/>
      <g id="Group_7327" data-name="Group 7327" transform="translate(96.234 14.967)">
        <path id="Path_8496" data-name="Path 8496" d="M1165.987,183.186c1.177,0,2.361,0,3.538.016a41.506,41.506,0,0,1,.539,9.6c-.123,4.486-1.144,8.914-.874,13.416a18.519,18.519,0,0,1,5.809.564c1.307.441,2.484,1.275,3.881,1.413a5.149,5.149,0,0,1-3.137-5.956,4.351,4.351,0,0,1,2.386-2.753c2.86-1.234,6.005-1.634,8.84-2.941a3.666,3.666,0,0,0,1.953-1.683,2.709,2.709,0,0,0-1.013-2.974,6.026,6.026,0,0,0-3.611-.931,13.9,13.9,0,0,0-6.773,1.994,5.528,5.528,0,0,1,1.977-2,11.076,11.076,0,0,1,5.972-1.577,12.458,12.458,0,0,1,4.036.474,4.538,4.538,0,0,1,2.868,2.655,6.014,6.014,0,0,1,.139,2.672c-.2,2.247-.735,4.453-.907,6.708-.09,1.021-.049,2.043-.057,3.064a8.778,8.778,0,0,0,.768,4.142c-1.177.016-2.353.041-3.53-.016-.858-3.881-.351-7.868,0-11.773-2.484,1.814-5.727,1.994-8.309,3.611a5.466,5.466,0,0,0-2.271,2.3,3.093,3.093,0,0,0,.752,3.423,3.792,3.792,0,0,0,2.745.9,9.1,9.1,0,0,0,5.262-2.132,7.293,7.293,0,0,1-3.628,2.95,11.691,11.691,0,0,1-5.409.948c-1.585-.082-3.138-.433-4.706-.58a30.216,30.216,0,0,0-6.92.376,13.664,13.664,0,0,1-.482-5.915c.27-3.5.776-6.986.85-10.5C1166.689,189.518,1167.123,186.225,1165.987,183.186Zm50.934,0c1.2.008,2.41-.016,3.611.016a63.184,63.184,0,0,1,.392,10.907c-.041,1.062-.188,2.108-.237,3.17,1.716-1.217,2.925-2.982,4.5-4.363a12.245,12.245,0,0,1,5.131-2.868,18.95,18.95,0,0,1,4-.588,24.222,24.222,0,0,0-3.154,1.405c-2.933,1.675-4.837,4.551-7.165,6.912a27.178,27.178,0,0,1,3.824,5.474,17.893,17.893,0,0,0,3.685,4.69,14.877,14.877,0,0,0,1.7,1.119c-1.25.049-2.516.065-3.766.008a6.49,6.49,0,0,1-1.634-1.2,21.954,21.954,0,0,1-3.881-5.417,15.6,15.6,0,0,0-3.3-4.559c-.147,1.561-.311,3.121-.433,4.69a23.673,23.673,0,0,0-.041,4.436,5.825,5.825,0,0,0,.629,2.075c-1.193.008-2.386.049-3.579-.033a7.19,7.19,0,0,1-.547-3.293c.1-4.959.915-9.878.9-14.845.016-1.814.008-3.628-.131-5.441A7.924,7.924,0,0,0,1216.921,183.186Zm-14.364,7.37a10.073,10.073,0,0,1,6.373-1.038,5.892,5.892,0,0,1,4.273,2.892,6.2,6.2,0,0,1,.727,3.946,49.621,49.621,0,0,0-.58,8.6,8.5,8.5,0,0,0,.923,4.134c-1.038,0-2.083.057-3.113-.025a4.4,4.4,0,0,1-.841-2.827,31.541,31.541,0,0,1,.163-5.2,30.363,30.363,0,0,0,.572-6.013,3.065,3.065,0,0,0-1.225-2.312,6.393,6.393,0,0,0-4.077-.964,7.2,7.2,0,0,0-5.27,2.623,8.534,8.534,0,0,0-1.315,3.048,22.554,22.554,0,0,0-.686,5.866c-.065,1.936-.359,4.1.825,5.793-1.226-.008-2.451.082-3.669-.033a11.646,11.646,0,0,1-.49-3.048,30.538,30.538,0,0,1,.539-6.732,28.958,28.958,0,0,0,.449-6.716,6.192,6.192,0,0,0-.825-2.68c1.128.008,2.255.016,3.374.008.335-.049.49.31.588.564a9.847,9.847,0,0,1,.3,2.933A8.875,8.875,0,0,1,1202.557,190.556Z" transform="translate(-1165.719 -183.185)" fill="#c3c3cf"/>
        <path id="Path_8497" data-name="Path 8497" d="M2002.281,259.5a14.785,14.785,0,0,1,4.861-.58,8.867,8.867,0,0,1,3.9.825,4.8,4.8,0,0,1,1.977,2.132,4.255,4.255,0,0,1,.22,2c-.139,2.574-.809,5.09-.939,7.664a35.711,35.711,0,0,0-.008,4.486,6.811,6.811,0,0,0,.686,2.6c-1,.016-2,.016-3.007.016-.172-.025-.474.041-.49-.2a17.453,17.453,0,0,1-.449-4.069c-.016-2.516.229-5.025.449-7.525a18.858,18.858,0,0,1-5.572,2.394,9.359,9.359,0,0,0-4.641,2.778,3.267,3.267,0,0,0,1.144,4.731,5.068,5.068,0,0,0,3.244.131,10.006,10.006,0,0,0,3.987-1.928,7.739,7.739,0,0,1-3.726,3.252,7.5,7.5,0,0,1-4.322.629,4.7,4.7,0,0,1-2.933-1.757,4.949,4.949,0,0,1-.5-5.1,6.84,6.84,0,0,1,4.069-3.464c2.3-.882,4.763-1.315,7.051-2.247a5.726,5.726,0,0,0,2.018-1.291,2.311,2.311,0,0,0,.3-2.239,2.94,2.94,0,0,0-1.462-1.61,6.371,6.371,0,0,0-2.745-.629,12.671,12.671,0,0,0-4.412.7,21.671,21.671,0,0,0-2.843,1.291,7.367,7.367,0,0,1,4.142-2.99Zm22.117.041a10.607,10.607,0,0,1,4.682-.556,6.254,6.254,0,0,1,3.832,1.757,6.066,6.066,0,0,1,1.724,3.963,12.643,12.643,0,0,1-.221,2.345,42.978,42.978,0,0,0-.4,8.26,6.639,6.639,0,0,0,.915,3.317,30.5,30.5,0,0,1-3.236-.041,5.42,5.42,0,0,1-.744-3.146c0-1.422-.049-2.843.074-4.257.172-1.773.58-3.513.654-5.294a4.733,4.733,0,0,0-.6-2.949,4.546,4.546,0,0,0-2.7-1.512,7.888,7.888,0,0,0-5.654,1.046,5.973,5.973,0,0,0-2.336,2.745,16.711,16.711,0,0,0-1.193,5.384c-.057,1.34-.106,2.672-.147,4.012a6.5,6.5,0,0,0,.9,4.02c-1.258.008-2.525.065-3.775-.041a22.065,22.065,0,0,1-.155-8.089,36.89,36.89,0,0,0,.727-8.252,7.072,7.072,0,0,0-.768-2.819c1.218,0,2.427.016,3.644,0a6.914,6.914,0,0,1,.6,3.521,8.422,8.422,0,0,1,4.183-3.415Z" transform="translate(-1927.868 -252.724)" fill="#c3c3cf"/>
      </g>
    </g>
  </g>
</svg>
