<svg xmlns="http://www.w3.org/2000/svg" width="241" height="85" viewBox="0 0 241 85">
  <g id="_12" data-name="12" transform="translate(2302 2952)">
    <rect id="Rectangle_43" data-name="Rectangle 43" width="241" height="85" transform="translate(-2302 -2952)" fill="none"/>
    <g id="logo-ethiopian-airlines" transform="translate(-2246 -2937.047)" opacity="0.5">
      <path id="Path_8501" data-name="Path 8501" d="M120.854,397.688a1.75,1.75,0,0,0-.522.068,133.472,133.472,0,0,1-21.724,5.213c-.465.063-.345.282.209.313a108.084,108.084,0,0,0,12.8.7c3.066-.1,5.359.324,7.94-2.413C121.935,399.114,121.971,397.7,120.854,397.688Zm-95.771,1.959-3.777,1.118,1.572,1.118v12.661l-1.572,1.086h5.317l-1.541-1.086v-6.675l1.436-1.013a5.061,5.061,0,0,1,3.218-1.191c1.353,0,1.786.841,1.786,1.327v8.639H35.3l-1.541-1.086v-7.553c0-1.5-.867-2.659-3.359-2.659a6.662,6.662,0,0,0-4.059,1.436l-1.259.982ZM0,400.1l1.541,1.118v13.325L0,415.63H12.416v-2.868l-2.2,1.786H3.776v-6.681h4.44l1.75,1.327v-3.777l-1.75,1.327H3.776v-5.526h6.19l2,1.541V400.1Zm38.3,1.332c-.663,0-1.222.381-1.222.872s.564.909,1.222.909c.674,0,1.222-.418,1.222-.909S38.977,401.433,38.3,401.433Zm33.508,0c-.674,0-1.222.381-1.222.872s.554.909,1.222.909,1.222-.418,1.222-.909S72.485,401.433,71.811,401.433Zm-54.5.872-4.44,3.113h2.2v8.222a2.444,2.444,0,0,0,2.659,2.345,3.385,3.385,0,0,0,2.9-1.436l-.663-.454a2.175,2.175,0,0,1-1.891.909,1.055,1.055,0,0,1-.768-.245v-9.339h3.322v-.872H17.321Zm30.64,2.027c-3.944,0-6.681,2.774-6.681,5.772.01,2.983,2.737,5.772,6.681,5.772,3.975-.005,6.644-2.789,6.644-5.772S51.931,404.327,47.956,404.332Zm15.32,0c-1.327,0-3.406.188-4.44,1.541v-1.327l-3.777,1.118,1.541,1.086v12.207l-1.541,1.118h5.108l-1.327-1.118V414.3a6.064,6.064,0,0,0,4.44,1.572c3.265-.005,5.317-3.1,5.317-5.772A5.535,5.535,0,0,0,63.276,404.332Zm17.984,0a10.89,10.89,0,0,0-4.44.872v2.45l2.622-1.922a2.8,2.8,0,0,1,1.818-.522c1.363,0,2.45.752,2.45,1.786v1.99H80.6c-2.857.005-5.317,1.818-5.317,3.985a2.8,2.8,0,0,0,2.868,2.9,4.126,4.126,0,0,0,1.327-.246l4.231-1.786v1.786h3.777l-1.572-1.086v-7.553c0-1.713-1.577-2.659-4.649-2.659Zm15.529,0a6.539,6.539,0,0,0-4.2,1.468l-1.118.945v-2.2L87.7,405.664l1.572,1.086v7.8L87.7,415.636h5.354l-1.572-1.086v-6.681l1.327-1.118a4.62,4.62,0,0,1,3.322-1.086c1.792,0,2.241.783,2.241,1.332v8.639h3.777l-1.572-1.086v-7.558C100.566,405.972,99.9,404.332,96.789,404.332Zm-57.264.214-3.777,1.118,1.541,1.086v7.8l-1.541,1.086h5.317l-1.541-1.086Zm33.513,0-3.777,1.118,1.572,1.086v7.8l-1.572,1.086h5.354l-1.572-1.086Zm-25.083.663c2.956,0,3.985,2.57,3.985,4.9,0,2.314-1.029,4.863-3.985,4.863-2.925,0-3.985-2.549-3.985-4.863C43.97,407.78,45.031,405.21,47.956,405.21Zm14.448.209c2.81-.005,3.531,2.617,3.531,4.685s-.726,4.654-3.531,4.654a3.954,3.954,0,0,1-3.568-1.786v-5.767A3.9,3.9,0,0,1,62.4,405.419Zm18.856,4.445h2.45v2.9L80.6,414.095a5.066,5.066,0,0,1-1.327.454,1.556,1.556,0,0,1-1.572-1.786C77.693,410.992,79.124,409.864,81.26,409.864ZM49.533,421.752c-1.442,0-2.988.486-3.463,1.572a2.171,2.171,0,0,0-.172.736c.01.752-.2,1.9.736,2.622l1.327,1.05,1.191.909a.708.708,0,0,1,.418.632v.982l-.945.663h3.15l-.909-.663v-1.05a1.34,1.34,0,0,0-.559-1.259L48.98,426.9c-.475-.34-.465-.376-.736-.559,0,0,1.071.047,1.572.037,2.006.031,2.93-.46,3.218-1.05a2.8,2.8,0,0,0,.172-1.363,1.885,1.885,0,0,0-.245-1.05c-.465-.851-1.865-1.16-3.427-1.16Zm7.449,0-2.2.663.909.663v.522H57.5l-2.027,2.622a2.5,2.5,0,0,0-.559,1.541v2.481l-.945.663h3.15l-.909-.663v-2.481a1.407,1.407,0,0,1,.282-.909c.11-.146.172-.225.209-.282a.439.439,0,0,1,.209-.141c.334-.089,3.077-.47,3.077.872v2.8c0,.528.266.8.522.8a.993.993,0,0,0,.522-.141,8.169,8.169,0,0,0,.8-.522v.663h2.2l-.909-.663v-1.154H62.5l-1.191.768V427.2c-.037-1.541-1.954-1.661-4.059-1.4l1.713-2.2v-.522h-2Zm10.353,0-2.241.663.909.663v.522h1.327v2.2H63.657v1.3l-.909.663h2.241v-1.436h2.345v3.918l-.909.663h3.113l-.909-.663v-3.918h2.345v1.436h2.241l-.909-.663v-1.3H68.635v-2.1c0-.522-.235-.632-.632-.632H67.34v-1.322Zm9.935,0c-1.436,0-3,.486-3.463,1.572a2.213,2.213,0,0,0-.209.736c.021.752-.167,1.9.768,2.622l1.327,1.05,1.191.909a.67.67,0,0,1,.387.632v.982l-.909.663h3.15l-.945-.663v-1.05a1.329,1.329,0,0,0-.559-1.259l-1.3-1.05c-.475-.34-.465-.376-.736-.559,0,0,1.045.047,1.541.037,2.016.031,2.941-.46,3.218-1.05a1.639,1.639,0,0,0,.141-.418h.559v1.436h2.241l-.909-.663v-1.3H80.947v-.418a1.98,1.98,0,0,0-.245-1.05C80.236,422.06,78.842,421.752,77.27,421.752Zm11.23,0-2.2.663.909.663c-1.342,0-2.742.548-2.8,1.818-.052,1.212.831,1.818,2.027,1.854l-1.327.454a1.57,1.57,0,0,0-1.191,1.75v1.3l-.909.663h3.15l-.909-.663V429.06c0-.376-.068-.674.522-.872,0,0,2.131-.742,2.241-.768,1.039.073,1.922.136,1.922,1.3v1.541l-.909.663h3.15l-.909-.663v-1.541c0-1.489-1.092-1.692-2-1.786.12-.042.454-.172.559-.209,1.186-.434,1.473-.935,1.5-1.786V424.9h.522v1.436h2.2l-.909-.663v-1.3H91.258c-.188-.658-.857-1.264-2.763-1.3Zm9.935,0c-1.436,0-2.962.486-3.427,1.572a2.343,2.343,0,0,0-.209.736c.01.752-.162,1.9.768,2.622l2.868,2.309-4.163.35v.909l-.909.663h3.113l-.909-.663v-.491l4.722-.418v-.522l-3.113-2.481s1.034.047,1.541.037c2.006.031,2.951-.46,3.218-1.05a2.744,2.744,0,0,0,.209-1.363,1.8,1.8,0,0,0-.245-1.05C101.443,422.06,100.007,421.752,98.435,421.752Zm-48.9.528c1.3-.016,2.293.277,2.272,1.572v.491a1.241,1.241,0,0,1-1.3,1.363,13.03,13.03,0,0,1-2.763.037c-.554-.11-.465-1.05-.454-1.363v-.418C47.313,422.865,48.186,422.29,49.533,422.28Zm27.736,0c1.3-.016,2.256.277,2.241,1.572v.491a1.241,1.241,0,0,1-1.3,1.363,12.688,12.688,0,0,1-2.727.037c-.543-.11-.475-1.05-.454-1.363v-.418C75.044,422.865,75.932,422.29,77.27,422.28Zm21.165,0c1.3-.016,2.293.277,2.272,1.572v.491a1.241,1.241,0,0,1-1.3,1.363,12.69,12.69,0,0,1-2.727.037c-.543-.11-.465-1.05-.454-1.363v-.418C96.241,422.865,97.1,422.29,98.435,422.28Zm-10.567,1.3c1.781-.037,2.121.543,2.1,1.154-.01.392-.005.763-.872,1.086-.167.063-.836.3-1.4.491-1.463-.037-1.891-.272-1.891-1.436C85.8,423.721,87.137,423.591,87.868,423.575Z" transform="translate(0 -376.87)" fill="#c3c3cf"/>
      <path id="Path_8502" data-name="Path 8502" d="M1840.386,246.692c7.13-1.813,24.978-11.408,27.626-13.111,1.306-.815,2.748-.329.444,3.427-1.572,2.309-2.648,3.651-6.842,4.92a120.662,120.662,0,0,1-21.05,5.1c-.554.052-.731-.151-.178-.34" transform="translate(-1743.936 -221.017)" fill="#c3c3cf"/>
      <path id="Path_8503" data-name="Path 8503" d="M1843.54,25.174c6.221-2.183,19.765-9.313,24.383-12.144,3.322-2.021,5.892-3.515,6.895-6.049,2.147-5.788.5-8.148-1.536-6.336-2.6,2.528-14.85,15.378-30.526,24.409-.235.131-.266.444.784.12" transform="translate(-1746.375 0)" fill="#c3c3cf"/>
    </g>
  </g>
</svg>
