<svg xmlns="http://www.w3.org/2000/svg" width="241" height="85" viewBox="0 0 241 85">
  <g id="_14" data-name="14" transform="translate(1778 2952)">
    <rect id="Rectangle_1923" data-name="Rectangle 1923" width="241" height="85" transform="translate(-1778 -2952)" fill="none"/>
    <g id="Fly_Dubai_logo_2010_03" transform="translate(-1753.703 -2929.027)" opacity="0.5">
      <path id="Path_8567" data-name="Path 8567" d="M47.191,8.3V25.635c0,1.6-.693,3.982-7.071,3.982s-7.073-2.386-7.073-3.982V8.3H29.424V25.832c0,4.293,3.524,6.163,10.066,6.163A26.936,26.936,0,0,0,47.152,30.9v7.836h3.567L50.7,8.3H47.191ZM14.324.027c-3.819,0-9.484.8-9.484,4.736V8.3H.7v2.029H4.84V31.444H8.308V10.328h5.459l0-2.029H8.308V5.2c0-3.02,3.492-3.5,6.016-3.5,4.176,0,6.254.318,6.254,4.932l0,24.814h3.467V.585H20.578c-1.932,0-2.864-.558-6.254-.558ZM186.982,10.514a3.847,3.847,0,1,0,3.81,3.844A3.823,3.823,0,0,0,186.982,10.514Z" transform="translate(0 0)" fill="#c3c3cf" fill-rule="evenodd"/>
      <path id="Path_8568" data-name="Path 8568" d="M149.461,13.3a65.481,65.481,0,0,1,6.632-.466c-.837-3.259-4.663-4.531-10.975-4.531a31.948,31.948,0,0,0-10.318,1.9v4.526s3.371-2.74,10.412-2.74c2.306,0,3.579.416,4.249,1.311ZM65.334,24.675c-.2,2.508-2.873,3.865-5.473,3.865-5.633,0-6.423-2.472-6.423-8.118s1.1-8.106,6.145-8.106c3.267,0,5.555,1.348,5.75,3.855.157,2.027.238,3.063.238,4.251s-.082,2.348-.238,4.253Zm.238-14.987A16.954,16.954,0,0,0,58.6,8.3c-8.783,0-11.462,3.343-11.462,12.125,0,8.747,3.938,12.129,12.724,12.129,5.354,0,9.246-2.022,12.013-2.022V1.141h-6.3V9.688Zm102.277-.854-6.3,0v3.815h6.3V8.834ZM150.2,24.618c0,3.3-3.063,4.14-5.162,4.14-3.579,0-5.412-1.087-5.412-3.427,0-3.951,5.02-5.983,10.573-6.321v5.608Zm18.98-9.71-1.829,0c-25.549,0-33.829,4.789-33.829,10.265,0,5.086,4.333,7.317,11.346,7.317,4.525,0,9.1-1.974,11.5-1.974V18.189c2.988-.381,5.223-.443,5.223-.443V32h6.3V21.271a15.157,15.157,0,0,1,1.292-6.362ZM117.485,28.54c-2.6,0-5.277-1.357-5.473-3.865-.157-1.9-.237-3.061-.237-4.253s.08-2.224.237-4.253c.2-2.5,2.485-3.853,5.752-3.853,5.039,0,6.144,2.467,6.144,8.106s-.788,8.118-6.423,8.118ZM118.746,8.3a16.932,16.932,0,0,0-6.971,1.391V1.141h-6.3V30.529c2.765,0,6.654,2.022,12.011,2.022,8.785,0,12.724-3.382,12.724-12.129,0-8.783-2.68-12.125-11.463-12.125ZM93.976,24.835c0,1.6-.516,3.977-5.242,3.977S83.5,26.431,83.5,24.835V8.855H77.193V26.388c0,4.293,4.37,6.163,10.915,6.163,5.788,0,9.525-1.79,11.378-1.989l.788-.082V8.855h-6.3v15.98Z" transform="translate(9.844 0.236)" fill="#c3c3cf" fill-rule="evenodd" opacity="0.5"/>
    </g>
  </g>
</svg>
