<svg xmlns="http://www.w3.org/2000/svg" width="241" height="85" viewBox="0 0 241 85">
  <g id="_15" data-name="15" transform="translate(1778 3056)">
    <rect id="Rectangle_1925" data-name="Rectangle 1925" width="241" height="85" transform="translate(-1778 -3056)" fill="none"/>
    <path id="Path_8743" data-name="Path 8743" d="M188.373,108.683c-2.324,6.535-8.568,10.745-18.877,10.745-8.568,0-16.991-4.936-14.812-16.408C156.281,93.293,165.14,86.9,175.3,86.9c11.326,0,16.408,7.7,14.52,16.843l-.437,2.034H168.043a19.275,19.275,0,0,0-.289,2.322c0,2.76,1.451,3.776,3.194,3.776a4.93,4.93,0,0,0,4.5-3.194Zm-10.892-9.291.146-.728c.435-2.469-.728-4.21-3.194-4.21-2.324,0-4.359,1.6-4.938,4.939h7.985ZM152.653,87.483a9.3,9.3,0,0,0-7.7,4.211h-.289l.581-3.921H131.452l-.872,4.066,7.551-.871-.145.727L130.29,93l-5.373,25.556h14.812s1.451-7.406,2.469-11.618c1.451-6.97,5.227-8.421,7.7-8.421a5.777,5.777,0,0,1,3.776,1.162l2.469-11.326A6.851,6.851,0,0,0,152.653,87.483ZM17.9,100.552C11.947,98.664,7.445,95.18,7.445,88.5c0-9.729,9.729-15.247,22.8-15.393,10.891,0,18.3,4.647,16.989,13.8H31.549c.581-2.469-.871-3.921-3.631-3.921-2.033,0-3.631,1.017-3.921,2.324-.29,1.743.871,2.9,3.631,3.631,2.324.726,3.921,1.162,6.244,1.743,6.679,2.033,9.874,5.953,10.6,10.02l-19.6,2.032L17.9,100.552Zm.581,10.6,1.307-6.244H2.944C1.782,115.364,10.059,119.72,20.8,119.72c10.164,0,21.054-3.485,23.379-12.78l-25.7,4.211Zm87.27-21.2a13.692,13.692,0,0,1,8.421-3.049c4.5,0,7.987,1.888,9.583,5.517L89.486,96.051l4.5-21.781H108.8L105.46,89.952h.291Zm-.872,7.116a16.858,16.858,0,0,0-2.324,5.952c-1.307,6.1.146,7.7,1.89,7.7,2.467,0,4.5-2.324,5.516-7.553.581-3.339.437-5.808-.435-6.823l14.81-2.324a17.386,17.386,0,0,1,.146,8.713c-2.179,11.035-8.86,16.7-16.263,16.7-3.341,0-7.116-.87-8.568-4.5h-.437l-1.162,3.631H84.7l3.921-18.877,16.263-2.614Zm-37.029,10.6c-.436,2.322-2.032,4.209-4.21,4.209s-3.05-1.741-2.759-3.629c.436-1.6,2.033-3.2,5.083-3.2h2.468l-.581,2.615Zm-3.775-10.6a4.009,4.009,0,0,1,3.776-3.34,2.353,2.353,0,0,1,2.178,3.2l-.145,1.16,13.794-1.451c-1.017-7.115-7.551-10.165-15.247-10.165-11.472,0-16.989,5.663-18.151,10.745l-.145.725h13.8l.145-.87Zm-16.989,9.438a11.087,11.087,0,0,0-.726,3.92c0,4.792,3.631,9,9.729,9,5.517,0,8.712-2.322,10.165-3.92H66.4l-.29,3.05h13.94l3.339-16.119c.145-.581.29-1.307.436-1.888l-36.737,5.955Z" transform="translate(-1753.835 -3110.108)" fill="#c3c3cf" fill-rule="evenodd" opacity="0.5"/>
  </g>
</svg>
