<svg xmlns="http://www.w3.org/2000/svg" width="241" height="85" viewBox="0 0 241 85">
  <g id="_16" data-name="16" transform="translate(1513 3056)">
    <rect id="Rectangle_1926" data-name="Rectangle 1926" width="241" height="85" transform="translate(-1513 -3056)" fill="none"/>
    <g id="Group_7490" data-name="Group 7490" transform="translate(-1843.126 -8569.346)" opacity="0.5">
      <path id="Path_8542" data-name="Path 8542" d="M60.169,86.354a2.947,2.947,0,0,1,3.14-2.674v-.568H56.368L47.842,103.46,39.829,83.112h-7.26v.568c2.48,0,3.328,1.417,3.328,2.672l-1.286,19.311c0,1.174-.879,3.617-3.128,3.617v.643h8.179v-.643c-2.869,0-3.294-2.32-3.294-3.617l1.009-17.256L46.159,110.2h.56l9.375-21.83,1.284,17.293c0,1.65-.308,3.617-2.712,3.617v.643h9.885v-.643c-2.171,0-3.1-1.77-3.1-3.617l-1.28-19.309ZM167.75,110.068l.568.031c.57-2.354,3.2.311,7.734.311a8.238,8.238,0,0,0,8.2-8.3c0-3.953-3.064-6.395-8.879-8.953-1.842-.81-3.6-2.17-3.6-4.519a4.617,4.617,0,0,1,4.42-4.691c3.715,0,5.125,2.14,6.043,5.907h.613V82.523h-.57c-.877,1.289-2.145-.177-6.609-.177a7.508,7.508,0,0,0-7.225,7.5c0,8.836,12.215,7.372,12.215,14.477,0,2.664-2.758,4.4-4.934,4.4-5,0-6.143-2.932-7.236-6.75h-.525l-.218,8.094Zm-5.588-22.716c0-2.151.723-3.5,3.037-3.7v-.489H155.31v.489c2.312.2,2.754,1.549,2.754,3.7v16.1c0,2.4-3.266,4.566-6.021,4.566-5.822,0-7.258-5.393-7.258-8.268v-12.4c0-1.811.738-3.464,2.6-3.7v-.489H137.76v.489c1.98.119,2.928,1.549,2.928,3.7v12.5c0,5.232,2.623,10.414,9.8,10.414a10.437,10.437,0,0,0,7.412-3.227v2.873h7.3v-.686c-2.174,0-3.037-1.244-3.037-4.906V87.352h0Zm-37.629-2.461a.142.142,0,0,1,.143-.124l5.422,0c2.8,0,4.113,1.344,4.553,3.53h.611V83.111H117.34v.607c2.373,0,3.117,1.458,3.117,2.633v18.737c0,1.863-.744,4.195-3.117,4.195v.639h17.922l.576-5.457h-.422c-.652,1.633-1.607,3.963-5.783,3.963-4.6,0-5.105-1.748-5.105-3.34V97.23h4.98c2.672,0,3.992,1.328,3.992,3.039h.537V92.187H133.5c0,1.942-1.32,3.383-3.992,3.383h-4.98l0-10.679ZM22.318,96.844a.156.156,0,0,1,.155.158l.068,7.375c0,.479-2.3,3.133-5.305,3.133-2.144,0-4.517-1.307-4.5-3.916.012-2.436.867-4.391,4.5-5.438ZM9.358,89.456c-.1.4.17.41.3.218-.012,0,1.96-3.873,7.621-3.873,4.074,0,5.159,2.7,5.159,5.438.03.042,0,3.958,0,3.958l-7.774,2.175c-.013.043-6.635,1.455-6.133,7.57a5.529,5.529,0,0,0,5.845,5.309c2.9,0,5.305-1.395,8.1-3.83a4.192,4.192,0,0,0,4.247,3.959,4.512,4.512,0,0,0,4.331-2.393c.245-.436-.258-.219-.258-.219-1.6.783-4.16.436-4.16-3.045L26.47,89.889c0-1.219.064-7-7.29-7.351a9.225,9.225,0,0,0-9.822,6.918Zm70.671,7.388a.156.156,0,0,1,.155.158l.069,7.375c0,.479-2.3,3.133-5.307,3.133-2.143,0-4.515-1.307-4.5-3.916.013-2.436.867-4.391,4.5-5.438ZM67.068,89.456c-.1.4.17.41.3.218-.013,0,1.959-3.873,7.62-3.873,4.074,0,5.16,2.7,5.16,5.438.029.042,0,3.958,0,3.958l-7.776,2.175c-.012.043-6.634,1.455-6.132,7.57a5.53,5.53,0,0,0,5.844,5.309c2.9,0,5.306-1.395,8.105-3.83a4.192,4.192,0,0,0,4.246,3.959,4.512,4.512,0,0,0,4.332-2.393c.245-.436-.257-.219-.257-.219-1.6.783-4.16.436-4.16-3.045L84.18,89.891c0-1.219.064-7-7.29-7.351a9.222,9.222,0,0,0-9.822,6.916Zm29.7-4.534c0-.133.073-.171.23-.194,11.107-.815,15.051,6.722,15.051,12.006,0,8.545-4.826,11.617-10.379,11.617-3.945,0-4.966-.74-4.966-5.207l.064-18.222Zm6.243,25.06c6.014,0,13.369-3.459,13.521-12.793.113-7.1-4.559-14.079-16.814-14.079H89.647v.607c2.914,0,2.987,4.11,2.987,5.284v13.986c0,1.176-.073,6.295-2.987,6.295v.639l13.367.061Z" transform="translate(354.623 5459)" fill="#c3c3cf" fill-rule="evenodd"/>
    </g>
  </g>
</svg>
