<svg xmlns="http://www.w3.org/2000/svg" width="241" height="85" viewBox="0 0 241 85">
  <g id="_18" data-name="18" transform="translate(1255 2952)">
    <g id="Group_7486" data-name="Group 7486">
      <rect id="Rectangle_1928" data-name="Rectangle 1928" width="241" height="85" transform="translate(-1255 -2952)" fill="none"/>
      <g id="Travelfusion-Logo-colour-high-res-01" transform="translate(-1260.96 -2946.464)" opacity="0.5">
        <path id="Path_8554" data-name="Path 8554" d="M550.539,97.526c-2.167,0-4.335.018-6.5-.011-.576-.009-.65.2-.522.682.574,2.167,2.209,3.353,4.725,3.366,2.923.016,5.847.026,8.769,0,.585,0,.725.177.7.723-.043.859-.026,1.718,0,2.577.007.35-.061.507-.464.5-3.068-.016-6.136.018-9.2-.022a10.116,10.116,0,0,1-3.708-.72,6.934,6.934,0,0,1-4.215-4.714,14.774,14.774,0,0,1,.134-8.92,6.8,6.8,0,0,1,4.835-4.613,11.787,11.787,0,0,1,8.206.436,6.927,6.927,0,0,1,3.834,4.592,18.792,18.792,0,0,1,.576,5.761c0,.437-.282.368-.539.368Q553.852,97.526,550.539,97.526Zm-1.923-3.8h4.714c.2,0,.5.1.412-.312a4.264,4.264,0,0,0-1.718-2.853,6.265,6.265,0,0,0-4.163-.859,4.31,4.31,0,0,0-4.313,3.39c-.123.471-.071.661.475.65C545.554,93.7,547.085,93.722,548.616,93.722Z" transform="translate(-446.998 -54.728)" fill="#c3c3cf"/>
        <path id="Path_8555" data-name="Path 8555" d="M241.6,95.892c-.06,1.176.1,2.772-.075,4.361a4.852,4.852,0,0,1-3.824,4.418,13.105,13.105,0,0,1-8.591-.277,4.861,4.861,0,0,1-3.174-4.093,5.288,5.288,0,0,1,1.637-4.958,7.55,7.55,0,0,1,4.086-1.638c1.518-.22,3.068.012,4.574-.358a1.727,1.727,0,0,0,1.567-1.973,1.384,1.384,0,0,0-1.038-1.425,10.491,10.491,0,0,0-6.092-.007,1.286,1.286,0,0,0-.982,1.143c-.034.4-.245.444-.576.438-.9-.014-1.8-.027-2.7,0-.453.016-.549-.158-.53-.568a5.2,5.2,0,0,1,3.5-4.53,13.548,13.548,0,0,1,8.258-.155,5.028,5.028,0,0,1,3.956,5.286C241.614,92.86,241.6,94.168,241.6,95.892Zm-3.8.943c-.885.171-1.71.389-2.566.475-.879.087-1.756.026-2.629.1a9.13,9.13,0,0,0-1.566.261,1.77,1.77,0,0,0-.018,3.444,10.937,10.937,0,0,0,5.329.039c.692-.16,1.379-.491,1.438-1.308.063-.99,0-1.989,0-3.009Z" transform="translate(-171.866 -54.596)" fill="#c3c3cf"/>
        <path id="Path_8560" data-name="Path 8560" d="M374.28,99.792c.607-1.535,1.17-2.953,1.729-4.372q1.786-4.525,3.568-9.052a.547.547,0,0,1,.6-.4c1.042.018,2.086.032,3.127,0,.59-.018.385.29.28.557q-1.278,3.247-2.565,6.487-2.406,6.087-4.8,12.181c-.135.345-.288.525-.7.508-.837-.034-1.676-.026-2.513,0a.6.6,0,0,1-.671-.447c-1.492-3.823-3.009-7.628-4.516-11.444-.968-2.442-1.926-4.9-2.9-7.34-.141-.351-.169-.514.3-.5,1,.023,2,.031,3,0a.691.691,0,0,1,.757.539c1.141,2.926,2.3,5.846,3.447,8.768q.83,2.108,1.653,4.217A2.332,2.332,0,0,0,374.28,99.792Z" transform="translate(-293.762 -54.83)" fill="#c3c3cf"/>
        <path id="Path_8562" data-name="Path 8562" d="M33.677,40.1c.056,1.273-.106,2.823.08,4.374a2.436,2.436,0,0,0,1.6,2.063,8.825,8.825,0,0,0,3.66.593c.475-.011.655.123.636.614-.036.9-.01,1.8-.012,2.7,0,.254,0,.507-.368.491a12.689,12.689,0,0,1-6.48-1.512,5.627,5.627,0,0,1-2.809-5c-.042-6.7-.014-13.4-.026-20.1,0-.412.141-.524.528-.514.859.021,1.718.029,2.577,0,.468-.017.632.109.626.614-.028,2.124,0,4.249-.023,6.373-.007.515.092.7.663.689,1.572-.045,3.148,0,4.721-.02.441,0,.622.123.605.589-.033.859-.039,1.718,0,2.577.023.53-.187.646-.677.637-1.573-.027-3.148,0-4.721-.02-.466-.009-.6.15-.587.6C33.693,37.169,33.677,38.5,33.677,40.1Z" transform="translate(0 -0.302)" fill="#c3c3cf"/>
        <path id="Path_8563" data-name="Path 8563" d="M713.131,34.282c0-3.268.01-6.535-.011-9.8,0-.5.123-.68.643-.655.876.039,1.757.023,2.635,0,.368-.009.513.1.5.482-.026.653-.007,1.307,0,1.964q.009,8.854.025,17.7a2.623,2.623,0,0,0,2.054,2.7,10.72,10.72,0,0,0,3.382.468c.425-.006.571.123.557.551-.029.939-.015,1.879-.009,2.823,0,.254-.027.442-.355.428-2.569-.106-5.105-.324-7.241-2a5.887,5.887,0,0,1-2.165-4.853C713.105,40.817,713.131,37.549,713.131,34.282Z" transform="translate(-599.317 -0.314)" fill="#c3c3cf"/>
        <path id="Path_8564" data-name="Path 8564" d="M128.126,98.692V93.117a6.338,6.338,0,0,1,1.964-4.959,8.464,8.464,0,0,1,4.321-1.884A18.541,18.541,0,0,1,137.273,86c.388-.009.551.1.54.514-.025.939-.022,1.879,0,2.823.01.39-.147.491-.507.48a9.633,9.633,0,0,0-3.436.475,2.587,2.587,0,0,0-1.964,2.761c0,3.92-.012,7.841.011,11.761,0,.54-.137.712-.682.682-.859-.045-1.718-.034-2.577,0-.43.016-.553-.114-.549-.545C128.138,102.858,128.126,100.775,128.126,98.692Z" transform="translate(-86.103 -54.858)" fill="#c3c3cf"/>
        <g id="Group_7354" data-name="Group 7354" transform="translate(125.109 23.464)" opacity="0.5">
          <path id="Path_8556" data-name="Path 8556" d="M1296.642,95.32a12.541,12.541,0,0,1-.76,4.979,7.083,7.083,0,0,1-5.471,4.567,12.974,12.974,0,0,1-6.413-.2,6.876,6.876,0,0,1-4.889-4.786,14.828,14.828,0,0,1-.015-8.894,6.87,6.87,0,0,1,4.9-4.855,12.428,12.428,0,0,1,7.4.066c2.965.956,4.444,3.2,5.006,6.15A12.41,12.41,0,0,1,1296.642,95.32Zm-3.8.134a12.446,12.446,0,0,0-.123-2.062,4.047,4.047,0,0,0-3.726-3.834,8.883,8.883,0,0,0-2.988.017,3.85,3.85,0,0,0-3.4,3.068,11.88,11.88,0,0,0,.009,5.577,3.708,3.708,0,0,0,2.977,2.906,8.579,8.579,0,0,0,4.122-.036,3.759,3.759,0,0,0,2.88-3.011,9.46,9.46,0,0,0,.265-2.626Z" transform="translate(-1220.347 -77.978)" fill="#c3c3cf"/>
          <path id="Path_8557" data-name="Path 8557" d="M1080.461,99.417h1.533c.162,0,.368-.017.378.21.071,1.1.887,1.387,1.752,1.562a10.819,10.819,0,0,0,4.909-.082,1.745,1.745,0,0,0,1.339-2.387,1.415,1.415,0,0,0-1.191-1,32.91,32.91,0,0,0-4.187-.491,12.1,12.1,0,0,1-3.326-.727,4.521,4.521,0,0,1-2.976-3.52,6.039,6.039,0,0,1,.887-4.956,5.5,5.5,0,0,1,3.471-1.993,13.843,13.843,0,0,1,8.229.513,4.971,4.971,0,0,1,3.02,4.6c0,.284-.115.34-.368.337q-1.563-.011-3.127,0c-.228,0-.319-.07-.352-.3a1.689,1.689,0,0,0-1.489-1.42,11.21,11.21,0,0,0-5.215.02,1.752,1.752,0,0,0-1.332,2.35,1.252,1.252,0,0,0,.886.929,16.8,16.8,0,0,0,3.559.482,16.673,16.673,0,0,1,3.9.674c2.767.908,3.694,3.272,3.49,5.762-.265,3.255-2.5,4.569-4.985,4.983a14.646,14.646,0,0,1-7.194-.38,4.911,4.911,0,0,1-3.514-4.648c-.007-.377.056-.563.491-.528C1079.519,99.446,1079.991,99.417,1080.461,99.417Z" transform="translate(-1044.993 -78.019)" fill="#c3c3cf"/>
          <path id="Path_8558" data-name="Path 8558" d="M1468.192,99.835c0,1.675-.012,3.35.009,5.032,0,.407-.123.528-.522.515-.9-.027-1.8-.037-2.7,0-.471.022-.571-.123-.568-.578q.029-4.541,0-9.071a12.218,12.218,0,0,0-.254-2.612,3.91,3.91,0,0,0-3.63-3.341,8.564,8.564,0,0,0-3.343.1,3.892,3.892,0,0,0-3.168,3.38,15.618,15.618,0,0,0-.237,2.737c0,2.921-.01,5.843.008,8.764,0,.458-.078.649-.59.623-.9-.047-1.8-.028-2.7-.007-.356.009-.513-.069-.507-.466.065-3.7-.149-7.4.107-11.087.185-2.669,1.082-5.063,3.479-6.611a8.578,8.578,0,0,1,3.966-1.278,12.243,12.243,0,0,1,5.955.681,7.338,7.338,0,0,1,4.367,5.591,14.932,14.932,0,0,1,.322,3.279Q1468.192,97.66,1468.192,99.835Z" transform="translate(-1370.842 -78.191)" fill="#c3c3cf"/>
          <path id="Path_8559" data-name="Path 8559" d="M905.765,92.241c0-2.186.011-3.985-.009-5.782,0-.4.093-.536.507-.523.9.029,1.8.038,2.7,0,.47-.021.589.135.587.582q-.025,4.507,0,9.011a11.765,11.765,0,0,0,.27,2.853,3.824,3.824,0,0,0,3.133,3.044,8.545,8.545,0,0,0,4.05-.074A3.815,3.815,0,0,0,919.891,98a18.587,18.587,0,0,0,.225-3.109q.02-4.2,0-8.4c0-.41.077-.571.528-.554.96.036,1.922.02,2.882,0,.31,0,.429.08.428.411-.01,3.412.029,6.825-.026,10.235a11.354,11.354,0,0,1-.768,4,7.393,7.393,0,0,1-6.436,4.741,13.11,13.11,0,0,1-5.283-.3c-3.1-.859-4.767-3.028-5.4-6.084C905.538,96.593,905.87,94.215,905.765,92.241Z" transform="translate(-893.417 -78.268)" fill="#c3c3cf"/>
          <path id="Path_8561" data-name="Path 8561" d="M805.26,40.048c0-3.024.056-6.049-.013-9.072-.1-4.284,2.156-6.382,5.944-7.181a18.879,18.879,0,0,1,3.343-.33c.407-.012.522.123.508.524-.028.918-.031,1.841,0,2.758.015.426-.114.563-.54.558a10.629,10.629,0,0,0-3.263.416,2.818,2.818,0,0,0-2.16,3.132c.025.378.254.288.463.288,1.636,0,3.272.026,4.909-.009.507-.011.614.156.6.614-.034.859-.042,1.718,0,2.577.026.5-.1.663-.623.652-1.573-.036-3.148,0-4.723-.023-.475-.009-.614.112-.614.614.02,4.761,0,9.522.024,14.283,0,.608-.11.869-.788.812a17.967,17.967,0,0,0-2.455,0c-.491.026-.614-.139-.614-.614.018-3.331.01-6.662.01-9.992Z" transform="translate(-805.244 -23.464)" fill="#c3c3cf"/>
          <path id="Path_8565" data-name="Path 8565" d="M1227.232,95.607c0-3.022.013-6.043-.012-9.065,0-.524.156-.652.653-.63.9.039,1.8.027,2.7,0,.351-.01.446.1.444.446q-.014,9.309,0,18.62c0,.347-.1.458-.453.449-.919-.021-1.841-.038-2.758,0-.475.022-.582-.136-.579-.58.016-2.837.007-5.675.007-8.514Z" transform="translate(-1175.432 -78.247)" fill="#c3c3cf"/>
          <path id="Path_8566" data-name="Path 8566" d="M1229.167,27.245c-.491,0-.982-.016-1.473.006-.314.014-.438-.09-.435-.414.014-1,.009-2,0-3,0-.26.1-.368.36-.368h3.068c.245,0,.368.093.36.362-.011,1.021-.016,2.041,0,3.068,0,.328-.151.361-.412.355-.491-.012-.982,0-1.473,0Z" transform="translate(-1175.466 -23.469)" fill="#c3c3cf"/>
        </g>
      </g>
    </g>
  </g>
</svg>
