<svg xmlns="http://www.w3.org/2000/svg" width="241" height="85" viewBox="0 0 241 85">
  <g id="_19" data-name="19" transform="translate(2279 2847)">
    <rect id="Rectangle_1928" data-name="Rectangle 1928" width="241" height="85" transform="translate(-2279 -2847)" fill="none"/>
    <g id="indigo-airlines-logo" transform="translate(-2241.23 -2827.76)" opacity="0.5">
      <path id="Path_8742" data-name="Path 8742" d="M103.28,2.731A22.289,22.289,0,0,0,88.651,15.019c-1.365,2.861-1.69,4.616-1.755,8.517A20.543,20.543,0,0,0,99.249,42.781a21.057,21.057,0,0,0,14.5,1.3c9.492-2.406,14.889-8.907,15.6-18.725l.325-4.421h-20.35v5.2h7.152c6.762,0,7.152.065,7.152,1.3,0,1.95-1.755,5.916-3.446,7.737-3.9,4.226-12.808,5.916-18.335,3.381-3.316-1.5-7.672-6.372-8.647-9.687a16.421,16.421,0,0,1,3.381-16.189,14.437,14.437,0,0,1,11.313-5.4c3.9,0,6.762,1.04,10.858,3.966l2.926,2.146,2.016-1.95,1.95-1.885L123.5,7.737C118.428,3.381,109.521,1.171,103.28,2.731ZM4,23.536V44.341H9.2V2.731H4Zm60.465-6.5c0,15.474-.325,17.164-3.446,20.09a8.266,8.266,0,0,1-4.616,1.82c-9.3,1.105-14.239-9.3-7.477-15.8,1.755-1.69,2.406-1.885,5.981-1.885a25.31,25.31,0,0,1,5.851.585c1.82.52,1.82.52,1.625-1.95-.2-2.341-.39-2.536-3.121-3.381-6.307-1.885-13.523.715-16.579,5.981-2.015,3.511-2.211,9.687-.39,13.718,4.226,9.362,18.92,10.793,24.576,2.341,2.471-3.641,2.8-6.242,2.8-21.39V2.731h-5.2ZM21.749,16.45c-3.121.91-6.372,4.486-7.282,7.932a73.347,73.347,0,0,0-.715,11.443v8.517h5.136l.2-9.817.2-9.817,2.146-1.885a7.013,7.013,0,0,1,8.517-.845c2.666,1.885,3.316,4.681,3.316,13.913v8.452h4.551V34.264c0-11.118-.325-12.548-3.9-15.474A12.832,12.832,0,0,0,21.749,16.45Zm120.15-.065a15.776,15.776,0,0,0-9.037,7.152c-1.235,2.406-1.5,3.641-1.3,7.217.455,8.062,5.916,13.133,14.108,13.2,5.851.065,10.012-2.015,12.678-6.307,6.957-11.313-3.121-24.381-16.449-21.26Zm10.858,7.347c2.211,2.276,2.406,2.731,2.406,6.307s-.2,4.031-2.406,6.242c-2.016,2.081-2.861,2.471-5.851,2.666-4.226.325-7.347-1.17-9.1-4.421A9.256,9.256,0,0,1,140.664,22.3c1.755-1.17,2.861-1.365,5.916-1.17C149.9,21.326,150.611,21.651,152.757,23.731ZM76.168,30.363V44.341h5.2V16.384h-5.2Z" transform="translate(0 0)" fill="#d3d3d9"/>
    </g>
  </g>
</svg>
