<svg xmlns="http://www.w3.org/2000/svg" width="243" height="84" viewBox="0 0 243 84">
  <g id="_2" data-name="2" transform="translate(3091 3056)">
    <rect id="Rectangle_41" data-name="Rectangle 41" width="243" height="84" transform="translate(-3091 -3056)" fill="none"/>
    <g id="Page-1" transform="translate(-3109.393 -3371.751)" opacity="0.5">
      <g id="logo_hawaiian_airlines_logoroll" transform="translate(47.024 331.213)">
        <g id="hawaiian_airlines_logo" transform="translate(0)">
          <g id="g556" transform="translate(0 17.499)">
            <g id="Group" transform="translate(0 0)">
              <g id="g558">
                <g id="g564" transform="translate(134.01 31.561)">
                  <path id="path566" d="M403.366,454.038a.165.165,0,0,0-.186-.186h-.248c-.031,0-.031,0-.031.031v.279c0,.031,0,.031.031.031h.248c.124,0,.186-.062.186-.155Zm-.652.838a.03.03,0,0,1-.031-.031v-1.118a.03.03,0,0,1,.031-.031h.466c.279,0,.435.124.435.373a.337.337,0,0,1-.248.342l.248.466c.031.031,0,.031-.031.031h-.124c-.031,0-.031-.031-.062-.031l-.248-.435h-.217c-.031,0-.031,0-.031.031v.435a.03.03,0,0,1-.031.031h-.155Zm1.3-.59a.882.882,0,0,0-.9-.9.864.864,0,0,0-.9.9.882.882,0,0,0,.9.9.922.922,0,0,0,.9-.9Zm-2.018,0a1.087,1.087,0,0,1,2.173,0,1.087,1.087,0,0,1-1.087,1.118A1.106,1.106,0,0,1,402,454.287Z" transform="translate(-402 -453.2)" fill="#c3c3cf"/>
                </g>
                <g id="g568" transform="translate(0 0.01)">
                  <path id="path570" d="M62.928,369.6v16.673c0,.745,0,1.8-1.025,1.8H59.078v-7.545H50.85v5.744c0,.745.062,1.8-.963,1.8H47V371.4c0-.745,0-1.8,1.025-1.8H50.85v7.948h8.259V371.4c0-.714-.062-1.8.963-1.8Z" transform="translate(-47 -369.6)" fill="#c3c3cf"/>
                </g>
                <g id="g572" transform="translate(17.934 0.008)">
                  <path id="path574" d="M106.423,380.032l-2.639-7.762-3.757,10.246.155.031A4.525,4.525,0,0,1,104.094,380l2.329.031Zm6.117,8.042h-3.384l-1.77-5.154h-7.358l-1.273,3.788c-.217.59-.5,1.366-1.459,1.366H94.5l6.023-16.952c.217-.59.5-1.521,1.521-1.521h4.564l6.365,17.884c.093.342-.062.59-.435.59Z" transform="translate(-94.5 -369.6)" fill="#c3c3cf"/>
                </g>
                <g id="g576" transform="translate(35.55 0.01)">
                  <path id="path578" d="M167.948,369.6,161.8,386.708c-.124.373-.373,1.366-1.335,1.366h-2.36l-3.508-9.842-3.1,8.507c-.124.373-.373,1.366-1.335,1.366H147.58l-6.365-17.884c-.124-.373.062-.59.435-.59h3.384l4.6,13.754,3.322-9.811-1.211-3.353c-.124-.373.062-.59.435-.59h3.415l4.254,13.382,3.695-12.047c.186-.59.5-1.335,1.459-1.335h2.95V369.6Z" transform="translate(-141.177 -369.6)" fill="#c3c3cf"/>
                </g>
                <g id="g580" transform="translate(61.139 0.008)">
                  <path id="path582" d="M220.792,380.032l-2.639-7.762L214.4,382.516l.155.031A4.525,4.525,0,0,1,218.463,380l2.329.031Zm6.117,8.042h-3.384l-1.77-5.154h-7.327l-1.273,3.788c-.217.59-.5,1.366-1.459,1.366H208.9l6.023-16.952c.217-.59.5-1.521,1.521-1.521h4.564l6.365,17.884a.434.434,0,0,1-.466.59Z" transform="translate(-208.9 -369.6)" fill="#c3c3cf"/>
                </g>
                <g id="g584" transform="translate(81.762)">
                  <path id="path586" d="M263.6,371.3c0-.745,0-1.8.9-1.8h2.95v16.673c0,.745,0,1.8-.9,1.8H263.6Z" transform="translate(-263.6 -369.5)" fill="#c3c3cf"/>
                </g>
                <g id="g588" transform="translate(89.579)">
                  <path id="path590" d="M284.3,371.3c0-.745,0-1.8.9-1.8h2.95v16.673c0,.745,0,1.8-.9,1.8H284.3Z" transform="translate(-284.3 -369.5)" fill="#c3c3cf"/>
                </g>
                <g id="g592" transform="translate(95.388 0.008)">
                  <path id="path594" d="M311.623,380.032l-2.639-7.762-3.757,10.246.155.031A4.525,4.525,0,0,1,309.294,380l2.329.031Zm6.117,8.042h-3.384l-1.77-5.154h-7.358l-1.273,3.788c-.217.59-.5,1.366-1.459,1.366H299.7l6.023-16.952c.217-.59.5-1.521,1.521-1.521h4.564l6.365,17.884c.124.342-.062.59-.435.59Z" transform="translate(-299.7 -369.6)" fill="#c3c3cf"/>
                </g>
                <g id="g596" transform="translate(116.056 0.01)">
                  <path id="path598" d="M370.676,369.6v16.673c0,.745,0,1.8-.9,1.8h-2.422l-9.128-12.2v10.4c0,.745,0,1.8-.994,1.8H354.5V371.4c0-.745,0-1.8.9-1.8h2.515l9.035,12.45V371.4c0-.745-.155-1.8.869-1.8Z" transform="translate(-354.5 -369.6)" fill="#c3c3cf"/>
                </g>
                <g id="g600" transform="translate(65.562 24.501)">
                  <path id="path602" d="M226.014,440.461l-1.459-4.192h-.031l-1.49,4.192Zm-2.08-5.837c.031-.062.062-.124.155-.124h.9a.21.21,0,0,1,.186.124l3.2,8.973c.031.062-.031.124-.093.124h-.962a.17.17,0,0,1-.186-.124l-.714-2.018H222.63l-.714,2.018a.17.17,0,0,1-.186.124h-.962c-.093,0-.124-.062-.093-.124Z" transform="translate(-220.663 -434.5)" fill="#c3c3cf"/>
                </g>
                <g id="g604" transform="translate(76.208 24.488)">
                  <path id="path606" d="M248.9,434.524a.134.134,0,0,1,.124-.124h.931a.114.114,0,0,1,.124.124V443.5a.134.134,0,0,1-.124.124h-.931a.114.114,0,0,1-.124-.124Z" transform="translate(-248.9 -434.4)" fill="#c3c3cf"/>
                </g>
                <g id="g608" transform="translate(81.69 24.458)">
                  <path id="path610" d="M268.585,436.97c0-.962-.652-1.521-1.739-1.521h-2.2c-.062,0-.093.031-.093.062v2.919c0,.062.031.062.093.062h2.2a1.488,1.488,0,0,0,1.739-1.521Zm.217,6.582c-.093,0-.124-.031-.186-.124l-1.863-3.788h-2.08c-.062,0-.093.031-.093.062V443.4a.134.134,0,0,1-.124.124h-.931a.114.114,0,0,1-.124-.124v-8.973a.133.133,0,0,1,.124-.124h3.384a2.641,2.641,0,0,1,2.919,2.639A2.494,2.494,0,0,1,268,439.454l1.987,3.881c.062.062.031.155-.093.155l-1.087.062Z" transform="translate(-263.4 -434.3)" fill="#c3c3cf"/>
                </g>
                <g id="g612" transform="translate(91.811 24.488)">
                  <path id="path614" d="M290.2,434.524a.134.134,0,0,1,.124-.124h.931a.114.114,0,0,1,.124.124v7.886c0,.062.031.062.093.062h4.471a.114.114,0,0,1,.124.124v.838a.134.134,0,0,1-.124.124h-5.62a.114.114,0,0,1-.124-.124Z" transform="translate(-290.2 -434.4)" fill="#c3c3cf"/>
                </g>
                <g id="g616" transform="translate(100.437 24.488)">
                  <path id="path618" d="M313.1,434.524a.134.134,0,0,1,.124-.124h.931a.114.114,0,0,1,.124.124v8.942a.134.134,0,0,1-.124.124h-.931a.114.114,0,0,1-.124-.124Z" transform="translate(-313.1 -434.4)" fill="#c3c3cf"/>
                </g>
                <g id="g620" transform="translate(105.919 24.488)">
                  <path id="path622" d="M327.6,434.524a.134.134,0,0,1,.124-.124h.869a.252.252,0,0,1,.248.124l4.223,6.924h.062v-6.924a.134.134,0,0,1,.124-.124h.869a.114.114,0,0,1,.124.124V443.5a.134.134,0,0,1-.124.124h-.869A.282.282,0,0,1,333,443.5l-4.254-6.893h-.031V443.5a.134.134,0,0,1-.124.124h-.869a.114.114,0,0,1-.124-.124v-8.973Z" transform="translate(-327.6 -434.4)" fill="#c3c3cf"/>
                </g>
                <g id="g624" transform="translate(116.816 24.488)">
                  <path id="path626" d="M356.5,434.524a.134.134,0,0,1,.124-.124h5.62a.114.114,0,0,1,.124.124v.838a.134.134,0,0,1-.124.124H357.8c-.062,0-.093.031-.093.062v2.7c0,.062.031.062.093.062h3.788a.114.114,0,0,1,.124.124v.838a.134.134,0,0,1-.124.124H357.8c-.062,0-.093.031-.093.062v2.794c0,.062.031.062.093.062h4.44a.114.114,0,0,1,.124.124v.838a.134.134,0,0,1-.124.124h-5.62a.114.114,0,0,1-.124-.124Z" transform="translate(-356.5 -434.4)" fill="#c3c3cf"/>
                </g>
                <g id="g628" transform="translate(125.767 24.32)">
                  <path id="path630" d="M380.256,442.383a.15.15,0,0,1-.031-.217l.621-.683a.146.146,0,0,1,.186-.031,4.278,4.278,0,0,0,2.608.963c1.3,0,2.049-.652,2.049-1.583,0-.807-.466-1.3-1.956-1.521l-.466-.062c-1.832-.248-2.732-1.118-2.732-2.546,0-1.646,1.211-2.7,3.043-2.7a5.174,5.174,0,0,1,2.856.838c.093.062.093.124.031.186l-.466.745a.146.146,0,0,1-.186.031,4.187,4.187,0,0,0-2.267-.683c-1.149,0-1.77.621-1.77,1.49,0,.776.528,1.3,1.956,1.459l.466.062c1.832.248,2.732,1.056,2.732,2.577,0,1.615-1.149,2.794-3.415,2.794a4.8,4.8,0,0,1-3.26-1.118" transform="translate(-380.191 -434)" fill="#c3c3cf"/>
                </g>
              </g>
            </g>
          </g>
          <g id="Group_1_" transform="translate(139.042)">
            <g id="Group_7313" data-name="Group 7313">
              <g id="g638">
                <g id="g644">
                  <g id="g646">
                    <path id="path656" d="M415.4,345.206a22.073,22.073,0,0,0,18.35,21.7h0c-.093.776-.186,1.521-.31,2.111h0c-.714,3.477-3.136,6.675-4.471,7.452h0c3.508-.311,6.3-1.335,7.979-2.95h0c-.124,0-1.211-.031-1.3-.031h0a12.49,12.49,0,0,0,1.956-.931h0a25.2,25.2,0,0,0-.373-7.421h0c-.714-3.85-2.173-5.154-2.422-5.4h0l-.031-.031h0c0-.031.031-.031.062-.031h0a23.377,23.377,0,0,0,2.825-2.111h0c.373-.31.248-.466-.155-.31h0a18.1,18.1,0,0,1-4.968,1.335h0a21.8,21.8,0,0,1-6.706-.279h0a1.72,1.72,0,0,1-1.49-1.987h0a5.719,5.719,0,0,1,.528-1.49h0a2.142,2.142,0,0,0,.155-.994h0a2.324,2.324,0,0,0-.217-.373h0a.754.754,0,0,1-.031-.776h0a1.567,1.567,0,0,1,1.211-.714h0c.31-.031.652-.031,1.025-.031h0a8.533,8.533,0,0,0,1.3-.062h0c.994-.186,1.615-.838,1.49-1.056h0c-.093-.124-.994.031-1.273.093h0a4.889,4.889,0,0,1-1.708-.4h0c-.652-.217-1.025-.373-1.583-.124h0c-.373.155-.652.869-.745.528h0a.669.669,0,0,1,.155-.5h0c.124-.186.373-.5.373-.683h0c.031-.186.093-.5-.5-.9h0a5.229,5.229,0,0,1-.869-.683h0c-.559-.559-.652-1.118.435-2.018h0a13.623,13.623,0,0,0,2.95-3.384h0a1.333,1.333,0,0,0,.031-1.49h0a6.068,6.068,0,0,1-.5-.776h0c-.248-.466-.093-.9.342-1.521h0a8.522,8.522,0,0,0,.776-1.956h0a9.927,9.927,0,0,1,2.267-3.819h0a9.562,9.562,0,0,1,1.18-3.446h0a8.834,8.834,0,0,1,1.335-1.894h0a9,9,0,0,1,1.832-1.366h0a14.021,14.021,0,0,1,3.043-1.273h0a18.285,18.285,0,0,1,4.968-.683h0a17.942,17.942,0,0,1,4.285.528h0l.186.062h0a21.916,21.916,0,0,0-9.252-2.018h0A22.2,22.2,0,0,0,415.4,345.206m8.849,2.7c-.031.093.031.124.124.155h0a12.632,12.632,0,0,1,1.335.714h0c.869.5,1.242.093,1.428-.248h0c.062-.093.124-.466.031-.559h0c-.093-.124-.248-.031-.4.124h0c-.186.186-.652.093-.807.062h0c-.155-.031-.869-.186-1.3-.279h0a.607.607,0,0,0-.217-.031h0c-.124,0-.186,0-.186.062" transform="translate(-415.4 -323.1)" fill="#c3c3cf"/>
                  </g>
                </g>
              </g>
              <g id="g674" transform="translate(14.641 1.488)">
                <path id="path676" d="M484.193,347.126a30.656,30.656,0,0,0-.342-3.353,18.192,18.192,0,0,0-1.335-5.123,16.46,16.46,0,0,0-4.316-6.644,18.312,18.312,0,0,0-7.172-4.223,1,1,0,0,1-.186-.062h0a17.756,17.756,0,0,0-4.285-.528c-4.937-.093-8.569,1.956-9.842,3.322a7.857,7.857,0,0,0-1.335,1.894,9.1,9.1,0,0,0-1.18,3.446h0a7.069,7.069,0,0,1,2.608-1.739,5.622,5.622,0,0,0,2.391,1.925,16.6,16.6,0,0,0,2.95,1.118s1.925.559,3.881,1.211a6.364,6.364,0,0,1,3.167,2.95c0,.838-.838,1.646-1.677,4.192a19.87,19.87,0,0,0-.931,8.383v.062a41.183,41.183,0,0,0,1.18,6.054h0a18.142,18.142,0,0,1,.59,5.4,12.662,12.662,0,0,1-6.582,9.78h0a16.075,16.075,0,0,1-1.956.931c.093,0,1.211.031,1.3.031a13.749,13.749,0,0,0,10.215-4.067,14.7,14.7,0,0,0,2.7-3.695,18.222,18.222,0,0,0,1.832-5.806c.093-.466.311-1.987.311-1.987s.155,1.087.186,2.049a14.756,14.756,0,0,1-.714,5.5,10.117,10.117,0,0,0,3.167-3.136,19.92,19.92,0,0,0,1.583-2.391c2.235-3.509,3.85-7.638,3.788-15.493" transform="translate(-454.2 -327.19)" fill="#c3c3cf"/>
              </g>
            </g>
            <g id="g660" transform="translate(12.108 0.104)">
              <g id="g666" transform="translate(0 13.903)">
                <path id="path668" d="M454.226,360.912a24.238,24.238,0,0,0-4.036-.621,3.482,3.482,0,0,0-2.329,1.211,1.933,1.933,0,0,0-.466.9.5.5,0,0,0,.683.559,1.822,1.822,0,0,0,.807-.714c.186-.279.31-.621.59-.776a5.2,5.2,0,0,1,2.577-.342c.994.031,1.832.093,2.018.093.4-.031.31-.279.155-.31" transform="translate(-447.394 -360.287)" fill="#c3c3cf"/>
              </g>
              <g id="g670" transform="translate(1.268 15.877)">
                <path id="path672" d="M454.626,366.8a3.735,3.735,0,0,0-1.428-.342c-.155-.031-.186-.186.031-.279.311-.124.869-.031.869-.124.031-.093-.093-.279-.528-.435a3.1,3.1,0,0,0-.994-.124,2.376,2.376,0,0,0-1.49.745,1.051,1.051,0,0,0-.31.5c-.062.31.155.559.342.838a2.724,2.724,0,0,1,.217.373c.031.155.031.248-.124.342-.155.124-.062.342.248.248a1.678,1.678,0,0,0,.838-.435c.373-.31.373-.528.652-.776a2.516,2.516,0,0,1,1.552-.186c.559.124.683,0,.124-.342" transform="translate(-450.765 -365.5)" fill="#c3c3cf"/>
              </g>
              <g id="g678" transform="translate(10.424 0)">
                <path id="path680" d="M484.873,337.1q-.047.233.186.093a6.962,6.962,0,0,1,3.012-1.49,3.956,3.956,0,0,0,3.043-1.987,4.352,4.352,0,0,1,1.273-2.08c.248-.186,0-.248-.217-.217a4.388,4.388,0,0,0-2.018,1.087,1.771,1.771,0,0,1-.373-1.584c.031-.124-.062-.186-.217-.093a3.275,3.275,0,0,0-1.025,1.4.893.893,0,0,1-.186-1.056c.031-.124-.062-.093-.093-.031a1.728,1.728,0,0,0-.714,1.49,5.98,5.98,0,0,0-1.987-.59c-.186-.776-1.49-.993-1.708-.186-.186.714,1.056,1.273,1.583.683a5.956,5.956,0,0,1,3.2,1.646c.155.155.186.279.093.342-.062.062-.279-.062-.559-.248-.31-.186-2.36-1.49-4.129-.621-.093.031-.093.124-.031.124.342.093,1.087.342,1.273.838a2.6,2.6,0,0,0-1.8,1.521c-.155.31.031.342.186.217a5.04,5.04,0,0,1,1.708-.683,11.294,11.294,0,0,0-.5,1.428m14.189-8.29a11.545,11.545,0,0,0,.528,3.571,3.169,3.169,0,0,1-1.77,3.695,2.769,2.769,0,0,0-2.142-1.056c-.466-.031-.341.186-.093.248,3.291,1.366,2.142,5.123,1.708,5.93a3.712,3.712,0,0,0-.31,1.894,6.029,6.029,0,0,0-2.794.031,6.119,6.119,0,0,1-3.571-.4,3.009,3.009,0,0,1-1.894-2.3c-.031-.248-.186-.4-.279.031a2.737,2.737,0,0,0,.5,2.3c-.59,2.95-6.489,2.732-6.489,2.732-.373-1.273-3.074-1.646-3.664-3.508a3.822,3.822,0,0,1-.062-1.8,2.7,2.7,0,0,0,2.919-.963c.279-.342.062-.373-.155-.248a2.631,2.631,0,0,1-4.129-1.708,3.883,3.883,0,0,0-2.36-2.484c1.335-.838.962-2.267,1.677-3.477,1.832-3.2,4.471-2.235,4.471-2.235a2.489,2.489,0,0,0,1.8,1.521c.435.124.373-.093.186-.248a2.541,2.541,0,0,1,.062-4.378c2.577-1.708,3.012-2.453,3.012-2.453a7.694,7.694,0,0,0,3.043.776c2.95.248,3.633,1.739,3.695,2.329a2.843,2.843,0,0,0-1.211,1.583c-.155.435.093.373.248.186,1.149-1.521,2.546-1.242,3.881-.652.776.373,1.987,1.335,3.2,1.087" transform="translate(-475 -323.5)" fill="#4e4e79"/>
              </g>
            </g>
          </g>
        </g>
      </g>
    </g>
  </g>
</svg>
