<svg xmlns="http://www.w3.org/2000/svg" width="242" height="84" viewBox="0 0 242 84">
  <g id="_4" data-name="4" transform="translate(2565 3056)">
    <rect id="Rectangle_43" data-name="Rectangle 43" width="242" height="84" transform="translate(-2565 -3056)" fill="none"/>
    <g id="United_Airlines_logo_1_" transform="translate(-2547 -3037.363)" opacity="0.5">
      <g id="Globe_1_" transform="translate(166.269 6.363)">
        <path id="Globe" d="M427.142,6.363v34.19h-7.086A22.472,22.472,0,0,0,394.3,10.787l-1.362.335V6.363Zm-24.792,5.36a10.009,10.009,0,0,0-6.355-.784l.756.086.107-.053a10.545,10.545,0,0,1,2.967.166,11.964,11.964,0,0,0-1.192.4,3.79,3.79,0,0,1,.653.328,14.887,14.887,0,0,1,1.622-.443,7.885,7.885,0,0,1,1.857.952,21.284,21.284,0,0,0-2.353.379,2.684,2.684,0,0,1,.459.535,20.982,20.982,0,0,1,2.7-.288,4.7,4.7,0,0,1,1.1,1.382,21.079,21.079,0,0,0-3.163.039,3.566,3.566,0,0,1,.25.746,24.138,24.138,0,0,1,3.374.133,5.855,5.855,0,0,1,.412,1.759,26.832,26.832,0,0,0-3.6-.473,7.525,7.525,0,0,1-.034.995,25.247,25.247,0,0,1,3.7.67,8.9,8.9,0,0,1-.264,1.945,30.37,30.37,0,0,0-3.74-1.046,8.673,8.673,0,0,1-.524,1.538,29.182,29.182,0,0,1,3.675,1.552,11.01,11.01,0,0,1-.74,1.658,37.961,37.961,0,0,0-3.617-1.835,17.552,17.552,0,0,1-1.268,1.968c1.179.717,2.292,1.493,3.4,2.326-.332.486-.809,1.069-1.1,1.416-1.061-.882-3.238-2.614-3.238-2.614a11.908,11.908,0,0,1-1.995,1.972c.893.914,2.062,2.22,2.792,3.125a7.333,7.333,0,0,1-1.189,1.014c-.886-1.088-1.953-2.464-2.573-3.328a12.793,12.793,0,0,1-2.294,1.514v1.28l1.414,2.829a6.24,6.24,0,0,1-.994.508l-.42-.825v1.487c5.454-2.422,11.005-7.763,12.619-13.563a9.2,9.2,0,0,0-.272-6.453,6.762,6.762,0,0,0-2.93-3m-.814-.843c.237.078.464.183.692.282l.128-.022a10.424,10.424,0,0,1,3.277,1.126c-.542,0-1.1,0-1.644.041a9.028,9.028,0,0,1,.661.656c.733-.014,1.442,0,2.141.048a6.52,6.52,0,0,1,1.792,1.893,23.019,23.019,0,0,0-2.918-.432c.129.3.26.6.37.916a32.7,32.7,0,0,1,3.263.633,7.82,7.82,0,0,1,.733,2.3,26.635,26.635,0,0,0-3.613-1.068c.031.4.034.808.037,1.212a27.457,27.457,0,0,1,3.721,1.341,9.413,9.413,0,0,1-.265,2.338,30.128,30.128,0,0,0-3.732-1.638,17.035,17.035,0,0,1-.626,2.1,39.853,39.853,0,0,1,3.624,2.039,10.369,10.369,0,0,1-.914,1.916c-1.146-.784-2.294-1.546-3.49-2.21a14.2,14.2,0,0,1-1.533,2.5c1.065.839,2.157,1.713,3.183,2.641a12.494,12.494,0,0,1-1.3,1.635c-.75-.79-2-1.915-3.044-2.793a20.826,20.826,0,0,1-2.484,2.607c.669.7,2.656,3.1,2.656,3.1a11.69,11.69,0,0,1-1.4,1.169s-2.029-2.6-2.529-3.23a21.484,21.484,0,0,1-3.564,2.364c.556.948,1.938,3.517,1.938,3.517a6.344,6.344,0,0,1-1.1.557c-.652-1.083-1.437-2.651-1.855-3.545a6.157,6.157,0,0,1-.81.365v4.679a27.043,27.043,0,0,0,11.426-7.319c3.006-3.258,5.384-6.775,6.09-10.979a8.862,8.862,0,0,0-3.207-8.64,10.241,10.241,0,0,0-5.706-2.109m-1.408,2.232c-1.851-1.871-4.69-2.028-7.2-1.439,0,0,0,.227,0,.227a9.083,9.083,0,0,1,1.823-.216,9.938,9.938,0,0,0-1.149.833,2.644,2.644,0,0,1,.456.145,16.025,16.025,0,0,1,1.567-1,5.713,5.713,0,0,1,1.853.314,12.373,12.373,0,0,0-2.464,1.186,1.47,1.47,0,0,1,.335.263,18.959,18.959,0,0,1,2.858-1.207,3.987,3.987,0,0,1,1.187.754,23.3,23.3,0,0,0-3.48,1.061,2.355,2.355,0,0,1,.289.451,29.767,29.767,0,0,1,3.733-1.013,3.461,3.461,0,0,1,.657,1.02,26.874,26.874,0,0,0-4.1.7,2.9,2.9,0,0,1,.14.531,29.1,29.1,0,0,1,4.247-.506,4.53,4.53,0,0,1,.2,1.309,28.618,28.618,0,0,0-4.383.1c0,.17-.024.51-.046.72a30.655,30.655,0,0,1,4.385.152,10.576,10.576,0,0,1-.3,1.462,26.567,26.567,0,0,0-4.313-.6,4.291,4.291,0,0,1-.316.94,26,26,0,0,1,4.123,1.121A12.529,12.529,0,0,1,399.6,21.7a30.647,30.647,0,0,0-3.956-1.466,7.607,7.607,0,0,1-.839,1.315c.84.409,2.451,1.319,3.556,2.033a11.252,11.252,0,0,1-.873,1.045c-1.07-.834-2.131-1.617-3.293-2.356a11.986,11.986,0,0,1-1.266,1.251v.135l2.67,2.842a10.633,10.633,0,0,1-.915.748L392.932,25v3.959a19.923,19.923,0,0,0,7-6.967c1.258-2.215,2.211-5.212.992-7.758a4.585,4.585,0,0,0-.792-1.121m7.975.028.788.1a8.209,8.209,0,0,1,2.161,1.673,5.128,5.128,0,0,1,.665.813c-.65-.184-1.28-.408-1.952-.553a6.757,6.757,0,0,1,.556,1.113c.75.216,1.494.475,2.222.734a9.282,9.282,0,0,1,.971,2.845c-.84-.421-1.683-.83-2.548-1.17a8.71,8.71,0,0,1,.067,1.491,23.711,23.711,0,0,1,2.673,1.44,11.368,11.368,0,0,1-.249,2.72,23.367,23.367,0,0,0-2.737-1.718,12.22,12.22,0,0,1-.784,2.5,29.323,29.323,0,0,1,2.724,2.024,16.173,16.173,0,0,1-.983,2.141c-.877-.754-1.77-1.475-2.7-2.171a15.848,15.848,0,0,1-1.9,2.957c.892.823,1.743,1.628,2.595,2.509a13.792,13.792,0,0,1-1.43,1.768c-.811-.87-1.646-1.763-2.494-2.6a27.284,27.284,0,0,1-2.921,2.962,27.2,27.2,0,0,1,2.269,2.8c-.518.444-1,.862-1.519,1.242l-2.192-2.83a30.824,30.824,0,0,1-4.229,2.711l1.15,1.919h3.566c5.45-3.721,10.372-9.247,11.889-15.415a11.264,11.264,0,0,0-2.553-10.447,8.451,8.451,0,0,0-4.016-2.333,6.162,6.162,0,0,1,.913.784m-15.169-.314v.659l.369-.256a3.046,3.046,0,0,1,.893.378c-.426.25-.863.5-1.257.765v.413c.525-.321,1.144-.7,1.633-.944a2.029,2.029,0,0,1,.512.5c-.706.282-1.691.762-2.15,1v.426a18.065,18.065,0,0,1,2.476-1.021,2.143,2.143,0,0,1,.252.641,17.122,17.122,0,0,0-2.722.861v.389a19.135,19.135,0,0,1,2.832-.74,3.916,3.916,0,0,1,.066.8,25.778,25.778,0,0,0-2.9.439v.444a22.821,22.821,0,0,1,2.849-.193,4.524,4.524,0,0,1-.242.9,25.737,25.737,0,0,0-2.61-.094c-.005,0-.005.593-.005.6a18.088,18.088,0,0,1,2.286.358,5.513,5.513,0,0,1-.41.8,13.123,13.123,0,0,0-1.875-.513v1.169a11.682,11.682,0,0,1,1.087.55,4.244,4.244,0,0,1-.528.621c-.245-.163-.559-.345-.559-.345v1.495a15.307,15.307,0,0,0,1.705-1.912c1.194-1.721,2.134-3.952,1.277-6.1a3.824,3.824,0,0,0-2.981-2.084m19.98,3.294a13.008,13.008,0,0,1,.683,1.3l.951.438a11.9,11.9,0,0,1,1.507,3.517c-.525-.331-1.058-.675-1.593-.965a13.324,13.324,0,0,1,.118,1.688,19.693,19.693,0,0,1,1.811,1.382,14.424,14.424,0,0,1-.181,3.076,15.855,15.855,0,0,0-1.957-1.625,13.973,13.973,0,0,1-.866,2.833,18.582,18.582,0,0,1,2.041,1.928,14.714,14.714,0,0,1-1.012,2.293c-.647-.7-1.354-1.42-2.059-2.04a28.527,28.527,0,0,1-2.084,3.254c.705.723,1.357,1.479,2,2.237a20.5,20.5,0,0,1-1.52,1.846c-.654-.754-1.267-1.528-1.95-2.263A25.55,25.55,0,0,1,405.67,38.2c.73.886,1.836,2.356,1.836,2.356h.623a36.4,36.4,0,0,0,3.282-3.351,22.421,22.421,0,0,0,5.155-10.1,12.255,12.255,0,0,0-2.923-10.711l-.729-.274Zm2.494,1.989-.012.029a12.77,12.77,0,0,1,2.515,4.578l-.009.018-.879-.666a15.18,15.18,0,0,1,.226,2.02,7.475,7.475,0,0,1,1.221,1.152,16.014,16.014,0,0,1-.138,3.517,13.088,13.088,0,0,0-1.363-1.522,14.875,14.875,0,0,1-.83,3.043,14.773,14.773,0,0,1,1.44,1.865,13.771,13.771,0,0,1-1.014,2.409c-.5-.641-.848-1.159-1.5-1.921a28.135,28.135,0,0,1-2.232,3.5c.566.667,1.087,1.363,1.58,2.067a22.089,22.089,0,0,1-1.515,1.914c-.515-.709-1.064-1.413-1.6-2.113a24.365,24.365,0,0,1-2.411,2.555h4.2a23.25,23.25,0,0,0,5.465-10.533,12.96,12.96,0,0,0-2.375-11.12,4.977,4.977,0,0,0-.771-.792m3.583,5.5a18.792,18.792,0,0,1,.329,2.374,8.573,8.573,0,0,1,.684.913,15.019,15.019,0,0,1-.268,3.516l-.637-.785a19.155,19.155,0,0,1-.863,3.24l.7,1.224a17.51,17.51,0,0,1-1,2.557c-.264-.428-.51-.9-.782-1.273a29.622,29.622,0,0,1-2.218,3.592l.986,1.589h.228a22.42,22.42,0,0,0,4.133-11.84,10.81,10.81,0,0,0-1.2-5.01l-.1-.1Zm1.886,6.343c-.081.594-.121,1.2-.229,1.759l-.188-.256a18.334,18.334,0,0,1-.916,3.461l.293.811a23.189,23.189,0,0,1-.933,2.6,4.443,4.443,0,0,0-.422-.866,29.1,29.1,0,0,1-1.777,3.094h1.574a26.494,26.494,0,0,0,2.023-5.23,15.416,15.416,0,0,0,.582-5.374h-.007Zm.1,4.333a47.939,47.939,0,0,1-1.427,5.4,3.867,3.867,0,0,1-.167-.361c-.235.474-.592,1.234-.592,1.234h.807a22.071,22.071,0,0,0,1.379-6.271m-25.043,4.932a26.625,26.625,0,0,1-3,1.152v.184h3.745Zm8.2.251c-.39.279-.884.718-1.479,1.093h2.195s-.474-.714-.716-1.093" transform="translate(-392.932 -6.363)" fill="#c3c3cf"/>
      </g>
      <g id="UNITED" transform="translate(5 15.561)">
        <path id="path16" d="M318.77,32.517H322.6c4.193.005,5.9,1.762,5.9,4.949,0,3.272-1.751,4.936-5.9,4.943H318.77Zm-5.094-4.029V46.436h9.035c7.44-.006,11.091-3.369,11.091-8.994,0-5.322-3.288-8.946-11.091-8.954h-9.035Z" transform="translate(-185.355 -28.488)" fill="#c3c3cf"/>
        <path id="polygon18" d="M266.381,28.489v3.933H254.7V35.6h9.893v3.647H254.7V42.53h11.756v3.907H249.62V28.489Z" transform="translate(-147.928 -28.489)" fill="#c3c3cf"/>
        <path id="polygon20" d="M202.566,28.49v4.064h-6.589V46.436h-5.106V32.554h-6.578V28.49Z" transform="translate(-109.758 -28.489)" fill="#c3c3cf"/>
        <path id="polygon22" d="M150.067,28.49h5.2V46.438h-5.2V28.49Z" transform="translate(-89.761 -28.489)" fill="#c3c3cf"/>
        <path id="polygon24" d="M80.423,35.2,91.458,46.437h3.815V28.489H90.516V39.251L80.082,28.489H75.663V46.437h4.76Z" transform="translate(-46.287 -28.489)" fill="#c3c3cf"/>
        <path id="path26" d="M24.6,38.521c0,5.49-3.417,8.246-9.763,8.246C8.473,46.767,5,44.024,5,38.553V28.49h5.1V38.566c0,2.737,1.553,4.1,4.755,4.094,3.166-.011,4.663-1.345,4.665-4.063V28.49H24.6V38.521Z" transform="translate(-5 -28.489)" fill="#c3c3cf"/>
      </g>
    </g>
  </g>
</svg>
