<svg xmlns="http://www.w3.org/2000/svg" width="242" height="85" viewBox="0 0 242 85">
  <g id="_8" data-name="8" transform="translate(3353 2952)">
    <rect id="Rectangle_40" data-name="Rectangle 40" width="242" height="85" transform="translate(-3353 -2952)" fill="none"/>
    <g id="singapore-airlines-6" transform="translate(-3305 -2935.401)" opacity="0.5">
      <g id="Group_7326" data-name="Group 7326" transform="translate(0 0)">
        <path id="Path_8486" data-name="Path 8486" d="M0,863.4H101.355l-2.009,3.139H0Z" transform="translate(0 -812.837)" fill="#c3c3cf"/>
        <path id="Path_8487" data-name="Path 8487" d="M1926.264,162.307h-3.724l7.525-11.877a5.922,5.922,0,0,0-.345-5.06L1919.231,128a3.347,3.347,0,0,1,0-3.157l3.1-4.644,12.31,20.111a8.254,8.254,0,0,1-.275,9.429Z" transform="translate(-1806.45 -113.161)" fill="#c3c3cf"/>
        <path id="Path_8488" data-name="Path 8488" d="M1860.116,45.5l4.574-6.969a5.372,5.372,0,0,1,4.785-2.875h4.855l3.385,5.335s-2.671-.275-3.865,1.628l-4.99,7.525a6.64,6.64,0,0,1-5.979,3.52h-23.507l8.943-13.727s1.265-1.61-.5-4.281l-7.959-12.79s-1.956-1.892.07-5.13l2.325-3.52,11.057,17.926a4.655,4.655,0,0,1,0,5.411L1845,50.5h17.51s1.974.363,3.672-2.167l4.351-6.694a6.717,6.717,0,0,1,3.174-3.174h-3.52a4.42,4.42,0,0,0-3.238,2.255l-3.865,5.979a5.346,5.346,0,0,1-4.509,2.53h-6.12l7.385-11.461s4.023-5.288,1.195-10.143L1848.8,7.385a3.559,3.559,0,0,1,.14-3.379L1851.607,0l13.938,22.447s2.044,3.362,2.044,5.962-1.628,5.546-2.53,7.039l-6.137,9.569s-.691.919-.2,1.265.984-.275,1.4-.779" transform="translate(-1731.306 0)" fill="#c3c3cf"/>
      </g>
      <path id="Path_8489" data-name="Path 8489" d="M51.88,385.476h2.167v8.579h5.288v1.839H51.88ZM61,395.894h2.149V385.476H61Zm-26.383,0h2.132V385.476H34.615Zm43.9-10.418h8.164V387.2h-6v2.547h5.1v1.892h-5.1v2.53h6V395.9H78.52Zm11.5-14H98.18v1.716h-6v2.53H97.3v1.892H92.183v2.53h6v1.716H90.016Zm-49.96,24.421V385.476h6.19a2.981,2.981,0,0,1,2.981,3.034,3.453,3.453,0,0,1-2.255,3.485l3.139,3.9H47.44l-4.334-5.405h2.255a1.624,1.624,0,0,0,1.61-1.663,1.567,1.567,0,0,0-1.7-1.663H42.222V395.9H40.056Zm38.084-14.038V371.473h6.19a2.981,2.981,0,0,1,2.981,3.034,3.464,3.464,0,0,1-2.255,3.467l3.139,3.883h-2.67l-4.334-5.37h2.255a1.624,1.624,0,0,0,1.61-1.663,1.557,1.557,0,0,0-1.7-1.663H80.306v8.7Zm-43.366-1.8H37.7v-4.767H39.78v6.571H34.322a5.2,5.2,0,0,1,.158-10.383h5.359v1.839H35a3.233,3.233,0,0,0-3.244,3.414,3.48,3.48,0,0,0,3.016,3.326m31.2,5.423H68.16v1.61l1.37-1.61h2.583a3.331,3.331,0,0,1,3.537,3.59v6.828h-2.2v-7.156a1.5,1.5,0,0,0-1.558-1.423H68.166v8.58H65.982Zm-48.086-14h2.167v1.593l1.37-1.593h2.583a3.342,3.342,0,0,1,3.555,3.59v6.793h-2.2v-7.127a1.522,1.522,0,0,0-1.575-1.423h-3.73v8.544H17.889Zm-5.13,10.383h2.132V371.473H12.759Zm76.3,14.02v-1.769h6.032s1.195.223,1.195-1.23-.9-1.3-1.23-1.3H91.574s-2.688.187-2.688-2.963,2.653-3.139,2.653-3.139h6.624v1.839H92.353s-1.265,0-1.265,1.195.849,1.423,1.646,1.423h3.1s2.618-.275,2.618,2.84a2.772,2.772,0,0,1-2.688,3.1ZM1.076,381.857v-1.769H7.108s1.195.228,1.195-1.23-.9-1.3-1.23-1.3H3.588S.9,377.745.9,374.612c0-3.157,2.653-3.139,2.653-3.139h6.624v1.839H4.367s-1.265,0-1.265,1.195.867,1.423,1.646,1.423h3.1s2.618-.275,2.618,2.823a2.768,2.768,0,0,1-2.688,3.1Z" transform="translate(-0.848 -349.717)" fill="#c3c3cf"/>
      <path id="Path_8490" data-name="Path 8490" d="M391.761,360.5a5.678,5.678,0,1,0,5.675,5.728v-.047a5.662,5.662,0,0,0-5.675-5.681m0,9.265a3.584,3.584,0,0,1,0-7.168,3.584,3.584,0,1,1,0,7.168m-22.33-8.621h-2.29L362.2,371.527h2.436l1.312-2.987h4.708l1.3,2.987h2.43m-7.83-4.515,1.733-4.252L370,367Zm-17.423,8.14h-2.29L341.9,385.571h2.436l1.312-2.993h4.708l1.3,2.993h2.43m-7.836-4.533,1.733-4.263,1.716,4.252Zm35.255-19.894h-5.768v10.383h2.214v-5.042l1.277,1.757h2.278a3.556,3.556,0,0,0,0-7.1m-.082,5.177h-3.479v-3.268h3.479c.779,0,1.312.861,1.312,1.646a1.5,1.5,0,0,1-1.312,1.622" transform="translate(-321.877 -339.388)" fill="#c3c3cf"/>
    </g>
  </g>
</svg>
