<svg xmlns="http://www.w3.org/2000/svg" width="243" height="85" viewBox="0 0 243 85">
  <g id="_9" data-name="9" transform="translate(3091 2952)">
    <rect id="Rectangle_41" data-name="Rectangle 41" width="243" height="85" transform="translate(-3091 -2952)" fill="none"/>
    <path id="air-arabia-logo" d="M111.328,16.189a5.4,5.4,0,0,1-.917,1.581,3.5,3.5,0,0,1-1.6,1.054,6.606,6.606,0,0,1-2.292.376,9.432,9.432,0,0,1-1.6-.075,6.9,6.9,0,0,0-.84-.151v-5.5a4.513,4.513,0,0,1,.917-2.937,3.378,3.378,0,0,1,2.751-1.2,3.327,3.327,0,0,1,2.827,1.355,5.5,5.5,0,0,1,.993,3.464,4.528,4.528,0,0,1-.229,2.033m2.6-8.434a6.042,6.042,0,0,0-2.369-1.506,7.249,7.249,0,0,0-2.827-.527,4.838,4.838,0,0,0-1.91.3,8.348,8.348,0,0,0-1.452.6,4.757,4.757,0,0,0-.917.678c-.229.226-.306.377-.382.377V.376l-4.432,1.28V22.138c.153,0,.382.075.764.075.382.075.841.075,1.375.151s1.146.075,1.834.151a20.314,20.314,0,0,0,2.139.075c3.438,0,6.036-.753,7.717-2.334a8.5,8.5,0,0,0,2.6-6.626,9.26,9.26,0,0,0-.611-3.389,5.276,5.276,0,0,0-1.528-2.485M91.385,14.909a4.513,4.513,0,0,1-.917,2.937,3.378,3.378,0,0,1-2.751,1.2A3.327,3.327,0,0,1,84.89,17.7a5.5,5.5,0,0,1-.993-3.464,6.126,6.126,0,0,1,.306-2.108,5.4,5.4,0,0,1,.917-1.581,3.5,3.5,0,0,1,1.6-1.054,6.606,6.606,0,0,1,2.292-.377,9.432,9.432,0,0,1,1.6.075,6.9,6.9,0,0,0,.84.151v5.572ZM93.6,6.476c-.611-.151-1.375-.3-2.216-.452A18.715,18.715,0,0,0,88.328,5.8a12.3,12.3,0,0,0-3.82.6,8.243,8.243,0,0,0-2.827,1.807,8.1,8.1,0,0,0-1.834,2.786,11.457,11.457,0,0,0-.611,3.765,9.261,9.261,0,0,0,.611,3.389,7.017,7.017,0,0,0,1.6,2.485,6.042,6.042,0,0,0,2.369,1.506,9.024,9.024,0,0,0,2.9.527,5.084,5.084,0,0,0,1.91-.3,8.348,8.348,0,0,0,1.452-.6A4.756,4.756,0,0,0,91,21.084c.229-.226.382-.377.382-.452v1.506h4.432V7.379c-.076-.075-.306-.151-.688-.377A5.949,5.949,0,0,0,93.6,6.476M79.236,6.4a6.886,6.886,0,0,0-1.987-.6,12.674,12.674,0,0,0-1.681-.151,14.745,14.745,0,0,0-2.674.226,12.2,12.2,0,0,0-2.139.6c-.611.226-1.146.452-1.528.6a3.483,3.483,0,0,1-.688.376V21.988H72.97V9.94c.153-.075.535-.226.993-.452a6.611,6.611,0,0,1,2.063-.3,3.773,3.773,0,0,1,.917.075c.306.075.611.075.917.151h.076c.458-1.054.84-2.033,1.3-3.087-.076.151,0,.075,0,.075m59.675,8.509a4.513,4.513,0,0,1-.917,2.937,3.378,3.378,0,0,1-2.751,1.2,3.327,3.327,0,0,1-2.827-1.355,5.5,5.5,0,0,1-.993-3.464,6.126,6.126,0,0,1,.306-2.108,5.4,5.4,0,0,1,.917-1.581,3.5,3.5,0,0,1,1.6-1.054,6.606,6.606,0,0,1,2.292-.377,9.432,9.432,0,0,1,1.6.075,6.9,6.9,0,0,0,.841.151ZM142.655,7a10.068,10.068,0,0,0-1.452-.527c-.611-.151-1.375-.3-2.216-.452a18.716,18.716,0,0,0-3.056-.226,12.3,12.3,0,0,0-3.82.6,8.242,8.242,0,0,0-2.827,1.807,8.1,8.1,0,0,0-1.834,2.786,11.456,11.456,0,0,0-.611,3.765,9.26,9.26,0,0,0,.611,3.389,7.017,7.017,0,0,0,1.6,2.485,6.042,6.042,0,0,0,2.369,1.506,9.024,9.024,0,0,0,2.9.527,5.084,5.084,0,0,0,1.91-.3,8.347,8.347,0,0,0,1.452-.6,4.757,4.757,0,0,0,.917-.678c.229-.226.382-.377.382-.452v1.506h4.432V7.379A6.854,6.854,0,0,0,142.655,7M121.566,0a2.571,2.571,0,0,0-1.757.678,2.26,2.26,0,0,0,0,3.388,2.617,2.617,0,0,0,3.515,0,2.367,2.367,0,0,0,.688-1.732,2.2,2.2,0,0,0-.688-1.657A2.44,2.44,0,0,0,121.566,0m-2.139,22.138h4.432V5.8l-4.432,1.28ZM51.041,13.253c.382-.979.764-2.033,1.146-3.012.382-1.054.764-1.958,1.07-2.786.306-.753.611-1.506.84-2.184.229-.6.458-1.054.535-1.28.076.226.306.6.535,1.28.306.753.611,1.431.84,2.184l1.07,2.786c.382,1.054.764,2.033,1.146,3.012Zm12.225.753c-.535-1.355-1.07-2.635-1.6-3.916-.458-1.13-.993-2.334-1.452-3.539-.382-.979-.764-1.882-1.223-2.786-.306-.6-.535-1.28-.84-1.883C57.689.828,57.459.377,57.459.377H51.805s-.229.452-.688,1.506a14.117,14.117,0,0,0-.84,1.883c-.382.9-.84,1.883-1.223,2.786C48.6,7.605,48.137,8.81,47.6,10.09s-1.07,2.635-1.6,3.916c-.535,1.355-1.07,2.711-1.6,4.142-.535,1.355-.993,2.711-1.452,3.991H47.6l1.834-4.819H59.828l1.834,4.819h4.661c-.458-1.355-.993-2.711-1.528-3.991-.458-1.431-.993-2.786-1.528-4.142M27.966,0a2.571,2.571,0,0,0-1.757.678,2.2,2.2,0,0,0-.688,1.657,2.493,2.493,0,0,0,.688,1.732,2.571,2.571,0,0,0,1.757.678,2.44,2.44,0,0,0,1.757-.678,2.367,2.367,0,0,0,.688-1.732A2.2,2.2,0,0,0,29.723.678,2.44,2.44,0,0,0,27.966,0M25.75,22.138h4.432V5.8L25.75,7.078ZM8.023,13.253c.382-.979.764-2.033,1.146-3.012.382-1.054.764-1.958,1.07-2.786s.611-1.581.84-2.184.458-1.054.535-1.28c.076.226.306.6.535,1.28.306.753.611,1.431.84,2.184.306.828.688,1.807,1.07,2.786.382,1.054.764,2.033,1.146,3.012Zm12.225.753c-.535-1.355-1.07-2.635-1.6-3.916s-.993-2.41-1.452-3.539c-.382-.9-.764-1.882-1.146-2.786-.306-.6-.535-1.28-.84-1.883-.229-.527-.458-.979-.688-1.506H8.863s-.229.452-.688,1.506c-.229.452-.458,1.054-.84,1.883-.458.9-.84,1.883-1.223,2.786C5.654,7.605,5.2,8.81,4.661,10.09s-1.07,2.635-1.6,3.916c-.535,1.355-1.07,2.711-1.6,4.142C.917,19.5.458,20.858,0,22.138H4.661l1.834-4.819H16.886l1.834,4.819h4.661c-.458-1.355-.993-2.711-1.452-3.991-.611-1.431-1.146-2.786-1.681-4.142M43.782,9.563c.458-1.054.917-2.108,1.3-3.087a.074.074,0,0,1,.076-.075,6.886,6.886,0,0,0-1.987-.6,12.673,12.673,0,0,0-1.681-.151,14.745,14.745,0,0,0-2.674.226,12.2,12.2,0,0,0-2.139.6c-.611.226-1.146.452-1.528.6a3.483,3.483,0,0,1-.688.376V21.988h4.432V9.94c.153-.075.535-.226.993-.452a6.611,6.611,0,0,1,2.063-.3,3.773,3.773,0,0,1,.917.075c.306.075.611.075.917.151-.076.151-.076.151,0,.151M85.2,40.285a3.864,3.864,0,0,1-.764,2.485,2.724,2.724,0,0,1-2.292.979,2.923,2.923,0,0,1-2.445-1.129,4.484,4.484,0,0,1-.84-2.937,6.894,6.894,0,0,1,.229-1.807,3.933,3.933,0,0,1,.764-1.355,4,4,0,0,1,1.3-.9,5.084,5.084,0,0,1,1.91-.3,7.536,7.536,0,0,1,1.375.075c.382.075.611.075.688.151Zm24.451-7.605L105.9,33.734v9.789h-4.355A2.584,2.584,0,0,1,100.4,43.3a1.342,1.342,0,0,1-.688-.6,2.974,2.974,0,0,1-.306-.979,7.631,7.631,0,0,1-.076-1.28V32.68l-3.744,1.054v6.777a6.4,6.4,0,0,1-.076,1.28,3.688,3.688,0,0,1-.306.979,1.8,1.8,0,0,1-.688.6,2.584,2.584,0,0,1-1.146.226H89.016V33.885a4.273,4.273,0,0,0-.611-.3,7.033,7.033,0,0,0-1.223-.452,10.642,10.642,0,0,0-1.91-.376,13.772,13.772,0,0,0-2.6-.151,8.427,8.427,0,0,0-3.209.527,7.368,7.368,0,0,0-2.445,1.506,6.909,6.909,0,0,0-1.528,2.334,8.343,8.343,0,0,0-.535,3.163A6.841,6.841,0,0,0,75.492,43,5.638,5.638,0,0,0,76.867,45.1a5.984,5.984,0,0,0,1.987,1.28,6.7,6.7,0,0,0,2.445.452,5.149,5.149,0,0,0,1.6-.226,5.96,5.96,0,0,0,1.223-.527c.306-.226.611-.376.764-.527s.306-.3.306-.376v1.506h8.94a5.814,5.814,0,0,0,1.987-.376,2.951,2.951,0,0,0,1.452-1.431,3.161,3.161,0,0,0,1.375,1.431,4.674,4.674,0,0,0,1.834.376h8.787Zm-12,15.286a1.97,1.97,0,0,0-1.452.6A2.042,2.042,0,0,0,95.587,50,1.915,1.915,0,0,0,96.2,51.43a2.1,2.1,0,0,0,1.452.6,2.29,2.29,0,0,0,1.528-.6A2.042,2.042,0,0,0,99.79,50a1.915,1.915,0,0,0-.611-1.431,2.446,2.446,0,0,0-1.528-.6M48.672,43.674a8.534,8.534,0,0,1-3.591-.075V35.993a4.51,4.51,0,0,1,3.286-.678c1.834.377,3.056,1.732,3.056,4.367a3.83,3.83,0,0,1-2.751,3.991m18.8-.075H64.947a2.584,2.584,0,0,1-1.146-.226,1.342,1.342,0,0,1-.688-.6,2.975,2.975,0,0,1-.306-.979,6.791,6.791,0,0,1-.076-1.28V27.635l-3.744,1.054V40.511a6.4,6.4,0,0,1-.076,1.28,3.688,3.688,0,0,1-.306.979,1.8,1.8,0,0,1-.688.6,2.584,2.584,0,0,1-1.146.226H54.25a7.928,7.928,0,0,0,.917-3.991c0-4.066-2.369-6.626-5.807-7a9.671,9.671,0,0,0-4.432.678V27.635l-3.668,1.054V43.523H39.733a2.584,2.584,0,0,1-1.146-.226,1.342,1.342,0,0,1-.688-.6,2.974,2.974,0,0,1-.306-.979,7.632,7.632,0,0,1-.076-1.28V32.68l-3.744,1.054v6.777a6.4,6.4,0,0,1-.076,1.28,3.689,3.689,0,0,1-.306.979,1.8,1.8,0,0,1-.688.6,2.584,2.584,0,0,1-1.146.226H27.2V32.68l-3.744,1.054v12.8a1.982,1.982,0,0,1-.611,1.657,2.533,2.533,0,0,1-1.6.452,7.726,7.726,0,0,1-1.223-.151,1.687,1.687,0,0,1-.688-.226l-.917,2.485a3.239,3.239,0,0,0,.382.151c.229.075.458.151.764.226s.688.151,1.07.226a6.667,6.667,0,0,0,1.223.075A8.445,8.445,0,0,0,23.84,51.2a3.659,3.659,0,0,0,1.681-.9,4.594,4.594,0,0,0,1.146-1.657,6.159,6.159,0,0,0,.458-2.56v.6h5.2a5.814,5.814,0,0,0,1.987-.376,2.951,2.951,0,0,0,1.452-1.431,3.161,3.161,0,0,0,1.375,1.431,4.675,4.675,0,0,0,1.834.376H57.612A5.814,5.814,0,0,0,59.6,46.31a2.951,2.951,0,0,0,1.452-1.431,3.161,3.161,0,0,0,1.375,1.431,4.675,4.675,0,0,0,1.834.376h6.953V27.635l-3.744,1.054ZM92,47.966a1.97,1.97,0,0,0-1.452.6A2.042,2.042,0,0,0,89.933,50a1.915,1.915,0,0,0,.611,1.431,2.1,2.1,0,0,0,1.452.6,2.29,2.29,0,0,0,1.528-.6A2.042,2.042,0,0,0,94.136,50a1.915,1.915,0,0,0-.611-1.431,2.29,2.29,0,0,0-1.528-.6m11.232,0a2.29,2.29,0,0,0-1.528.6A2.043,2.043,0,0,0,101.089,50a1.915,1.915,0,0,0,.611,1.431,2.15,2.15,0,0,0,1.528.6,1.97,1.97,0,0,0,1.452-.6A2.042,2.042,0,0,0,105.291,50a1.915,1.915,0,0,0-.611-1.431,1.97,1.97,0,0,0-1.452-.6m36.371-19.2V46.686h3.744V27.635Zm-6.648,13.027a1.982,1.982,0,0,1-.611,1.657,2.533,2.533,0,0,1-1.6.452h-6.495c-.153-.151-.306-.226-.458-.376a4.089,4.089,0,0,1-.84-1.355,5.032,5.032,0,0,1-.306-1.958,4.943,4.943,0,0,1,1.07-3.313,3.463,3.463,0,0,1,2.827-1.129,3.75,3.75,0,0,1,1.375.226c.382.151.764.3,1.07.452l1.452-2.786a4.544,4.544,0,0,0-1.375-.678,9.3,9.3,0,0,0-2.9-.376,7.629,7.629,0,0,0-2.9.527,7.059,7.059,0,0,0-3.9,3.916,8.343,8.343,0,0,0-.611,3.163,8.451,8.451,0,0,0,.611,3.238l.229.452h-3.438V32.68L112.4,33.734v12.8a1.982,1.982,0,0,1-.611,1.657,2.533,2.533,0,0,1-1.6.452,5.98,5.98,0,0,1-1.146-.151l-.688-.226-.917,2.485a3.239,3.239,0,0,0,.382.151c.229.075.458.151.764.226s.688.151,1.07.226a6.668,6.668,0,0,0,1.223.075,8.445,8.445,0,0,0,1.987-.226,3.659,3.659,0,0,0,1.681-.9,4.593,4.593,0,0,0,1.146-1.657,6.159,6.159,0,0,0,.458-2.56v.6h15.282a8.445,8.445,0,0,0,1.987-.226,3.659,3.659,0,0,0,1.681-.9,5.361,5.361,0,0,0,1.146-1.657,6.407,6.407,0,0,0,.458-2.56v-13.7l-3.744,1.054ZM85.119,31.174a2.29,2.29,0,0,0,1.528-.6,2.043,2.043,0,0,0,.611-1.431,1.915,1.915,0,0,0-.611-1.431,2.15,2.15,0,0,0-1.528-.6,1.97,1.97,0,0,0-1.452.6,2.043,2.043,0,0,0-.611,1.431,1.915,1.915,0,0,0,.611,1.431,1.819,1.819,0,0,0,1.452.6m-78.09.377a2.29,2.29,0,0,0,1.528-.6,2.043,2.043,0,0,0,.611-1.431,1.915,1.915,0,0,0-.611-1.431,2.15,2.15,0,0,0-1.528-.6,1.97,1.97,0,0,0-1.452.6,2.042,2.042,0,0,0-.611,1.431,1.915,1.915,0,0,0,.611,1.431,1.97,1.97,0,0,0,1.452.6m72.512-.377a2.29,2.29,0,0,0,1.528-.6,2.042,2.042,0,0,0,.611-1.431,1.915,1.915,0,0,0-.611-1.431,2.15,2.15,0,0,0-1.528-.6,1.97,1.97,0,0,0-1.452.6,2.042,2.042,0,0,0-.611,1.431,1.915,1.915,0,0,0,.611,1.431,1.724,1.724,0,0,0,1.452.6M10.315,38.779c0,2.334,0,5.045-3.286,5.045s-3.286-2.635-3.286-5.045V35.617L0,36.671v2.334a9.381,9.381,0,0,0,.611,3.464,7.655,7.655,0,0,0,1.528,2.56A5.146,5.146,0,0,0,4.432,46.46a8.1,8.1,0,0,0,2.751.452,9.837,9.837,0,0,0,2.6-.377A5.185,5.185,0,0,0,12,45.18,6.619,6.619,0,0,0,13.524,42.7a11.266,11.266,0,0,0,.611-3.84v-6.1L10.392,33.81Zm25.521,9.187a1.97,1.97,0,0,0-1.452.6A2.043,2.043,0,0,0,33.773,50a1.915,1.915,0,0,0,.611,1.431,2.1,2.1,0,0,0,1.452.6,2.29,2.29,0,0,0,1.528-.6A2.042,2.042,0,0,0,37.975,50a1.915,1.915,0,0,0-.611-1.431,2.29,2.29,0,0,0-1.528-.6M20.63,27.635l-3.744,1.054v18H20.63Zm9.551,20.331a1.97,1.97,0,0,0-1.452.6A2.042,2.042,0,0,0,28.118,50a1.915,1.915,0,0,0,.611,1.431,2.1,2.1,0,0,0,1.452.6,2.29,2.29,0,0,0,1.528-.6A2.042,2.042,0,0,0,32.321,50a1.915,1.915,0,0,0-.611-1.431,2.15,2.15,0,0,0-1.528-.6" transform="translate(-3041 -2936)" fill="#c3c3cf" opacity="0.5"/>
  </g>
</svg>
